<svg xmlns="http://www.w3.org/2000/svg">
<defs>
<font id="DBYordX-Medium" horiz-adv-x="0" >
  <font-face 
    font-family="DB Yord X Medium"
    font-weight="500"
    font-stretch="normal"
    units-per-em="4096"
    panose-1="2 0 6 6 0 0 0 2 0 4"
    ascent="3276"
    descent="-820"
    x-height="1965"
    cap-height="3114"
    bbox="-2016 -1194 4363 3742.07"
    underline-thickness="143"
    underline-position="-674"
    unicode-range="U+0020-25CC"
  />
<missing-glyph horiz-adv-x="1899" 
d="M1936 1835v-65h26q32 0 33 43q0 5 -7 13.5t-26 8.5h-26zM1949 1765h-13v-63h-22v157h48q54 0 56 -46q0 -32 -14.5 -40t-32.5 -8l47 -63h-23zM1962 1680q29 0 49.5 9t32.5 22.5t17 29.5t5 29q0 51 -25 81.5t-79 30.5q-51 0 -77 -29t-26 -83q0 -38 24.5 -64t78.5 -26z
M1962 1894q58 0 87 -35t29 -89q0 -18 -6 -36.5t-20.5 -33.5t-36 -24t-53.5 -9q-27 0 -49 9t-37 24t-22.5 33.5t-7.5 36.5q0 51 31 87.5t85 36.5zM923 1450q50 -5 110 -10.5t126.5 -17t132 -23.5t125.5 -28t106 -33q45 -16 72 -39q-45 90 -119 162t-164 120t-192 72
q-99 27 -202 27q-77 0 -152.5 -16t-145.5 -45t-129 -76t-105 -108q83 10 164.5 14.5t166.5 4.5q51 0 103 0.5t103 -4.5zM1720 1813v-653q-110 35 -236.5 64.5t-267.5 52t-291.5 36t-306.5 13.5q-112 0 -217 -7t-212 -20q27 102 87 196t152 164.5t213 112t268 41.5
q144 0 258.5 -33t199 -80t143.5 -100q58 -50 85 -94q0 -5 0 11v42.5t-1.5 61.5t-1.5 69.5t-1 67t-1 55.5h130zM704 582q0 38 -27 56t-55 18q-32 0 -53.5 -17.5t-21.5 -56.5q0 -38 22.5 -52.5t52.5 -14.5q13 0 28.5 2.5t26.5 11.5t19 22t8 31zM147 637q0 107 41.5 188.5
t110.5 137t156 83.5t177 28t177 -25t152 -75.5t105.5 -129t40.5 -188.5v-531h483v926h130v-1046h-867v120h133v545q0 67 -27.5 119.5t-74 86t-109.5 52t-138 18.5q-67 0 -133 -20t-114.5 -56t-79 -90t-30.5 -124v-490l267 264q-13 5 -29 17t-32 31.5t-27 44t-11 59.5
q0 83 51 131.5t133 48.5q40 0 73 -14.5t56 -39.5t34 -57.5t11 -68.5q0 -32 -6 -56t-17.5 -42t-22.5 -32t-21 -22q-5 -5 -27 -24.5t-53.5 -49.5t-70 -67.5t-78.5 -77.5q-50 -45 -103 -97t-114 -109h-146v632z" />
    <glyph glyph-name="plusminus" unicode="&#x2b;&#x2d;" horiz-adv-x="1900" 
d="M1125 1456h537v-320h-537v-552h-347v552h-536v320h536v549h347v-549zM242 123v320h1420v-320h-1420z" />
    <glyph glyph-name="ellipsis" unicode="&#x2e;&#x2e;&#x2e;" horiz-adv-x="3168" 
d="M298 192q0 46 19 89.5t50 74.5t71 52q40 18 90 18q46 0 89.5 -19.5t74.5 -50.5t50.5 -72.5t19.5 -90.5t-19.5 -90t-50.5 -72t-72.5 -50t-90.5 -19t-90 19t-72 50t-50 71t-19 90zM1354 192q0 46 18 89.5t50 74.5t73 50.5t91 19.5q46 0 87.5 -19.5t73.5 -50.5t50.5 -72.5
t18.5 -90.5t-18.5 -90t-50.5 -72t-74.5 -50t-86.5 -19q-46 0 -89 19t-75 50t-50 71t-18 90zM2410 192q0 46 18 89.5t49.5 74.5t74 50.5t89.5 19.5t89.5 -19.5t73.5 -50.5t49.5 -72.5t18.5 -90.5t-18.5 -90t-49.5 -72t-73.5 -50t-88.5 -19q-50 0 -91.5 19t-73 50t-49.5 71
t-18 90z" />
    <glyph glyph-name="lessequal" unicode="&#x3c;&#x3d;" horiz-adv-x="1900" 
d="M1662 659l-1420 506v256l1420 526v-352l-923 -312l923 -310v-314zM1662 211l-1420 501v309l1420 -504v-306z" />
    <glyph glyph-name="greaterequal" unicode="&#x3e;&#x3d;" horiz-adv-x="1900" 
d="M242 973l923 310l-923 312v352l1420 -526v-256l-1420 -506v314zM242 517l1420 504v-309l-1420 -501v306z" />
    <glyph glyph-name="fongmanfunnuthai" unicode="&#xe4f;&#x22;" horiz-adv-x="2219" 
d="M795 2062l-173 402l5 275h370v-677h-202zM1237 2062v677h371l3 -275l-173 -402h-201zM1115 -32q-139 0 -266 24t-241 73t-206.5 126.5t-160 187t-102.5 253.5q-38 144 -38 322q0 179 36.5 323t104 253.5t160 186.5t206.5 126.5t241 72.5t266 23t268 -23t242 -72.5
t207 -126.5t160.5 -186.5t103.5 -253.5t37 -323.5t-37 -322.5t-103.5 -252.5t-160.5 -187t-207 -126.5t-242 -73t-268 -24zM1120 270q144 0 271 38t222.5 119.5t151.5 210.5q56 133 56 316q0 186 -56 316t-151.5 211.5t-222.5 118.5t-271 37t-273.5 -37t-225.5 -118.5
t-152 -212.5t-56 -314.5t56 -314.5t152 -212.5t225.5 -119.5t273.5 -38zM1120 466q-102 0 -194 27t-162 85.5t-110 149.5t-40 225.5t40 226.5t110 150.5t162 85.5t194 27t192 -27t159.5 -85.5t109.5 -152.5q38 -90 38 -224q0 -133 -39 -225t-108.5 -150.5t-159.5 -85.5
t-192 -27zM1117.5 726q48.5 0 92 11.5t75.5 39.5t50.5 71t18.5 106q0 62 -18.5 106t-50.5 72t-76 39t-91 11q-50 0 -93.5 -11t-75 -39t-51.5 -71t-20 -107q0 -62 20 -105.5t51.5 -71.5t75.5 -39.5t92.5 -11.5z" />
    <glyph glyph-name="dochadaphinthuthai" unicode="&#xe0e;&#xe3a;" horiz-adv-x="2067" 
d="M1467 1197q0 128 -21.5 208t-64 124.5t-105 61.5t-146.5 17q-29 0 -70.5 -4t-91.5 -11t-101 -18.5t-101 -24.5v-918q0 -230 -112 -350q-117 -117 -358 -116q-18 0 -45 1t-54 3l-64 4v324q54 -5 95 -5t63 5q45 11 61 47.5t16 88.5v616l174 238h-324v237q125 46 247 85.5
t243 66.5t239.5 43t234.5 16q189 0 318.5 -45t210.5 -130.5t118 -208.5t37 -275v-1648h-1420v291h226l794 -90zM1394 -802q0 51 20 97t53.5 82t78.5 53q45 21 99 21q51 0 96.5 -19t81 -55t53.5 -81t18 -98q0 -51 -18 -97.5t-53.5 -80t-80 -53.5t-98.5 -20t-98.5 20t-78 53.5
t-53.5 80t-20 97.5z" />
    <glyph glyph-name="topatakphintuthai" unicode="&#xe0f;&#xe3a;" horiz-adv-x="2067" 
d="M1456 -371q-35 38 -68.5 62t-67.5 37.5t-66 20.5q-32 5 -62 5q-22 0 -57.5 -6.5t-67.5 -22.5t-61.5 -38.5t-43.5 -57.5h-616v336h137l391 -122q34 50 75 80.5t81 47t77 23.5q35 6 63 6q32 0 67 -3t73.5 -14.5t78.5 -33t77 -56.5l1 1304q0 128 -21.5 208t-64 124.5
t-105 61.5t-146.5 17q-29 0 -70.5 -4t-91.5 -11t-101 -18.5t-101 -24.5v-923q0 -230 -112 -349q-117 -117 -358 -116q-18 0 -45 0.5t-54 3.5l-64 4v323q54 -5 95 -5t63 5q45 11 61 48t16 88v621l174 238h-324v237q125 46 247 85.5t243 66.5t239.5 43t234.5 16
q189 0 318.5 -45t210.5 -130.5t118 -208.5t37 -275l3 -1648h-413zM1394 -802q0 51 20 97t53.5 82t78.5 53q45 21 99 21q51 0 96.5 -19t81 -55t53.5 -81t18 -98q0 -51 -18 -97.5t-53.5 -80t-80 -53.5t-98.5 -20t-98.5 20t-78 53.5t-53.5 80t-20 97.5z" />
    <glyph glyph-name="dochadasarauthai" unicode="&#xe0e;&#xe38;" horiz-adv-x="2067" 
d="M1478 -1165v231q0 27 -2 48.5t-11 36t-26.5 22.5t-49.5 8q-27 0 -61 -5t-69 -14v233q40 11 87.5 21.5t96 14.5t93.5 6.5t77 2.5q80 -5 132 -36t78.5 -71t34.5 -87.5t8 -83.5v-327h-388zM1467 1197q0 128 -21.5 208t-64 124.5t-105 61.5t-146.5 17q-29 0 -70.5 -4
t-91.5 -11t-101 -18.5t-101 -24.5v-918q0 -230 -112 -350q-117 -117 -358 -116q-18 0 -45 1t-54 3l-64 4v324q54 -5 95 -5t63 5q45 11 61 47.5t16 88.5v616l174 238h-324v237q125 46 247 85.5t243 66.5t239.5 43t234.5 16q189 0 318.5 -45t210.5 -130.5t118 -208.5t37 -275
v-1648h-1420v291h226l794 -90z" />
    <glyph glyph-name="topataksarauthai" unicode="&#xe0f;&#xe38;" horiz-adv-x="2067" 
d="M1478 -1165v231q0 27 -2 48.5t-11 36t-26.5 22.5t-48.5 8q-27 0 -59 -5q-35 -5 -72 -14v233q40 11 88 21.5t96 14.5t93 6.5t78 2.5q80 -5 131.5 -36t78 -71t36 -87.5t9.5 -83.5v-327h-391zM1456 -371q-35 38 -68.5 62t-67.5 37.5t-66 20.5q-32 5 -62 5q-22 0 -57.5 -6.5
t-67.5 -22.5t-61.5 -38.5t-43.5 -57.5h-616v336h137l391 -122q34 50 75 80.5t81 47t77 23.5q35 6 63 6q32 0 67 -3t73.5 -14.5t78.5 -33t78 -56.5v1304q0 128 -21.5 208t-64 124.5t-105 61.5t-146.5 17q-29 0 -70.5 -4t-91.5 -11t-101 -18.5t-101 -24.5v-923
q0 -230 -112 -349q-117 -117 -358 -116q-18 0 -45 0.5t-54 3.5l-64 4v323q54 -5 95 -5t63 5q45 11 61 48t16 88v621l174 238h-324v237q125 46 247 85.5t243 66.5t239.5 43t234.5 16q189 0 318.5 -45t210.5 -130.5t118 -208.5t37 -275v-1648h-410z" />
    <glyph glyph-name="dochadasarauuthai" unicode="&#xe0e;&#xe39;" horiz-adv-x="2067" 
d="M766 -582q32 6 65 11.5t68 8t66.5 2.5h53.5q77 0 122.5 -22.5t70.5 -57t30 -82.5q10 -45 5 -93.5t6 -80.5t29.5 -47t43 -20t50.5 -5q72 0 99 31t27 102v265h364v-246q0 -85 -30.5 -156t-93 -120.5t-156.5 -77.5q-90 -24 -215 -24q-102 0 -192.5 17t-153.5 50.5t-97 86.5
q-35 58 -32 134q5 62 -11 85.5t-69 23.5h-26q-16 -5 -24 -5v220zM1467 1197q0 128 -21.5 208t-64 124.5t-105 61.5t-146.5 17q-29 0 -70.5 -4t-91.5 -11t-101 -18.5t-101 -24.5v-918q0 -230 -112 -350q-117 -117 -358 -116q-18 0 -45 1t-54 3l-64 4v324q54 -5 95 -5t63 5
q45 11 61 47.5t16 88.5v616l174 238h-324v237q125 46 247 85.5t243 66.5t239.5 43t234.5 16q189 0 318.5 -45t210.5 -130.5t118 -208.5t37 -275v-1648h-1420v291h226l794 -90z" />
    <glyph glyph-name="topataksarauuthai" unicode="&#xe0f;&#xe39;" horiz-adv-x="2067" 
d="M766 -582q32 6 65 11.5t69 8t67 2.5h54q77 0 121.5 -22.5t69.5 -57t31.5 -80.5t2.5 -95t7 -81t31 -47t45 -20t47 -5q72 0 101 31t29 102v265h363v-246q0 -85 -32 -156t-94.5 -120.5t-154.5 -75.5t-217 -26q-102 0 -191 17t-153 50.5t-99 86.5q-35 58 -32 134
q5 62 -11 85.5t-69 23.5h-22q-16 -5 -28 -5v220zM1456 -371q-35 38 -68.5 62t-67.5 37.5t-66 20.5q-32 5 -62 5q-22 0 -57.5 -6.5t-67.5 -22.5t-61.5 -38.5t-43.5 -57.5h-616v336h137l391 -122q34 50 75 80.5t81 47t77 23.5q35 6 63 6q32 0 67 -3t73.5 -14.5t78.5 -33
t78 -56.5v1304q0 128 -21.5 208t-64 124.5t-105 61.5t-146.5 17q-29 0 -70.5 -4t-91.5 -11t-101 -18.5t-101 -24.5v-923q0 -230 -112 -349q-117 -117 -358 -116q-18 0 -45 0.5t-54 3.5l-64 4v323q54 -5 95 -5t63 5q45 11 61 48t16 88v621l174 238h-324v237q125 46 247 85.5
t243 66.5t239.5 43t234.5 16q189 0 318.5 -45t210.5 -130.5t118 -208.5t37 -275v-1648h-410z" />
    <glyph glyph-name=".notdef" horiz-adv-x="1899" 
d="M1936 1835v-65h26q32 0 33 43q0 5 -7 13.5t-26 8.5h-26zM1949 1765h-13v-63h-22v157h48q54 0 56 -46q0 -32 -14.5 -40t-32.5 -8l47 -63h-23zM1962 1680q29 0 49.5 9t32.5 22.5t17 29.5t5 29q0 51 -25 81.5t-79 30.5q-51 0 -77 -29t-26 -83q0 -38 24.5 -64t78.5 -26z
M1962 1894q58 0 87 -35t29 -89q0 -18 -6 -36.5t-20.5 -33.5t-36 -24t-53.5 -9q-27 0 -49 9t-37 24t-22.5 33.5t-7.5 36.5q0 51 31 87.5t85 36.5zM923 1450q50 -5 110 -10.5t126.5 -17t132 -23.5t125.5 -28t106 -33q45 -16 72 -39q-45 90 -119 162t-164 120t-192 72
q-99 27 -202 27q-77 0 -152.5 -16t-145.5 -45t-129 -76t-105 -108q83 10 164.5 14.5t166.5 4.5q51 0 103 0.5t103 -4.5zM1720 1813v-653q-110 35 -236.5 64.5t-267.5 52t-291.5 36t-306.5 13.5q-112 0 -217 -7t-212 -20q27 102 87 196t152 164.5t213 112t268 41.5
q144 0 258.5 -33t199 -80t143.5 -100q58 -50 85 -94q0 -5 0 11v42.5t-1.5 61.5t-1.5 69.5t-1 67t-1 55.5h130zM704 582q0 38 -27 56t-55 18q-32 0 -53.5 -17.5t-21.5 -56.5q0 -38 22.5 -52.5t52.5 -14.5q13 0 28.5 2.5t26.5 11.5t19 22t8 31zM147 637q0 107 41.5 188.5
t110.5 137t156 83.5t177 28t177 -25t152 -75.5t105.5 -129t40.5 -188.5v-531h483v926h130v-1046h-867v120h133v545q0 67 -27.5 119.5t-74 86t-109.5 52t-138 18.5q-67 0 -133 -20t-114.5 -56t-79 -90t-30.5 -124v-490l267 264q-13 5 -29 17t-32 31.5t-27 44t-11 59.5
q0 83 51 131.5t133 48.5q40 0 73 -14.5t56 -39.5t34 -57.5t11 -68.5q0 -32 -6 -56t-17.5 -42t-22.5 -32t-21 -22q-5 -5 -27 -24.5t-53.5 -49.5t-70 -67.5t-78.5 -77.5q-50 -45 -103 -97t-114 -109h-146v632z" />
    <glyph glyph-name=".null" 
 />
    <glyph glyph-name="nonmarkingreturn" horiz-adv-x="1296" 
 />
    <glyph glyph-name="space" unicode=" " horiz-adv-x="1260" 
 />
    <glyph glyph-name="exclam" unicode="!" horiz-adv-x="1092" 
d="M325 181q0 90 66.5 156t157.5 66t157.5 -66.5t66.5 -157.5q0 -94 -67 -158q-66 -66 -157 -66q-94 0 -159 65t-65 161zM365 555v1936h365v-1936h-365z" />
    <glyph glyph-name="quotedbl" unicode="&#x22;" horiz-adv-x="1352" 
d="M520 1490h-274l-72 1001h413zM1109 1490h-274l-69 1001h412z" />
    <glyph glyph-name="numbersign" unicode="#" horiz-adv-x="2035" 
d="M1978 1790v-283h-389l-61 -464h358v-283h-395l-93 -771l-283 35l90 736h-477l-96 -771l-286 35l89 742h-368v277h410l56 464h-371v283h408l89 724l282 -37l-85 -687h475l90 724l281 -37l-84 -687h360zM1294 1507h-475l-56 -464h479z" />
    <glyph glyph-name="dollar" unicode="$" horiz-adv-x="2035" 
d="M1198 2845v-319q190 -32 311 -125.5t232 -290.5l-314 -177q-144 258 -373 257q-144 0 -236 -82t-92 -210q0 -114 76 -191q77 -74 300 -174q195 -88 322.5 -167.5t193.5 -151.5q184 -197 180 -475q0 -274 -163 -483q-163 -208 -437 -280v-336h-281v325
q-315 51 -482.5 216.5t-245.5 512.5l353 74q74 -246 180 -349q112 -101 291 -101q178 0 297 117q117 112 117 291q0 158 -96 255q-50 46 -148 106t-252 129q-312 139 -409 258q-157 174 -159 420q0 114 37.5 215.5t107.5 183t173 141t236 92.5v319h281z" />
    <glyph glyph-name="percent" unicode="%" horiz-adv-x="3022" 
d="M123 1938q0 234 179 404q184 173 421 173q246 0 424 -173q178 -174 176 -414q0 -242 -176.5 -414t-428.5 -172q-245 0 -420 176q-175 175 -175 420zM405 1931q0 -134 93.5 -228.5t227.5 -94.5q130 0 223.5 94.5t93.5 225.5q0 130 -93.5 224t-226.5 94t-225.5 -93.5
t-92.5 -221.5zM2138 2533l179 -101l-1427 -2472l-178 107zM1701 573q0 230 176 403q184 174 421 176q246 0 425 -178q178 -173 178 -412q0 -245 -179 -415q-174 -173 -426 -169q-246 0 -420.5 174.5t-174.5 420.5zM1982 566q0 -136 92 -230q94 -94 227 -91q133 0 224 91
q94 94 96 226q0 133 -96 227q-91 94 -227 94q-130 0 -223 -93.5t-93 -223.5z" />
    <glyph glyph-name="ampersand" unicode="&#x26;" horiz-adv-x="2411" 
d="M1277 1384l448 -539l16 16q74 78 137.5 152.5t124.5 156.5l243 -253q-46 -66 -118 -150.5t-174 -196.5l460 -570h-467l-249 304q-342 -354 -711 -354q-331 0 -561 213q-226 213 -224 525q0 371 356 621l164 112q5 2 11 7.5t22 16.5q-246 264 -246 517.5t163 410.5
q168 157 432 158q258 0 426 -153.5t168 -385.5q0 -162 -92 -294q-92 -130 -329 -314zM979 1174l-21 -14q-230 -158 -315 -258q-83 -96 -83 -203q0 -157 125 -285q130 -123 285 -123q218 0 502 285zM1059 1651l29 19q78 61 131 106t75 74q50 58 50 148q0 99 -66.5 159.5
t-178.5 60.5q-102 0 -171 -63q-67 -58 -67 -152q0 -110 85 -216l94 -113q6 -7 19 -23z" />
    <glyph glyph-name="quotesingle" unicode="'" horiz-adv-x="760" 
d="M520 1490h-274l-72 1001h413z" />
    <glyph glyph-name="parenleft" unicode="(" horiz-adv-x="1209" 
d="M650 2750l336 -129q-174 -421 -247 -775q-35 -181 -53.5 -380.5t-18.5 -435.5q0 -237 18.5 -436.5t53.5 -379.5q69 -354 247 -774l-336 -130q-354 738 -352 1720q-2 982 352 1720z" />
    <glyph glyph-name="parenright" unicode=")" horiz-adv-x="1209" 
d="M560 -690l-336 130q178 421 246 774q72 354 72 816q0 459 -72 816q-72 354 -246 775l336 129q352 -738 349 -1720q3 -982 -349 -1720z" />
    <glyph glyph-name="asterisk" unicode="*" horiz-adv-x="2035" 
d="M880 2290l-24 433h325l-27 -433l409 156l99 -308l-420 -109l275 -339l-263 -189l-236 368l-236 -368l-262 189l277 337l-423 111l101 308z" />
    <glyph glyph-name="plus" unicode="+" horiz-adv-x="2035" 
d="M158 1144v301h711v696h301v-696h707v-301h-707v-696h-301v696h-711z" />
    <glyph glyph-name="comma" unicode="," horiz-adv-x="1016" 
d="M453 466l321 -125l-459 -922l-243 101z" />
    <glyph glyph-name="hyphen" unicode="-" horiz-adv-x="716" 
d="M0 957h718v-317h-718v317z" />
    <glyph glyph-name="period" unicode="." horiz-adv-x="1016" 
d="M285 181q0 90 65.5 156t158.5 66q94 0 159.5 -66.5t65.5 -157.5q0 -94 -67 -158q-66 -66 -158 -66q-94 0 -159 65t-65 161z" />
    <glyph glyph-name="slash" unicode="/" horiz-adv-x="1708" 
d="M1400 2750l301 -129l-1427 -3303l-296 135z" />
    <glyph glyph-name="zero" unicode="0" horiz-adv-x="2035" 
d="M139 1261q0 595 277 950q248 320 603 320q354 0 600 -320q278 -354 279 -966q0 -610 -279 -963q-246 -320 -598 -322q-352 0 -605 322q-277 353 -277 979zM509 1259q0 -414 142 -688q146 -270 368 -270q219 0 365 270q146 267 146 677q0 408 -146 677q-146 267 -365 265
q-219 0 -365 -265q-145 -268 -145 -666z" />
    <glyph glyph-name="one" unicode="1" horiz-adv-x="2035" 
d="M896 2138h-432l206 353h600v-2491h-374v2138z" />
    <glyph glyph-name="two" unicode="2" horiz-adv-x="2035" 
d="M829 354h925v-354h-1671l863 1046q128 157 215 271.5t132 192.5q91 152 91 271q0 174 -123 291.5t-303 117.5q-379 0 -433 -444h-373q90 786 794 785q341 0 572 -214q230 -214 231 -536q0 -203 -107 -399q-54 -101 -160 -240.5t-268 -330.5z" />
    <glyph glyph-name="three" unicode="3" horiz-adv-x="2035" 
d="M856 1155v322q237 0 320 53q147 94 146 302q0 158 -106 258q-106 102 -274 100q-157 0 -238 -73q-83 -77 -126 -263h-375q58 352 238.5 515.5t505.5 163.5q326 0 536 -192q206 -192 207 -495q0 -342 -272 -534q309 -184 308 -590q0 -336 -224.5 -549t-578.5 -213
q-450 0 -667 331q-90 139 -117 383h365q29 -181 141 -277t291 -96q184 0 302 123q122 123 119 314q0 253 -179 358q-103 59 -322 59z" />
    <glyph glyph-name="four" unicode="4" horiz-adv-x="2035" 
d="M1629 694h265v-340h-265v-354h-376v354h-1221l1597 2321v-1981zM1253 694v834l-575 -834h575z" />
    <glyph glyph-name="five" unicode="5" horiz-adv-x="2035" 
d="M1736 2138h-766l-124 -413q29 5 54 7t46 2q363 0 595 -246q234 -245 233 -624q0 -394 -264.5 -649t-664.5 -255q-498 0 -783 466l285 240q117 -202 237 -285q118 -80 291 -80q226 0 379 158q155 163 156 397q0 237 -154 389q-152 157 -378 157q-256 0 -436 -221h-127
l392 1310h1029v-353z" />
    <glyph glyph-name="six" unicode="6" horiz-adv-x="2035" 
d="M1298 2576l275 -206l-597 -808q50 6 83.5 8.5t54.5 2.5q302 0 523 -231q219 -229 221 -552q0 -342 -247 -588q-245 -242 -585 -242q-338 0 -594 242q-248 240 -248 566q0 296 242 626zM1491 766q0 197 -137 336q-139 139 -335 140q-197 0 -333.5 -138.5t-136.5 -332.5
q0 -195 136.5 -332.5t335.5 -137.5q192 0 329 137q141 138 141 328z" />
    <glyph glyph-name="seven" unicode="7" horiz-adv-x="2035" 
d="M1400 2138h-1230v353h1857l-1569 -2576l-301 187z" />
    <glyph glyph-name="eight" unicode="8" horiz-adv-x="2035" 
d="M573 1294q-274 192 -272 530q0 302 208 506q208 202 520 201q309 0 517 -201q206 -202 206 -509q0 -320 -274 -523q150 -80 237 -236q85 -155 87 -350q0 -331 -217 -541.5t-553 -210.5q-346 0 -571.5 213t-223.5 534q0 419 336 587zM651 1824q0 -158 111 -269
q110 -110 264 -109q155 0 263.5 110.5t108.5 262.5q0 155 -110 263t-262 108t-263.5 -109.5t-111.5 -256.5zM605 722q0 -173 121 -296q122 -123 293 -125q170 0 293 123q122 122 120 293q0 173 -121.5 293.5t-291.5 120.5t-291 -123q-123 -118 -123 -286z" />
    <glyph glyph-name="nine" unicode="9" horiz-adv-x="2035" 
d="M741 -85l-275 207l596 808q-50 -5 -83 -8.5t-54 -3.5q-302 0 -523 231q-219 229 -218 552q0 342 242 585q245 246 587 245q341 0 593 -241q251 -240 252 -567q0 -291 -247 -627zM549 1726q0 -202 136 -337q139 -139 334 -139t331 137q139 139 141 333q0 195 -141 336
q-136 136 -332 134q-192 0 -333 -134q-136 -141 -136 -330z" />
    <glyph glyph-name="colon" unicode=":" horiz-adv-x="1016" 
d="M285 181q0 90 65.5 156t158.5 66q94 0 159.5 -66.5t65.5 -157.5q0 -94 -67 -158q-66 -66 -158 -66q-94 0 -159 65t-65 161zM285 1394q0 88 65.5 154t158.5 66q94 0 159.5 -65.5t65.5 -158.5q0 -94 -67 -158q-66 -66 -159.5 -66t-158 66t-64.5 162z" />
    <glyph glyph-name="semicolon" unicode=";" horiz-adv-x="1016" 
d="M453 466l321 -125l-459 -922l-243 101zM363 1394q0 90 67.5 155t156.5 65q94 0 160 -65.5t66 -158.5q0 -94 -65 -159t-161 -65q-94 0 -160 66q-64 68 -64 162z" />
    <glyph glyph-name="less" unicode="&#x3c;" horiz-adv-x="2035" 
d="M1830 2213v-371l-1225 -578l1225 -579v-370l-1619 792v317z" />
    <glyph glyph-name="equal" unicode="=" horiz-adv-x="2035" 
d="M158 1421v272h1719v-272h-1719zM158 896v274h1719v-274h-1719z" />
    <glyph glyph-name="greater" unicode="&#x3e;" horiz-adv-x="2035" 
d="M211 315v370l1218 579l-1218 579v368l1616 -790v-317z" />
    <glyph glyph-name="question" unicode="?" horiz-adv-x="1611" 
d="M998 1163h364q0 -246 -130 -397q-170 -192 -432 -193q-234 0 -390 161q-158 162 -159 399q0 186 98 299q101 114 339 202q237 85 301.5 138.5t63.5 165.5q0 112 -67.5 176.5t-177.5 64.5q-112 0 -177.5 -64.5t-65.5 -175.5q0 -50 19 -141h-376q-5 43 -5.5 75.5t-0.5 57.5
q0 256 169 426q170 168 434 168t440 -170.5t176 -426.5q0 -264 -178 -426q-112 -102 -419 -196q-211 -66 -210 -202q0 -40 15.5 -74.5t41 -61t60.5 -40.5t74 -14q177 1 193 249zM587 181q0 90 65.5 156t157.5 66t158.5 -66.5t66.5 -157.5q0 -94 -64.5 -159t-157.5 -65
q-96 0 -162 66q-64 66 -64 160z" />
    <glyph glyph-name="at" unicode="@" horiz-adv-x="2904" 
d="M2141 1894l-103 -843q-5 -46 -7 -89.5t-2 -81.5q0 -122 99 -120q139 0 256 198q112 195 112 444q0 397 -278 652q-275 256 -704 255q-448 0 -754 -306q-304 -304 -306 -753q0 -248 111 -488q112 -224 310 -370q267 -192 671 -192q379 0 790 190l26 13l81 -233l-17 -8
q-421 -202 -879 -202q-506 0 -843 242q-248 179 -390 452q-139 291 -140 591q0 547 386 917.5t950 370.5q522 0 873 -317.5t351 -793.5q0 -368 -192 -628q-192 -267 -449 -269q-206 0 -279 197q-200 -202 -443 -205q-267 0 -443 193q-174 190 -176 487q0 318 195 518
q195 211 491 213q270 0 439 -213l21 179h243zM1814 1275q0 150 -102 248q-106 101 -256 101q-163 0 -267 -125q-102 -123 -103 -318q0 -168 83.5 -276t214.5 -108q170 0 300 144t130 334z" />
    <glyph glyph-name="A" unicode="A" horiz-adv-x="3056" 
d="M2202 757h-1333l-347 -757h-506l1541 3309l1485 -3309h-512zM2010 1198l-463 1058l-483 -1058h946z" />
    <glyph glyph-name="B" unicode="B" horiz-adv-x="2438" 
d="M371 0v3114h469q314 0 499 -50q186 -50 317 -163q130 -118 208 -296q78 -179 78 -363q0 -336 -257 -567q248 -85 392 -296q146 -211 145 -488q0 -365 -257 -617q-157 -155 -351 -216q-213 -58 -529 -58h-714zM842 1776h148q262 0 384 115t122 343q0 219 -125.5 333.5
t-362.5 114.5h-166v-906zM842 442h291q318 0 469 124q157 134 156 343q0 202 -152 339q-146 134 -526 134h-238v-940z" />
    <glyph glyph-name="C" unicode="C" horiz-adv-x="2891" 
d="M2672 2946v-559q-405 342 -842 344q-480 0 -809 -345q-330 -342 -328 -840q0 -488 330.5 -826t808.5 -338q248 0 421 82q96 40 200.5 108t218.5 166v-568q-403 -226 -846 -226q-666 0 -1138 466q-470 469 -470 1131q0 595 393 1062q483 571 1253 571q418 1 808 -228z" />
    <glyph glyph-name="D" unicode="D" horiz-adv-x="2996" 
d="M371 0v3114h655q470 0 742 -95q293 -90 530 -309q482 -438 481 -1153q0 -718 -501 -1163q-253 -222 -529 -306q-258 -88 -731 -88h-647zM842 442h212q315 0 527 67q208 69 379 224q347 315 347 824q0 510 -342 830q-309 282 -911 283h-212v-2228z" />
    <glyph glyph-name="E" unicode="E" horiz-adv-x="2332" 
d="M2090 2670h-1248v-745h1212v-442h-1212v-1041h1248v-442h-1719v3114h1719v-444z" />
    <glyph glyph-name="F" unicode="F" horiz-adv-x="2096" 
d="M1926 2670h-1084v-745h1046v-442h-1046v-1483h-471v3114h1555v-444z" />
    <glyph glyph-name="G" unicode="G" horiz-adv-x="3475" 
d="M1973 1622h1286v-104q0 -352 -83 -622q-80 -248 -270 -466q-435 -488 -1103 -488q-654 0 -1120 471q-466 475 -465 1137q0 677 475 1149q472 475 1153 475q363 0 680 -150q302 -150 594 -483l-333 -322q-382 510 -934 512q-493 0 -829 -344q-334 -334 -334 -837
q0 -520 372 -856q349 -314 757 -313q347 0 623 233q275 237 308 564h-777v444z" />
    <glyph glyph-name="H" unicode="H" horiz-adv-x="3025" 
d="M842 1894h1344v1220h468v-3114h-468v1454h-1344v-1454h-471v3114h471v-1220z" />
    <glyph glyph-name="I" unicode="I" horiz-adv-x="1216" 
d="M842 3114v-3114h-471v3114h471z" />
    <glyph glyph-name="J" unicode="J" horiz-adv-x="1692" 
d="M1322 3114v-2016q0 -360 -52 -538q-51 -202 -172 -341q-235 -275 -623 -275q-296 0 -552 152l229 402q173 -114 323 -116q208 0 288 160q85 158 87 556v2016h472z" />
    <glyph glyph-name="K" unicode="K" horiz-adv-x="2734" 
d="M842 1870l1212 1244h628l-1407 -1412l1415 -1702h-629l-1122 1384l-97 -96v-1288h-471v3114h471v-1244z" />
    <glyph glyph-name="L" unicode="L" horiz-adv-x="1828" 
d="M842 3114v-2672h916v-442h-1387v3114h471z" />
    <glyph glyph-name="M" unicode="M" horiz-adv-x="3968" 
d="M264 0l654 3347l1069 -2419l1109 2419l587 -3347h-481l-301 1880l-920 -2024l-896 2026l-335 -1882h-486z" />
    <glyph glyph-name="N" unicode="N" horiz-adv-x="3484" 
d="M371 0v3325l2272 -2375v2164h471v-3304l-2272 2369v-2179h-471z" />
    <glyph glyph-name="O" unicode="O" horiz-adv-x="3688" 
d="M218 1570q0 656 481 1129q480 472 1154 472q666 0 1139 -477q480 -475 480 -1142q0 -672 -480 -1139q-483 -469 -1165 -469q-603 0 -1081 416q-528 461 -528 1210zM693 1563q0 -515 347 -846q342 -334 795 -335q491 0 826 340q336 342 336 835q0 498 -331 833
q-331 341 -820 341q-483 0 -820 -341q-333 -334 -333 -827z" />
    <glyph glyph-name="P" unicode="P" horiz-adv-x="2228" 
d="M842 1264v-1264h-471v3114h535q392 0 590 -56q202 -54 354 -204q269 -264 268 -664q0 -426 -286 -676t-773 -250h-217zM842 1701h176q648 0 646 496q0 482 -666 481h-156v-977z" />
    <glyph glyph-name="Q" unicode="Q" horiz-adv-x="3688" 
d="M3539 -56h-589l-244 248q-390 -248 -868 -248q-621 0 -1099 419q-522 461 -521 1178q0 706 494 1174q480 458 1134 456q592 0 1061 -398q565 -482 565 -1251q0 -605 -446 -1076zM2250 1232l449 -450q298 312 298 768q0 502 -333 841.5t-826 339.5q-499 0 -820 -341
q-325 -336 -325 -851q0 -504 333 -824q349 -331 798 -333q304 0 549 140l-731 710h608z" />
    <glyph glyph-name="R" unicode="R" horiz-adv-x="2483" 
d="M1427 1326l963 -1326h-574l-888 1275h-86v-1275h-471v3114h552q618 0 891 -234q302 -258 303 -680q0 -331 -189 -569t-501 -305zM842 1685h150q667 0 667 509q0 477 -649 476h-168v-985z" />
    <glyph glyph-name="S" unicode="S" horiz-adv-x="2404" 
d="M2133 2650l-381 -226q-107 186 -205 242q-101 66 -259 65q-195 0 -325 -112q-128 -110 -128 -273q0 -229 339 -368l309 -128q381 -152 555.5 -373t174.5 -541q0 -430 -287 -710q-286 -282 -715 -282q-405 0 -669 240q-259 240 -324 674l476 105q32 -274 112 -379
q146 -202 424 -202q219 0 365 147.5t146 372.5q0 91 -25.5 166.5t-80 139.5t-138.5 119t-199 107l-301 124q-640 269 -640 789q0 352 269 587q269 240 667 240q538 1 840 -524z" />
    <glyph glyph-name="T" unicode="T" horiz-adv-x="1990" 
d="M1232 2670v-2670h-470v2670h-716v444h1898v-444h-712z" />
    <glyph glyph-name="U" unicode="U" horiz-adv-x="3048" 
d="M842 3114v-1876q0 -402 132 -587q195 -269 549 -269q358 0 554 269q133 179 131 587v1876h469v-2005q0 -493 -307 -811q-346 -354 -847 -354q-502 0 -845 354q-307 318 -307 811v2005h471z" />
    <glyph glyph-name="V" unicode="V" horiz-adv-x="2790" 
d="M531 3114l859 -2157l874 2157h514l-1399 -3348l-1363 3348h515z" />
    <glyph glyph-name="W" unicode="W" horiz-adv-x="4376" 
d="M526 3114l812 -2082l846 2232l808 -2232l862 2082h509l-1389 -3311l-801 2203l-834 -2206l-1323 3314h510z" />
    <glyph glyph-name="X" unicode="X" horiz-adv-x="2548" 
d="M1024 1626l-856 1488h533l597 -1055l624 1055h537l-896 -1488l941 -1626h-526l-690 1192l-710 -1192h-532z" />
    <glyph glyph-name="Y" unicode="Y" horiz-adv-x="2476" 
d="M1002 1344l-1015 1770h539l712 -1245l712 1245h541l-1019 -1770v-1344h-470v1344z" />
    <glyph glyph-name="Z" unicode="Z" horiz-adv-x="2579" 
d="M912 442h1494v-442h-2267l1528 2670h-1277v444h2050z" />
    <glyph glyph-name="bracketleft" unicode="[" horiz-adv-x="1177" 
d="M694 2384v-2702h314v-343h-683v3384h683v-339h-314z" />
    <glyph glyph-name="backslash" unicode="\" horiz-adv-x="1708" 
d="M314 2750l1422 -3297l-296 -135l-1427 3303z" />
    <glyph glyph-name="bracketright" unicode="]" horiz-adv-x="1177" 
d="M488 -318v2702h-314v339h682v-3384h-682v343h314z" />
    <glyph glyph-name="asciicircum" unicode="^" horiz-adv-x="1865" 
d="M453 1310h-395l630 1192h490l635 -1192h-400l-479 895z" />
    <glyph glyph-name="underscore" unicode="_" horiz-adv-x="1865" 
d="M0 -208h1869v-339h-1869v339z" />
    <glyph glyph-name="grave" unicode="`" horiz-adv-x="1865" 
d="M318 2346l341 176l445 -586l-202 -122z" />
    <glyph glyph-name="a" unicode="a" horiz-adv-x="2475" 
d="M1734 1965h455v-1965h-455v206q-280 -262 -603 -262q-408 0 -673 293q-264 301 -266 750q0 442 265 736.5t663 294.5q341 0 614 -282v229zM656 987q0 -282 152 -459q155 -179 392 -179q251 0 406 173q157 179 157 454q0 278 -157 458q-155 174 -403 174q-234 0 -390 -176
q-157 -181 -157 -445z" />
    <glyph glyph-name="b" unicode="b" horiz-adv-x="2475" 
d="M739 3405v-1669q274 282 618 282q397 0 661 -295q264 -296 265 -736q0 -454 -267 -750q-264 -293 -667 -293q-341 0 -610 262v-206h-453v3405h453zM1819 968q0 282 -155 459q-155 181 -387 181q-251 0 -408 -174q-155 -174 -154 -453q0 -286 152 -456q152 -174 403 -176
q235 0 392 176t157 443z" />
    <glyph glyph-name="c" unicode="c" horiz-adv-x="1966" 
d="M1814 1880v-603q-155 189 -278 259q-122 72 -283 72q-256 0 -426.5 -179t-170.5 -450q0 -275 163 -453q166 -178 423 -177q163 0 288 70q122 69 284 266v-597q-275 -144 -553 -144q-454 0 -762 293q-307 296 -307 737q0 438 312 741t762 303q290 1 548 -138z" />
    <glyph glyph-name="d" unicode="d" horiz-adv-x="2475" 
d="M1734 3405h455v-3405h-455v206q-269 -262 -608 -262q-403 0 -668 293q-264 301 -266 750q0 438 266 736q262 296 660 295q342 0 616 -282v1669zM656 987q0 -282 152 -459q155 -179 392 -179q251 0 406 173q157 179 157 454q0 278 -157 458q-155 174 -403 174
q-234 0 -390 -176q-157 -181 -157 -445z" />
    <glyph glyph-name="e" unicode="e" horiz-adv-x="2281" 
d="M2074 875h-1407q18 -242 157 -384q139 -141 357 -142q170 0 280 81q110 80 248 298l384 -213q-88 -152 -188 -260t-212 -176.5t-242.5 -101.5t-285.5 -33q-438 0 -706 282q-267 285 -267 753q0 466 261 755q259 285 688 284q435 0 685 -276q251 -275 251 -761zM1608 1245
q-94 363 -456 363q-83 0 -156 -25t-132 -73t-102.5 -113.5t-65.5 -151.5h912z" />
    <glyph glyph-name="f" unicode="f" horiz-adv-x="1224" 
d="M757 1541v-1541h-456v1541h-162v424h162v757q0 371 129 524q178 213 516 213q122 0 304 -70v-464l-47 25q-146 74 -241 74q-122 0 -165 -88q-40 -83 -40 -325v-646h493v-424h-493z" />
    <glyph glyph-name="g" unicode="g" horiz-adv-x="2470" 
d="M2186 46q0 -139 -9 -244.5t-27 -187.5q-46 -222 -188 -380q-267 -307 -732 -308q-392 0 -648 213q-262 218 -302 603h454q27 -146 88 -224q141 -184 412 -184q498 0 497 612v273q-270 -275 -622 -275q-402 0 -656 290q-259 296 -261 736q0 430 243 731q258 318 680 317
q370 0 616 -276v223h455v-1919zM1749 976q0 286 -152 459q-155 174 -397 176q-259 0 -406 -190q-136 -173 -138 -445q0 -269 138 -440q146 -186 406 -187q259 0 411 189q138 171 138 438z" />
    <glyph glyph-name="h" unicode="h" horiz-adv-x="2262" 
d="M286 3405h453v-1603q242 218 536 216q331 0 530 -215q170 -189 171 -600v-1203h-453v1160q0 237 -84 342.5t-269 105.5q-237 0 -335 -147q-96 -147 -96 -511v-950h-453v3405z" />
    <glyph glyph-name="i" unicode="i" horiz-adv-x="1027" 
d="M739 1965v-1965h-453v1965h453zM218 2779q0 118 87 206.5t209 88.5q123 0 208 -88q88 -85 86 -208q0 -123 -86 -208q-85 -88 -207 -88q-123 0 -210 86t-87 211z" />
    <glyph glyph-name="j" unicode="j" horiz-adv-x="1027" 
d="M739 1965v-3034h-453v3034h453zM218 2779q0 118 87 206.5t209 88.5q123 0 208 -88q88 -85 86 -208q0 -123 -86 -208q-85 -88 -207 -88q-123 0 -210 86t-87 211z" />
    <glyph glyph-name="k" unicode="k" horiz-adv-x="2056" 
d="M739 3405v-2077l640 637h608l-851 -827l914 -1138h-589l-648 829l-74 -72v-757h-453v3405h453z" />
    <glyph glyph-name="l" unicode="l" horiz-adv-x="1027" 
d="M739 3405v-3405h-453v3405h453z" />
    <glyph glyph-name="m" unicode="m" horiz-adv-x="3265" 
d="M286 1965h453v-183q133 136 224 184q99 51 248 52q331 0 527 -292q213 291 579 292q662 0 662 -804v-1214h-454v1091q0 282 -71 399q-69 118 -230 118q-189 0 -274.5 -141t-85.5 -453v-1014h-454v1085q0 525 -303 523q-190 0 -279 -143t-89 -451v-1014h-453v1965z" />
    <glyph glyph-name="n" unicode="n" horiz-adv-x="2262" 
d="M286 1965h455v-183q237 235 537 236q342 0 535 -215q166 -184 165 -600v-1203h-455v1098q0 290 -80 401q-80 112 -288 112q-226 0 -320 -150q-94 -146 -94 -514v-947h-455v1965z" />
    <glyph glyph-name="o" unicode="o" horiz-adv-x="2478" 
d="M192 997q0 424 305 722.5t745 298.5q438 0 742 -300q304 -301 306 -739q0 -442 -306 -739q-307 -296 -752 -296q-442 0 -739 302q-301 298 -301 751zM656 987q0 -293 160 -465q162 -173 426 -173t423 172t159 455q0 286 -160 459q-162 173 -422 173q-262 0 -424 -173.5
t-162 -447.5z" />
    <glyph glyph-name="p" unicode="p" horiz-adv-x="2475" 
d="M739 -1069h-453v3034h453v-216q269 269 610 269q405 0 667 -298q267 -298 267 -747q0 -442 -265 -738q-262 -291 -661 -291q-346 0 -618 275v-1288zM1819 970q0 282 -155 459q-155 179 -389 179q-251 0 -405.5 -173.5t-154.5 -455.5q0 -275 154 -454q152 -174 403 -176
q235 0 390 177q157 177 157 444z" />
    <glyph glyph-name="q" unicode="q" horiz-adv-x="2475" 
d="M1734 -1069v1288q-270 -275 -616 -275q-398 0 -660 291q-264 296 -266 738q0 448 266 747q267 298 667 298q341 0 609 -269v216h455v-3034h-455zM656 992q0 -285 155 -461q152 -181 389 -182q248 0 403 173q158 174 160 454q0 278 -157 458q-155 174 -403 174
q-234 0 -390 -176q-157 -181 -157 -440z" />
    <glyph glyph-name="r" unicode="r" horiz-adv-x="1542" 
d="M286 1965h453v-178q125 133 223 179q99 51 235 52q179 0 373 -116l-208 -417q-128 94 -252 94q-371 0 -371 -561v-1018h-453v1965z" />
    <glyph glyph-name="s" unicode="s" horiz-adv-x="1672" 
d="M1427 1629l-374 -200q-90 181 -219 182q-62 0 -107 -41.5t-45 -107.5q0 -112 260 -220q360 -157 486.5 -288.5t126.5 -353.5q0 -285 -211 -475q-203 -181 -491 -181q-494 0 -701 482l387 179q80 -141 123 -179q83 -77 199 -77q230 0 230 209q0 122 -177 226
q-69 34 -138 66.5t-139 67.5q-197 96 -279 192q-102 123 -102 317q0 258 176 423q179 168 435 168q376 1 560 -389z" />
    <glyph glyph-name="t" unicode="t" horiz-adv-x="1128" 
d="M755 1541v-1541h-454v1541h-194v424h194v718h454v-718h352v-424h-352z" />
    <glyph glyph-name="u" unicode="u" horiz-adv-x="2248" 
d="M739 1965v-1127q0 -488 386 -489q386 0 385 489v1127h455v-1138q0 -235 -61 -408q-56 -152 -195 -275q-229 -200 -584 -200q-352 0 -583 200q-141 123 -200 275q-56 136 -56 408v1138h453z" />
    <glyph glyph-name="v" unicode="v" horiz-adv-x="2073" 
d="M531 1965l509 -1104l504 1104h510l-1019 -2099l-1013 2099h509z" />
    <glyph glyph-name="w" unicode="w" horiz-adv-x="3193" 
d="M533 1965l513 -1123l556 1302l558 -1302l507 1123h509l-1030 -2112l-544 1265l-554 -1265l-1026 2112h511z" />
    <glyph glyph-name="x" unicode="x" horiz-adv-x="2302" 
d="M896 1062l-706 903h540l436 -575l447 575h555l-725 -903l842 -1062h-543l-576 734l-590 -734h-554z" />
    <glyph glyph-name="y" unicode="y" horiz-adv-x="2241" 
d="M906 365l-884 1600h527l600 -1130l560 1130h513l-1566 -3034h-517z" />
    <glyph glyph-name="z" unicode="z" horiz-adv-x="2241" 
d="M936 427h1170v-427h-2068l1272 1541h-1001v424h1899z" />
    <glyph glyph-name="braceleft" unicode="{" horiz-adv-x="1473" 
d="M1013 2421h-45q-146 0 -190 -57t-44 -236v-648q0 -170 -46 -280q-46 -94 -179 -171q226 -134 225 -359v-728q0 -184 45 -242t189 -60l45 2v-327h-93l-114 -5q-237 0 -340 127.5t-103 418.5v794q0 85 -56 149.5t-152 86.5v312q112 24 160 96t48 213v720q0 275 103.5 399
t328.5 124l123 -1l95 -3v-325z" />
    <glyph glyph-name="bar" unicode="|" horiz-adv-x="2332" 
d="M749 2491h373v-3112h-373v3112z" />
    <glyph glyph-name="braceright" unicode="}" horiz-adv-x="1473" 
d="M168 -358l46 -2q144 0 188 58q45 54 44 235v645q0 173 47 283q50 94 179 171q-226 136 -226 357v733q0 189 -44 241q-46 58 -188 61l-46 -3v325h94l112 8q237 0 341 -128q102 -130 104 -420v-795q0 -85 56 -149.5t154 -90.5v-307q-112 -29 -161 -99.5t-49 -209.5v-721
q0 -275 -102.5 -399.5t-329.5 -124.5l-123 5h-96v327z" />
    <glyph glyph-name="asciitilde" unicode="~" horiz-adv-x="3110" 
d="M342 2272l26 58q107 224 224.5 320t283.5 96t407 -112q219 -102 343 -103q136 0 187 63l97 123q34 46 66 48q77 0 173 -139q-123 -246 -255 -352q-130 -106 -304 -106q-146 0 -420 128q-211 90 -325 90q-40 0 -96 -24q-58 -22 -72 -45l-104 -146q-32 -40 -64 -43
q-73 0 -167 144z" />
    <glyph glyph-name="saraileftthai" 
d="M-2016 2418l323 148h922v-286h-1245v138z" />
    <glyph glyph-name="saraiileftthai" 
d="M-2016 2418l318 145h549v325h376v-608h-1h-1242v138z" />
    <glyph glyph-name="saraueleftthai" 
d="M-1187 2622q0 -72 31 -106t103 -34t101 36t29 104q0 72 -31 109q-27 35 -99 35t-103 -36t-31 -108zM-2016 2418l309 145h323q-10 32 -10 58q0 78 22.5 142t67.5 109t108 67.5t143 22.5q78 0 140 -22.5t106.5 -67.5t68 -108t23.5 -143t-25.5 -141.5t-73 -105.5t-107.5 -69
t-132 -25h-963v138z" />
    <glyph glyph-name="saraueeleftthai" 
d="M-2016 2418l298 140h283v330h257v-330h149v330h258v-608h-1245v138z" />
    <glyph glyph-name="maieklowleftthai" 
d="M-1267 2272v630h392v-630h-392z" />
    <glyph glyph-name="maitholowleftthai" 
d="M-1779 2414q22 13 61.5 40.5t77 58.5t66 67t28.5 76q0 13 -2 28t-11 27t-26 21.5t-41 9.5q-50 5 -88 -7t-65 -20v247q45 16 110.5 31t138.5 15q72 0 129 -17t97 -48t62.5 -73.5t22.5 -91.5q0 -40 -11.5 -76t-29 -66.5t-38.5 -54.5q-21 -27 -36 -45h537v-99l-261 -162
h-721v139z" />
    <glyph glyph-name="maitrilowleftthai" 
d="M-1590 2302q-27 -10 -56 -14.5t-60.5 -7t-63.5 -1.5t-57 6q-54 10 -90.5 37.5t-58.5 64.5t-31 77t-9 77v205q0 58 16 101.5t44 71t69 39.5t90 12q45 0 87.5 -13t84 -34t81.5 -43q38 -22 78 -42q45 18 92.5 41t94.5 42.5t94 33t92 13.5q80 0 130 -51q51 -54 51 -171
q0 -50 -14.5 -83t-34.5 -57.5t-42.5 -40.5t-39.5 -29h344v-94l-259 -164h-354v213q11 6 28 16.5t34.5 28.5t28.5 45t11 64q0 32 -4.5 48.5t-16 21.5t-28 -2t-39.5 -19q-22 -13 -47.5 -25.5t-48 -23.5t-40 -17.5t-28.5 -6.5q-13 0 -31.5 8.5t-40 20t-44.5 25.5q-22 13 -44 23
q-21 11 -37 16.5t-29.5 0.5t-22.5 -21t-9 -49l5 -64q0 -35 12.5 -51t33.5 -22t43 -4q18 0 36 5v-207z" />
    <glyph glyph-name="maichattawalowleftthai" 
d="M-1573 2771h179v240h352v-240h290v-257h-290v-239h-352v239h-388v102z" />
    <glyph glyph-name="thanthakhatlowleftthai" 
d="M-805 2709l-257 -165h-108q-40 0 -62 -13q-27 -13 -27 -54v-205h-399v168q0 40 6 80t20 79t41.5 75t69 63.5t100.5 45t139 17.5h480z" />
    <glyph glyph-name="maieklowrightthai" 
d="M-595 2272v630h393v-630h-393z" />
    <glyph glyph-name="maitholowrightthai" 
d="M-1104 2414q22 13 61.5 40.5t76 58.5t64.5 67t28 76q0 13 -2 28t-11 27t-25 21.5t-42 9.5q-50 5 -88 -7t-65 -20v247q45 16 110.5 31t140.5 15q72 0 129 -17t97.5 -48t61.5 -73.5t21 -91.5q0 -40 -11.5 -76t-29 -66.5t-38.5 -54.5q-21 -27 -36 -45h608v-99l-264 -162
h-786v139z" />
    <glyph glyph-name="maitrilowrightthai" 
d="M-995 2302q-27 -10 -56 -14.5t-60 -7t-62.5 -1.5t-58.5 6q-54 10 -89.5 37.5t-58 64.5t-32 77t-9.5 77v205q0 58 16 101.5t44 71t69.5 39.5t91.5 12q45 0 89.5 -13t87 -34t85 -43t82.5 -42q45 18 92 41t96.5 42.5t98.5 33t94 13.5q80 0 129 -51q51 -54 53 -171
q0 -50 -15 -83t-35 -57.5t-42.5 -40.5t-40.5 -29h399v-94l-258 -164h-409v213q11 6 27.5 16.5t34.5 28.5t29 45t11 64q0 32 -4 48.5t-15 21.5t-28 -2t-39 -19q-46 -24 -95 -51q-46 -22 -83 -32v0q-18 5 -39.5 14t-44 21.5t-41.5 25.5q-22 16 -45 26q-21 11 -37.5 16.5
t-30 0.5t-22.5 -21t-9 -49l5 -64q0 -35 13.5 -51t33.5 -22t43 -4q18 0 35 5v-207z" />
    <glyph glyph-name="maichattawalowrightthai" 
d="M-757 2771h179v240h352v-240h288v-257h-288v-239h-352v239h-390v102z" />
    <glyph glyph-name="thanthakhatlowrightthai" 
d="M-13 2709l-256 -165h-166q-40 0 -63 -13q-22 -13 -24 -54v-205h-398v168q0 40 5.5 80t20 79t40 75t68 63.5t101 45t138.5 17.5h536z" />
    <glyph glyph-name="maihanakatleftthai" 
d="M144 2430l-334 -150h-940q-99 0 -163 33.5t-100 81t-49.5 101t-13.5 91.5v203h390v-147q0 -46 18 -68.5t62 -22.5h1130v-122z" />
    <glyph glyph-name="nikhahitleftthai" 
d="M-1469 2621q0 88 29 153.5t77 112t114.5 69.5t138.5 23q77 0 140.5 -23t113.5 -69.5t78 -113.5t28 -152q0 -88 -28 -155.5t-78 -113t-114.5 -68t-139.5 -22.5q-74 0 -139.5 22.5t-113.5 68t-77 113t-29 155.5zM-1242 2621q0 -77 36 -114.5t96 -37.5q58 0 93.5 37.5
t35.5 114.5t-36 114.5t-93 37.5q-58 0 -95 -37.5t-37 -114.5z" />
    <glyph glyph-name="maitaikhuleftthai" 
d="M-1342 2374q-40 -27 -82 -49q-35 -18 -82 -35q-45 -13 -84 -15q-85 0 -146 26.5t-101 73t-58.5 112t-18.5 140.5v29q0 56 18.5 120t66 120t132 92t214.5 36h801v-106l-272 -134h-524q-56 -2 -85 -33t-29 -98v-48q0 -32 7 -50.5t18.5 -27.5t28 -9t36.5 4l158 72l170 -68
q38 -13 62 2.5t24 60.5v70h328v-77q0 -62 -14.5 -118t-51 -97.5t-100.5 -66.5t-165 -25q-45 0 -88 13.5t-79 33.5t-51 30z" />
    <glyph glyph-name="maiekupperleftthai" 
d="M-1160 3101v494h387v-494h-387z" />
    <glyph glyph-name="maithoupperleftthai" 
d="M-1362 3226q21 13 53 34.5t65.5 49.5t58.5 59t25 65q0 13 -2.5 25.5t-10.5 23.5t-24 21q-13 10 -35 8q-43 2 -75 -8t-58 -19v217q40 13 98 28q54 13 120 12q62 0 114 -14t86.5 -40.5t55.5 -63.5q18 -35 17 -80q0 -35 -10 -67t-25.5 -57t-34 -45t-32.5 -36h533v-86
l-240 -152h-679v125z" />
    <glyph glyph-name="maitriupperleftthai" 
d="M-1133 3123q-22 -10 -51.5 -14.5t-57.5 -6t-56 -1t-52 5.5q-50 10 -83 35.5t-53 59t-28.5 71t-8.5 69.5v188q0 54 13.5 93t40 64t64 37t82.5 12q40 0 80 -13.5t76.5 -31t74.5 -39.5t73 -39q40 18 82.5 38.5t85.5 38t85.5 29.5t83.5 12q74 0 120.5 -46.5t46.5 -154.5
q0 -45 -12 -76.5t-31.5 -53.5t-41.5 -38q-18 -16 -37 -24h314v-85l-237 -152h-323v197q10 6 27.5 14t32.5 25t26 40t11 60q0 29 -5.5 43t-15 19t-23.5 0q-16 -10 -37 -17q-45 -22 -82 -45t-69 -32h-1q-16 5 -33.5 13.5t-36 20t-36 22.5t-35.5 22q-18 10 -34.5 15.5t-29.5 3
t-21 -18.5t-8 -46l3 -59q0 -32 14 -47.5t31.5 -20t37.5 -2.5t34 2v-187z" />
    <glyph glyph-name="maichattawaupperleftthai" 
d="M-1254 3499h163v215h317v-215h264v-233h-264v-215h-317v215h-354v94z" />
    <glyph glyph-name="thanthakhatupperleftthai" 
d="M-309 3221l-240 -151h-155q-29 0 -49.5 -12t-20.5 -50v-190h-380v155q0 54 12 111.5t50 105.5t106 82t180 37h497v-88z" />
    <glyph glyph-name="uni00A0" unicode="&#xa0;" horiz-adv-x="1145" 
 />
    <glyph glyph-name="cent" unicode="&#xa2;" horiz-adv-x="1716" 
d="M1098 2446v-384q219 -13 393 -84v-341q-46 18 -94 33t-104 26t-119.5 16.5t-138.5 5.5q-128 0 -212 -41.5t-135 -117.5t-72 -180t-21 -232t21 -233.5t72 -180t135 -117.5t212 -43q77 0 139.5 7t118.5 18.5t104.5 25t93.5 32.5v-341q-85 -38 -182 -59q-99 -22 -211 -27
v-296h-341v318q-157 34 -264 113t-172 194.5t-93 265t-28 324t28 322.5t93 264t172 194t264 112v406h341z" />
    <glyph glyph-name="sterling" unicode="&#xa3;" horiz-adv-x="1811" 
d="M155 0v278q102 67 172.5 124t115.5 110t64 106.5t19 111.5q0 22 -0.5 57t-3 73t-5 75.5t-3.5 62.5h-357v135l273 173h61q-5 46 -9.5 108.5t-10 128t-10.5 127.5t-3 117q-5 155 39.5 275t131 200t208 122t273.5 42q173 0 306 -39q134 -40 242 -107l-130 -304
q-50 24 -103.5 45.5t-107 37t-105.5 23.5t-92 8q-85 0 -138.5 -26t-83 -70.5t-41 -109.5t-11.5 -146q0 -45 2.5 -101t8 -113.5t11.5 -113.5t10 -104h546v-308h-518q0 -13 1.5 -51t4 -79t4 -80t1.5 -55q0 -35 -5 -79t-26.5 -94t-64.5 -106t-122 -118l986 -5v-331h-1530z" />
    <glyph glyph-name="yen" unicode="&#xa5;" horiz-adv-x="2195" 
d="M1675 1618h346v-306h-511l-104 -190h615v-306h-727v-816h-398v816h-739v134l273 172h354l-102 190h-525v134l273 172h85l-408 761h458l531 -1089l530 1089h457z" />
    <glyph glyph-name="copyright" unicode="&#xa9;" horiz-adv-x="2852" 
d="M1424 -18q-166 0 -322 26.5t-293 87.5t-250 155.5t-195 226.5t-127 304t-45 392t45 393.5t127 306t195 227t250 155.5t293 86q157 27 322 28q168 0 325 -26.5t295 -87.5t251 -155.5t194.5 -227t126.5 -306t45 -393.5t-45 -392t-126.5 -304t-194.5 -226.5t-251 -155.5
t-295 -87.5t-325 -26.5zM1432 259q125 0 245 22.5t224 69t190.5 119t148.5 173.5t96 233t34 297.5t-34 299t-96 235.5t-148.5 174t-190.5 119t-223.5 69.5t-245.5 22.5q-192 0 -365 -50.5t-301.5 -159.5t-205.5 -284t-77 -425q0 -166 33.5 -298t97 -233t150.5 -173.5
t192.5 -119t225.5 -69t250 -22.5zM784 1174q0 179 48 306.5t135 208.5t211 121q122 38 273 38q122 0 223.5 -13.5t189.5 -48.5v-298q-32 11 -69.5 20t-82.5 15.5t-99.5 9.5t-121.5 3q-80 0 -144 -20t-109.5 -65t-70.5 -113t-25 -164t25 -164.5t70.5 -113.5t109.5 -65
t144 -20q67 0 121.5 3.5t99.5 9.5t82.5 16.5t69.5 20.5v-299q-88 -35 -189 -48q-102 -13 -224 -15q-152 0 -274.5 39.5t-209.5 120t-135 208.5t-48 307z" />
    <glyph glyph-name="guillemotleft" unicode="&#xab;" horiz-adv-x="1619" 
d="M862 562v-365l-715 592v201l715 594v-365l-432 -328zM1469 562v-365l-712 592v201l712 594v-365l-429 -328z" />
    <glyph glyph-name="registered" unicode="&#xae;" horiz-adv-x="2852" 
d="M1434 954h-213v-404h-336v1260h592q125 0 211 -34t139 -92t77 -134q22 -80 22 -171q0 -54 -8.5 -105.5t-30 -97.5t-56 -88t-85.5 -70l265 -468h-381zM1590 1371q0 61 -30 98.5t-91 37.5h-248v-273h248q38 0 62 12.5t37 32.5t17.5 45t4.5 47zM1424 -18q-166 0 -322 26.5
t-293 87.5t-250 155.5t-195 226.5t-127 304t-45 392t45 393.5t127 306t195 227t250 155.5t293 86q157 27 322 28q168 0 325 -26.5t295 -87.5t251 -155.5t194.5 -227t126.5 -306t45 -393.5t-45 -392t-126.5 -304t-194.5 -226.5t-251 -155.5t-295 -87.5t-325 -26.5zM1432 259
q125 0 245 22.5t224 69t190.5 119t148.5 173.5t96 233t34 297.5t-34 299t-96 235.5t-148.5 174t-190.5 119t-223.5 69.5t-245.5 22.5q-192 0 -365 -50.5t-301.5 -159.5t-205.5 -284t-77 -425q0 -166 33.5 -298t97 -233t150.5 -173.5t192.5 -119t225.5 -69t250 -22.5z" />
    <glyph glyph-name="guillemotright" unicode="&#xbb;" horiz-adv-x="1619" 
d="M1187 891l-430 328v365l712 -594v-201l-712 -592v365zM581 891l-434 328v365l715 -594v-201l-715 -592v365z" />
    <glyph glyph-name="onequarter" unicode="&#xbc;" horiz-adv-x="2841" 
d="M525 -38l1390 2417h275l-1393 -2417h-272zM416 946v1035l-304 -19v142l448 216h173v-1374h-317zM2429 0h-311v291h-588v213l563 872h336v-826h205v-259h-205v-291zM1814 549l304 1l5 480z" />
    <glyph glyph-name="onehalf" unicode="&#xbd;" horiz-adv-x="2841" 
d="M1592 0v229q152 96 263 173.5t189.5 140t126.5 113.5t76 94.5t38.5 78.5t10.5 72q0 40 -10.5 78.5t-36 64.5t-65.5 43t-99 17q-69 0 -138.5 -17t-129 -39t-105 -44.5t-66.5 -33.5v284q34 13 87.5 35.5t121 41t143.5 32t152 13.5q101 0 176.5 -19t129 -52t87 -75.5
t53.5 -88t27 -90.5t7 -83q0 -112 -49.5 -212t-128 -186.5t-178.5 -156.5q-101 -72 -204 -131h596v-282h-1074zM386 -38l1390 2417h275l-1392 -2417h-273zM386 946v1035l-306 -19v142l445 216h174v-1374h-313z" />
    <glyph glyph-name="threequarters" unicode="&#xbe;" horiz-adv-x="2841" 
d="M128 2186q32 22 83 49t115 49.5t135.5 37t148.5 14.5q112 0 196 -25.5t143 -70.5t88 -103.5t29 -125.5q0 -118 -65 -197.5t-182 -127.5q67 -13 123 -40t98 -70t64 -102q22 -62 22 -140q0 -90 -41.5 -168t-116 -135.5t-180.5 -91t-234 -33.5q-77 -2 -146.5 11.5
t-127.5 34.5t-106 46q-50 24 -80 48l108 229q22 -13 55.5 -33.5t76 -37.5t92.5 -30q50 -11 107 -11q62 0 111.5 13t85.5 37.5t54 58.5q13 32 13 72q0 72 -29 112t-78.5 60t-114.5 27t-132 7h-120v253h125q46 0 99 3.5t95.5 17t72 44.5t29.5 90q0 22 -9 45.5t-31 43t-58 31.5
t-91 12q-58 0 -107.5 -12t-89.5 -30.5t-72 -36.5q-27 -21 -49 -33zM645 -38l1393 2417h274l-1394 -2417h-273zM2477 0h-306v291h-590v213l560 872h336v-826h206v-259h-206v-291zM1864 549l307 1l2 480z" />
    <glyph glyph-name="multiply" unicode="&#xd7;" horiz-adv-x="1888" 
d="M946 1317l478 477l238 -237l-480 -477l480 -480l-238 -237l-478 477l-480 -477l-237 237l478 480l-478 477l237 237z" />
    <glyph glyph-name="divide" unicode="&#xf7;" horiz-adv-x="1900" 
d="M722 1626q0 46 17.5 89t48.5 74.5t74.5 50.5t87.5 19q50 0 92.5 -19t73.5 -50.5t48.5 -73t17.5 -90t-17.5 -89.5t-48.5 -72t-74.5 -50.5t-91.5 -19.5q-46 0 -88.5 19.5t-73.5 50.5t-48.5 71t-17.5 90zM722 528q0 46 17.5 90t48.5 76t74.5 50t87.5 18q50 0 92.5 -18
t73.5 -50t48.5 -74t17.5 -92q0 -46 -17.5 -88t-48.5 -73t-74.5 -50t-91.5 -19q-46 0 -88.5 19t-73.5 50t-48.5 73t-17.5 88zM1662 1237v-319h-1420v319h1420z" />
    <glyph glyph-name="kokaithai" unicode="&#xe01;" horiz-adv-x="2064" 
d="M1466 1197q0 128 -25 208t-72 124.5t-115 60.5q-62 18 -147 18q-29 0 -81.5 -4t-113.5 -11t-123.5 -18.5t-111.5 -24.5v-1550h-399v1250l175 238h-325v237q125 46 258.5 85.5t265.5 66.5t260 43t246 16q189 0 322 -45t217.5 -130.5t125.5 -208.5t41 -275v-1277h-398v1197
z" />
    <glyph glyph-name="khokhaithai" unicode="&#xe02;" horiz-adv-x="1833" 
d="M883 -34q-354 0 -524 160t-170 479q0 122 8.5 197.5t40 130t90.5 101t160 108.5q50 32 81 58.5t49.5 54t24 57.5t5.5 64t-8 70.5t-28 68.5t-53 56t-82 32q-67 11 -149 4t-181 -34v304q50 18 106 27.5t108 15.5t89.5 8.5t48.5 2.5q112 0 196 -25.5t142.5 -67t94.5 -95
t56 -112t28 -114.5t8 -104q0 -61 -9 -132t-41.5 -143t-95.5 -141q-67 -69 -174 -125q-45 -22 -67.5 -52.5t-33.5 -66.5t-13.5 -76t-2.5 -83q0 -62 15.5 -117.5t50.5 -98t92 -65.5t138 -23q18 0 51.5 0.5t71 8.5t79 27.5t74.5 53t55.5 84.5t22.5 130v1310h398v-1264
q0 -152 -34.5 -277.5t-120 -213t-230.5 -135.5t-367 -48z" />
    <glyph glyph-name="khokhuatthai" unicode="&#xe03;" horiz-adv-x="1832" 
d="M627 1355q-40 74 -82.5 118.5t-94.5 67t-114 31.5t-139 9q-21 0 -37 -1.5t-30 -1.5v336q72 0 140 1.5t137.5 -18.5t142.5 -71q77 -51 157 -157l77 235h237v-525q0 -61 -6.5 -124t-39.5 -128t-96 -130.5t-175 -124.5q-45 -22 -69 -55t-36 -71.5t-14.5 -78.5t-2.5 -83
q0 -62 16 -116.5t51.5 -98t91.5 -66.5t142 -23q18 0 50 1t71 9t80 27t74.5 52.5t53.5 85t20 129.5v1320h398v-1272q0 -152 -33.5 -277.5t-118 -213t-230.5 -136t-365 -48.5q-354 0 -524 160.5t-170 477.5q0 90 8.5 157t39 127t90 114.5t159.5 115.5q50 32 78 60t41 52
t17.5 42.5t4.5 26.5v65z" />
    <glyph glyph-name="khokhwaithai" unicode="&#xe04;" horiz-adv-x="2049" 
d="M1024 1618q-69 5 -143.5 -9t-136.5 -50.5t-103 -100t-41 -157.5v-315l280 139h250v-373h-530v-752h-398v1334q0 162 58 276.5t165.5 187t258.5 105.5t339 33t341.5 -33t261.5 -105.5t166 -187t58 -276.5v-1334h-399v1301q0 94 -40 155.5t-103 97.5t-137.5 50t-146.5 14z
" />
    <glyph glyph-name="khokhonthai" unicode="&#xe05;" horiz-adv-x="2128" 
d="M202 1398q0 125 22 226t72.5 169t132 105.5t198.5 37.5q32 0 66.5 -9.5t69 -22.5t71.5 -32q35 -22 67 -40q77 -45 150 -102l23 16q22 16 57 37.5t81.5 48.5t97 50.5t100.5 39.5q51 13 91 14q117 0 197.5 -37.5t132 -105.5t73.5 -167q22 -102 22 -228v-1398h-398v1469
q0 35 -10.5 56t-27 29t-39 5.5t-45.5 -12.5l-347 -131l-347 134q-22 10 -42 11.5t-36 -7t-25 -28.5t-9 -57v-483l283 139h247v-373h-530v-752h-398v1398z" />
    <glyph glyph-name="khorakhangthai" unicode="&#xe06;" horiz-adv-x="1974" 
d="M595 558q45 -80 95.5 -129.5t108 -76.5t124.5 -37.5t146 -10.5q69 0 125 16t96.5 47t63 81t22.5 117v1339h398v-1376q0 -125 -36.5 -228t-115 -176t-200.5 -111q-123 -40 -289 -40q-72 0 -144 7t-149.5 36t-159.5 85t-170 155l-73 -256h-237v595q0 90 9 157t39 127
t90 114.5t160 115.5q50 32 78.5 60t42 52t16.5 42.5t3 26.5v65q-40 74 -82 118.5t-92.5 67t-114 31.5t-138.5 9q-21 0 -38.5 -1.5t-28.5 -1.5v336q72 0 138.5 1.5t136 -18.5t144 -71.5t155.5 -156.5l79 235h238v-525q0 -61 -8 -124t-40.5 -128t-95 -130.5t-176.5 -124.5
q-45 -22 -69 -55t-35 -71.5t-13.5 -78.5t-2.5 -83v-26z" />
    <glyph glyph-name="ngonguthai" unicode="&#xe07;" horiz-adv-x="1462" 
d="M862 1472q0 32 -3 59t-16.5 52t-38.5 38.5t-65 13.5q-10 0 -27.5 -2.5t-35 -5.5t-36.5 -8q-18 -2 -30 -6v273q45 13 92 23.5t93.5 17t89.5 9.5t80 3q101 -2 159 -29.5t89.5 -72.5t39.5 -103.5t8 -120.5v-1043q0 -80 -8 -154.5t-30.5 -142t-59.5 -123.5t-96 -96.5
t-142 -63t-195 -22.5q-94 0 -185.5 13.5t-172.5 39t-153 63.5t-129 86v329q58 -45 132 -79t147.5 -61.5t140.5 -40.5t122 -14q54 0 96.5 11t71.5 44t45.5 90t16.5 146v877z" />
    <glyph glyph-name="chochanthai" unicode="&#xe08;" horiz-adv-x="1576" 
d="M976 976v395q0 118 -80 184.5t-237 66.5q-83 0 -157.5 -7t-140 -20.5t-124 -31t-115.5 -40.5v341q102 45 231.5 67.5t308.5 22.5q192 0 330 -50.5t222.5 -134t123 -189.5t38.5 -218v-1362h-400v752h-552v373h270z" />
    <glyph glyph-name="chochingthai" unicode="&#xe09;" horiz-adv-x="1979" 
d="M1779 0h-238l-75 256q-94 -107 -177.5 -165.5t-159 -89t-145.5 -38.5t-142 -8q-166 0 -286.5 40t-199 113t-116.5 177q-38 106 -38 230v610h398v-576q0 -67 22.5 -115t63 -81t96.5 -47.5t127.5 -14.5t134.5 8t120.5 36t112 78.5t102.5 135.5v737q0 77 -28 134.5t-87 100
t-152.5 62.5t-221.5 20q-99 0 -198.5 -12.5t-194 -37.5t-174.5 -54t-144 -56v339q67 29 157 58t190.5 51.5t201.5 36.5t190 14q166 0 295 -22t224.5 -66t160 -104t104.5 -138.5t58.5 -173t18.5 -196.5v-1242z" />
    <glyph glyph-name="chochangthai" unicode="&#xe0a;" horiz-adv-x="1899" 
d="M1304 1176q0 22 -7 48t-20 46t-35 34q-18 11 -50 11v773h510v-112l-284 -413q40 -11 90 -39t93.5 -75t72 -114.5t28.5 -156.5v-546q0 -152 -38 -277.5t-128 -213t-237 -136t-371 -48.5q-178 0 -315.5 39t-232 120t-143 200t-48.5 279q0 80 4 141t15 108t30.5 84t53 70.5
t81.5 68.5t115 75q50 32 81 58.5t49.5 54t24 57.5t5.5 64t-8 70.5t-28 68.5t-53 56t-82 32q-67 11 -149 4t-181 -34v304q50 18 106 27.5t108 15.5t89.5 8.5t48.5 2.5q112 0 196 -25.5t142.5 -67t94.5 -95t56 -112t28 -114.5t8 -104q0 -61 -9 -132t-41.5 -143t-95.5 -141
q-67 -69 -174 -125q-45 -22 -67.5 -55t-33.5 -71.5t-13.5 -78.5t-2.5 -83q0 -62 22.5 -116.5t65 -98t107 -66.5t146.5 -23q18 0 54 1t76.5 9t84.5 27t80 52.5t58.5 85t22.5 129.5v592z" />
    <glyph glyph-name="sosothai" unicode="&#xe0b;" horiz-adv-x="1923" 
d="M1211 2088h512v-112l-283 -413q40 -11 90.5 -39t93.5 -75t72 -114.5t29 -156.5v-546q0 -152 -40 -277.5t-134.5 -213t-245 -136t-374.5 -48.5q-178 0 -314.5 39t-233.5 120t-145.5 200t-48.5 279v107.5t5.5 93.5t20 83t42.5 77.5t72.5 75.5t112.5 77q50 32 77.5 60
t40.5 52t17.5 42.5t4.5 26.5v65q-40 74 -76 118.5t-78 67t-98 31.5t-133 9q-21 0 -37 -1.5t-30 -1.5v336q46 0 90 1.5t85 -2.5t81 -15.5t84 -39.5t90 -76q50 -45 102 -113l77 235h237v-525q0 -61 -6.5 -124t-39 -128t-96 -130.5t-175.5 -124.5q-45 -22 -61.5 -55
t-20.5 -71.5t0.5 -78.5t4.5 -83q0 -62 25 -116.5t70 -98t109.5 -66.5t144.5 -23q18 0 54 1t80 9t89.5 27t84 52.5t61.5 85t23 129.5l3 592q0 22 -7 48t-20 46t-35 34q-18 11 -50 11z" />
    <glyph glyph-name="chochoethai" unicode="&#xe0c;" horiz-adv-x="3131" 
d="M1864 550q40 -72 87 -118t101 -76t110 -42.5t118 -12.5q69 0 117.5 15t77.5 46.5t42.5 81t13.5 116.5v1344h399v-1379q0 -125 -29 -229t-96 -177t-179 -112t-280 -39q-72 0 -140 13.5t-138 49t-142 92t-147 146.5l-77 -269h-236v1197q0 128 -25 208t-72 124.5t-115 60.5
q-62 18 -147 18q-29 0 -81.5 -4t-113.5 -11t-123.5 -18.5t-111.5 -24.5v-1107q0 -51 15 -88t63 -48q22 -5 67 -4t92 4v-325q-35 -5 -68 -4q-27 -2 -53.5 -2h-43.5q-245 0 -358 116t-113 346v812l175 238h-325v237q125 46 258.5 85.5t265.5 66.5t260 43t246 16q189 0 322 -45
t217.5 -130.5t125.5 -208.5t41 -275v-727z" />
    <glyph glyph-name="yoyingthai" unicode="&#xe0d;" horiz-adv-x="3011" 
d="M2491 -330h-1003v328h1317v-168zM1416 1197q0 128 -20 208t-63 124.5t-105.5 61.5t-147.5 17q-29 0 -77.5 -4t-104.5 -11t-114 -18.5t-107 -24.5v-1107q0 -51 15 -88t63 -48q22 -5 67 -4t92 4v-325q-35 -5 -68 -4q-27 -2 -53.5 -2h-43.5q-245 0 -358 116t-113 346v812
l175 238h-325v237q125 46 253.5 85.5t256.5 66.5t253 43t242 16q189 0 318.5 -45t210 -130.5t116.5 -208.5t36 -275v-469q0 -67 10.5 -117.5t42.5 -85t90.5 -52t154.5 -17.5q94 0 153.5 17t92 50.5t44 84t11.5 117.5v1099h398v-1053q0 -139 -30.5 -256.5t-108.5 -201.5
t-212.5 -131.5t-344.5 -47.5q-211 0 -346 47.5t-215 131.5t-109 201q-29 118 -29 257v346z" />
    <glyph glyph-name="dochadathai" unicode="&#xe0e;" horiz-adv-x="2064" 
d="M1467 1197q0 128 -21.5 208t-64 124.5t-105 61.5t-146.5 17q-29 0 -70.5 -4t-91.5 -11t-101 -18.5t-101 -24.5v-1112q0 -230 -112 -347q-117 -117 -358 -115q-18 0 -45 1t-54 1q-32 0 -64 4v325q54 -5 95 -5.5t63 2.5q45 11 61 48.5t16 90.5v807l174 238h-324v237
q125 46 247 85.5t243 66.5t239.5 43t234.5 16q189 0 318.5 -45t210.5 -130.5t118 -208.5t37 -275l-2 -1842h-1418v291l226 4l794 -90z" />
    <glyph glyph-name="topatakthai" unicode="&#xe0f;" horiz-adv-x="2067" 
d="M1456 -560q-35 38 -68.5 63t-67.5 39.5t-66 19.5t-62 3q-22 0 -57.5 -6.5t-67.5 -21t-61.5 -38.5t-43.5 -57h-616v334h137l391 -118q34 50 75 79t81 45t77 23q35 6 63 6q32 0 67 -1.5t73.5 -12.5t78.5 -33.5t77 -59.5l1 1493q0 128 -21.5 208t-64 124.5t-105 61.5
t-146.5 17q-29 0 -70.5 -4t-91.5 -11t-101 -18.5t-101 -24.5v-1112q0 -230 -112 -347q-117 -117 -358 -115q-18 0 -45 1t-54 1q-32 0 -64 4v325q54 -5 95 -5.5t63 2.5q45 11 61 48.5t16 90.5v807l174 238h-324v237q125 46 247 85.5t243 66.5t239.5 43t234.5 16
q189 0 318.5 -45t210.5 -130.5t118 -208.5t37 -275l3 -1837h-413z" />
    <glyph glyph-name="thothanthai" unicode="&#xe10;" horiz-adv-x="1574" 
d="M1434 1998l-186 -264q67 -80 96 -176q32 -94 32 -196v-1362h-400v752h-552v373h270l282 -149v395q0 118 -80 184.5t-237 66.5q-83 0 -157.5 -7t-140 -20.5t-124 -31t-115.5 -40.5v341q102 45 231.5 67.5t308.5 22.5q90 0 167 -11.5t144 -33.5v265h461v-176zM488 -381
q27 50 60.5 78.5t69.5 43t68 20t60 5.5q35 0 65.5 -5.5t57.5 -16.5t52.5 -28t54.5 -41v152h400v-432h-374q-27 38 -60 64t-65 42t-64 22q-29 6 -56 6.5t-56 -6t-54 -22.5t-45.5 -43.5t-31.5 -60.5h-412v312h138z" />
    <glyph glyph-name="thonangmonthothai" unicode="&#xe11;" horiz-adv-x="2041" 
d="M1443 0v1416q0 74 -11 98.5t-38 24.5q-18 0 -36.5 -12.5t-38.5 -32.5t-42 -48q-27 -27 -55 -56l-494 -529q-32 -35 -50.5 -67t-26.5 -65t-9.5 -67.5t-1.5 -77.5v-584h-398v483q0 50 -3.5 103.5t2 108t28 108t72.5 104.5l157 168v280q-43 80 -88 124t-88.5 66.5t-88 29
t-86.5 6.5q-21 0 -38.5 -1.5t-28.5 -1.5v336q46 0 87 1.5t78 -2.5t73 -15.5t76.5 -39.5t85.5 -74t98 -115l76 235h215v-430l201 216q45 46 94.5 93t103.5 84t114.5 60t131.5 23q107 0 171 -34t99 -96t46.5 -145t11.5 -179v-1496h-399z" />
    <glyph glyph-name="thophuthaothai" unicode="&#xe12;" horiz-adv-x="3137" 
d="M190 1398q0 125 22.5 226t73 169t131.5 105.5t199 37.5q32 0 66.5 -9.5t68 -22.5t67 -31.5t65.5 -35.5q72 -45 146 -103l19 15q18 16 51.5 38.5t75 48t88 48t93 37.5t87.5 15q117 0 199.5 -37.5t132 -105.5t71.5 -167q24 -102 24 -228v-838q40 -54 85 -100.5t97 -82.5
t110 -57q56 -21 123 -19q69 0 117.5 15t78 46.5t43.5 81t14 116.5v1344h398v-1379q0 -125 -28 -229t-95 -177t-175 -109q-107 -40 -268 -42q-77 0 -150.5 16t-143.5 50.5t-140 90.5q-77 58 -154 144l-70 -269h-240l-3 1446q0 72 -26.5 102t-74.5 9l-342 -136l-336 136
q-46 18 -73.5 -10.5t-27.5 -100.5v-686q0 -122 14.5 -208t44 -140.5t72 -82t96.5 -31.5q62 -5 141.5 5.5t152.5 34.5v-311q-43 -16 -89.5 -26.5t-92 -16.5t-90 -8.5t-81.5 -2.5q-147 0 -255 44.5t-177 141.5t-102 244t-33 354v641z" />
    <glyph glyph-name="nonenthai" unicode="&#xe13;" horiz-adv-x="3099" 
d="M1434 1197q0 128 -25 208t-70 124.5t-109.5 61.5t-149.5 17q-29 0 -77.5 -4t-104.5 -11t-114 -18.5t-107 -24.5v-1107q0 -51 15 -88t63 -48q22 -5 67 -4t92 4v-325q-35 -5 -68 -4q-27 -2 -53.5 -2h-43.5q-245 0 -358 116t-113 346v812l175 238h-325v237
q125 46 253.5 85.5t256.5 66.5t253 43t242 16q189 0 321 -45t216 -130.5t123 -208.5t39 -275v-717q0 -67 13.5 -116.5t42.5 -81t77.5 -46.5t117.5 -15q61 0 118 12.5t110.5 42.5t100.5 77t87 117v1354h400v-1904h-238l-75 269q-77 -88 -149 -145.5t-141 -93t-138.5 -49
t-141.5 -13.5q-166 0 -278 39t-180 112t-96 176t-28 230v672z" />
    <glyph glyph-name="dodekthai" unicode="&#xe14;" horiz-adv-x="2038" 
d="M190 1334q0 162 57 276.5t165 187t260 105.5t340 33t341.5 -33t261.5 -105.5t165 -187t57 -276.5v-1334h-399v1301q0 94 -40.5 155.5t-103 97.5t-136 50t-145.5 14q-69 5 -144 -9t-137 -50.5t-102.5 -100t-40.5 -157.5v-563q0 -122 16.5 -206t48 -135t78.5 -73.5
t106 -25.5q45 0 78.5 2t62.5 8t60 17t71 27v-320q-38 -11 -82 -22.5t-90.5 -19.5t-91.5 -12q-45 -5 -80 -5q-147 0 -255 41.5t-180 132t-106.5 236t-34.5 351.5v600z" />
    <glyph glyph-name="totaothai" unicode="&#xe15;" horiz-adv-x="2094" 
d="M1040 1734l19 15q21 16 54.5 38.5t78.5 48t92 48t93.5 37.5t88.5 15q117 0 199 -37.5t131.5 -105.5t72.5 -167q24 -102 24 -228v-1398h-399l-3 1446q0 72 -26.5 102t-74.5 9l-353 -136l-347 136q-46 18 -73.5 -10.5t-27.5 -100.5v-686q0 -122 14.5 -208t44 -140.5t72 -82
t96.5 -31.5q62 -5 141.5 5.5t152.5 34.5v-311q-43 -16 -89.5 -26.5t-92 -16.5t-90 -8.5t-81.5 -2.5q-147 0 -255 44.5t-177 141.5t-102 244t-33 354v641q0 125 22.5 226t73 169t131.5 105.5t199 37.5q32 0 66.5 -9.5t70.5 -22.5t69.5 -31.5t67.5 -35.5q73 -45 150 -103z" />
    <glyph glyph-name="thothungthai" unicode="&#xe16;" horiz-adv-x="2075" 
d="M278 1250l175 238h-325v237q125 46 259.5 85.5t268 66.5t263 43t247.5 16q189 0 323.5 -45t221 -130.5t126.5 -208.5t40 -275v-1277h-399v1197q0 128 -25.5 208t-72.5 124.5t-114 60.5q-66 18 -151 18q-29 0 -84 -4t-117.5 -11t-125 -18.5t-111.5 -24.5v-1107
q0 -51 15 -88t60 -51q22 -5 65.5 -4t96.5 7v-325q-35 -5 -68 -4q-27 -2 -55 -2h-42q-245 0 -358 116t-113 346v812z" />
    <glyph glyph-name="thothahanthai" unicode="&#xe17;" horiz-adv-x="2004" 
d="M600 1904v-678l432 464q45 50 93.5 95t102.5 82t116 59q58 24 130 24q107 0 172.5 -34t100 -96t45.5 -145t11 -179v-1496h-398v1416q0 74 -13 98.5t-38 24.5q-18 0 -36.5 -12.5t-38.5 -32.5t-42.5 -46.5t-50.5 -57.5l-496 -529q-29 -32 -46.5 -59.5t-27.5 -56t-13 -57.5
t-3 -66v-622h-398v1904h398z" />
    <glyph glyph-name="thothongthai" unicode="&#xe18;" horiz-adv-x="1761" 
d="M560 477q0 -50 34.5 -89t86.5 -65.5t113.5 -40t115 -13.5t113 17.5t109 48t81.5 72t32 92.5v111q0 144 -96 218t-285 100q-189 24 -322.5 69t-219 109t-125 144.5t-39.5 178.5q0 96 50 189.5t147.5 167t243 121t340.5 47.5q90 0 178 -8t168.5 -20t152.5 -32
q69 -18 120 -40v-331q-62 22 -135.5 42.5t-152 36.5t-164 25.5t-172.5 9.5q-90 0 -160 -17t-119.5 -42.5t-74.5 -57.5t-25 -64q0 -50 33.5 -84t87.5 -56.5t121 -37t137 -28.5q211 -40 347.5 -90.5t216.5 -118.5t111 -157.5t31 -206.5v-144q0 -112 -47 -215.5t-140 -179.5
t-230 -123t-314 -47q-179 0 -315 38.5t-231.5 105.5t-144.5 162q-50 94 -50 206v165l237 261h155v-429z" />
    <glyph glyph-name="nonuthai" unicode="&#xe19;" horiz-adv-x="1977" 
d="M600 1904v-1355q0 -67 22.5 -115t63 -81t96.5 -47.5t127.5 -14.5t134.5 8t120.5 36t112 78.5t102.5 135.5v1355h400v-1904h-238l-75 256q-94 -107 -177.5 -165.5t-159 -89t-145.5 -38.5t-142 -8q-166 0 -286.5 40t-199 113t-116.5 177q-38 106 -38 230v1389h398z" />
    <glyph glyph-name="bobaimaithai" unicode="&#xe1a;" horiz-adv-x="1982" 
d="M990 286q72 0 141 14t125 50t92 98t36 157v1299h398v-1333q0 -163 -53.5 -277.5t-154 -186.5t-248.5 -105.5t-336 -33.5t-334.5 33.5t-247.5 105.5t-153.5 186.5t-52.5 277.5v1333h398v-1299q0 -94 36 -156.5t91 -99.5t124.5 -52.5t138.5 -10.5z" />
    <glyph glyph-name="poplathai" unicode="&#xe1b;" horiz-adv-x="2027" 
d="M1013 282q74 0 149 13.5t133.5 49.5t96 98.5t37.5 161.5v2118h398v-2152q0 -163 -56 -277.5t-160.5 -186.5t-256.5 -105q-152 -34 -341 -34t-338.5 33.5t-255 105.5t-161.5 186.5t-56 277.5v1333h398v-1299q0 -99 37 -161.5t97 -98.5t133.5 -49.5t145.5 -13.5z" />
    <glyph glyph-name="phophungthai" unicode="&#xe1c;" horiz-adv-x="2105" 
d="M1051 178q-77 -56 -150 -101q-32 -18 -68 -37t-70.5 -34.5t-68.5 -23.5q-35 -5 -67 -4q-117 0 -198.5 36t-132 105.5t-72.5 168t-22 222.5v668q0 206 34 349t106 235t181 134.5t256 42.5q35 0 81 -5.5t90.5 -12.5t89.5 -18.5t82 -20.5v-324q-40 16 -70.5 26.5t-62 17
t-61.5 9.5q-32 2 -77 2q-58 0 -105 -23.5t-79.5 -75.5t-49.5 -136t-17 -204v-710q0 -72 27 -100t77 -10l344 139l354 -139q46 -18 75 10t29 100v1440h398v-1394q0 -125 -22.5 -223t-73.5 -167.5t-132 -105.5t-198 -36q-40 0 -89.5 13.5t-96.5 36t-89.5 48t-76 48.5t-44.5 31
z" />
    <glyph glyph-name="fofathai" unicode="&#xe1d;" horiz-adv-x="2105" 
d="M1051 178q-77 -56 -150 -101q-32 -18 -68 -37t-70.5 -34.5t-68.5 -23.5q-35 -5 -67 -4q-117 0 -198.5 36t-132 105.5t-72.5 168t-22 222.5v668q0 206 34 349t106 235t181 134.5t256 42.5q35 0 81 -5.5t90.5 -12.5t89.5 -18.5t82 -20.5v-324q-40 16 -70.5 26.5t-62 17
t-61.5 9.5q-32 2 -77 2q-58 0 -105 -23.5t-79.5 -75.5t-49.5 -136t-17 -204v-710q0 -72 27 -100t77 -10l344 139l354 -139q46 -18 75 10t29 100v2259h398v-2213q0 -125 -22.5 -223t-73.5 -167.5t-132 -105.5t-198 -36q-40 0 -89.5 13.5t-96.5 36t-89.5 48t-76 48.5t-44.5 31
z" />
    <glyph glyph-name="phophanthai" unicode="&#xe1e;" horiz-adv-x="2486" 
d="M1242 222q-102 -69 -210 -123q-45 -22 -93 -44.5t-98.5 -41t-96.5 -26.5q-50 -10 -94 -9q-117 0 -202 28.5t-138.5 89.5t-80.5 153t-27 217v1440l398 -2v-1440q0 -35 13.5 -60t36 -38.5t47.5 -16.5t52 5l293 88v1464l398 -2v-1462l298 -88q24 -10 50 -6t48.5 17.5
t36 37.5t13.5 61v1440l399 2v-1440q0 -125 -27.5 -217t-81 -153t-138 -89.5t-201.5 -28.5q-58 0 -125 16.5t-133.5 44t-127.5 59.5t-106.5 59t-58.5 35z" />
    <glyph glyph-name="fofanthai" unicode="&#xe1f;" horiz-adv-x="2486" 
d="M1242 222q-102 -69 -210 -123q-45 -22 -93 -44.5t-98.5 -41t-96.5 -26.5q-50 -10 -94 -9q-117 0 -202 28.5t-138.5 89.5t-80.5 153t-27 217v1440l398 -2v-1440q0 -35 13.5 -60t36 -38.5t47.5 -16.5t52 5l293 88v1464l398 -2v-1462l298 -88q24 -10 50 -6t48.5 17.5
t36 37.5t13.5 61v2256h399v-2254q0 -125 -27.5 -217t-81 -153t-138 -89.5t-201.5 -28.5q-58 0 -125 16.5t-133.5 44t-127.5 59.5t-106.5 59t-58.5 35z" />
    <glyph glyph-name="phosamphaothai" unicode="&#xe20;" horiz-adv-x="2067" 
d="M1467 1197q0 128 -21.5 208t-64 124.5t-105 61.5t-146.5 17q-29 0 -70.5 -4t-91.5 -11t-101 -18.5t-101 -24.5v-1112q0 -230 -112 -347q-117 -117 -358 -115q-18 0 -45 1t-54 1q-32 0 -64 4v325q54 -5 95 -5.5t63 2.5q45 11 61 48.5t16 90.5v807l174 238h-324v237
q125 46 247 85.5t243 66.5t239.5 43t234.5 16q189 0 318.5 -45t210.5 -130.5t118 -208.5t37 -275v-1277h-399v1197z" />
    <glyph glyph-name="momathai" unicode="&#xe21;" horiz-adv-x="1977" 
d="M1779 1904v-1389q0 -125 -38.5 -229.5t-116.5 -177.5t-199 -113t-287 -40q-72 0 -143.5 8t-146.5 38.5t-158 88.5t-176 166l-76 -256h-236v1904h398v-1355q50 -85 102.5 -135.5t112 -78.5t121.5 -36t134 -8q69 0 126.5 14.5t97.5 47.5t62.5 81t22.5 115v1355h400z" />
    <glyph glyph-name="yoyakthai" unicode="&#xe22;" horiz-adv-x="2012" 
d="M166 566q0 106 40 191t114 139l160 117q-66 27 -121 68t-92.5 93.5t-57.5 116t-20 133.5q0 45 6.5 101t25.5 112t53.5 110.5t92 94.5t139 64.5t195.5 24.5q11 0 52 -2.5t93 -8.5t112 -16q58 -10 106 -27v-309q-99 27 -186.5 38.5t-154.5 -0.5q-50 -10 -81 -29t-47.5 -45
t-23 -57.5t-6.5 -58.5t9.5 -63t31 -67.5t55 -53t83.5 -21.5h336v-179l-325 -194q-90 -54 -137 -112q-50 -58 -48 -131q0 -77 24 -129t64.5 -86t89.5 -52.5t98.5 -27.5t94.5 -10q40 -2 72 -4q80 0 154.5 20t128.5 59.5t88 100.5q32 62 32 144v1294h398v-1338
q0 -146 -50 -257.5t-152 -187.5t-257 -114.5t-365 -38.5q-102 0 -203.5 10.5t-193 36t-169.5 70.5t-134 109.5t-90 157t-34 214.5z" />
    <glyph glyph-name="roruathai" unicode="&#xe23;" horiz-adv-x="1627" 
d="M565 1371q0 -45 15 -85.5t48.5 -69.5t83.5 -49t118 -25q197 -18 326.5 -64t204 -119t105 -171t30.5 -218q0 -77 -17 -152.5t-53.5 -143.5t-93.5 -126t-141 -100.5t-194.5 -66.5t-247.5 -24q-90 0 -175.5 8t-161.5 21.5t-137.5 30.5t-106.5 34v339q45 -16 100 -32.5
t122.5 -32.5t143.5 -25t156 -9q106 0 181 19.5t123.5 53.5t71.5 84q22 45 22 102q0 40 -9.5 87.5t-37.5 86t-81.5 63t-141.5 29.5q-133 5 -234 26.5t-173.5 56.5t-120.5 83t-77 107.5t-42 128t-13 144.5q0 112 39.5 218t125 189.5t220 134t329.5 50.5q90 0 166 -7.5
t141.5 -17t124 -26.5t109.5 -39v-341q-58 22 -117 40t-124 31.5t-139.5 20.5t-154.5 7q-157 0 -235 -66.5t-78 -184.5z" />
    <glyph glyph-name="ruthai" unicode="&#xe24;" horiz-adv-x="2075" 
d="M278 1250l175 238h-325v237q125 46 259.5 85.5t268 66.5t263 43t247.5 16q189 0 323.5 -45t221 -130.5t126.5 -208.5t40 -275v-1842h-399v1762q0 128 -25.5 208t-72.5 124.5t-114 60.5q-66 18 -151 18q-29 0 -84 -4t-117.5 -11t-125 -18.5t-111.5 -24.5v-1107
q0 -51 15 -88t60 -51q22 -5 65.5 -4t96.5 7v-325q-35 -5 -68 -4q-27 -2 -55 -2h-42q-245 0 -358 116t-113 346v812z" />
    <glyph glyph-name="lolingthai" unicode="&#xe25;" horiz-adv-x="1939" 
d="M995 -2h-201q-112 0 -206.5 23.5t-168 66t-129 100t-92 123t-55 135t-18.5 141.5q0 144 55 254.5t150.5 189.5t223.5 125.5t276 57.5h312l192 -134v251q0 77 -28.5 128t-84.5 85t-139.5 46.5t-190.5 12.5q-85 0 -174.5 -11t-172.5 -28t-154.5 -37.5t-120.5 -38.5v339
q51 22 131 43t169.5 36.5t181 25.5t167.5 10q224 0 381 -44t253 -126t139 -205.5t43 -280.5v-1288h-400v908h-478q-67 -10 -128 -30t-105.5 -58.5t-72.5 -89.5t-28 -118q0 -50 21.5 -101t61.5 -93t101.5 -67.5t143.5 -25.5h145v-325z" />
    <glyph glyph-name="luthai" unicode="&#xe26;" horiz-adv-x="2067" 
d="M1467 1197q0 128 -21.5 208t-64 124.5t-105 61.5t-146.5 17q-29 0 -70.5 -4t-91.5 -11t-101 -18.5t-101 -24.5v-1112q0 -230 -112 -347q-117 -117 -358 -115q-18 0 -45 1t-54 1q-32 0 -64 4v325q54 -5 95 -5.5t63 2.5q45 11 61 48.5t16 90.5v807l174 238h-324v237
q125 46 247 85.5t243 66.5t239.5 43t234.5 16q189 0 318.5 -45t210.5 -130.5t118 -208.5t37 -275v-1842h-399v1762z" />
    <glyph glyph-name="wowaenthai" unicode="&#xe27;" horiz-adv-x="1520" 
d="M1018 954q0 163 -18.5 287t-66 205.5t-129.5 123t-215 41.5q-77 0 -140 -7t-118.5 -18.5t-103.5 -28t-97 -34.5v341q102 45 224.5 67.5t259.5 22.5q162 0 283 -30t211 -86.5t152 -140.5t98 -195.5t51 -249t15 -298.5q0 -248 -37.5 -435.5t-129.5 -311.5t-249 -187
t-394 -63q-136 0 -258 21.5t-226 66.5v341q46 -18 95.5 -34t105 -27t119.5 -17.5t139 -6.5q133 0 215 35t129.5 113.5t66 202.5t18.5 302z" />
    <glyph glyph-name="sosalathai" unicode="&#xe28;" horiz-adv-x="2049" 
d="M1910 1998l-195 -278q66 -72 100.5 -165.5t34.5 -220.5v-1334h-399v1301q0 94 -40 155.5t-103 97.5t-139 50t-145 14q-69 5 -143.5 -9t-136.5 -50.5t-103 -100t-41 -157.5v-315l280 139h250v-373h-530v-752h-398v1334q0 162 58 276.5t165.5 187t258.5 105.5t340 33
q122 0 227.5 -13.5t198.5 -40.5v292h460v-176z" />
    <glyph glyph-name="sorusithai" unicode="&#xe29;" horiz-adv-x="2022" 
d="M1421 1286v618h398v-618h207v-350h-207v-365q0 -163 -53.5 -277.5t-158.5 -186.5t-253.5 -105.5t-336.5 -33.5t-339.5 33.5t-257.5 105.5t-162 186.5t-56 277.5v1333h398v-1299q0 -94 38.5 -156.5t97 -98.5t133.5 -49q77 -13 149 -15q74 0 146.5 14t128.5 50t92 98
t36 157v331h-458v166z" />
    <glyph glyph-name="sosuathai" unicode="&#xe2a;" horiz-adv-x="1934" 
d="M995 -2h-201q-112 0 -206.5 23.5t-168 66t-129 100t-92 123t-55 135t-18.5 141.5q0 144 55 254.5t150.5 189.5t223.5 125.5t276 57.5h312l192 -134v251q0 77 -28.5 128t-84.5 85t-139.5 46.5t-190.5 12.5q-85 0 -174.5 -11t-172.5 -28t-154.5 -37.5t-120.5 -38.5v339
q51 22 131 43t169.5 36.5t181 25.5t167.5 10q125 0 230.5 -14t189.5 -42v288h460v-176l-195 -278q69 -80 100 -189.5t31 -244.5v-1288h-400v908h-478q-67 -10 -128 -30t-105.5 -58.5t-72.5 -89.5t-28 -118q0 -50 21.5 -101t61.5 -93t101.5 -67.5t143.5 -25.5h145v-325z" />
    <glyph glyph-name="hohipthai" unicode="&#xe2b;" horiz-adv-x="2016" 
d="M1416 862q0 152 -84 230t-258 78q-125 0 -250 -23q-122 -27 -224 -59v-1088h-398v1904l398 2v-508q54 18 114 33t126 26.5t133 19.5t129 8q166 0 296 -35v459h484v-223l-252 -355q99 -85 141.5 -209.5t42.5 -275.5v-846h-398v862z" />
    <glyph glyph-name="lochulathai" unicode="&#xe2c;" horiz-adv-x="2329" 
d="M2128 443q0 -106 -22.5 -191.5t-73.5 -146t-132 -94t-198 -33.5q-58 0 -121 16t-122 42t-112.5 57.5t-94.5 58.5t-65 45l-22 17q-90 -67 -181 -120q-40 -22 -84 -44.5t-90.5 -38.5t-92.5 -24q-45 -10 -90 -9q-117 0 -197.5 33.5t-132 94t-73.5 148t-22 189.5v1463l398 -2
v-1456q0 -35 14.5 -61.5t36 -41t48.5 -17t50 7.5l216 80v547l254 320h146v-867l216 -80q22 -10 49.5 -7.5t49.5 17t36 41t14 61.5v883q0 77 -22.5 128t-67.5 82.5t-109 42.5t-144 6q-67 -5 -123 -22q-58 -18 -99 -32v328q22 10 91.5 26t181.5 25q157 13 292 -32v291h460
v-176l-209 -278q72 -80 109.5 -189.5t37.5 -244.5v-843z" />
    <glyph glyph-name="oangthai" unicode="&#xe2d;" horiz-adv-x="1945" 
d="M189 830q0 77 20 141t64.5 111.5t109.5 73.5t150 26h66.5t68.5 -4t77 -11t93 -18v-275q-35 10 -73.5 11t-60.5 1q-43 0 -66.5 -15t-34.5 -40t-14 -57q-2 -27 -2 -57v-112q0 -94 33.5 -156.5t87.5 -99.5t121 -52t136 -11q72 0 140.5 14t122.5 50t87.5 98t33.5 157v640
q0 110 -31.5 178t-85.5 107.5t-130 53t-168 13.5q-101 0 -209.5 -19.5t-210 -49t-190.5 -67t-146 -72.5v358q58 29 145 62t195.5 61.5t229.5 47t247 18.5q202 0 345 -43t232.5 -128t132 -214.5t42.5 -305.5v-674q0 -163 -51 -277.5t-150.5 -186.5t-245 -105.5t-335.5 -33.5
q-189 0 -333 33.5t-242.5 105.5t-149.5 186.5t-51 277.5v259z" />
    <glyph glyph-name="honokhukthai" unicode="&#xe2e;" horiz-adv-x="1945" 
d="M1805 1998l-192 -278q69 -85 102 -202q32 -122 32 -273v-674q0 -163 -51 -277.5t-150.5 -186.5t-245 -105.5t-335.5 -33.5q-189 0 -333 33.5t-242.5 105.5t-149.5 186.5t-51 277.5v259q0 77 20 141t64.5 111.5t109.5 73.5t150 26h66.5t68.5 -4t77 -11t93 -18v-275
q-35 10 -73.5 11t-60.5 1q-43 0 -66.5 -15t-34.5 -40t-14 -57q-2 -27 -2 -57v-112q0 -94 33.5 -156.5t87.5 -99.5t121 -52t136 -11q72 0 140.5 14t122.5 50t87.5 98t33.5 157v640q0 110 -31.5 178t-85.5 107.5t-130 53t-168 13.5q-101 0 -209.5 -19.5t-210 -49t-190.5 -67
t-146 -72.5v358q58 29 145 62t195.5 61.5t229.5 47t247 18.5q202 0 349 -45v283h461v-176z" />
    <glyph glyph-name="paiyannoithai" unicode="&#xe2f;" horiz-adv-x="1884" 
d="M946 1581h-90q-90 0 -153 -26.5t-100.5 -67.5t-56 -92t-18.5 -101q0 -67 25 -120.5t67 -92t100.5 -58.5t125.5 -25q45 -5 98 -3t109.5 10.5t117.5 25.5t115 43v830h399v-1904h-399v838l-156 -128q-18 -10 -59 -17.5t-90.5 -11.5t-102.5 -7q-54 -2 -104 3
q-136 10 -253.5 57.5t-204 127t-134.5 191.5t-48 246q0 112 40 219.5t122.5 193.5t207.5 138q123 54 293 54h149v-323z" />
    <glyph glyph-name="saraathai" unicode="&#xe30;" horiz-adv-x="1235" 
d="M1125 1411l-274 -152h-437q-50 0 -91 21t-72.5 53.5t-50.5 72.5t-19 82v250h400v-124q0 -43 12 -58t45 -15h487v-130zM1125 381l-274 -152h-437q-50 0 -91 22.5t-72.5 54.5t-48.5 73q-21 38 -21 79v249h400v-120q0 -43 12 -58t45 -15h487v-133z" />
    <glyph glyph-name="maihanakatthai" unicode="&#xe31;" 
d="M43 2430l-334 -150h-739q-99 0 -161.5 33.5t-98.5 81t-50 101t-14 91.5v218h386v-151q0 -46 19 -68.5t64 -22.5h928v-133z" />
    <glyph glyph-name="saraaathai" unicode="&#xe32;" horiz-adv-x="1340" 
d="M741 1342q0 139 -58 204q-56 67 -190 67q-94 0 -199 -22.5t-217 -76.5v318q50 22 109.5 42t122 35.5t123.5 22.5t110 7q168 0 282.5 -44.5t185 -124.5t101 -188t30.5 -233v-1349h-400v1342z" />
    <glyph glyph-name="saraamthai" unicode="&#xe33;" horiz-adv-x="1340" 
d="M741 1342q0 139 -58 204q-56 67 -190 67q-94 0 -199 -22.5t-217 -76.5v318q50 22 109.5 42t122 35.5t123.5 22.5t110 7q168 0 282.5 -44.5t185 -124.5t101 -188t30.5 -233v-1349h-400v1342zM-763 2621q0 88 28 153.5t76.5 112t113.5 69.5t140 23q77 0 141 -23t113 -69.5
t77.5 -113.5t28.5 -152q0 -88 -28.5 -155.5t-77.5 -113t-114.5 -68t-140 -22.5t-139.5 22.5t-113.5 68t-76.5 113t-28 155.5zM-538 2621q0 -77 36 -114.5t94 -37.5t94 37.5t36 114.5t-36 113q-35 38 -94 39q-58 0 -94 -37.5t-36 -114.5z" />
    <glyph glyph-name="saraithai" unicode="&#xe34;" 
d="M-1742 2418l321 148h1219v-286h-1540v138z" />
    <glyph glyph-name="saraiithai" unicode="&#xe35;" 
d="M-1742 2418l318 145h835v325h387v-608v0h-1540v138z" />
    <glyph glyph-name="sarauethai" unicode="&#xe36;" 
d="M-632 2622q0 -72 31 -106t102 -34q72 0 101.5 36t29.5 104q0 72 -31 108t-100 36q-72 0 -102.5 -36t-30.5 -108zM-1742 2418l320 145h592q-10 32 -10 58q0 78 23 142t67 109t108 67.5t142.5 22.5t141 -22.5t107.5 -67.5t67 -108t22 -143t-25.5 -141.5t-71 -105.5
t-109.5 -68q-58 -24 -130 -26h-1244v138z" />
    <glyph glyph-name="saraueethai" unicode="&#xe37;" 
d="M-1742 2418l308 140h372v330h312l1 -330h235v330h312v-608h-1540v138z" />
    <glyph glyph-name="sarauthai" unicode="&#xe38;" 
d="M-589 -838v233q0 27 -2.5 47t-12.5 36t-28 24q-13 6 -45 7q-27 0 -62 -5.5t-72 -13.5v235q40 11 89.5 20t96.5 15t92 8.5t80 -2.5q80 -5 129.5 -34.5t77 -71t36 -86t8.5 -83.5v-329h-387z" />
    <glyph glyph-name="sarauuthai" unicode="&#xe39;" 
d="M-1304 -246q32 6 66.5 11t69.5 8t66.5 3t53.5 -2q77 0 122.5 -21.5t68.5 -57.5t30.5 -80.5t2.5 -93.5t6.5 -81t31.5 -47t44.5 -21t48.5 -6q72 0 100 32t28 100v268h363v-248q0 -85 -31 -155t-92.5 -119.5t-154.5 -77t-219 -27.5q-102 0 -189.5 17t-153 52t-101 88.5
t-28.5 132.5q5 62 -11 85q-18 22 -72 22q-10 0 -23 -1t-27 -1v220z" />
    <glyph glyph-name="phinthuthai" unicode="&#xe3a;" 
d="M-661 -461q0 51 19.5 97t55.5 82t80.5 55t97.5 19q51 0 97.5 -19t80 -55t53.5 -81t20 -98q0 -51 -20 -97.5t-53.5 -80t-80.5 -53.5t-97 -20q-54 0 -98 20t-80 53.5t-55.5 80t-19.5 97.5z" />
    <glyph glyph-name="uni0E3D" unicode="&#xe3d;" 
 />
    <glyph glyph-name="PUCR2005" unicode="&#xe3e;" 
 />
    <glyph glyph-name="bahtthai" unicode="&#xe3f;" horiz-adv-x="2094" 
d="M1098 2608v-229h40q218 0 362.5 -50.5t231.5 -137.5t124 -207t37 -258q0 -77 -19.5 -146.5t-56 -131t-87.5 -110.5q-54 -51 -122 -84q85 -27 151.5 -77.5t112 -123t70.5 -162.5q24 -90 24 -192q0 -147 -40 -275t-134 -222.5t-248.5 -148t-388.5 -53.5h-57v-251h-341v251
h-565v2379h565v229h341zM592 371h544q122 0 201 25t127 69.5t67 105.5t19 136q0 91 -22 156t-74 105t-128 61q-80 21 -188 19h-546v-677zM1478 1711.5q0 58.5 -16 112t-56 94t-110 64.5t-182 24h-522v-593h534q102 0 170.5 26.5t108.5 66.5t56.5 93.5t16.5 112z" />
    <glyph glyph-name="saraethai" unicode="&#xe40;" horiz-adv-x="824" 
d="M213 0v1904h398v-1904h-398z" />
    <glyph glyph-name="saraaethai" unicode="&#xe41;" horiz-adv-x="1529" 
d="M213 0v1904h398v-1904h-398zM918 0v1904h399v-1904h-399z" />
    <glyph glyph-name="saraothai" unicode="&#xe42;" horiz-adv-x="896" 
d="M248 2022q0 51 -29 90l-142 224q-46 61 -66.5 117t-22 105.5t7.5 89.5t22 62q43 80 118 122t200 42q99 0 196 -10t188 -23.5t173.5 -32t149.5 -35.5v-229h-608q-18 0 -31.5 -7t-19 -21t0 -32t20.5 -38l190 -283q27 -35 42 -67q11 -32 11 -70v-2026h-400v2022z" />
    <glyph glyph-name="saraaimaimuanthai" unicode="&#xe43;" horiz-adv-x="896" 
d="M248 1637q0 80 10.5 140t32 107t53.5 87t77 85q69 67 109 119t56.5 89.5t20 65t-0.5 51.5q0 24 -7 56t-32 60.5t-72 48t-127 19.5q-77 0 -137.5 -9t-109.5 -23.5t-89 -33.5q-40 -13 -75 -30v296q54 22 113.5 43t120 35.5t123 24t121.5 9.5q102 0 183 -21t139.5 -54.5
t98.5 -78.5t65 -93.5t34.5 -102t9.5 -103.5q0 -62 -7.5 -114t-32 -103.5t-69.5 -107.5t-117 -134q-34 -35 -51.5 -73.5t-27.5 -78t-12.5 -80t-2.5 -77.5l3 -1656h-400v1637z" />
    <glyph glyph-name="saraaimaimalaithai" unicode="&#xe44;" horiz-adv-x="896" 
d="M248 2026q0 40 13 71t40 66l213 283q18 21 21.5 38.5t-2 31.5t-18.5 20q-13 10 -32 8h-608v229q69 18 150.5 36t173 31.5t188 23.5t195.5 10q125 0 200.5 -42t118.5 -122q13 -22 21.5 -62t7 -89.5t-20 -105.5t-67.5 -117l-165 -224q-29 -38 -29 -90v-2022h-400v2026z" />
    <glyph glyph-name="lakkhangyaothai" unicode="&#xe45;" horiz-adv-x="1340" 
d="M741 1342q0 139 -58 204q-56 67 -190 67q-94 0 -199 -22.5t-217 -76.5v318q50 22 109.5 42t122 35.5t123.5 22.5t110 7q168 0 282.5 -44.5t185 -124.5t101 -188t30.5 -233v-1914h-400v1907z" />
    <glyph glyph-name="maiyamokthai" unicode="&#xe46;" horiz-adv-x="1952" 
d="M950 1760q69 54 141 94q32 18 64 34t68 28t72 20t67 8q106 0 177.5 -36t114 -101t60 -154.5t17.5 -194.5v-2023h-385l-2 2055q0 35 -11 59.5t-29 38.5t-40 14.5t-45 -7.5l-269 -129l-267 129q-22 11 -45.5 9.5t-41.5 -14t-29.5 -37.5t-11.5 -62v-198q0 -45 5 -89
t20 -77.5t48 -56t87 -22.5q38 -2 75 5q38 10 93 27v-274q-54 -18 -116.5 -31t-156.5 -13q-83 0 -147.5 22t-111.5 60.5t-78 89t-51 107.5t-28 117.5t-8 116.5v197q0 90 16.5 174t57.5 151t108 107t170 40q34 0 70.5 -8t71.5 -20t69 -30q35 -13 64 -32q70 -40 137 -94z" />
    <glyph glyph-name="maitaikhuthai" unicode="&#xe47;" 
d="M-902 2376q-43 -29 -88 -51q-38 -18 -85 -35q-45 -13 -90 -15q-90 0 -152 27.5t-103 74.5t-61 112t-20 143v29q0 38 8 82t27.5 84t53 78.5t84 67.5t118.5 45t162 16h858v-109l-285 -135h-573q-58 -2 -87.5 -34.5t-29.5 -96.5v-49q0 -32 8 -50.5t20 -28t30.5 -10.5t36.5 5
l164 72l178 -68q40 -13 65 3t25 61v72h342v-79q0 -62 -14.5 -119.5t-53.5 -100t-106.5 -67.5t-169.5 -25q-45 0 -92 15.5t-85.5 33.5t-49.5 28z" />
    <glyph glyph-name="maiekthai" unicode="&#xe48;" 
d="M-589 3101v494h387v-494h-387z" />
    <glyph glyph-name="maithothai" unicode="&#xe49;" 
d="M-997 3226q21 13 54.5 34.5t65.5 49.5t58 60q27 32 25 64q0 13 -1.5 25.5t-11 23.5t-22.5 21t-35 8q-43 2 -77 -8q-35 -10 -57 -19v217q40 13 96 26.5t123 13.5q62 0 112.5 -14t85 -40.5t55.5 -63.5q21 -35 20 -80q0 -35 -11 -67t-27 -57t-33.5 -45t-32.5 -36h533v-86
l-241 -152h-679v125z" />
    <glyph glyph-name="maitrithai" unicode="&#xe4a;" 
d="M-816 3123q-22 -10 -51 -14.5t-57 -6t-56 -1t-52 5.5q-50 10 -82.5 35.5t-52.5 59t-29 71t-9 69.5v188q0 54 13.5 93t40 64t63.5 37t82 12q40 0 81.5 -13.5t82 -31t78.5 -39.5t74 -39q40 18 85 38.5t90 38t89 29.5t85 12q74 0 120.5 -46.5t46.5 -154.5q0 -45 -13 -76.5
t-31.5 -53.5t-40.5 -38q-18 -16 -37 -24h314v-85l-237 -152h-323v197q10 6 27 14t31.5 25t26 40t11.5 60q0 29 -6 43t-14.5 19t-24.5 0q-16 -10 -35 -17q-45 -22 -88 -45q-45 -22 -76 -32v0q-16 5 -35 13.5t-39 20t-40 22.5t-38 22q-18 10 -35 15.5t-29 3t-20 -18.5t-8 -46
l3 -59q0 -32 12.5 -47.5t31 -20t38.5 -2.5t33 2v-187z" />
    <glyph glyph-name="maichattawathai" unicode="&#xe4b;" 
d="M-682 3499h165v215h315v-215h264v-233h-264v-215h-315v215h-355v94z" />
    <glyph glyph-name="thanthakhatthai" unicode="&#xe4c;" 
d="M10 3232l-240 -150h-156q-29 0 -50.5 -11.5t-21.5 -51.5v-192h-377v157q0 54 12 112t48.5 107.5t105.5 80.5t181 36h498v-88z" />
    <glyph glyph-name="nikhahitthai" unicode="&#xe4d;" 
d="M-763 2621q0 88 28 153.5t76.5 112t113.5 69.5t140 23q77 0 141 -23t113 -69.5t77.5 -113.5t28.5 -152q0 -88 -28.5 -155.5t-77.5 -113t-114.5 -68t-140 -22.5t-139.5 22.5t-113.5 68t-76.5 113t-28 155.5zM-538 2621q0 -77 36 -114.5t94 -37.5t94 37.5t36 114.5t-36 113
q-35 38 -94 39q-58 0 -94 -37.5t-36 -114.5z" />
    <glyph glyph-name="yamakkanthai" unicode="&#xe4e;" 
d="M125 3006l-237 -148h-99q-22 0 -35 -6t-22.5 -15.5t-11.5 -23t-2 -34.5v-153h-323v-220h-358v165q0 54 13.5 112.5t49.5 107.5t105 81t181 35q13 35 38.5 69.5t63 58.5t91 40t130.5 21h416v-90z" />
    <glyph glyph-name="fongmanthai" unicode="&#xe4f;" horiz-adv-x="2232" 
d="M1115 -32q-139 0 -266 24t-241 73t-206.5 126.5t-160 187t-102.5 253.5q-38 144 -38 322q0 179 36.5 323t104 253.5t160 186.5t206.5 126.5t241 72.5t266 23t268 -23t242 -72.5t207 -126.5t160.5 -186.5t103.5 -253.5t37 -323.5t-37 -322.5t-103.5 -252.5t-160.5 -187
t-207 -126.5t-242 -73t-268 -24zM1120 270q144 0 271 38t222.5 119.5t151.5 210.5q56 133 56 316q0 186 -56 316t-151.5 211.5t-222.5 118.5t-271 37t-273.5 -37t-225.5 -118.5t-152 -212.5t-56 -314.5t56 -314.5t152 -212.5t225.5 -119.5t273.5 -38zM1120 466
q-102 0 -194 27t-162 85.5t-110 149.5t-40 225.5t40 226.5t110 150.5t162 85.5t194 27t192 -27t159.5 -85.5t109.5 -152.5q38 -90 38 -224q0 -133 -39 -225t-108.5 -150.5t-159.5 -85.5t-192 -27zM1117.5 726q48.5 0 92 11.5t75.5 39.5t50.5 71t18.5 106q0 62 -18.5 106
t-50.5 72t-76 39t-91 11q-50 0 -93.5 -11t-75 -39t-51.5 -71t-20 -107q0 -62 20 -105.5t51.5 -71.5t75.5 -39.5t92.5 -11.5z" />
    <glyph glyph-name="zerothai" unicode="&#xe50;" horiz-adv-x="2342" 
d="M1160 -35q-144 0 -277 17.5t-248 57.5t-212 105.5t-165 162.5t-106 228q-35 128 -35 298q0 174 37.5 308.5t109.5 233t170.5 163t217.5 104t254 55.5q139 18 281 17q150 0 285.5 -17.5t250.5 -57.5t209 -105.5t159.5 -159t100.5 -221.5t35 -290q0 -192 -43 -333
t-120 -241.5t-180 -164t-221.5 -99.5t-248 -48.5t-254.5 -12.5zM1166 270q162 0 287 30t207 98t123 180t41 273q0 133 -30.5 237t-105.5 175t-199 109t-313 38q-186 0 -311.5 -35.5t-201.5 -105t-109.5 -176.5t-33.5 -251q0 -134 40 -239t121 -179.5t201.5 -114t283.5 -39.5
z" />
    <glyph glyph-name="onethai" unicode="&#xe51;" horiz-adv-x="2340" 
d="M840 515q-147 0 -270.5 33.5t-212 101.5t-138 171.5t-49.5 242.5q0 144 69.5 261.5t200 197.5t318.5 125t428 45q253 0 443 -52t317.5 -152t191.5 -245.5t64 -334.5v-120q0 -144 -39.5 -262.5t-112 -210.5t-174.5 -159t-225 -109.5t-266 -65t-297 -22.5q-102 0 -198 4
t-188 15t-184 29.5t-187 49.5v329q72 -22 130.5 -39t112 -30.5t107 -22.5t114.5 -15t132 -8.5t161 -2.5q85 0 170.5 11t164.5 36t148 65t120 97.5t81.5 134.5t30.5 176v139q0 85 -25.5 152t-70.5 118.5t-105.5 87.5t-128.5 57.5t-142.5 31t-144.5 9.5q-122 0 -233 -20
t-196 -59t-135.5 -101t-48.5 -145q0 -66 24 -108t65.5 -68.5t96 -37.5t116.5 -11q35 0 81 3t94 11t102 19t102 34v-319q-77 -32 -178.5 -49.5t-235.5 -17.5z" />
    <glyph glyph-name="twothai" unicode="&#xe52;" horiz-adv-x="2342" 
d="M197 1187q0 107 24.5 201.5t77.5 164t140 109t217 39.5q54 0 100 -5.5t88 -21.5t88.5 -43.5t99.5 -67.5l162 -120l168 125q51 38 95 64t86.5 42t87 21.5t99.5 5.5q130 0 218.5 -37.5t142 -106.5t76.5 -163.5t23 -206.5v-425q0 -144 -42 -260t-116 -203.5t-179.5 -150.5
t-229.5 -100.5t-266 -57.5q-144 -21 -291 -19q-134 0 -258.5 8t-244.5 25.5t-236 49t-233 76.5v358q110 -62 225.5 -100.5t236.5 -61t248 -29t262 -6.5q72 0 153.5 6.5t162 25.5t155 53t131.5 86.5t90 124.5q34 77 34 175v483q0 34 -9 55.5t-25 33.5t-38 16q-18 5 -45 5
q-32 0 -53.5 -5.5t-42.5 -14.5t-38.5 -22.5t-34.5 -30.5l-216 -152h-197l-192 136q-18 13 -40.5 28.5t-49.5 29.5t-56 22.5t-59 8.5q-18 0 -37 -4.5t-32 -16.5t-22.5 -32t-9.5 -57v-179q0 -54 11.5 -96t36 -72.5t65.5 -47t100 -16.5q29 0 69.5 2t80.5 6t81 13t71 19v-287
q-35 -13 -79.5 -22.5t-90.5 -16t-90 -11t-76 -4.5q-296 0 -438 139q-139 136 -139 414v101z" />
    <glyph glyph-name="threethai" unicode="&#xe53;" horiz-adv-x="2342" 
d="M147 1187q0 125 22.5 222t74.5 161.5t134.5 97.5t203.5 33q72 0 122.5 -8t90 -24t74.5 -39q32 -22 72 -49l233 -168l228 168q40 27 74 49.5t74 38.5t90 24q54 6 125 8q122 0 203.5 -33t131.5 -97.5t73.5 -161.5t23.5 -222v-1187h-399v1221q0 46 -11 73.5t-28 41t-34 18.5
q-22 2 -35 1q-43 0 -77 -16q-32 -18 -80 -51l-266 -190h-193h1l-259 190q-24 18 -45 30.5t-40 21.5t-36.5 12t-40.5 3q-13 0 -32 -3t-35.5 -16.5t-28 -41t-11.5 -73.5v-693q0 -66 20 -112t51.5 -77.5t71.5 -46t78 -14.5q112 0 193.5 20t145.5 51v-295q-67 -32 -161 -54
q-99 -22 -216 -22q-139 0 -246.5 36t-182.5 108.5t-114.5 181.5t-39.5 251v632z" />
    <glyph glyph-name="fourthai" unicode="&#xe54;" horiz-adv-x="2342" 
d="M1298 570q5 -35 20.5 -70.5t40.5 -66t52 -57.5t55 -50h672v-326h-1336q-163 0 -287.5 53.5t-210 157t-128.5 257.5t-43 359v34q-5 222 72 381.5t222.5 260t356.5 148t477 47.5q166 -2 293.5 -7.5t236 -14.5t209.5 -23q101 -13 213 -27v-338q-144 22 -266.5 40t-236 30.5
t-220 18t-213.5 5.5q-99 0 -190.5 -10t-174.5 -32.5t-152.5 -62t-121 -98.5t-81 -140t-29.5 -188v-29q0 -45 2.5 -100t13.5 -111t31 -107t53.5 -90.5t83.5 -63.5t122 -24h254q-170 134 -168 351q0 67 24 129.5t77.5 109t138.5 74.5t206 28q72 0 126.5 -8t109.5 -23v-288
q-61 10 -106 13q-50 6 -80 5q-38 -2 -63 -14.5t-38.5 -32.5t-17.5 -44t1 -56z" />
    <glyph glyph-name="fivethai" unicode="&#xe55;" horiz-adv-x="2342" 
d="M1122 1782q0 -72 35 -107t93 -35t93.5 36t35.5 106q0 72 -35 106t-94 34q-58 0 -93 -34t-35 -106zM1298 570q5 -35 20.5 -70.5t40.5 -66t52 -57.5t55 -50h672v-326h-1336q-163 0 -287.5 53.5t-210 157t-128.5 257.5t-43 359v34q-2 181 47.5 321t148 240.5t244.5 163.5
q144 62 328 89q-13 50 -15 107q0 83 30 147.5t78.5 106.5t115 66t143.5 24t142.5 -24t116 -66t78.5 -107t28 -147q0 -27 -2.5 -50t-7.5 -46q88 -5 163 -10.5t146.5 -14t143.5 -16.5q72 -10 152 -19v-338q-144 22 -266.5 40t-236 30.5t-220 18t-213.5 5.5q-99 0 -190.5 -10
t-174.5 -32.5t-152.5 -62t-121 -98.5t-81 -140t-29.5 -188v-29q0 -45 2.5 -100t13.5 -111t31 -107t53.5 -90.5t83.5 -63.5t122 -24h254q-170 134 -168 351q0 67 24 129.5t77.5 109t138.5 74.5t206 28q72 0 126.5 -8t109.5 -23v-288q-61 10 -106 13q-50 6 -80 5
q-38 -2 -63 -14.5t-38.5 -32.5t-17.5 -44t1 -56z" />
    <glyph glyph-name="sixthai" unicode="&#xe56;" horiz-adv-x="2342" 
d="M818 1018q78 0 145 -5v-303q-11 0 -25.5 1t-30.5 1h-29.5h-24.5q-45 0 -85 -11t-71 -33.5t-49.5 -60t-18.5 -92.5q0 -50 21.5 -89.5t60 -71t92 -52t113.5 -33.5t125.5 -20t129.5 -7q77 0 154 11t146.5 33.5t130 61t105.5 91t70 123t25 160.5v180q0 99 -27.5 174.5
t-73 129t-107 88t-129 56t-141.5 29.5t-142 8q-102 0 -216.5 -15t-235 -41.5t-246.5 -65t-250 -83.5q-6 62 -17 148t-27 189t-36 221.5t-52 241.5h386q18 -99 34 -198t28 -206q67 27 151.5 48.5t170.5 36.5t169.5 22.5t150.5 7.5q224 0 409.5 -45t317.5 -138.5t206.5 -244
t74.5 -363.5v-163q0 -192 -65 -340t-195 -250.5t-323 -154.5t-446 -52q-218 0 -392 38t-297.5 112t-188 186t-64.5 255q0 130 48.5 221.5t132 150t190 86t218.5 27.5z" />
    <glyph glyph-name="seventhai" unicode="&#xe57;" horiz-adv-x="2561" 
d="M2419 525q0 -46 -16 -104t-49.5 -116.5t-85.5 -114.5t-125 -98t-165 -69.5t-204 -27.5q-11 0 -46 2.5t-81.5 9t-101 16t-100.5 27.5l1 1195q0 34 -11 55.5t-28 33.5t-35 16.5t-33 4.5q-43 0 -70 -14.5t-59 -47.5l-122 -128h-194l-123 121q-29 32 -64 50.5t-75 18.5
q-13 0 -29 -4.5t-29.5 -16.5t-22.5 -32t-9 -57v-731q0 -54 9 -96t31.5 -73t62.5 -47t99 -16q29 0 48 2t38.5 7t38.5 13q22 10 51 19v-288q-35 -13 -60.5 -21.5t-48 -16.5t-45.5 -10q-27 -5 -59 -5q-296 0 -431 137t-135 414v654q0 107 21.5 201.5t70.5 164t132 109t213 39.5
q90 0 165.5 -41t158.5 -119l93 -85l85 90q67 72 152 113.5t174 41.5q130 0 211 -37.5t127 -106.5t63 -163.5t17 -206.5v-883q45 0 82.5 13t65.5 37.5t45 61.5t17 86v1480h385v-1457z" />
    <glyph glyph-name="eightthai" unicode="&#xe58;" horiz-adv-x="2342" 
d="M1787 560q0 32 -4 64t-17.5 60t-40.5 46.5t-69 21.5q-13 0 -33 -1t-42.5 -1.5t-48 -5.5t-49.5 -10v287q54 13 109.5 22.5t125.5 9.5q122 0 207.5 -36t139 -92t79.5 -128q24 -72 24 -143v-144q0 -125 -22.5 -225.5t-70.5 -167.5t-128 -104q-78 -35 -200 -35
q-72 0 -125.5 8t-95 23t-76.5 36q-34 22 -74 49l-211 168l-207 -168q-40 -27 -76 -48.5t-78 -36.5t-93.5 -23t-123.5 -8q-122 0 -204 31t-134 96t-74.5 161.5t-22.5 221.5v373q-5 222 72 381.5t223.5 260t358.5 148t476 47.5q112 0 204 -4t172 -9t152.5 -10.5t141.5 -13.5
t138.5 -17t144.5 -18l-1 -338q-144 22 -268 40t-236 30.5t-218 18t-213 5.5q-99 0 -192 -10t-177 -32.5t-153.5 -62t-120.5 -98.5t-79 -140t-28 -188v-398q0 -45 12 -72t28.5 -41t36 -15.5t33.5 -1.5q43 0 81.5 15.5t88.5 51.5l241 168h194l237 -168q50 -35 87.5 -51
t75.5 -16q18 0 39.5 3.5t39 17.5t31 45.5t13.5 85.5v85z" />
    <glyph glyph-name="ninethai" unicode="&#xe59;" horiz-adv-x="2342" 
d="M1787 867l458 -867h-395l-605 1142q-32 61 -68 100.5t-81 61.5t-97.5 31t-115.5 9q-122 2 -195.5 -32.5t-111.5 -104t-50 -165.5t-12 -215q0 -152 29.5 -252t84 -163t122.5 -89q69 -27 146 -27q72 -2 123 13.5t92 38.5t71 54q35 29 68 56l150 -272q-74 -69 -141 -110.5
t-130 -64t-123 -30.5t-120 -13q-80 -5 -169.5 11t-172.5 57t-159 108t-132 163t-89.5 225t-33.5 295q0 190 35 344.5t122 264.5t235 170.5t374 63.5q117 0 209.5 -15t168.5 -51t138 -94.5t111 -144.5q0 99 20 157.5t55.5 92t78.5 44.5t93 11h147v312h390v-532
q0 -43 -8.5 -63.5t-22.5 -29t-31.5 -8.5h-38.5h-275q-50 0 -77 -13t-42 -33.5t-20 -52t-5 -72.5v-311z" />
    <glyph glyph-name="angkhankhuthai" unicode="&#xe5a;" horiz-adv-x="2572" 
d="M946 1581h-90q-90 0 -153 -26.5t-100.5 -67.5t-56 -92t-18.5 -101q0 -67 25 -120.5t67 -92t100.5 -58.5t125.5 -25q45 -5 98 -3t109.5 10.5t117.5 25.5t115 43v830h399v-1904h-399v838l-156 -128q-18 -10 -59 -17.5t-90.5 -11.5t-102.5 -7q-54 -2 -104 3
q-136 10 -253.5 57.5t-204 127t-134.5 191.5t-48 246q0 112 40 219.5t122.5 193.5t207.5 138q123 54 293 54h149v-323zM1973 1904h400v-1904h-400v1904z" />
    <glyph glyph-name="khomutthai" unicode="&#xe5b;" horiz-adv-x="3676" 
d="M2374 616q-32 72 -54 130.5t-40.5 104t-35.5 84t-36 68.5q-22 -234 -104 -419.5t-217 -315t-321.5 -199t-421.5 -69.5q-229 6 -411.5 78t-309.5 196t-194 299.5t-67 388.5q0 202 56 373t159 294t249.5 190t330.5 67q130 0 229.5 -24.5t173.5 -69.5t123.5 -104
t80.5 -125.5t44 -133.5q13 -72 14 -135v-80l-256 -420h-112v515q0 46 -23 96.5t-64.5 90.5t-96.5 66q-50 24 -107 24q-74 2 -146.5 -35t-130 -115.5t-92 -199.5t-34.5 -286q0 -157 45.5 -278.5t125.5 -205.5t187 -128q107 -43 229 -47q206 -5 349.5 65t233 201t129.5 315
q45 184 50 405l321 168q77 -91 133 -185.5t101 -200.5q6 18 20.5 48.5t33 65.5t36 72t35.5 67l144 5q21 -35 37.5 -69t32 -70t29.5 -71q18 -40 35 -86q22 35 36.5 62t27.5 48t24 38.5t29 40.5q13 18 25.5 29t27 13t32 2h43.5h459v-124l-206 -149h-208q-10 0 -31.5 -4
t-34.5 -27q-32 -46 -67 -112q-35 -62 -85 -166l-139 -38q-35 90 -65.5 167t-70.5 140q-13 -32 -27.5 -61.5t-26.5 -65t-28 -77t-30 -92.5z" />
    <glyph glyph-name="ZWSP" unicode="&#x200b;" 
 />
    <glyph glyph-name="endash" unicode="&#x2013;" horiz-adv-x="1582" 
d="M1445 1149v-320h-1306v320h1306z" />
    <glyph glyph-name="emdash" unicode="&#x2014;" horiz-adv-x="3166" 
d="M3029 1149v-320h-2890v320h2890z" />
    <glyph glyph-name="quoteleft" unicode="&#x2018;" horiz-adv-x="841" 
d="M662 2379l-91 -793h-419l278 793h232z" />
    <glyph glyph-name="quoteright" unicode="&#x2019;" horiz-adv-x="841" 
d="M179 1586l91 793h420l-277 -793h-234z" />
    <glyph glyph-name="quotedblleft" unicode="&#x201c;" horiz-adv-x="1451" 
d="M690 2379l-92 -793h-419l279 793h232zM1299 2379l-91 -793h-419l277 793h233z" />
    <glyph glyph-name="quotedblright" unicode="&#x201d;" horiz-adv-x="1451" 
d="M789 1586l91 793h419l-278 -793h-232zM179 1586l91 793h420l-277 -793h-234z" />
    <glyph glyph-name="bullet" unicode="&#x2022;" horiz-adv-x="1840" 
d="M358 1002q0 117 45 219t121 179.5t179 121.5t220 44t219.5 -44t179 -121.5t121.5 -180t45 -218.5q0 -117 -45 -220.5t-121.5 -180t-179 -120.5t-219.5 -44t-220 44t-179 120.5t-121 180t-45 220.5z" />
    <glyph glyph-name="Euro" unicode="&#x20ac;" horiz-adv-x="2184" 
d="M950 816q24 -125 69 -218.5t115.5 -155t167 -93t221.5 -31.5q77 0 140 9t124 23.5t120 36t127 48.5v-373q-43 -18 -91.5 -37t-111.5 -35.5t-145.5 -26t-184.5 -9.5q-219 0 -385 56.5t-285 166t-192.5 271.5t-105.5 368h-411v131l272 173h116q0 18 -0.5 34t-0.5 33
q0 32 0.5 65.5t0.5 64.5h-388v134l272 171h153q35 192 109 340t191.5 249t280 152t373.5 51q106 0 186.5 -8.5t143.5 -22t113 -33t90 -36.5v-375q-67 27 -127.5 49.5t-120.5 38.5t-123 22.5t-140 6.5q-122 0 -215.5 -26.5t-160.5 -81t-114 -134.5t-75 -192h802v-305h-840
q0 -32 -1 -63.5t-1 -66.5v-33.5v-33.5h842v-304h-810z" />
    <glyph glyph-name="uni25CC" unicode="&#x25cc;" horiz-adv-x="2224" 
d="M858 595l-157 -51l56 157q43 -61 101 -106zM1032 1371l78 147l72 -142q-35 5 -67 2q-40 3 -83 -7zM1178 520l-68 -141l-67 141q32 -10 72 -10q31 0 63 10zM1544 1018l136 -72l-136 -66q5 34 3 66q2 40 -3 72zM690 878l-151 76l151 72q-5 -35 -5 -80q0 -33 5 -68z
M766 1203l-44 154l152 -53q-63 -40 -108 -101zM1458 682l43 -138l-136 43q55 41 93 95zM1362 1304l161 53l-56 -159q-43 61 -105 106z" />
    <glyph glyph-name="thothannobasethai" horiz-adv-x="1574" 
d="M1434 1998l-186 -264q67 -80 96 -176q32 -94 32 -196v-1362h-400v752h-552v373h270l282 -149v395q0 118 -80 184.5t-237 66.5q-83 0 -157.5 -7t-140 -20.5t-124 -31t-115.5 -40.5v341q102 45 231.5 67.5t308.5 22.5q90 0 167 -11.5t144 -33.5v265h461v-176z" />
    <glyph glyph-name="yoyingnobasethai" horiz-adv-x="3011" 
d="M1416 1197q0 128 -20 208t-63 124.5t-105.5 61.5t-147.5 17q-29 0 -77.5 -4t-104.5 -11t-114 -18.5t-107 -24.5v-1107q0 -51 15 -88t63 -48q22 -5 67 -4t92 4v-325q-35 -5 -68 -4q-27 -2 -53.5 -2h-43.5q-245 0 -358 116t-113 346v812l175 238h-325v237
q125 46 253.5 85.5t256.5 66.5t253 43t242 16q189 0 318.5 -45t210 -130.5t116.5 -208.5t36 -275v-707q0 -67 11.5 -119.5t44 -86t90.5 -50.5q61 -18 155 -18t152 15t90.5 49t44 86t11.5 119v1339h398l2 -1294q0 -139 -29.5 -256t-108 -202t-214.5 -130.5t-346 -45.5
q-211 0 -345.5 45.5t-213.5 130.5t-109.5 201.5t-30.5 256.5v587z" />
    <glyph glyph-name="lochula.short" horiz-adv-x="2329" 
d="M2128 443q0 -106 -22.5 -191.5t-73.5 -146t-132 -94t-198 -33.5q-58 0 -121 16t-122 42t-112.5 57.5t-94.5 58.5t-65 45l-22 17q-90 -67 -181 -120q-40 -22 -84 -44.5t-90.5 -38.5t-92.5 -24q-45 -10 -90 -9q-117 0 -197.5 33.5t-132 94t-73.5 148t-22 189.5v1463l398 -2
v-1456q0 -35 14.5 -61.5t36 -41t48.5 -17t50 7.5l216 80v547l254 320h146v-867l216 -80q22 -10 49.5 -7.5t49.5 17t36 41t14 61.5v883q0 77 -22.5 128t-67.5 82.5t-109 42.5t-144 6q-67 -5 -123 -22q-58 -18 -99 -32v328q22 10 91.5 26t181.5 25q157 13 292 -32v291h460
v-176l-209 -278q72 -80 109.5 -189.5t37.5 -244.5v-843z" />
    <glyph glyph-name="yamakkanleftthai" 
d="M-424 3006l-238 -148h-95q-22 0 -38 -6t-22.5 -15.5t-9.5 -23t-3 -34.5l-4 -153h-321v-220h-355v165q0 54 11 112.5t49.5 107.5t105.5 81t179 35q13 35 38 69.5t64 58.5t94 40t129 21h419z" />
    <glyph glyph-name="saraamleft" horiz-adv-x="1340" 
d="M741 1342q0 139 -58 204q-56 67 -190 67q-94 0 -199 -22.5t-217 -76.5v318q50 22 109.5 42t122 35.5t123.5 22.5t110 7q168 0 282.5 -44.5t185 -124.5t101 -188t30.5 -233v-1349h-400v1342zM-1469 2621q0 88 29 153.5t77 112t114.5 69.5t138.5 23q77 0 140.5 -23
t113.5 -69.5t78 -113.5t28 -152q0 -88 -28 -155.5t-78 -113t-114.5 -68t-139.5 -22.5q-74 0 -139.5 22.5t-113.5 68t-77 113t-29 155.5zM-1242 2621q0 -77 36 -114.5t96 -37.5q58 0 93.5 37.5t35.5 114.5t-36 114.5t-93 37.5q-58 0 -95 -37.5t-37 -114.5z" />
    <glyph glyph-name="maiekthai.alt1" 
d="M-589 2944v496h387v-496h-387z" />
    <glyph glyph-name="maithothai.alt1" 
d="M-997 3069q21 13 54.5 34.5t65.5 49.5t58 60q27 32 25 64q0 13 -1.5 25.5t-11 24t-22.5 20.5q-13 10 -35 8q-43 2 -77 -8q-35 -10 -57 -19v218q40 13 96 26.5t123 13.5q62 0 112.5 -14.5t85 -41t55.5 -63.5q21 -35 20 -80q0 -35 -11 -67t-27 -57t-33.5 -45t-32.5 -36h533
v-86l-241 -152h-679v125z" />
    <glyph glyph-name="maitrithai.alt1" 
d="M-816 2966q-22 -10 -51 -14.5t-57 -6t-56 -0.5t-52 5q-50 10 -82.5 35.5t-52.5 59t-29 71.5t-9 70v187q0 54 13.5 93.5t40 64t63.5 36.5t82 12q40 0 81.5 -13.5t82 -31t78.5 -39t74 -39.5q40 18 85 38.5t90 38t89 29.5t85 12q74 0 120.5 -46t46.5 -155q0 -45 -13 -76
t-31.5 -53.5t-40.5 -38.5q-18 -16 -37 -24h314v-85l-237 -152h-323v197q10 6 27 14t31.5 25t26 40t11.5 60q0 29 -6 43.5t-14.5 19t-24.5 -0.5q-16 -10 -35 -17q-45 -22 -88 -45q-45 -22 -76 -32v0q-16 5 -35 13.5t-39 20t-40 22.5t-38 22q-18 10 -35 15.5t-29 3t-20 -18.5
t-8 -46l3 -59q0 -32 12.5 -47.5t31 -20t38.5 -2t33 2.5v-188z" />
    <glyph glyph-name="maichattawathai.alt1" 
d="M-682 3395h165v216h315v-216h264v-232h-264v-216h-315v216h-355v95z" />
    <glyph glyph-name="maiekupperleftthai.alt2" 
d="M-1160 2944v494h387v-494h-387z" />
    <glyph glyph-name="maithoupperleftthai.alt2" 
d="M-1362 3069q21 13 53 34.5t65.5 49.5t58.5 59t25 65q0 13 -2.5 25.5t-10.5 24t-24 20.5q-13 10 -35 8q-43 2 -75 -7.5t-58 -19.5v218q40 13 98 27q54 13 120 13q62 0 114 -14.5t86.5 -41t55.5 -63.5q18 -35 17 -80q0 -35 -10 -67t-25.5 -57t-34 -45t-32.5 -36h533v-86
l-240 -152h-679v125z" />
    <glyph glyph-name="maitriupperleftthai.alt2" 
d="M-1245 2966q-22 -10 -51.5 -14.5t-57.5 -6t-56 -0.5t-52 5q-50 10 -83 35.5t-53 59t-28.5 71.5t-8.5 70v187q0 54 13.5 93.5t40 64t64 36.5t82.5 12q40 0 80 -13.5t76.5 -31t74.5 -39t73 -39.5q40 18 82.5 38.5t85.5 38t85.5 29.5t83.5 12q74 0 120.5 -46t46.5 -155
q0 -45 -12 -76t-31.5 -53.5t-41.5 -38.5q-18 -16 -37 -24h314v-85l-237 -152h-323v197q10 6 27.5 14t32.5 25t26 40t11 60q0 29 -5.5 43.5t-15 19t-23.5 -0.5q-16 -10 -37 -17q-45 -22 -82 -44.5t-69 -32.5h-1q-16 5 -33.5 13.5t-36 20t-36 22.5t-35.5 22q-18 10 -34.5 15.5
t-29.5 3t-21 -18.5t-8 -46l3 -59q0 -32 14 -47.5t31.5 -20t37.5 -2t34 2.5v-188z" />
    <glyph glyph-name="maichattawaupperleftthai.alt2" 
d="M-1254 3392h163v216h317v-216h264v-234h-264v-214h-317v214h-354v95z" />
    <glyph glyph-name="saraithai.alt3" 
d="M-1443 2418l323 148h918v-286h-1241v138z" />
    <glyph glyph-name="saraiithai.alt3" 
d="M-1443 2418l323 145h531v325h387v-608v0h-1241v138z" />
    <glyph glyph-name="sarauethai.alt3" 
d="M-632 2622q0 -72 31 -106t102 -34q72 0 101.5 36t29.5 104q0 72 -31 108t-100 36q-72 0 -102.5 -36t-30.5 -108zM-1438 2418l318 145h290q-10 32 -10 58q0 78 23 142t67 109t108 67.5t142.5 22.5t141 -22.5t107.5 -67.5t67 -108t22 -143t-25.5 -141.5t-71 -105.5
t-109.5 -68q-58 -24 -130 -26h-940v138z" />
    <glyph glyph-name="saraueethai.alt3" 
d="M-1438 2418l308 140h146v330h278l2 -330h246v330h256v-608h-1236v138z" />
    <glyph glyph-name="maithothai.alt4" 
d="M-773 3226q21 13 54.5 34.5t65.5 49.5t58 60q27 32 25 64q0 13 -1.5 25.5t-11 23.5t-22.5 21t-35 8q-43 2 -77 -8q-35 -10 -57 -19v217q40 13 96 26.5t123 13.5q62 0 112.5 -14t85 -40.5t55.5 -63.5q21 -35 20 -80q0 -35 -11 -67t-27 -57t-33.5 -45t-32.5 -36h533v-86
l-241 -152h-679v125z" />
    <glyph glyph-name="maitrithai.alt4" 
d="M-570 3123q-22 -10 -51 -14.5t-57 -6t-56 -1t-52 5.5q-50 10 -82.5 35.5t-52.5 59t-28.5 71t-8.5 69.5v188q0 54 13.5 93t40 64t63 37t81.5 12q40 0 81.5 -13.5t82.5 -31t78.5 -39.5t74.5 -39q40 18 84.5 38.5t89.5 38t89 29.5t86 12q74 0 120 -46.5t46 -154.5
q0 -45 -13 -76.5t-31 -53.5t-41 -38q-18 -16 -37 -24h314v-85l-237 -152h-323v197q10 6 27.5 14t32 25t25.5 40t11 60q0 29 -5.5 43t-14.5 19t-25 0q-16 -10 -35 -17q-45 -22 -88 -45q-45 -22 -75 -32v0q-16 5 -35.5 13.5t-39.5 20t-40 22.5t-37 22q-18 10 -35.5 15.5
t-29.5 3t-20 -18.5t-8 -46l3 -59q0 -32 13 -47.5t31.5 -20t38.5 -2.5t32 2v-187z" />
    <glyph glyph-name="maiekthai.alt5" 
d="M-645 3045v494h387v-494h-387z" />
    <glyph glyph-name="maithothai.alt5" 
d="M-997 3168q21 13 54.5 35.5t65.5 49.5t58 57q27 34 25 68q0 13 -1.5 26.5t-11 23.5t-22.5 18t-35 8q-43 2 -77 -4q-35 -10 -57 -18v214q40 13 96 26.5t123 13.5q62 0 112.5 -15t85 -42t55 -63t20.5 -81q0 -35 -11 -64t-27 -54t-33.5 -45t-32.5 -39h533v-86l-241 -151
h-679v122z" />
    <glyph glyph-name="maitrithai.alt5" 
d="M-749 3069q-22 -10 -51 -15.5t-57 -7t-56 -1t-52 5.5q-50 10 -82.5 34t-52.5 57.5t-29 72t-9 71.5v188q0 54 14 93t40 64t63 36t82 11q40 0 81.5 -11t82.5 -30t78.5 -41t74.5 -39q40 18 84.5 38.5t89.5 38t89 29.5t85 12q74 0 120.5 -46.5t46.5 -154.5q0 -45 -13 -74.5
t-31.5 -53.5t-40.5 -40q-18 -13 -37 -24h314v-88l-237 -148h-323v192q10 6 27.5 17t31.5 27t25.5 40.5t11.5 59.5q0 29 -5.5 43.5t-14.5 18.5t-24 -1.5t-36 -15.5q-45 -22 -88 -46q-45 -24 -75 -32v0q-16 5 -35.5 13.5t-39.5 20t-40 23.5t-37 21q-18 10 -35.5 16.5
t-29.5 1.5t-22 -18q-6 -13 -6 -45l3 -60q0 -32 13 -47.5t31 -21t38 -3t33 7.5v-189z" />
    <glyph glyph-name="maichattawathai.alt5" 
d="M-682 3440h165v218h315v-218h264v-232h-264v-216h-315v216h-355v94z" />
    <glyph glyph-name="maiekupperleftthai.alt6" 
d="M-1059 3045v494h387v-494h-387z" />
    <glyph glyph-name="maithoupperleftthai.alt6" 
d="M-1362 3168q21 13 53 35.5t65.5 49.5t58.5 59t25 66q0 13 -2.5 26.5t-10.5 23.5t-22.5 18t-36.5 8q-43 2 -75 -6t-58 -16v214q40 13 98 28q54 13 120 12q62 0 114 -15t86.5 -42t53.5 -63t19 -81q0 -35 -10 -64t-25.5 -54t-34 -45t-32.5 -39h533v-86l-240 -151h-679v122z
" />
    <glyph glyph-name="maitriupperleftthai.alt6" 
d="M-1021 3069q-22 -10 -51.5 -15.5t-57.5 -7t-56 -1t-52 5.5q-50 10 -83 34t-53 57.5t-28.5 72t-8.5 71.5v188q0 54 13.5 93t40 64t64 36t82.5 11q40 0 80 -11t76.5 -30t74.5 -41t73 -39q40 18 82.5 38.5t85.5 38t85.5 29.5t83.5 12q74 0 120.5 -46.5t46.5 -154.5
q0 -45 -12 -74.5t-31.5 -53.5t-41.5 -40q-18 -13 -37 -24h314v-88l-237 -148h-323v192q10 6 27.5 17t32.5 27t26 40.5t11 59.5q0 29 -5.5 43.5t-15 18.5t-24.5 -1.5t-36 -15.5q-45 -22 -82 -47t-69 -31h-1q-16 5 -33.5 13.5t-36 20t-36 23.5t-35.5 21q-18 10 -34.5 16.5
t-29.5 1.5t-21 -18q-6 -13 -8 -45l3 -60q0 -32 14 -47.5t31.5 -21t37.5 -3t34 7.5v-189z" />
    <glyph glyph-name="maichattawaupperleftthai.alt6" 
d="M-1210 3440h164v218h316v-218h264v-232h-264v-216h-316v216h-354v94z" />
    </font>
</defs>
</svg>
