<svg xmlns="http://www.w3.org/2000/svg">
<defs>
<font id="DBYordX-Medium" horiz-adv-x="0" >
  <font-face 
    font-family="DB Yord X Medium"
    font-weight="500"
    font-stretch="normal"
    units-per-em="4096"
    panose-1="2 0 6 6 0 0 0 2 0 4"
    ascent="3276"
    descent="-820"
    x-height="1910"
    cap-height="3027"
    bbox="-2521 -1074 4462 4679"
    underline-thickness="143"
    underline-position="-816"
    unicode-range="U+0020-25CC"
  />
<missing-glyph horiz-adv-x="2374" 
d="M2421 2293v-80h33q41 0 41 52q0 4 -9 16t-32 12h-33zM2437 2208h-16v-80h-30v195h63q69 0 69 -58q0 -39 -17.5 -48t-40.5 -9l58 -80h-28zM2454 2099q36 0 61 11t39.5 28.5t20 38t5.5 36.5q0 64 -30 101t-96 37q-64 0 -97.5 -36.5t-33.5 -101.5q0 -48 31 -81t100 -33z
M2454 2369q74 0 108.5 -45.5t34.5 -110.5q0 -24 -8.5 -47t-26 -41.5t-44.5 -30.5t-64 -12q-34 0 -61.5 12t-46.5 30.5t-29.5 42t-10.5 46.5q0 64 39.5 110t108.5 46zM1152 1812q60 -4 137 -12.5t160 -21.5t166 -29t156.5 -35.5t131.5 -42t92 -48.5q-57 113 -149.5 202
t-205.5 150t-239.5 92.5t-253.5 31.5q-97 0 -191 -18.5t-180 -56t-161 -95t-133 -134.5q104 13 206.5 17.5t206.5 4.5q64 0 128.5 -0.5t128.5 -4.5zM2150 2265v-815q-137 43 -296 81t-334 66t-362.5 44.5t-383.5 16.5q-139 0 -271.5 -8.5t-267.5 -26.5q34 129 109.5 245.5
t189.5 205t265.5 140t335.5 51.5q178 0 321.5 -40t250.5 -98.5t179.5 -125t108.5 -121.5q0 -4 -0.5 15.5t-0.5 53t-1.5 77t-1.5 87.5t-1 84t-1 68h161zM878 728q0 48 -31.5 70t-66.5 22q-39 0 -68.5 -22t-29.5 -70t29.5 -66.5t68.5 -18.5q17 0 34.5 4t31.5 14.5t23 26.5
t9 40zM183 797q0 133 52.5 235t138 170.5t195 103.5t222.5 35t220.5 -30.5t189 -94.5t131.5 -162t50 -234v-665h607v1158h161v-1307h-1083v149h166v682q0 85 -33.5 150.5t-92 108t-138.5 64.5t-172 22q-85 0 -166 -24.5t-143 -71t-100 -113.5t-38 -153v-614l332 333
q-15 6 -35.5 20.5t-39.5 37.5t-32.5 55.5t-13.5 75.5q0 104 63 164t167 60q49 0 89.5 -18t69.5 -49t44 -71.5t15 -85.5q0 -41 -9 -71.5t-23 -53t-28.5 -38t-25.5 -26.5q-7 -7 -33 -31.5t-65.5 -62.5t-87.5 -84.5t-100 -97.5q-62 -56 -129 -119.5t-141 -137.5h-184v791z" />
    <glyph glyph-name=".notdef" horiz-adv-x="2374" 
d="M2421 2293v-80h33q41 0 41 52q0 4 -9 16t-32 12h-33zM2437 2208h-16v-80h-30v195h63q69 0 69 -58q0 -39 -17.5 -48t-40.5 -9l58 -80h-28zM2454 2099q36 0 61 11t39.5 28.5t20 38t5.5 36.5q0 64 -30 101t-96 37q-64 0 -97.5 -36.5t-33.5 -101.5q0 -48 31 -81t100 -33z
M2454 2369q74 0 108.5 -45.5t34.5 -110.5q0 -24 -8.5 -47t-26 -41.5t-44.5 -30.5t-64 -12q-34 0 -61.5 12t-46.5 30.5t-29.5 42t-10.5 46.5q0 64 39.5 110t108.5 46zM1152 1812q60 -4 137 -12.5t160 -21.5t166 -29t156.5 -35.5t131.5 -42t92 -48.5q-57 113 -149.5 202
t-205.5 150t-239.5 92.5t-253.5 31.5q-97 0 -191 -18.5t-180 -56t-161 -95t-133 -134.5q104 13 206.5 17.5t206.5 4.5q64 0 128.5 -0.5t128.5 -4.5zM2150 2265v-815q-137 43 -296 81t-334 66t-362.5 44.5t-383.5 16.5q-139 0 -271.5 -8.5t-267.5 -26.5q34 129 109.5 245.5
t189.5 205t265.5 140t335.5 51.5q178 0 321.5 -40t250.5 -98.5t179.5 -125t108.5 -121.5q0 -4 -0.5 15.5t-0.5 53t-1.5 77t-1.5 87.5t-1 84t-1 68h161zM878 728q0 48 -31.5 70t-66.5 22q-39 0 -68.5 -22t-29.5 -70t29.5 -66.5t68.5 -18.5q17 0 34.5 4t31.5 14.5t23 26.5
t9 40zM183 797q0 133 52.5 235t138 170.5t195 103.5t222.5 35t220.5 -30.5t189 -94.5t131.5 -162t50 -234v-665h607v1158h161v-1307h-1083v149h166v682q0 85 -33.5 150.5t-92 108t-138.5 64.5t-172 22q-85 0 -166 -24.5t-143 -71t-100 -113.5t-38 -153v-614l332 333
q-15 6 -35.5 20.5t-39.5 37.5t-32.5 55.5t-13.5 75.5q0 104 63 164t167 60q49 0 89.5 -18t69.5 -49t44 -71.5t15 -85.5q0 -41 -9 -71.5t-23 -53t-28.5 -38t-25.5 -26.5q-7 -7 -33 -31.5t-65.5 -62.5t-87.5 -84.5t-100 -97.5q-62 -56 -129 -119.5t-141 -137.5h-184v791z" />
    <glyph glyph-name=".null" 
 />
    <glyph glyph-name="nonmarkingreturn" horiz-adv-x="1622" 
 />
    <glyph glyph-name="space" unicode=" " horiz-adv-x="1576" 
 />
    <glyph glyph-name="exclam" unicode="!" horiz-adv-x="1330" 
d="M393 220q0 109 80.5 189.5t192.5 80.5t192.5 -80.5t80.5 -192.5q0 -113 -81 -193q-78 -78 -192 -79q-116 0 -194.5 78.5t-78.5 196.5zM445 675v2352h443v-2352h-443z" />
    <glyph glyph-name="quotedbl" unicode="&#x22;" horiz-adv-x="1646" 
d="M631 1809h-333l-84 1218h501zM1348 1809h-333l-84 1218h501z" />
    <glyph glyph-name="numbersign" unicode="#" horiz-adv-x="2476" 
d="M2405 2176v-345h-476l-71 -563h435v-345h-479l-114 -937l-346 45l112 892h-583l-117 -937l-349 45l112 900h-446v337h495l70 563h-452v345h496l107 877l343 -44l-103 -833h578l109 877l343 -44l-103 -833h439zM1574 1831h-576l-71 -563h581z" />
    <glyph glyph-name="dollar" unicode="$" horiz-adv-x="2476" 
d="M1456 3455v-383q231 -38 378 -153.5t281 -355.5l-382 -212q-172 314 -451 313q-172 0 -286 -102t-114 -255q0 -139 92 -231q90 -90 364 -214q237 -108 392.5 -203t233.5 -183q221 -239 221 -579q0 -333 -200 -588q-197 -253 -529 -340v-406h-343v394q-384 63 -586 264.5
t-297 622.5l431 91q88 -298 215 -425q133 -122 355 -122q216 0 361 140q143 137 143 354q0 195 -119 312q-60 57 -179.5 128t-303.5 156q-381 171 -500 314q-190 214 -191 511q0 141 45.5 262.5t131 220.5t211 171.5t283.5 114.5v383h343z" />
    <glyph glyph-name="percent" unicode="%" horiz-adv-x="3676" 
d="M151 2353q0 284 217 495q221 210 513 210q298 0 512 -212q216 -210 216 -502q0 -294 -216 -503.5t-519 -209.5q-298 0 -511 213q-212 214 -212 509zM491 2348q0 -165 114.5 -278.5t276.5 -113.5q158 0 272 114t114 274q0 158 -114 272t-273 114q-161 0 -275.5 -113.5
t-114.5 -268.5zM2598 3079l215 -121l-1734 -3007l-215 129zM2066 696q0 283 217 491q221 210 511 210q300 0 517 -211q216 -210 216 -501q0 -295 -219 -504q-214 -207 -519 -209q-298 0 -511 213q-212 211 -212 511zM2409 687q0 -165 111 -277q113 -113 277 -115
q161 0 272 115q113 113 115 275q0 161 -115 274q-112 113 -275 113q-158 0 -271.5 -114t-113.5 -271z" />
    <glyph glyph-name="ampersand" unicode="&#x26;" horiz-adv-x="2933" 
d="M1553 1684l544 -659l18 19q88 97 166.5 188.5t150.5 187.5l298 -307q-55 -78 -143.5 -182t-213.5 -239l561 -692h-568l-302 371q-416 -430 -864 -430q-402 0 -682 256q-274 259 -274 640q0 452 434 752l198 136q4 1 14 9.5t27 21.5q-300 319 -300 630q0 305 201 497
q204 192 525 193q312 0 515.5 -186.5t203.5 -470.5q0 -196 -112 -355q-109 -159 -397 -380zM1190 1427l-25 -17q-280 -195 -382 -312q-99 -118 -101 -250q0 -188 151 -344q157 -151 344 -151q265 0 611 347zM1288 2005l36 28q97 73 160 126.5t90 90.5q59 73 58 179
q0 119 -80.5 193t-214.5 74q-123 0 -209 -75q-84 -73 -84 -186q0 -133 107 -264l113 -137q6 -9 24 -29z" />
    <glyph glyph-name="quotesingle" unicode="'" horiz-adv-x="928" 
d="M631 1809h-333l-84 1218h501z" />
    <glyph glyph-name="parenleft" unicode="(" horiz-adv-x="1470" 
d="M790 3343l407 -157q-214 -511 -300 -943q-43 -220 -64 -462t-21 -528q0 -288 21 -530.5t64 -462.5q84 -431 300 -942l-407 -157q-427 896 -427 2092q0 1194 427 2090z" />
    <glyph glyph-name="parenright" unicode=")" horiz-adv-x="1470" 
d="M680 -839l-407 157q216 511 300 942q88 431 88 993q0 557 -88 990q-87 433 -300 943l407 157q427 -896 427 -2090q0 -1196 -427 -2092z" />
    <glyph glyph-name="asterisk" unicode="*" horiz-adv-x="2476" 
d="M1070 2782l-30 529h395l-32 -529l497 192l120 -376l-512 -133l334 -411l-317 -231l-289 446l-285 -446l-320 231l338 410l-514 134l122 376z" />
    <glyph glyph-name="plus" unicode="+" horiz-adv-x="2476" 
d="M195 1392v364h862v847h363v-847h862v-364h-862v-847h-363v847h-862z" />
    <glyph glyph-name="comma" unicode="," horiz-adv-x="1237" 
d="M550 567l392 -154l-558 -1119l-297 124z" />
    <glyph glyph-name="hyphen" unicode="-" horiz-adv-x="873" 
d="M0 1162h874v-384h-874v384z" />
    <glyph glyph-name="period" unicode="." horiz-adv-x="1237" 
d="M347 220q0 109 80.5 189.5t191.5 80.5q112 0 192.5 -80.5t80.5 -192.5q0 -113 -80 -193q-78 -78 -193 -79q-116 0 -194 78.5t-78 196.5z" />
    <glyph glyph-name="slash" unicode="/" horiz-adv-x="2079" 
d="M1701 3343l365 -159l-1733 -4011l-361 162z" />
    <glyph glyph-name="zero" unicode="0" horiz-adv-x="2476" 
d="M171 1533q0 724 337 1154q302 391 731 390q430 0 731 -390q337 -431 337 -1174q0 -741 -337 -1171q-302 -391 -730 -391q-427 0 -732 391q-337 431 -337 1191zM619 1530q0 -504 175 -836q175 -328 445 -327q269 0 445 327q176 325 177 821q0 496 -177 823
q-176 325 -445 326q-266 0 -444 -326q-176 -324 -176 -808z" />
    <glyph glyph-name="one" unicode="1" horiz-adv-x="2476" 
d="M1088 2598h-524l251 429h729v-3027h-456v2598z" />
    <glyph glyph-name="two" unicode="2" horiz-adv-x="2476" 
d="M1005 430h1127v-430h-2033l1052 1273q155 190 259.5 328.5t158.5 232.5q112 185 112 332q0 211 -149 354.5t-367 143.5q-459 0 -527 -543h-453q109 956 966 956q413 0 693 -263q283 -263 283 -650q0 -246 -132 -484q-67 -123 -195 -293t-324 -401z" />
    <glyph glyph-name="three" unicode="3" horiz-adv-x="2476" 
d="M1039 1406v389q290 0 390 66q178 113 178 364q0 195 -129 315q-127 123 -331 124q-190 0 -294 -92q-99 -94 -149 -318h-455q70 427 290 626t613 199q398 0 650 -236q251 -234 250 -600q0 -416 -329 -647q377 -221 376 -720q0 -407 -274.5 -666t-703.5 -259
q-547 0 -812 402q-109 168 -138 466h441q35 -220 171.5 -336t354.5 -116q221 0 367 147q146 151 146 382q0 305 -219 435q-127 75 -393 75z" />
    <glyph glyph-name="four" unicode="4" horiz-adv-x="2476" 
d="M1980 844h322v-414h-322v-430h-457v430h-1485l1942 2822v-2408zM1523 844v1014l-698 -1014h698z" />
    <glyph glyph-name="five" unicode="5" horiz-adv-x="2476" 
d="M2111 2598h-934l-148 -501q34 4 64 6.5t55 2.5q441 0 724 -299q284 -295 284 -758q0 -479 -321.5 -788.5t-809.5 -309.5q-602 0 -948 564l344 293q143 -244 289 -343q146 -98 354 -98q274 0 461 192q186 197 186 480q0 290 -184 474q-185 190 -460 191q-308 0 -532 -269
h-151l477 1592h1250v-429z" />
    <glyph glyph-name="six" unicode="6" horiz-adv-x="2476" 
d="M1576 3132l335 -251l-724 -984q59 8 100.5 11.5t64.5 3.5q368 0 637 -281q266 -279 266 -671q0 -416 -296 -714q-295 -295 -713 -295q-412 0 -721 293q-304 293 -304 691q0 358 297 760zM1812 931q0 241 -167 407q-168 168 -406 170q-239 0 -406 -166.5t-167 -404.5
q0 -237 167 -403.5t407 -166.5q235 0 402 166q170 168 170 398z" />
    <glyph glyph-name="seven" unicode="7" horiz-adv-x="2476" 
d="M1701 2598h-1494v429h2257l-1910 -3131l-362 230z" />
    <glyph glyph-name="eight" unicode="8" horiz-adv-x="2476" 
d="M697 1574q-333 235 -333 641q0 368 253 616q255 246 633 246q377 0 627 -246q251 -245 251 -618q0 -391 -330 -637q182 -98 285 -287q106 -188 107 -422q0 -402 -262.5 -659t-673.5 -257q-420 0 -691 259q-274 259 -275 651q-1 509 409 713zM794 2216q0 -195 131 -325
q133 -133 321 -133q186 0 320 133t134 320q0 186 -134 319.5t-320 133.5t-319 -133.5t-133 -314.5zM736 876q0 -210 146 -361q147 -148 357 -148q207 0 354 147q147 148 147 357q0 210 -147 356t-354 146q-206 0 -356 -147q-147 -146 -147 -350z" />
    <glyph glyph-name="nine" unicode="9" horiz-adv-x="2476" 
d="M902 -104l-335 250l722 985q-59 -8 -100 -11.5t-66 -3.5q-367 0 -634 280q-266 279 -268 670q0 417 297 713q298 298 713 298q413 0 719 -294q305 -293 305 -690q0 -353 -296 -762zM666 2099q0 -245 167 -412q168 -168 406 -168q237 0 403 167q168 168 170 406
q0 237 -170 406q-167 167 -406 166q-235 0 -402 -166q-168 -169 -168 -399z" />
    <glyph glyph-name="colon" unicode=":" horiz-adv-x="1237" 
d="M347 220q0 109 80.5 189.5t191.5 80.5q112 0 192.5 -80.5t80.5 -192.5q0 -113 -80 -193q-78 -78 -193 -79q-116 0 -194 78.5t-78 196.5zM347 1694q0 108 80.5 187.5t191.5 79.5q112 0 192.5 -79.5t80.5 -191.5q0 -113 -80 -195q-78 -78 -193 -78q-113 0 -193 81
q-79 78 -79 196z" />
    <glyph glyph-name="semicolon" unicode=";" horiz-adv-x="1237" 
d="M550 567l392 -154l-558 -1119l-297 124zM442 1691q0 109 80.5 189.5t192.5 80.5t192.5 -79.5t80.5 -191.5q0 -113 -81 -195q-78 -78 -192 -78q-113 0 -194 81q-79 77 -79 193z" />
    <glyph glyph-name="less" unicode="&#x3c;" horiz-adv-x="2476" 
d="M2223 2689v-450l-1487 -705l1487 -702v-448l-1968 960v386z" />
    <glyph glyph-name="equal" unicode="=" horiz-adv-x="2476" 
d="M195 1725v333h2087v-333h-2087zM195 1089v333h2087v-333h-2087z" />
    <glyph glyph-name="greater" unicode="&#x3e;" horiz-adv-x="2476" 
d="M255 382v451l1484 701l-1484 706v447l1965 -961v-385z" />
    <glyph glyph-name="question" unicode="?" horiz-adv-x="1962" 
d="M1214 1413h442q0 -298 -158 -481q-206 -237 -528 -236q-283 0 -472 196q-192 197 -193 484q0 227 121 364q122 139 411 244q288 106 364 171q78 64 79 198q0 136 -81.5 215t-217.5 79t-215.5 -78t-79.5 -213q0 -60 24 -169h-457q-4 50 -6.5 90t-2.5 71q0 309 208 515
q207 206 527 206q319 0 532.5 -207.5t213.5 -519.5q0 -319 -214 -515q-136 -123 -510 -239q-255 -78 -255 -247q0 -48 19 -89.5t50.5 -73t73.5 -49t90 -17.5q215 -1 235 301zM714 220q0 109 80 189.5t192 80.5t192.5 -80.5t80.5 -192.5q0 -113 -82 -193q-78 -78 -189 -79
q-116 0 -194 79q-80 80 -80 196z" />
    <glyph glyph-name="at" unicode="@" horiz-adv-x="3533" 
d="M2603 2304l-124 -1029q-8 -57 -11 -108t-3 -97q0 -147 122 -147q171 0 310 242q137 237 137 540q0 482 -338 790q-335 312 -855 312q-545 0 -918 -372q-371 -371 -370 -917q0 -302 133 -593q136 -273 378 -449q325 -235 816 -235q459 0 961 234l29 15l101 -283l-23 -11
q-511 -246 -1066 -246q-613 0 -1028 295q-304 216 -473 550q-168 353 -170 718q0 665 468.5 1115.5t1157.5 450.5q633 0 1060 -388q426 -384 425 -962q0 -447 -231 -767q-234 -323 -547 -324q-251 0 -340 238q-241 -246 -538 -247q-323 0 -539 233q-211 231 -211 590
q0 386 236 635q237 255 597 255q329 0 530 -255l28 217h296zM2204 1548q0 182 -125 304q-127 122 -309 122q-197 0 -324 -153q-127 -151 -127 -386q0 -204 102 -335t263 -131q206 0 363 174t157 405z" />
    <glyph glyph-name="A" unicode="A" horiz-adv-x="2972" 
d="M2141 735h-1297l-336 -735h-493l1498 3216l1445 -3216h-500zM1954 1165l-449 1029l-470 -1029h919z" />
    <glyph glyph-name="B" unicode="B" horiz-adv-x="2373" 
d="M363 0v3027h455q304 0 484 -48q182 -48 307 -158q127 -116 203 -288q77 -175 75 -353q0 -325 -249 -552q241 -83 381 -287q141 -204 141 -474q0 -354 -250 -601q-151 -151 -341 -209q-206 -57 -515 -57h-691zM819 1726h143q255 0 374 113t119 332q0 214 -122 325
t-353 111h-161v-881zM819 430h283q309 0 455 120q153 132 152 333q0 196 -147 331q-143 132 -512 130h-231v-914z" />
    <glyph glyph-name="C" unicode="C" horiz-adv-x="2811" 
d="M2598 2863v-540q-396 332 -819 331q-466 0 -785 -336q-322 -333 -322 -814q0 -476 321.5 -804t788.5 -328q241 0 409 79q94 39 195.5 105.5t211.5 160.5v-550q-392 -221 -823 -222q-648 0 -1107 453q-456 456 -457 1101q0 578 383 1031q470 554 1218 556q405 -2 786 -223
z" />
    <glyph glyph-name="D" unicode="D" horiz-adv-x="2913" 
d="M363 0v3027h635q456 0 721 -91q284 -88 515 -300q469 -427 469 -1123q0 -697 -488 -1129q-245 -216 -514 -300q-251 -84 -711 -84h-627zM819 430h206q308 0 512 64q204 69 368 217q337 308 338 802q0 498 -333 808q-300 276 -885 276h-206v-2167z" />
    <glyph glyph-name="E" unicode="E" horiz-adv-x="2269" 
d="M2033 2597h-1214v-727h1179v-429h-1179v-1011h1214v-430h-1670v3027h1670v-430z" />
    <glyph glyph-name="F" unicode="F" horiz-adv-x="2039" 
d="M1873 2597h-1054v-727h1018v-429h-1018v-1441h-456v3027h1510v-430z" />
    <glyph glyph-name="G" unicode="G" horiz-adv-x="3381" 
d="M1919 1576h1251v-100q0 -342 -82 -604q-78 -244 -264 -455q-421 -475 -1071 -474q-636 0 -1088 459q-452 461 -454 1106q0 658 461 1117q461 461 1121 461q354 0 663 -146q294 -146 578 -470l-325 -313q-372 496 -907 497q-480 0 -807 -331q-325 -325 -324 -815
q0 -505 362 -833q339 -304 735 -304q337 0 605 227q269 230 301 549h-755v429z" />
    <glyph glyph-name="H" unicode="H" horiz-adv-x="2942" 
d="M819 1842h1306v1185h457v-3027h-457v1413h-1306v-1413h-456v3027h456v-1185z" />
    <glyph glyph-name="I" unicode="I" horiz-adv-x="1183" 
d="M819 3027v-3027h-456v3027h456z" />
    <glyph glyph-name="J" unicode="J" horiz-adv-x="1646" 
d="M1284 3027v-1959q0 -351 -49 -523q-49 -196 -167 -331q-230 -269 -607 -269q-286 0 -535 149l222 390q167 -112 313 -112q204 0 282 156q83 155 82 540v1959h459z" />
    <glyph glyph-name="K" unicode="K" horiz-adv-x="2658" 
d="M819 1819l1179 1208h609l-1368 -1371l1376 -1656h-612l-1090 1347l-94 -94v-1253h-456v3027h456v-1208z" />
    <glyph glyph-name="L" unicode="L" horiz-adv-x="1779" 
d="M819 3027v-2597h890v-430h-1346v3027h456z" />
    <glyph glyph-name="M" unicode="M" horiz-adv-x="3858" 
d="M256 0l637 3254l1039 -2352l1077 2352l572 -3254h-469l-291 1827l-896 -1966l-871 1967l-325 -1828h-473z" />
    <glyph glyph-name="N" unicode="N" horiz-adv-x="3388" 
d="M363 0v3233l2206 -2310v2104h458v-3212l-2208 2303v-2118h-456z" />
    <glyph glyph-name="O" unicode="O" horiz-adv-x="3586" 
d="M211 1527q0 638 469 1098q466 459 1122 458q647 0 1109 -462q465 -462 464 -1112q0 -652 -466 -1107q-469 -456 -1131 -457q-587 0 -1053 406q-514 449 -514 1176zM672 1520q0 -501 337 -824q335 -323 775 -324q476 0 803 329q328 333 328 812q0 484 -324 811
q-322 329 -796 330q-472 0 -797 -330q-326 -325 -326 -804z" />
    <glyph glyph-name="P" unicode="P" horiz-adv-x="2167" 
d="M819 1229v-1229h-456v3027h518q381 0 574 -53q196 -53 344 -201q260 -255 260 -642q0 -416 -277.5 -659t-751.5 -243h-211zM819 1652h171q629 0 628 484q0 469 -648 469h-151v-953z" />
    <glyph glyph-name="Q" unicode="Q" horiz-adv-x="3586" 
d="M3441 -55h-574l-236 243q-378 -244 -843 -243q-602 0 -1068 408q-508 449 -509 1146q0 685 481 1141q466 442 1101 443q577 0 1034 -388q549 -466 548 -1217q0 -588 -434 -1045zM2185 1197l440 -437q290 302 290 748q0 489 -323.5 817.5t-803.5 328.5q-486 0 -800 -330
q-315 -328 -316 -829q0 -490 326 -801q339 -322 774 -322q295 0 535 136l-711 689h589z" />
    <glyph glyph-name="R" unicode="R" horiz-adv-x="2416" 
d="M1387 1289l937 -1289h-559l-863 1239h-83v-1239h-456v3027h534q599 0 867 -226q294 -251 294 -663q0 -322 -184.5 -553.5t-486.5 -295.5zM819 1637h146q648 0 648 495q0 465 -632 465h-162v-960z" />
    <glyph glyph-name="S" unicode="S" horiz-adv-x="2339" 
d="M2073 2576l-369 -220q-104 181 -199 235q-98 63 -252 63q-190 0 -316 -107q-126 -106 -125 -268q0 -221 329 -357l301 -123q368 -148 539 -363t171 -526q0 -417 -279 -690q-280 -274 -696 -275q-393 0 -649 233q-253 234 -317 656l464 103q31 -266 109 -369
q141 -196 412 -196q214 0 354.5 143t140.5 363q0 88 -24.5 161.5t-76 135t-134.5 115.5t-196 103l-291 122q-622 263 -622 768q0 342 261 570q260 231 648 233q523 0 817 -510z" />
    <glyph glyph-name="T" unicode="T" horiz-adv-x="1936" 
d="M1197 2597v-2597h-456v2597h-696v430h1846v-430h-694z" />
    <glyph glyph-name="U" unicode="U" horiz-adv-x="2965" 
d="M819 3027v-1823q0 -391 127 -571q190 -260 535 -261q347 0 538 261q127 175 127 571v1823h457v-1949q0 -479 -299 -788q-335 -344 -823 -345q-489 0 -820 345q-298 309 -298 788v1949h456z" />
    <glyph glyph-name="V" unicode="V" horiz-adv-x="2713" 
d="M515 3027l837 -2097l849 2097h500l-1358 -3254l-1328 3254h500z" />
    <glyph glyph-name="W" unicode="W" horiz-adv-x="4256" 
d="M511 3027l788 -2023l823 2170l789 -2170l837 2023h495l-1352 -3219l-778 2144l-811 -2147l-1287 3222h496z" />
    <glyph glyph-name="X" unicode="X" horiz-adv-x="2479" 
d="M995 1582l-833 1445h520l578 -1026l608 1026h523l-872 -1445l916 -1582h-513l-669 1158l-690 -1158h-518z" />
    <glyph glyph-name="Y" unicode="Y" horiz-adv-x="2408" 
d="M974 1308l-988 1719h525l693 -1210l693 1210h525l-991 -1719v-1308h-457v1308z" />
    <glyph glyph-name="Z" unicode="Z" horiz-adv-x="2508" 
d="M886 430h1452v-430h-2202l1485 2597h-1243v430h1994z" />
    <glyph glyph-name="bracketleft" unicode="[" horiz-adv-x="1433" 
d="M843 2897v-3285h381v-416h-831v4115h831v-414h-381z" />
    <glyph glyph-name="backslash" unicode="\" horiz-adv-x="2079" 
d="M381 3343l1730 -4008l-361 -162l-1735 4011z" />
    <glyph glyph-name="bracketright" unicode="]" horiz-adv-x="1433" 
d="M594 -388v3285h-383v414h829v-4115h-829v416h383z" />
    <glyph glyph-name="asciicircum" unicode="^" horiz-adv-x="2269" 
d="M550 1592h-480l767 1447h595l769 -1447h-482l-584 1088z" />
    <glyph glyph-name="underscore" unicode="_" horiz-adv-x="2269" 
d="M0 -253h2269v-412h-2269v412z" />
    <glyph glyph-name="grave" unicode="`" horiz-adv-x="2269" 
d="M386 2850l413 216l542 -714l-243 -148z" />
    <glyph glyph-name="a" unicode="a" horiz-adv-x="2406" 
d="M1686 1910h442v-1910h-442v200q-273 -255 -587 -255q-396 0 -654 286q-256 293 -257 729q0 430 256.5 715.5t643.5 285.5q333 0 598 -274v223zM638 960q0 -274 147 -446q151 -175 381 -175q245 0 396 169q151 175 152 443q0 269 -152 442q-151 171 -392 171
q-227 0 -380 -172q-152 -176 -152 -432z" />
    <glyph glyph-name="b" unicode="b" horiz-adv-x="2406" 
d="M720 3311v-1624q265 274 599 274q386 0 642 -287q256 -286 258 -714q0 -441 -259 -729q-256 -286 -648 -286q-332 0 -592 255v-200h-441v3311h441zM1768 941q0 274 -150 446q-151 176 -378 177q-244 0 -396 -171q-151 -168 -150 -438q0 -279 149 -445q148 -171 392 -171
q230 0 381 171q152 172 152 431z" />
    <glyph glyph-name="c" unicode="c" horiz-adv-x="1912" 
d="M1764 1827v-587q-151 185 -270 254q-118 70 -277 70q-249 0 -414 -174.5t-165 -437.5q0 -269 160 -441q161 -172 409 -172q158 0 281 68q118 67 276 259v-582q-269 -139 -538 -139q-442 0 -740 286q-298 288 -298 715t302 721t741 294q282 2 533 -134z" />
    <glyph glyph-name="d" unicode="d" horiz-adv-x="2406" 
d="M1686 3311h442v-3311h-442v200q-260 -255 -590 -255q-392 0 -651 286q-256 293 -257 729q0 427 257 714q255 288 641 287q335 0 600 -274v1624zM638 960q0 -274 147 -446q151 -175 381 -175q245 0 396 169q151 175 152 443q0 269 -152 442q-151 171 -392 171
q-227 0 -380 -172q-152 -176 -152 -432z" />
    <glyph glyph-name="e" unicode="e" horiz-adv-x="2220" 
d="M2017 851h-1369q18 -235 154 -375q136 -137 346 -137q165 0 273 78q106 78 241 290l372 -207q-87 -147 -182.5 -252t-205 -172.5t-237 -99t-276.5 -31.5q-427 0 -686 275q-259 276 -259 732q0 452 252 734q253 276 669 275q421 0 666 -267q244 -266 244 -739zM1564 1211
q-92 353 -445 353q-80 0 -151 -24.5t-128 -71t-98.5 -110.5t-63.5 -147h886z" />
    <glyph glyph-name="f" unicode="f" horiz-adv-x="1191" 
d="M735 1498v-1498h-442v1498h-157v412h157v736q0 361 124 510q172 207 503 207q118 0 295 -69v-451l-45 24q-143 73 -235 73q-118 0 -159 -84q-41 -83 -41 -318v-628h480v-412h-480z" />
    <glyph glyph-name="g" unicode="g" horiz-adv-x="2402" 
d="M2125 45q0 -136 -9 -238t-24 -181q-48 -216 -185 -371q-259 -298 -711 -298q-382 0 -629 206q-255 211 -294 586h442q25 -141 84 -218q137 -178 401 -178q484 0 484 594v267q-263 -269 -606 -269q-391 0 -638 282q-251 286 -252 715q0 417 233 710q251 309 663 309
q361 0 600 -267v216h441v-1865zM1701 951q0 279 -148 445q-151 171 -387 171q-251 0 -396 -187q-132 -167 -132 -431q0 -260 132 -428q143 -182 396 -182t401 185q134 167 134 427z" />
    <glyph glyph-name="h" unicode="h" horiz-adv-x="2200" 
d="M279 3311h441v-1561q235 211 519 211q323 0 517 -208q165 -182 165 -583v-1170h-441v1128q0 230 -81.5 333t-261.5 103q-231 0 -325 -143q-92 -146 -92 -498v-923h-441v3311z" />
    <glyph glyph-name="i" unicode="i" horiz-adv-x="999" 
d="M720 1910v-1910h-441v1910h441zM211 2703q0 116 85 200.5t202 84.5q119 0 203 -86q84 -83 84 -201q0 -119 -84 -203q-83 -84 -201 -86q-119 0 -204 84.5t-85 206.5z" />
    <glyph glyph-name="j" unicode="j" horiz-adv-x="999" 
d="M720 1910v-2949h-441v2949h441zM211 2703q0 116 85 200.5t202 84.5q119 0 203 -86q84 -83 84 -201q0 -119 -84 -203q-83 -84 -201 -86q-119 0 -204 84.5t-85 206.5z" />
    <glyph glyph-name="k" unicode="k" horiz-adv-x="1999" 
d="M720 3311v-2019l621 618h591l-829 -803l891 -1107h-573l-631 805l-70 -70v-735h-441v3311h441z" />
    <glyph glyph-name="l" unicode="l" horiz-adv-x="999" 
d="M720 3311v-3311h-441v3311h441z" />
    <glyph glyph-name="m" unicode="m" horiz-adv-x="3175" 
d="M279 1910h441v-177q127 133 217 179q97 49 240 49q323 0 513 -281q207 283 563 281q645 0 644 -781v-1180h-443v1060q0 274 -67 389q-69 116 -225 115q-182 0 -265.5 -137.5t-83.5 -440.5v-986h-442v1054q0 510 -294 510q-186 0 -271.5 -139.5t-85.5 -438.5v-986h-441
v1910z" />
    <glyph glyph-name="n" unicode="n" horiz-adv-x="2200" 
d="M279 1910h442v-177q231 230 522 228q333 0 520 -208q161 -178 159 -583v-1170h-442v1067q0 283 -79 389q-77 109 -278 111q-220 0 -311 -146q-90 -143 -91 -500v-921h-442v1910z" />
    <glyph glyph-name="o" unicode="o" horiz-adv-x="2412" 
d="M188 969q0 413 296 702.5t721 289.5q427 0 726 -291q294 -293 294 -718q0 -430 -296 -718q-298 -288 -732 -289q-430 0 -718 294q-291 290 -291 730zM638 960q0 -286 154 -452q157 -168 413 -169q259 0 414 166.5t155 445.5t-156 445q-157 168 -413 168q-253 0 -410 -169
t-157 -435z" />
    <glyph glyph-name="p" unicode="p" horiz-adv-x="2406" 
d="M720 -1039h-441v2949h441v-209q260 260 592 260q393 0 648 -289q259 -288 259 -727q0 -430 -258 -715q-255 -284 -642 -285q-335 0 -599 269v-1253zM1768 942q0 274 -150 448q-151 175 -379 174q-244 0 -394.5 -169t-150.5 -443q0 -269 150 -442q148 -171 392 -171
q230 0 380 172q152 172 152 431z" />
    <glyph glyph-name="q" unicode="q" horiz-adv-x="2406" 
d="M1686 -1039v1253q-263 -269 -600 -269q-386 0 -641 285q-256 286 -257 715q0 435 257 727q259 290 648 289q332 0 593 -260v209h442v-2949h-442zM638 965q0 -276 150 -450q148 -176 378 -176q244 0 394 169q153 171 154 443q0 269 -152 442q-151 171 -392 171
q-227 0 -380 -172q-152 -174 -152 -427z" />
    <glyph glyph-name="r" unicode="r" horiz-adv-x="1500" 
d="M279 1910h441v-171q122 127 215 173q97 49 227 49q175 0 365 -113l-203 -403q-126 90 -245 89q-361 0 -359 -544v-990h-441v1910z" />
    <glyph glyph-name="s" unicode="s" horiz-adv-x="1628" 
d="M1387 1583l-364 -193q-87 176 -214 177q-60 0 -103.5 -41t-43.5 -104q0 -109 255 -217q351 -151 472.5 -278.5t121.5 -342.5q0 -276 -203 -462q-197 -176 -479 -177q-480 0 -681 468l377 175q78 -137 120 -175q80 -74 192 -74q224 0 223 204q0 118 -172 220
q-67 34 -134 64.5t-135 64.5q-192 94 -270 187q-99 119 -100 308q0 249 171 412q175 162 423 162q366 0 544 -378z" />
    <glyph glyph-name="t" unicode="t" horiz-adv-x="1097" 
d="M734 1498v-1498h-441v1498h-189v412h189v698h441v-698h343v-412h-343z" />
    <glyph glyph-name="u" unicode="u" horiz-adv-x="2186" 
d="M720 1910v-1097q0 -475 373 -474q374 0 376 474v1097h441v-1106q0 -230 -58 -397q-55 -148 -190 -268q-224 -195 -569 -194q-343 0 -565 194q-137 119 -195 268q-55 133 -54 397v1106h441z" />
    <glyph glyph-name="v" unicode="v" horiz-adv-x="2015" 
d="M515 1910l494 -1073l492 1073h497l-993 -2042l-984 2042h494z" />
    <glyph glyph-name="w" unicode="w" horiz-adv-x="3106" 
d="M518 1910l500 -1091l539 1264l542 -1264l494 1091h494l-1000 -2053l-530 1229l-538 -1229l-998 2053h497z" />
    <glyph glyph-name="x" unicode="x" horiz-adv-x="2240" 
d="M871 1033l-686 877h525l425 -558l433 558h540l-705 -877l817 -1033h-525l-560 714l-575 -714h-539z" />
    <glyph glyph-name="y" unicode="y" horiz-adv-x="2181" 
d="M881 354l-860 1556h512l584 -1098l545 1098h498l-1522 -2949h-502z" />
    <glyph glyph-name="z" unicode="z" horiz-adv-x="2181" 
d="M911 416h1136v-416h-2009l1236 1498h-974v412h1846z" />
    <glyph glyph-name="braceleft" unicode="{" horiz-adv-x="1433" 
d="M1231 2941h-55q-176 0 -229.5 -68.5t-53.5 -285.5v-788q0 -207 -56 -339q-57 -113 -218 -210q274 -165 274 -435v-888q0 -224 53 -294q55 -70 230 -70l55 2v-397h-112l-139 -7q-288 0 -413.5 155t-125.5 509v965q0 102 -68.5 181t-186.5 107v378q137 31 196 117.5
t59 257.5v874q0 335 124.5 486.5t400.5 151.5l151 -3l114 -4v-395z" />
    <glyph glyph-name="bar" unicode="|" horiz-adv-x="2269" 
d="M907 3027h455v-3782h-455v3782z" />
    <glyph glyph-name="braceright" unicode="}" horiz-adv-x="1433" 
d="M206 -435l54 -2q175 0 229 69q55 67 54 288v784q0 210 56 340q57 113 219 210q-274 165 -275 433v892q0 227 -54 294q-57 70 -229 71l-54 -3v397h112l137 8q288 0 413 -155q127 -157 127 -510v-967q0 -102 69 -182t186 -107v-376q-137 -34 -196 -120t-59 -254v-875
q0 -335 -124.5 -487t-400.5 -152l-151 6h-113v398z" />
    <glyph glyph-name="asciitilde" unicode="~" horiz-adv-x="3025" 
d="M416 2762l31 69q129 273 272 390t345 117t496 -138q265 -126 415 -124q165 0 226 78l120 149q43 55 80 54q90 0 210 -166q-151 -298 -307 -427q-157 -127 -369 -128q-176 0 -513 153q-255 109 -397 110q-49 0 -115 -29q-69 -28 -88 -57l-126 -175q-39 -50 -77 -51
q-87 0 -203 175z" />
    <glyph glyph-name="saraileftthai" 
d="M-2521 3021l403 189h1155v-361h-1558v172z" />
    <glyph glyph-name="saraiileftthai" 
d="M-2521 3021l400 182h685v406h470v-760h-1h-1554v172z" />
    <glyph glyph-name="saraueleftthai" 
d="M-1483 3279q0 -88 38.5 -133t127.5 -45q88 0 125.5 45t37.5 133t-37.5 133.5t-125.5 45.5t-127 -45.5t-39 -133.5zM-2521 3021l389 182h400q-11 42 -11 74q0 98 29.5 177.5t84 134.5t133.5 84.5t179 29.5q98 0 176 -29.5t133.5 -84.5t85 -134.5t29.5 -177.5
q0 -99 -33 -177.5t-90.5 -133.5t-134.5 -85.5t-165 -31.5h-1205v172z" />
    <glyph glyph-name="saraueeleftthai" 
d="M-2521 3021l373 175h353v413h322v-413h188v413h320v-760h-1556v172z" />
    <glyph glyph-name="maieklowleftthai" 
d="M-1586 2841v786h491v-786h-491z" />
    <glyph glyph-name="maitholowleftthai" 
d="M-2222 3020q28 18 76.5 49.5t95.5 71.5t82 85.5t36 92.5q0 18 -3.5 36.5t-14.5 34.5t-31.5 26.5t-51.5 12.5q-60 4 -108.5 -9.5t-81.5 -24.5v308q57 20 137.5 38.5t173.5 18.5q90 0 161.5 -21.5t122 -60t78 -91t27.5 -114.5q0 -50 -15 -95t-37 -83.5t-47.5 -69
t-47.5 -54.5h675v-125l-328 -201h-899v175z" />
    <glyph glyph-name="maitrilowleftthai" 
d="M-1988 2878q-32 -11 -70 -18t-77 -9.5t-77 -1.5t-71 7q-69 11 -114.5 46t-73 81.5t-38.5 97.5t-11 96v257q-1 74 18.5 127.5t55 87t86.5 49.5t114 16q56 0 110 -16.5t105 -42t101.5 -54t99.5 -53.5q56 24 114 51.5t116.5 52t117 41.5t116.5 17q101 0 163.5 -64.5
t62.5 -211.5q0 -60 -17.5 -102.5t-43 -73.5t-54.5 -52t-51 -35h431v-118l-323 -205h-444v267q14 8 36.5 21t43.5 34.5t35.5 54.5t14.5 82q0 41 -6.5 61t-19.5 25t-34 -3t-49 -22q-29 -15 -61 -31t-60.5 -29.5t-51 -22t-34.5 -8.5q-15 0 -38.5 10t-51 24t-55.5 30t-53 29
q-25 14 -47.5 21.5t-39 2.5t-26.5 -25t-10 -62l3 -80q1 -43 18.5 -64t42 -28t51 -5t47.5 6z" />
    <glyph glyph-name="maichattawalowleftthai" 
d="M-1966 3464h224v298h440v-298h361v-322h-361v-299h-440v299h-488v128z" />
    <glyph glyph-name="thanthakhatlowleftthai" 
d="M-1005 3385l-321 -203h-136q-50 0 -79.5 -16t-30.5 -68v-257h-499v208q0 49 6.5 100t25.5 101t51 94t84.5 78.5t127 55.5t174.5 23h598z" />
    <glyph glyph-name="maieklowrightthai" 
d="M-743 2841v786h491v-786h-491z" />
    <glyph glyph-name="maitholowrightthai" 
d="M-1380 3020q28 18 76 49.5t95 71.5t82 85.5t36 92.5q0 18 -3.5 36.5t-14.5 34.5t-31.5 26.5t-50.5 12.5q-60 4 -108.5 -9.5t-82.5 -24.5v308q57 20 138 38.5t173 18.5q90 0 162 -21.5t122.5 -60t77.5 -91t27 -114.5q0 -50 -14.5 -95t-37 -83.5t-47.5 -69t-48 -54.5h760
v-125l-327 -201h-984v175z" />
    <glyph glyph-name="maitrilowrightthai" 
d="M-1243 2878q-32 -11 -70 -18t-77 -9.5t-77 -1.5t-72 7q-69 11 -114 46t-72.5 81.5t-38.5 97.5t-11 96v257q-1 74 18.5 127.5t55 87t86.5 49.5t114 16q56 0 112 -16.5t110 -42t106.5 -54t101.5 -53.5q56 24 116 51.5t121 52t122 41.5t118 17q101 0 164 -64.5t63 -211.5
q0 -60 -17.5 -102.5t-43.5 -73.5t-54.5 -52t-50.5 -35h501v-118l-324 -205h-513v267q14 8 36 21t43 34.5t36 54.5t15 82q0 41 -6.5 61t-19.5 25t-34 -3t-49 -22q-59 -31 -118 -63t-104 -42h-1q-21 4 -47.5 17t-54.5 28.5t-55.5 32t-52.5 29.5q-25 14 -47.5 21.5t-39.5 2.5
t-26.5 -25t-9.5 -62l3 -80q1 -43 18.5 -64t42 -28t51 -5t47.5 6z" />
    <glyph glyph-name="maichattawalowrightthai" 
d="M-946 3464h224v298h439v-298h361v-322h-361v-299h-439v299h-489v128z" />
    <glyph glyph-name="thanthakhatlowrightthai" 
d="M-15 3385l-321 -203h-206q-50 0 -79.5 -16t-30.5 -68v-257h-499v208q0 49 6.5 100t25.5 101t51 94t84.5 78.5t126.5 55.5t175 23h668z" />
    <glyph glyph-name="maihanakatleftthai" 
d="M179 3038l-417 -189h-1175q-125 0 -203.5 42t-123.5 102t-62 126.5t-17 114.5v256h485v-186q0 -59 23 -87t79 -28h1411v-151z" />
    <glyph glyph-name="nikhahitleftthai" 
d="M-1835 3275q0 109 35 192t95.5 140.5t142.5 87t175 29.5q94 0 175.5 -29.5t142.5 -87t96 -140.5t35 -192t-35 -192.5t-96 -140.5t-143 -86t-175 -29q-92 0 -174.5 29t-143 86t-95.5 140.5t-35 192.5zM-1551 3275q0 -95 44 -143t118 -48t118.5 47.5t44.5 143.5
q0 95 -44.5 142.5t-118.5 47.5t-118 -47.5t-44 -142.5z" />
    <glyph glyph-name="maitaikhuleftthai" 
d="M-1677 2968q-50 -36 -104 -63q-45 -24 -101 -43.5t-107 -18.5q-105 0 -181.5 33t-126 92t-73 140t-23.5 176v37q0 70 22.5 150.5t83 149t165.5 114t270 45.5h999v-132l-338 -168h-658q-70 -3 -106 -42t-36 -121v-61q0 -39 9 -62.5t24.5 -35t36 -12t42.5 7.5l199 90
l213 -87q48 -17 77 3.5t29 74.5v89h412v-96q0 -78 -18.5 -148t-64.5 -122.5t-126.5 -83.5t-205.5 -31q-55 -1 -110 18t-100.5 42.5t-59.5 34.5z" />
    <glyph glyph-name="maiekupperleftthai" 
d="M-1450 3875v619h484v-619h-484z" />
    <glyph glyph-name="maithoupperleftthai" 
d="M-1704 4031q25 17 67 44t83 61.5t71.5 74t32.5 81.5q0 15 -3 32t-13 30.5t-27.5 23.5t-45.5 11q-53 3 -95 -8.5t-71 -22.5v270q50 18 120 34.5t153 16.5q78 0 141 -19t107 -52.5t68 -79t24 -100.5q0 -45 -12.5 -82.5t-32 -68.5t-42 -56t-42.5 -46h667v-109l-300 -189
h-850v154z" />
    <glyph glyph-name="maitriupperleftthai" 
d="M-1417 3905q-29 -11 -64 -17.5t-71 -9.5t-71 -1.5t-65 7.5q-62 10 -103.5 42t-66.5 74t-35.5 89.5t-10.5 88.5v235q-1 67 17 116t51 80t79 45.5t102 14.5q52 0 101.5 -15.5t96.5 -38.5t92.5 -49.5t90.5 -49.5q52 21 104.5 47t105.5 48.5t106.5 38t106.5 15.5
q92 0 150 -59t58 -193q0 -55 -16 -94t-39.5 -68t-50.5 -47.5t-48 -31.5h395v-108l-297 -187h-404v243q13 8 33.5 19.5t39.5 32t33 50.5t14 75q0 36 -6 54t-19 23t-31.5 -2t-44.5 -19q-55 -28 -101.5 -57.5t-87.5 -39.5h-1q-20 4 -41.5 16t-44.5 26t-46 28.5t-46 27.5
q-22 13 -42.5 20t-36.5 2.5t-25 -23.5t-9 -56l3 -75q1 -41 17 -59.5t38.5 -25t47 -3.5t44.5 6z" />
    <glyph glyph-name="maichattawaupperleftthai" 
d="M-1567 4372h203v270h397v-270h327v-291h-327v-269h-397v269h-442v118z" />
    <glyph glyph-name="thanthakhatupperleftthai" 
d="M-388 4026l-298 -187h-195q-36 0 -61 -15t-27 -64v-239h-473v195q0 67 15.5 139.5t61.5 133.5t131.5 101.5t226.5 45.5h621z" />
    <glyph glyph-name="uni00A0" unicode="&#xa0;" horiz-adv-x="1433" 
 />
    <glyph glyph-name="cent" unicode="&#xa2;" horiz-adv-x="2149" 
d="M1372 3056v-477q277 -15 494 -107v-425q-59 22 -119.5 41t-130 32.5t-148.5 20.5t-174 7q-160 0 -265.5 -52t-168.5 -146.5t-89 -225.5t-26 -290q0 -160 26 -291.5t89 -226t168.5 -146.5t265.5 -52q95 0 174 7t148.5 21t130 32.5t119.5 41.5v-425q-108 -48 -231.5 -74.5
t-262.5 -33.5v-372h-424v400q-197 42 -331.5 140.5t-216 243t-116.5 330.5t-35 405q0 217 35 402.5t116.5 330t215.5 242.5t332 142v505h424z" />
    <glyph glyph-name="sterling" unicode="&#xa3;" horiz-adv-x="2266" 
d="M193 0v349q129 84 218 154.5t143.5 137t79 132.5t24.5 138q0 29 -1.5 73t-3.5 91.5t-5 93t-7 81.5h-445v167l342 215h75q-4 59 -10.5 136t-13.5 159t-12.5 162.5t-6.5 146.5q-7 193 49.5 342t165 250t262 152.5t342.5 51.5q216 0 382.5 -47.5t300.5 -132.5l-164 -381
q-60 31 -128 57t-135 44.5t-131 29t-115 10.5q-106 0 -173 -31.5t-104 -88.5t-50.5 -138.5t-13.5 -180.5q0 -56 3.5 -126t10 -142t13 -143t13.5 -130h681v-382h-646q1 -18 3 -65t4 -99.5t3.5 -100.5t1.5 -69q0 -45 -5.5 -99t-32 -116.5t-81 -133t-152.5 -148.5l1232 -5v-414
h-1913z" />
    <glyph glyph-name="yen" unicode="&#xa5;" horiz-adv-x="2745" 
d="M2093 2023h434v-382h-640l-129 -238h769v-382h-909v-1021h-498v1021h-925v166l341 216h443l-128 238h-656v166l341 216h108l-511 949h573l663 -1359l664 1359h572z" />
    <glyph glyph-name="copyright" unicode="&#xa9;" horiz-adv-x="3567" 
d="M1779 -24q-209 0 -403 35t-365 109.5t-312.5 192t-243 283.5t-157.5 382t-56 489q0 274 56 491.5t157.5 384t243 284t312.5 192.5t365.5 110t402.5 35q210 0 407 -35t368.5 -110t313.5 -192.5t243.5 -284t157.5 -383.5t56 -492q0 -273 -56 -489t-157.5 -382
t-243.5 -283.5t-313.5 -192t-368.5 -109.5t-407 -35zM1789 326q158 0 306.5 27.5t279.5 85t239 147.5t185.5 217.5t120 292t42.5 371.5q0 209 -42.5 375t-120 293t-185.5 217.5t-239 148.5t-279.5 85.5t-306.5 27.5q-242 0 -457 -62.5t-376.5 -199t-256 -355t-94.5 -530.5
q0 -207 42.5 -371.5t121 -292t187 -217.5t240 -147.5t282 -85t311.5 -27.5zM981 1467q0 223 59.5 382.5t169 261.5t263.5 150.5t343 48.5q153 0 278.5 -17t235.5 -61v-373q-41 14 -87 25.5t-103 19.5t-124 13t-150 5q-101 0 -181.5 -26t-137 -81t-87.5 -141t-31 -207
q0 -120 31 -206t87.5 -141.5t137 -81.5t181.5 -26q83 0 150 5t124 13.5t103 20.5t87 26v-374q-109 -45 -235.5 -62t-278.5 -17q-189 0 -343 48.5t-263.5 150.5t-169 261.5t-59.5 382.5z" />
    <glyph glyph-name="guillemotleft" unicode="&#xab;" horiz-adv-x="2024" 
d="M1078 703v-457l-892 740v253l892 741v-457l-539 -410zM1838 703v-457l-892 740v253l892 741v-457l-539 -410z" />
    <glyph glyph-name="registered" unicode="&#xae;" horiz-adv-x="3567" 
d="M1791 1194h-265v-505h-420v1572h739q157 0 265 -41.5t173.5 -113.5t95 -169t29.5 -211q0 -66 -11 -131t-38 -125t-70 -111t-108 -88l335 -582h-478zM1988 1714q0 76 -38 123t-113 47h-311v-341h311q48 0 78 16t46 41t21.5 55.5t5.5 58.5zM1779 -24q-209 0 -403 35
t-365 109.5t-312.5 192t-243 283.5t-157.5 382t-56 489q0 274 56 491.5t157.5 384t243 284t312.5 192.5t365.5 110t402.5 35q210 0 407 -35t368.5 -110t313.5 -192.5t243.5 -284t157.5 -383.5t56 -492q0 -273 -56 -489t-157.5 -382t-243.5 -283.5t-313.5 -192t-368.5 -109.5
t-407 -35zM1789 326q158 0 306.5 27.5t279.5 85t239 147.5t185.5 217.5t120 292t42.5 371.5q0 209 -42.5 375t-120 293t-185.5 217.5t-239 148.5t-279.5 85.5t-306.5 27.5q-242 0 -457 -62.5t-376.5 -199t-256 -355t-94.5 -530.5q0 -207 42.5 -371.5t121 -292t187 -217.5
t240 -147.5t282 -85t311.5 -27.5z" />
    <glyph glyph-name="plusminus" unicode="&#xb1;" horiz-adv-x="2377" 
d="M1406 1819h670v-399h-670v-689h-434v689h-671v399h671v687h434v-687zM301 154v399h1775v-399h-1775z" />
    <glyph glyph-name="guillemotright" unicode="&#xbb;" horiz-adv-x="2024" 
d="M1485 1113l-539 410v457l892 -741v-253l-892 -740v457zM725 1113l-539 410v457l892 -741v-253l-892 -740v457z" />
    <glyph glyph-name="onequarter" unicode="&#xbc;" horiz-adv-x="3553" 
d="M654 -48l1740 3020h343l-1740 -3020h-343zM522 1182v1292l-381 -23v178l558 270h217v-1717h-394zM3035 0h-385v365h-738v265l703 1091h420v-1034h256v-322h-256v-365zM2268 686l382 1l4 600z" />
    <glyph glyph-name="onehalf" unicode="&#xbd;" horiz-adv-x="3553" 
d="M1991 0v286q189 120 327.5 216.5t236.5 175.5t159 142t96 117t47.5 99.5t12.5 90.5q0 52 -13.5 98t-45 80.5t-81.5 54.5t-123 20q-87 0 -173 -20t-161 -48t-131.5 -56t-83.5 -44v357q42 18 109 44t151 50t179.5 41t191.5 17q126 0 219.5 -24.5t160 -66t109 -94.5t67 -110
t33.5 -113t9 -103q0 -140 -61 -265t-159.5 -233.5t-224 -198.5t-255.5 -162l745 3v-354h-1341zM480 -48l1740 3020h343l-1740 -3020h-343zM480 1182v1292l-381 -23v178l558 270h217v-1717h-394z" />
    <glyph glyph-name="threequarters" unicode="&#xbe;" horiz-adv-x="3553" 
d="M160 2733q41 28 104.5 61t143 61t170 46.5t182.5 18.5q139 0 245.5 -32t180 -87.5t111 -129.5t37.5 -158q0 -148 -82.5 -246t-228.5 -159q85 -17 156 -50.5t122 -87t79 -128.5t28 -172q0 -112 -51 -210t-145.5 -171.5t-226.5 -115.5t-293 -42q-97 -3 -183 14.5t-159 44.5
t-131.5 58.5t-99.5 59.5l133 285q28 -18 70 -42.5t95 -46t116 -36.5t135 -15q78 0 139.5 17t105 47.5t65.5 71.5t20 90q0 90 -37 140.5t-98.5 76.5t-142 33t-167.5 7h-148v318h154q59 0 124.5 3.5t120 21.5t91 57.5t36.5 110.5q0 28 -12.5 57.5t-40.5 53.5t-73 39t-109 15
q-71 0 -133.5 -15t-113 -37t-89 -46.5t-65.5 -41.5zM806 -48l1741 3020h343l-1741 -3020h-343zM3098 0h-385v365h-738v265l703 1091h420v-1034h256v-322h-256v-365zM2331 686l382 1l4 600z" />
    <glyph glyph-name="multiply" unicode="&#xd7;" horiz-adv-x="2361" 
d="M1182 1645l597 598l297 -297l-598 -598l598 -599l-297 -297l-597 598l-598 -598l-298 297l599 599l-599 598l298 297z" />
    <glyph glyph-name="divide" unicode="&#xf7;" horiz-adv-x="2377" 
d="M900 2034q0 59 23 111.5t62.5 91.5t92 62.5t111.5 23.5q60 0 112.5 -23.5t91.5 -62.5t62 -91.5t23 -111.5q0 -60 -23 -112.5t-62 -91.5t-91.5 -62.5t-112.5 -23.5q-59 0 -111.5 23.5t-92 62.5t-62.5 91.5t-23 112.5zM900 662q0 59 23 112t62.5 92.5t92 62.5t111.5 23
q60 0 112.5 -23t91.5 -62.5t62 -92.5t23 -112t-23 -112t-62 -92t-91.5 -62.5t-112.5 -23.5q-59 0 -111.5 23.5t-92 62.5t-62.5 92t-23 112zM2076 1547v-399h-1775v399h1775z" />
    <glyph glyph-name="kokaithai" unicode="&#xe01;" horiz-adv-x="2581" 
d="M1831 1497q0 160 -30.5 259.5t-89 155.5t-141.5 76.5t-188 20.5q-36 0 -102 -4t-141.5 -13.5t-153.5 -23.5t-139 -32v-1936h-499v1564l219 294h-406v298q158 59 324 107t330.5 83t325.5 55t308 20q235 0 402 -57t273.5 -164t156.5 -260.5t50 -344.5v-1595h-499v1497z" />
    <glyph glyph-name="khokhaithai" unicode="&#xe02;" horiz-adv-x="2294" 
d="M1105 -42q-444 0 -656 199.5t-212 597.5q0 151 11 247t49.5 164.5t112.5 126.5t200 134q62 38 101 72t61 69t29.5 72t7.5 79t-9.5 88.5t-34 87t-66 70.5t-103.5 40q-84 14 -186.5 3.5t-224.5 -42.5v379q60 21 131.5 33.5t135 20.5t111 10.5t61.5 2.5q141 0 245 -31.5
t177 -84t118.5 -119.5t71 -139t35 -143t9.5 -128q0 -76 -11.5 -165.5t-52.5 -180t-120.5 -176.5t-214.5 -156q-55 -28 -85 -66.5t-44 -83t-17 -95t-3 -102.5q0 -78 19.5 -147.5t64 -121.5t115 -82t174.5 -30q22 0 63.5 1.5t89.5 11.5t99 33t92.5 65t68 107.5t26.5 162.5
v1639h499v-1582q0 -192 -43 -346.5t-149.5 -265t-287.5 -170t-458 -59.5z" />
    <glyph glyph-name="khokhuatthai" unicode="&#xe03;" horiz-adv-x="2291" 
d="M783 1694q-49 92 -103 147.5t-118 85t-141.5 39t-174.5 9.5q-25 0 -46.5 -2t-35.5 -3v423q88 0 173.5 1t172 -23.5t179 -88.5t194.5 -196l97 295h297v-655q0 -76 -9 -156t-49 -161.5t-120 -162t-221 -157.5q-55 -29 -84.5 -69t-44 -87t-17.5 -98.5t-3 -103.5
q0 -78 20 -147.5t64 -121.5t114.5 -82t174.5 -30q22 0 63.5 1.5t89.5 11t99.5 33t92.5 65.5t67.5 107.5t26.5 162.5v1650h499v-1593q0 -192 -43 -346.5t-149 -265t-287.5 -170t-458.5 -59.5q-444 0 -656 199.5t-212 596.5q0 111 11 197t49.5 159.5t113 142t200.5 144.5
q62 38 96.5 73t52 65.5t22 53t4.5 35.5v81z" />
    <glyph glyph-name="khokhwaithai" unicode="&#xe04;" horiz-adv-x="2563" 
d="M1280 2023q-87 4 -180 -13.5t-171 -63t-128.5 -124t-50.5 -195.5v-396l350 175h310v-465h-660v-941h-498v1667q0 203 72 346.5t206.5 234t324 132t425.5 41.5q237 0 427.5 -41.5t325 -132t206.5 -234t72 -346.5v-1667h-498v1627q0 118 -50.5 194.5t-129 121.5t-172 62.5
t-181.5 17.5z" />
    <glyph glyph-name="khokhonthai" unicode="&#xe05;" horiz-adv-x="2660" 
d="M252 1749q0 158 28 282t91 210t164.5 131.5t248.5 45.5q39 1 82.5 -9.5t87.5 -28.5t87.5 -41t84.5 -47q94 -56 187 -130l28 20q28 19 73 47.5t103 62t120.5 62.5t124 47t113.5 17q147 0 248.5 -45.5t164.5 -131.5t91.5 -210t28.5 -282v-1749h-498v1837q0 45 -13 70
t-34 35t-48 7t-57 -14l-434 -167l-434 170q-29 11 -54 13.5t-44 -8t-29.5 -36t-10.5 -70.5v-606l350 175h309v-465h-659v-941h-499z" />
    <glyph glyph-name="khorakhangthai" unicode="&#xe06;" horiz-adv-x="2471" 
d="M745 697q56 -101 119 -162.5t135 -95t156 -45.5t181 -12q87 0 157.5 19t121 59t78.5 101t28 145v1675h498v-1719q0 -158 -47 -287t-145 -220t-249 -140.5t-360 -49.5q-88 0 -180.5 9t-189 45t-198.5 106.5t-212 195.5l-92 -321h-297v743q0 111 11.5 197t50 159.5
t112.5 142t200 144.5q62 38 97 73t52.5 65.5t21.5 53t4 35.5v81q-49 92 -103 147.5t-117.5 85t-141.5 39t-174 9.5q-25 0 -47 -2t-36 -3v423q88 0 173.5 1t172.5 -23.5t179.5 -88.5t194.5 -196l96 295h297v-655q0 -76 -9 -156t-49 -161.5t-119.5 -162t-221.5 -157.5
q-55 -29 -84 -69t-44 -87t-17.5 -98.5t-2.5 -103.5v-34z" />
    <glyph glyph-name="ngonguthai" unicode="&#xe07;" horiz-adv-x="1828" 
d="M1078 1840q0 38 -5 74t-20.5 65.5t-47 47t-82.5 17.5q-13 0 -34 -3t-44 -7t-45 -9.5t-37 -9.5v344q56 15 115 28t117 21t112 12.5t100 2.5q126 -3 199.5 -37t111 -90.5t48 -129.5t10.5 -151v-1304q0 -99 -10.5 -193t-37 -177t-73.5 -152.5t-121 -120t-178.5 -78.5
t-244.5 -28q-119 0 -231.5 17t-214 48.5t-191 78.5t-161.5 107v411q74 -55 164.5 -99.5t183 -77.5t178.5 -50.5t152 -17.5t119 15t90 55.5t57.5 112t20.5 184.5v1094z" />
    <glyph glyph-name="chochanthai" unicode="&#xe08;" horiz-adv-x="1971" 
d="M1221 1219v495q0 148 -101.5 230.5t-297.5 82.5q-104 0 -195.5 -9t-173.5 -25t-156 -38.5t-146 -49.5v426q127 55 291 82t387 27q242 0 411.5 -62t276 -166t154.5 -237t48 -274v-1701l-498 1v940h-692v465h338z" />
    <glyph glyph-name="chochingthai" unicode="&#xe09;" horiz-adv-x="2475" 
d="M2222 -1h-297l-92 322q-118 -133 -221.5 -208t-198 -112t-183.5 -46.5t-177 -9.5q-209 0 -360 50t-249 141t-145 219.5t-47 287.5v761h498v-718q0 -84 28 -145t78.5 -101t121.5 -58.5t157 -18.5q88 0 168 10.5t153.5 44.5t140 98t126.5 170l2 921q0 94 -35 168t-110 126
t-191 78.5t-277 26.5q-122 0 -247.5 -18t-242.5 -47.5t-219.5 -66t-179.5 -72.5v425q84 36 197 72t238.5 65t252 46.5t237.5 17.5q207 0 368 -28t280 -82t201 -131t132.5 -174.5t72 -214.5t21.5 -248z" />
    <glyph glyph-name="chochangthai" unicode="&#xe0a;" horiz-adv-x="2375" 
d="M1628 1470q0 29 -7.5 60t-24.5 56t-43.5 41.5t-64.5 16.5v964h639v-140l-355 -515q52 -14 114.5 -48.5t115.5 -92.5t89 -142t36 -197v-685q0 -192 -47 -346.5t-159 -265t-297.5 -170t-462.5 -59.5q-221 0 -393.5 49.5t-290 149.5t-179 249.5t-61.5 347.5q0 101 4 177.5
t18 135t38.5 105t66.5 88.5t102 84.5t144 93.5q62 38 101 72t61 69t29.5 72t7.5 79t-9.5 88.5t-34 87t-66 70.5t-103.5 40q-84 14 -186.5 3.5t-224.5 -42.5v379q60 21 131.5 33.5t135 20.5t111 10.5t61.5 2.5q141 0 245 -31.5t177 -84t118.5 -119.5t71 -139t35 -143
t9.5 -128q0 -76 -11.5 -165.5t-52.5 -180t-120.5 -176.5t-214.5 -156q-55 -28 -85 -68t-44 -87.5t-17 -99t-3 -103.5q0 -78 28 -147.5t82.5 -121.5t134.5 -82t184 -30q22 0 65.5 1.5t96 11t107 33t99.5 65.5t73 107.5t26 162.5v739z" />
    <glyph glyph-name="sosothai" unicode="&#xe0b;" horiz-adv-x="2405" 
d="M1515 2608h638v-140l-353 -515q52 -14 114.5 -48.5t115.5 -92.5t89 -142t36 -197v-685q0 -192 -50.5 -346.5t-167 -265t-305.5 -170t-466 -59.5q-221 0 -394.5 49.5t-293.5 149.5t-182 249.5t-62 347.5v136.5t7.5 116.5t25 103t53.5 96t92 94t140 97q62 38 96.5 73
t52 65.5t22 53t4.5 35.5v81q-49 92 -94 147.5t-99 85t-122.5 39t-165.5 9.5q-25 0 -46.5 -2t-35.5 -3v423q59 0 112 1t104 -3t101.5 -19.5t105 -49.5t113.5 -91t127 -145l97 295h297v-655q0 -76 -9 -156t-49 -161.5t-120 -162t-221 -157.5q-55 -29 -76 -69t-24.5 -87
t2 -98.5t5.5 -103.5q0 -78 29.5 -147.5t85.5 -121.5t137.5 -82t184.5 -30q22 0 67 1.5t99 11t111.5 33t104.5 65.5t77 107.5t30 162.5l1 739q0 29 -7.5 60t-24.5 56t-43.5 41.5t-64.5 16.5z" />
    <glyph glyph-name="chochoethai" unicode="&#xe0c;" horiz-adv-x="3914" 
d="M2330 689q50 -88 109.5 -148.5t125.5 -97t137 -52.5t147 -16q87 0 147 19.5t97 59.5t54 101t17 145v1681h498v-1724q0 -158 -35.5 -287t-121 -220t-225.5 -141t-348 -50q-88 0 -175 17.5t-174 61t-176.5 115.5t-184.5 182l-93 -335h-298v1497q0 160 -31.5 259.5
t-89 155.5t-140.5 76.5t-188 20.5q-36 0 -102 -4t-141.5 -13.5t-153.5 -23.5t-139 -32l1 -1383q0 -64 19.5 -109.5t77.5 -59.5q28 -7 84 -6t114 6v-405q-43 -3 -82 -6q-34 -3 -69 -3.5t-54 -0.5q-305 0 -446.5 145.5t-141.5 434.5l-2 1015l219 294h-406v298q158 59 324 107
t330.5 83t325.5 55t308 20q235 0 402 -57t273.5 -164t156.5 -260.5t50 -344.5v-906z" />
    <glyph glyph-name="yoyingthai" unicode="&#xe0d;" horiz-adv-x="3765" 
d="M3112 -412h-1254v409h1649v-208zM1771 1497q0 160 -26.5 259.5t-79 155.5t-131.5 76.5t-184 20.5q-36 0 -96.5 -4t-130.5 -13.5t-143 -23.5t-134 -32l1 -1383q0 -64 19.5 -109.5t77.5 -59.5q28 -7 84 -6t114 6v-405q-43 -3 -82 -6q-34 -3 -69 -3.5t-54 -0.5
q-305 0 -446.5 145.5t-141.5 434.5v1015l217 294h-406v298q158 59 318 107t320 83t315 55t302 20q235 0 397.5 -57t264 -164t147 -260.5t45.5 -344.5l-2 -584q0 -84 13 -148t53.5 -106.5t114 -65t192.5 -22.5t192.5 21t114.5 63t55 105t14 147v1376h498v-1318
q0 -175 -37 -321t-135 -251t-267 -163t-432 -58t-432.5 58t-268 163t-136.5 251t-38 321z" />
    <glyph glyph-name="dochadathai" unicode="&#xe0e;" horiz-adv-x="2583" 
d="M1834 1497q0 160 -26.5 259.5t-79 155.5t-131.5 76.5t-184 20.5q-36 0 -89 -4t-114 -13.5t-126 -23.5t-126 -32l1 -1387q1 -288 -141.5 -434t-446.5 -146q-21 0 -55.5 1t-67.5 3q-39 3 -83 6v405q67 -7 119 -8t80 6q57 14 77 60.5t20 110.5v1011l217 294h-406v298
q158 59 310.5 107t303 83t298 55t294.5 20q235 0 397.5 -57t264 -164t147 -260.5t45.5 -344.5l-1 -2299l-1774 -2v366l283 1l993 -112z" />
    <glyph glyph-name="topatakthai" unicode="&#xe0f;" horiz-adv-x="2585" 
d="M1820 -699q-43 48 -86 78t-85 47.5t-82.5 24t-78.5 6.5q-29 0 -71 -8.5t-83.5 -26.5t-78 -47.5t-54.5 -71.5h-768v417h173l486 -148q42 60 93 97.5t102 58.5t97.5 29.5t78.5 8.5q38 0 82 -4t92.5 -18t98 -40.5t97.5 -71.5l1 1865q0 160 -26.5 259.5t-79 155.5
t-131.5 76.5t-184 20.5q-36 0 -89 -4t-114 -13.5t-126 -23.5t-126 -32l1 -1387q1 -288 -141.5 -434t-446.5 -146q-21 0 -55.5 1t-67.5 3q-39 3 -83 6v405q67 -7 119 -8t80 6q57 14 77 60.5t20 110.5v1011l217 294h-406v298q158 59 310.5 107t303 83t298 55t294.5 20
q235 0 397.5 -57t264 -164t147 -260.5t45.5 -344.5l2 -2294h-514z" />
    <glyph glyph-name="thothanthai" unicode="&#xe10;" horiz-adv-x="1969" 
d="M1792 2499l-232 -333q84 -99 121.5 -218.5t37.5 -246.5v-1701l-498 1v940h-692v465h338l354 -187v495q0 148 -101.5 230.5t-297.5 82.5q-104 0 -195.5 -9t-173.5 -25t-156 -38.5t-146 -49.5v426q127 55 291 82t387 27q113 0 208.5 -14t177.5 -40v333h577v-220zM609 -477
q35 60 77.5 97t86 56t85 25t74.5 6q45 0 82 -6t71 -20t66.5 -36t69.5 -51l-2 190h500v-539h-467q-34 48 -74 79.5t-81 50.5t-80.5 27.5t-71.5 10.5q-34 1 -69.5 -7.5t-67 -29t-57.5 -53.5t-40 -76h-512v389h169z" />
    <glyph glyph-name="thonangmonthothai" unicode="&#xe11;" horiz-adv-x="2555" 
d="M1805 0v1768q0 92 -15 124t-48 32q-24 0 -46.5 -15.5t-47.5 -41t-54 -59t-64 -69.5l-620 -662q-41 -45 -63 -85t-32.5 -80.5t-13 -84.5t-2.5 -96v-730l-495 -2v606q0 63 -5 128.5t2 133t34.5 134.5t91.5 133l195 209v351q-53 99 -109.5 155t-111.5 84t-110.5 35t-107.5 7
q-25 0 -46.5 -2t-35.5 -3v423q59 0 109 1t96.5 -3t92 -19.5t94.5 -49.5t105 -91t124 -145l97 295h269v-539l252 268q56 59 117 118.5t128 106t143.5 75.5t164.5 29q133 -1 213.5 -44.5t124.5 -120t58 -180t14 -224.5v-1870h-498z" />
    <glyph glyph-name="thophuthaothai" unicode="&#xe12;" horiz-adv-x="3922" 
d="M238 1749q0 158 28 282t91 210t164.5 131.5t248.5 45.5q39 1 82 -9.5t85.5 -28t85 -40t82.5 -45.5q90 -56 180 -128l25 19q24 19 64.5 47.5t93 61t111 60.5t116.5 46t110 17q147 0 248.5 -45.5t164.5 -131.5t91.5 -210t28.5 -282v-1049q49 -67 105.5 -126t121 -103
t137.5 -69t155 -25q87 0 147.5 18.5t97.5 58.5t53.5 101t16.5 145v1681h499v-1724q0 -158 -36 -287t-119 -220t-219 -141t-336 -50q-97 0 -187 20t-178.5 64t-178.5 115.5t-187 176.5l-92 -336h-298l-2 1810q0 90 -34 125.5t-93 11.5l-429 -172l-418 172q-59 24 -93.5 -12
t-34.5 -125v-860q0 -153 18.5 -260t55 -175.5t89 -102t122.5 -39.5q78 -7 176.5 7t191.5 44v-388q-53 -20 -112 -33t-117 -21.5t-113.5 -12t-101.5 -3.5q-185 0 -318 56.5t-219.5 176.5t-128 305.5t-41.5 441.5v804z" />
    <glyph glyph-name="nonenthai" unicode="&#xe13;" horiz-adv-x="3876" 
d="M1791 1497q0 160 -30.5 259.5t-86.5 155.5t-137.5 76.5t-186.5 20.5q-36 0 -96.5 -4t-130.5 -13.5t-143 -23.5t-134 -32l1 -1383q0 -64 19.5 -109.5t77.5 -59.5q28 -7 84 -6t114 6v-405q-43 -3 -82 -6q-34 -3 -69 -3.5t-54 -0.5q-305 0 -446.5 145.5t-141.5 434.5
l-2 1015l219 294h-406v298q158 59 318 107t320 83t315 55t302 20q235 0 401 -57t271 -164t153.5 -260.5t48.5 -344.5v-895q0 -84 17 -145t54 -101t97 -59.5t147 -19.5q76 0 148 16t138.5 52.5t126 97t109.5 148.5v1692h499v-2381h-300l-92 335q-95 -109 -185 -181.5
t-177.5 -116t-174 -61t-175.5 -17.5q-209 0 -348.5 50t-225 141t-121 219.5t-35.5 287.5v840z" />
    <glyph glyph-name="dodekthai" unicode="&#xe14;" horiz-adv-x="2549" 
d="M238 1667q0 203 72 346.5t206.5 234t324 132t425.5 41.5q237 0 427.5 -41.5t325 -132t206.5 -234t72 -346.5v-1667h-498v1627q0 118 -50.5 194.5t-129 121.5t-172 62.5t-181.5 17.5q-87 4 -180 -13.5t-171 -63t-128.5 -124t-50.5 -195.5v-706q0 -153 21 -257t61 -168.5
t98 -93t133 -30.5q55 0 96 3t78.5 10.5t77 21t88.5 33.5v-402q-48 -14 -104 -27.5t-112.5 -23t-112 -16t-101.5 -6.5q-185 0 -320 52.5t-224.5 166.5t-133 295.5t-43.5 437.5v750z" />
    <glyph glyph-name="totaothai" unicode="&#xe15;" horiz-adv-x="2618" 
d="M1299 2167l26 19t68 47.5t96.5 61t113.5 60.5t118.5 46t111.5 17q147 0 248.5 -45.5t164.5 -131.5t91.5 -210t28.5 -282v-1749h-498l-2 1809q0 90 -34 125.5t-93 11.5l-443 -172l-432 172q-59 24 -93.5 -12t-34.5 -125v-860q0 -153 18.5 -260t55 -175.5t89 -102
t122.5 -39.5q78 -7 176.5 7t191.5 44v-388q-53 -20 -112 -33t-117 -21.5t-113.5 -12t-101.5 -3.5q-185 0 -318 56.5t-219.5 176.5t-128 305.5t-41.5 441.5v804q0 158 28 282t91 210t164.5 131.5t248.5 45.5q39 1 82.5 -9.5t87.5 -28t87.5 -40t84.5 -45.5q93 -57 187 -128z
" />
    <glyph glyph-name="thothungthai" unicode="&#xe16;" horiz-adv-x="2597" 
d="M347 1564l219 294h-406v298q158 59 325 107t334.5 83t330 55t309.5 20q235 0 403 -57t275 -164t157.5 -260.5t50.5 -344.5v-1595h-498v1497q0 160 -31.5 259.5t-90.5 155.5t-143 76.5t-189 20.5q-36 0 -103.5 -4t-146 -13.5t-157.5 -23.5t-140 -32v-1383
q0 -64 19.5 -110.5t76.5 -60.5q28 -7 80 -6t119 8v-405q-43 -3 -83 -6q-34 -3 -68.5 -3.5t-54.5 -0.5q-305 0 -446.5 145.5t-141.5 434.5v1015z" />
    <glyph glyph-name="thothahanthai" unicode="&#xe17;" horiz-adv-x="2506" 
d="M750 2381v-849l541 578q56 60 116 119t128 105.5t144.5 75.5t164.5 29q133 -1 213.5 -44.5t124.5 -120t58 -180t14 -224.5v-1870h-498v1768q0 92 -15 124t-48 32q-24 0 -47 -15t-48.5 -40t-53.5 -58.5t-63 -71.5l-620 -662q-36 -39 -58 -74.5t-33 -71t-15.5 -72.5
t-4.5 -79v-780h-498v2381h498z" />
    <glyph glyph-name="thothongthai" unicode="&#xe18;" horiz-adv-x="2205" 
d="M701 596q0 -63 43 -111t107.5 -81t140.5 -50t145 -17q67 0 141 21t136 59.5t101.5 91t39.5 115.5v136q0 178 -120 273t-356 126q-235 31 -402 87t-273 136t-155.5 181.5t-49.5 221.5t61.5 238t183.5 210t304.5 149.5t424.5 57.5q111 0 222 -9t212.5 -25t189 -39
t152.5 -50v-412q-80 27 -171 53t-190.5 45.5t-205 31.5t-214.5 12q-113 0 -201.5 -21t-149.5 -53.5t-92.5 -73t-31.5 -79.5q0 -63 42 -105.5t110 -70.5t152.5 -47t170.5 -35q263 -49 433.5 -112.5t271 -148t139.5 -196.5t39 -258v-179q0 -141 -59.5 -269.5t-175.5 -225
t-287 -154t-392 -57.5q-223 0 -395 46.5t-290.5 130.5t-180 200.5t-61.5 258.5v210l297 323h194v-535z" />
    <glyph glyph-name="nonuthai" unicode="&#xe19;" horiz-adv-x="2473" 
d="M750 2380v-1694q0 -84 28 -145t78.5 -101t121.5 -58.5t157 -18.5q88 0 168 10.5t153.5 44.5t140 98t126.5 170v1694h499v-2381h-297l-92 322q-118 -133 -221.5 -208t-198 -112t-183.5 -46.5t-177 -9.5q-209 0 -360 50t-249 141t-145 219.5t-47 287.5v1737h498z" />
    <glyph glyph-name="bobaimaithai" unicode="&#xe1a;" horiz-adv-x="2479" 
d="M1238 358q88 0 175.5 17.5t157.5 62.5t114 122t44 195v1626h498v-1667q0 -204 -65.5 -347t-192.5 -233.5t-311 -131.5t-420 -41q-235 0 -418.5 41t-309.5 131.5t-192 233.5t-66 347v1667h498v-1626q0 -118 44.5 -196.5t113.5 -124t156 -63t174 -13.5z" />
    <glyph glyph-name="poplathai" unicode="&#xe1b;" horiz-adv-x="2535" 
d="M1267 354q92 0 185.5 16t167 60.5t119.5 122.5t46 202v2648h498v-2689q0 -204 -70 -347t-201.5 -233.5t-319.5 -131.5t-425 -41q-235 0 -423.5 41t-319.5 131.5t-201.5 233.5t-70.5 347v1667h498v-1626q0 -123 46.5 -201.5t120.5 -123t166.5 -60.5t183.5 -16z" />
    <glyph glyph-name="phophungthai" unicode="&#xe1c;" horiz-adv-x="2632" 
d="M1313 221q-94 -71 -187 -127q-41 -24 -84.5 -46.5t-87.5 -40t-87.5 -28t-82.5 -8.5q-147 0 -248.5 45.5t-164.5 131.5t-91 210t-28 282v831q0 256 43.5 437.5t133 295.5t224.5 166.5t320 52.5q46 0 101.5 -6t112 -16t112.5 -23t104 -27v-402q-49 20 -88.5 33t-77 20.5
t-79 11t-95.5 2.5q-74 -1 -132.5 -30t-98.5 -93.5t-61 -168.5t-21 -257v-887q0 -90 34.5 -125.5t93.5 -12.5l432 173l443 -173q59 -24 93 12t34 126l2 1801h498v-1741q0 -158 -28.5 -282t-91.5 -210t-164.5 -131.5t-248.5 -45.5q-52 -1 -111.5 17t-118.5 46t-113.5 60
t-96.5 60.5t-55 37.5z" />
    <glyph glyph-name="fofathai" unicode="&#xe1d;" horiz-adv-x="2632" 
d="M1313 221q-94 -71 -187 -127q-41 -24 -84.5 -46.5t-87.5 -40t-87.5 -28t-82.5 -8.5q-147 0 -248.5 45.5t-164.5 131.5t-91 210t-28 282v831q0 256 43.5 437.5t133 295.5t224.5 166.5t320 52.5q46 0 101.5 -6t112 -16t112.5 -23t104 -27v-402q-49 20 -88.5 33t-77 20.5
t-79 11t-95.5 2.5q-74 -1 -132.5 -30t-98.5 -93.5t-61 -168.5t-21 -257v-887q0 -90 34.5 -125.5t93.5 -12.5l432 173l443 -173q59 -24 93 12t34 126l2 2823h498v-2763q0 -158 -28.5 -282t-91.5 -210t-164.5 -131.5t-248.5 -45.5q-52 -1 -111.5 17t-118.5 46t-113.5 60
t-96.5 60.5t-55 37.5z" />
    <glyph glyph-name="phophanthai" unicode="&#xe1e;" horiz-adv-x="3108" 
d="M1551 277q-130 -88 -260 -155q-56 -29 -117 -56.5t-123.5 -49.5t-123 -34.5t-115.5 -10.5q-147 0 -252.5 36t-173.5 112t-101 191.5t-33 273.5v1799l498 -2v-1801q0 -45 17.5 -76t44.5 -47.5t59 -20t63 5.5l368 110v1831l498 -2v-1829l373 -110q31 -10 63 -6t59.5 20.5
t45 47.5t17.5 76v1801l498 2v-1799q0 -158 -33 -273.5t-101.5 -191.5t-174 -112t-252.5 -36q-73 -1 -156.5 21t-166 55.5t-158 74t-133.5 75t-76 45.5z" />
    <glyph glyph-name="fofanthai" unicode="&#xe1f;" horiz-adv-x="3108" 
d="M1551 277q-130 -88 -260 -155q-56 -29 -117 -56.5t-123.5 -49.5t-123 -34.5t-115.5 -10.5q-147 0 -252.5 36t-173.5 112t-101 191.5t-33 273.5v1799l498 -2v-1801q0 -45 17.5 -76t44.5 -47.5t59 -20t63 5.5l368 110v1831l498 -2v-1829l373 -110q31 -10 63 -6t59.5 20.5
t45 47.5t17.5 76v2819l498 2v-2817q0 -158 -33 -273.5t-101.5 -191.5t-174 -112t-252.5 -36q-73 -1 -156.5 21t-166 55.5t-158 74t-133.5 75t-76 45.5z" />
    <glyph glyph-name="phosamphaothai" unicode="&#xe20;" horiz-adv-x="2584" 
d="M1834 1497q0 160 -26.5 259.5t-79 155.5t-131.5 76.5t-184 20.5q-36 0 -89 -4t-114 -13.5t-126 -23.5t-126 -32l1 -1387q1 -288 -141.5 -434t-446.5 -146q-21 0 -55.5 1t-67.5 3q-39 3 -83 6v405q67 -7 119 -8t80 6q57 14 77 60.5t20 110.5v1011l217 294h-406v298
q158 59 310.5 107t303 83t298 55t294.5 20q235 0 397.5 -57t264 -164t147 -260.5t45.5 -344.5v-1595h-498v1497z" />
    <glyph glyph-name="momathai" unicode="&#xe21;" horiz-adv-x="2473" 
d="M2222 2380v-1737q0 -158 -47 -287t-145 -220t-249 -141t-360 -50q-88 0 -177 9.5t-183.5 46.5t-198 112t-221.5 208l-92 -322h-297v2381h498v-1694q60 -106 127 -170t140.5 -98t153 -44.5t167.5 -10.5q87 0 158 18.5t121 58.5t78 101t28 145v1694h499z" />
    <glyph glyph-name="yoyakthai" unicode="&#xe22;" horiz-adv-x="2518" 
d="M209 708q0 132 50 237.5t141 173.5l198 147q-81 35 -148.5 86t-115 116t-73.5 143.5t-26 169.5q0 57 8.5 127t32.5 140t67 136t114.5 116.5t174.5 81t244 30.5q14 0 64 -2.5t116.5 -10.5t140 -20.5t133.5 -33.5v-385q-122 32 -232 47t-194 1q-62 -10 -101 -35.5
t-60.5 -59t-29 -72t-7.5 -73.5q0 -32 12.5 -76t39 -83.5t68.5 -66.5t102 -27h423v-224l-407 -244q-112 -67 -171.5 -141t-59.5 -163q0 -95 30.5 -160t79.5 -107.5t110.5 -66.5t123.5 -35t117 -13.5t93 -2.5q102 0 193 24.5t159.5 74.5t108.5 125.5t40 177.5v1621h499v-1673
q0 -182 -62.5 -322t-190 -234.5t-320.5 -143.5t-455 -49q-129 0 -255 13.5t-240.5 45.5t-212.5 87.5t-169.5 138t-112 197t-40.5 267.5z" />
    <glyph glyph-name="roruathai" unicode="&#xe23;" horiz-adv-x="2036" 
d="M707 1714q0 -57 19.5 -106.5t60 -87t103 -61.5t149.5 -32q246 -21 407 -78.5t255 -148.5t131 -214.5t37 -275.5q0 -94 -20.5 -188t-66 -178.5t-117.5 -157.5t-176 -126t-242 -83t-313 -30q-113 0 -219 9.5t-200 26.5t-171.5 38t-133.5 43v422q55 -20 125 -41t153 -39
t177.5 -30t198.5 -12q132 0 225.5 24t153.5 67t88 103.5t28 131.5q0 52 -11.5 108.5t-47.5 104.5t-102.5 80t-175.5 36q-165 7 -290.5 33.5t-217 71t-152.5 105t-97.5 134t-51 159t-14.5 179.5q0 141 48 274t154.5 237t276 166t411.5 62q111 0 207 -7t179 -20t155 -34
t137 -48v-426q-71 27 -145.5 49.5t-156.5 38.5t-173.5 25t-195.5 9q-196 0 -292.5 -82.5t-96.5 -230.5z" />
    <glyph glyph-name="ruthai" unicode="&#xe24;" horiz-adv-x="2597" 
d="M347 1564l219 294h-406v298q158 59 325 107t334.5 83t330 55t309.5 20q235 0 403 -57t275 -164t157.5 -260.5t50.5 -344.5v-2299h-498v2201q0 160 -31.5 259.5t-90.5 155.5t-143 76.5t-189 20.5q-36 0 -103.5 -4t-146 -13.5t-157.5 -23.5t-140 -32v-1383
q0 -64 19.5 -110.5t76.5 -60.5q28 -7 80 -6t119 8v-405q-43 -3 -83 -6q-34 -3 -68.5 -3.5t-54.5 -0.5q-305 0 -446.5 145.5t-141.5 434.5v1015z" />
    <glyph glyph-name="lolingthai" unicode="&#xe25;" horiz-adv-x="2424" 
d="M1242 -3h-252q-141 0 -257.5 30t-209 82.5t-161 124t-114 153.5t-68 170t-22.5 177q0 178 68 317t186.5 238.5t279.5 157t347 71.5h390l241 -170v315q0 94 -36.5 160t-107.5 106.5t-175 58.5t-238 18q-106 0 -217.5 -14t-214.5 -35.5t-192.5 -47.5t-152.5 -51v425
q64 28 163 54t211 46.5t227.5 32.5t211.5 12q281 0 476 -54t315.5 -158.5t174.5 -257.5t54 -352v-1609h-499v1134h-600q-83 -10 -158.5 -36.5t-133 -72.5t-92 -111t-34.5 -151q0 -63 26 -126.5t78 -114.5t128 -84t177 -33h181v-405z" />
    <glyph glyph-name="luthai" unicode="&#xe26;" horiz-adv-x="2584" 
d="M1834 1497q0 160 -26.5 259.5t-79 155.5t-131.5 76.5t-184 20.5q-36 0 -89 -4t-114 -13.5t-126 -23.5t-126 -32l1 -1387q1 -288 -141.5 -434t-446.5 -146q-21 0 -55.5 1t-67.5 3q-39 3 -83 6v405q67 -7 119 -8t80 6q57 14 77 60.5t20 110.5v1011l217 294h-406v298
q158 59 310.5 107t303 83t298 55t294.5 20q235 0 397.5 -57t264 -164t147 -260.5t45.5 -344.5v-2302h-498v2204z" />
    <glyph glyph-name="wowaenthai" unicode="&#xe27;" horiz-adv-x="1901" 
d="M1271 1194q0 204 -21.5 357.5t-80.5 256.5t-163 154t-270 51q-95 0 -174 -8.5t-148.5 -22.5t-130 -34t-119.5 -43v426q129 55 280.5 82t322.5 27q200 0 353 -36.5t265.5 -107t189 -175.5t122 -243.5t65 -310t19.5 -373.5q0 -311 -47 -544.5t-162.5 -389.5t-311 -234.5
t-493.5 -78.5q-171 0 -322.5 27t-280.5 83v426q59 -24 119.5 -43.5t130 -34t148.5 -23t174 -8.5q165 0 269.5 45.5t163.5 144t80.5 254t21.5 376.5z" />
    <glyph glyph-name="sosalathai" unicode="&#xe28;" horiz-adv-x="2563" 
d="M2388 2499l-243 -349q81 -88 123.5 -207t42.5 -276v-1667h-498v1627q0 118 -50.5 194.5t-129 121.5t-172 62.5t-181.5 17.5q-87 4 -180 -13.5t-171 -63t-128.5 -124t-50.5 -195.5v-396l350 175h310v-465h-660v-941h-498v1667q0 203 72 346.5t206.5 234t324 132
t425.5 41.5q153 0 285.5 -17t246.5 -53v368h576v-220z" />
    <glyph glyph-name="sorusithai" unicode="&#xe29;" horiz-adv-x="2529" 
d="M1775 1607v774h499v-774h256v-437h-256v-456q0 -204 -68 -347t-197.5 -233.5t-316 -131.5t-422.5 -41q-235 0 -423.5 41t-321 131.5t-203 233.5t-70.5 347v1667h498v-1626q0 -118 47 -195t121.5 -122t167.5 -62.5t184 -17.5q92 0 183 17.5t162.5 62.5t115.5 122t44 195
v415h-571v209z" />
    <glyph glyph-name="sosuathai" unicode="&#xe2a;" horiz-adv-x="2420" 
d="M1242 -3h-252q-141 0 -257.5 30t-209 82.5t-161 124t-114 153.5t-68 170t-22.5 177q0 178 68 317t186.5 238.5t279.5 157t347 71.5h390l241 -170v315q0 94 -36.5 160t-107.5 106.5t-175 58.5t-238 18q-106 0 -217.5 -14t-214.5 -35.5t-192.5 -47.5t-152.5 -51v425
q64 28 163 54t211 46.5t227.5 32.5t211.5 12q158 0 288 -17.5t235 -51.5v360h576v-220l-243 -349q87 -102 125.5 -238.5t38.5 -305.5v-1609h-499v1134h-600q-83 -10 -158.5 -36.5t-133 -72.5t-92 -111t-34.5 -151q0 -63 26 -126.5t78 -114.5t128 -84t177 -33h181v-405z" />
    <glyph glyph-name="hohipthai" unicode="&#xe2b;" horiz-adv-x="2520" 
d="M1770 1078q0 190 -105 287.5t-324 97.5q-157 0 -309.5 -30t-281.5 -71v-1362h-498v2381l498 2v-636q67 21 143.5 40.5t157 35t164 24.5t164.5 9q209 0 368 -44v572h605v-276l-315 -446q122 -106 176.5 -261t54.5 -343v-1059h-498v1079z" />
    <glyph glyph-name="lochulathai" unicode="&#xe2c;" horiz-adv-x="2912" 
d="M2660 556q0 -132 -28.5 -239.5t-91.5 -184.5t-164 -119t-248 -42q-73 -1 -150.5 20.5t-152.5 54t-142 72.5t-117.5 73.5t-80.5 56.5l-30 22q-111 -85 -226 -152q-49 -28 -104 -55.5t-112.5 -48t-115 -33t-112.5 -10.5q-147 0 -248.5 42t-164.5 119t-91 184.5t-28 239.5
v1827l499 -2v-1822q0 -45 17.5 -76.5t44.5 -49t59.5 -20.5t61.5 8l272 98v684l316 401h182v-1085l273 -98q29 -11 61.5 -8t60 20.5t45 49t17.5 76.5v1104q0 94 -29 159t-84 103.5t-135 53.5t-181 9q-84 -6 -155.5 -27t-122.5 -39v406q28 11 116 33t225 33q197 17 367 -39
v364h577v-220l-266 -347q88 -101 137 -238t49 -308v-1050z" />
    <glyph glyph-name="oangthai" unicode="&#xe2d;" horiz-adv-x="2434" 
d="M234 1039q0 94 26.5 173.5t81 138.5t136 93t188.5 36q42 0 83 -1.5t85.5 -5.5t96.5 -13.5t116 -23.5v-344q-43 13 -92 15t-76 2q-53 0 -82.5 -19.5t-43.5 -50t-17.5 -69t-3.5 -75.5l2 -140q1 -118 43 -196.5t109 -124t150.5 -63t170.5 -13.5q88 0 173.5 17.5t152.5 62.5
t109 122t42 195v803q0 137 -38.5 222.5t-106.5 134t-163 65t-208 16.5q-126 0 -262 -23.5t-264 -61.5t-238 -85t-183 -91v450q71 36 181 77t246 76t288 57.5t307 22.5q253 0 432 -52.5t291.5 -159.5t164.5 -269t52 -379v-844q0 -204 -64 -347t-188 -233.5t-306 -131.5
t-418 -41q-235 0 -416.5 41t-304.5 131.5t-187 233.5t-64 347z" />
    <glyph glyph-name="honokhukthai" unicode="&#xe2e;" horiz-adv-x="2433" 
d="M2258 2499l-242 -349q87 -105 127 -252.5t40 -339.5v-844q0 -204 -64 -347t-188 -233.5t-306 -131.5t-418 -41q-235 0 -416.5 41t-304.5 131.5t-187 233.5t-64 347l-1 325q0 94 26.5 173.5t81 138.5t136 93t188.5 36q42 0 83 -1.5t85.5 -5.5t96.5 -13.5t116 -23.5v-344
q-43 13 -92 15t-76 2q-53 0 -82.5 -19.5t-43.5 -50t-17.5 -69t-3.5 -75.5l2 -140q1 -118 43 -196.5t109 -124t150.5 -63t170.5 -13.5q88 0 173.5 17.5t152.5 62.5t109 122t42 195v803q0 137 -38.5 222.5t-106.5 134t-163 65t-208 16.5q-126 0 -262 -23.5t-264 -61.5
t-238 -85t-183 -91v450q71 36 181 77t246 76t288 57.5t307 22.5q255 0 438 -55v356h577v-220z" />
    <glyph glyph-name="paiyannoithai" unicode="&#xe2f;" horiz-adv-x="2359" 
d="M1180 1977h-110q-112 0 -190.5 -33t-127 -85t-70 -115.5t-21.5 -126.5q0 -85 30 -151.5t83 -113t126 -73t158 -32.5q55 -6 121.5 -3.5t138.5 13.5t146.5 31.5t144.5 52.5v1040h498v-2381l-498 1v1048l-196 -161q-24 -11 -74 -20.5t-112 -15.5t-130.5 -8.5t-129.5 2.5
q-171 13 -317.5 72t-254 159t-168 239t-60.5 309q0 139 50 274t153 242t260 173.5t368 66.5h182v-404z" />
    <glyph glyph-name="saraathai" unicode="&#xe30;" horiz-adv-x="1545" 
d="M1404 1763l-341 -189h-545q-60 0 -112.5 26.5t-92.5 67.5t-63 91.5t-23 99.5v314h498v-154q0 -53 16 -72t57 -19h606v-165zM1404 476l-341 -189h-545q-60 0 -112.5 26.5t-92.5 68t-63 92t-23 99.5v313h498v-154q0 -53 16 -72t57 -19h606v-165z" />
    <glyph glyph-name="maihanakatthai" unicode="&#xe31;" 
d="M53 3038l-417 -189h-923q-125 0 -203.5 42t-123.5 102t-62 126.5t-17 114.5v270h485v-186q0 -59 23 -87t79 -28h1159v-165z" />
    <glyph glyph-name="saraaathai" unicode="&#xe32;" horiz-adv-x="1677" 
d="M927 1677q0 174 -73 256t-239 82q-119 0 -249.5 -28t-270.5 -96v399q60 29 136.5 54t155 43t154 28.5t135.5 10.5q210 0 353.5 -57.5t232 -156.5t126 -234.5t37.5 -290.5v-1687h-498v1677z" />
    <glyph glyph-name="saraamthai" unicode="&#xe33;" horiz-adv-x="1677" 
d="M927 1677q0 174 -73 256t-239 82q-119 0 -249.5 -28t-270.5 -96v399q60 29 136.5 54t155 43t154 28.5t135.5 10.5q210 0 353.5 -57.5t232 -156.5t126 -234.5t37.5 -290.5v-1687h-498v1677zM-955 3275q0 109 35 192t96 140.5t143 87t174 29.5q94 0 176 -29.5t143 -87
t96 -140.5t35 -192t-35 -192.5t-96 -140.5t-143 -86t-176 -29q-92 0 -174 29t-143 86t-96 140.5t-35 192.5zM-671 3275q0 -95 44.5 -143t118.5 -48t118 47.5t44 143.5q0 95 -44 142.5t-118 47.5t-118.5 -47.5t-44.5 -142.5z" />
    <glyph glyph-name="saraithai" unicode="&#xe34;" 
d="M-2178 3021l403 189h1524v-361h-1927v172z" />
    <glyph glyph-name="saraiithai" unicode="&#xe35;" 
d="M-2180 3021l401 182h1043v406h484v-760h-1h-1927v172z" />
    <glyph glyph-name="sarauethai" unicode="&#xe36;" 
d="M-790 3279q0 -88 38.5 -133t127.5 -45q88 0 125.5 45t37.5 133t-37.5 133.5t-125.5 45.5t-127 -45.5t-39 -133.5zM-2178 3021l400 182h739q-11 42 -11 74q0 98 29.5 177.5t84 134.5t133.5 84.5t179 29.5q98 0 176 -29.5t133.5 -84.5t85 -134.5t29.5 -177.5
q0 -99 -33 -177.5t-90.5 -133.5t-134.5 -85.5t-165 -31.5h-1555v172z" />
    <glyph glyph-name="saraueethai" unicode="&#xe37;" 
d="M-2178 3021l387 175h464v413h389l1 -413h296v413h390v-760h-1927v172z" />
    <glyph glyph-name="sarauthai" unicode="&#xe38;" 
d="M-736 -1046v290q0 34 -3 59.5t-15 44.5t-33.5 29t-59.5 10q-32 0 -76 -7t-89 -17v293q50 14 110.5 25.5t120.5 18.5t116 10t98 0q102 -7 164.5 -44.5t96 -89t44 -108.5t10.5 -104v-410h-484z" />
    <glyph glyph-name="sarauuthai" unicode="&#xe39;" 
d="M-1628 -308q38 8 81 14t86.5 9.5t83 4t67.5 -2.5q95 0 152.5 -26.5t87.5 -70.5t37.5 -101.5t3.5 -119.5q-4 -63 9 -101.5t37.5 -58t55.5 -25.5t62 -6q90 0 124.5 40.5t34.5 125.5v333h454v-309q0 -108 -38.5 -195.5t-116 -149t-194 -94.5t-271.5 -33q-129 0 -239.5 20.5
t-191 64t-124.5 111t-37 164.5q6 78 -14 106t-89 28q-11 0 -29 -0.5t-32 -1.5v274z" />
    <glyph glyph-name="phinthuthai" unicode="&#xe3a;" 
d="M-826 -575q0 64 24.5 121.5t68 101t100 68t122.5 24.5q64 0 121.5 -24.5t100.5 -68t67.5 -101t24.5 -121.5t-24.5 -122t-67.5 -100.5t-100.5 -67t-121.5 -24.5q-66 0 -122.5 24.5t-100 67t-68 100.5t-24.5 122z" />
    <glyph glyph-name="uni0E3D" unicode="&#xe3d;" 
 />
    <glyph glyph-name="PUCR2005" unicode="&#xe3e;" 
 />
    <glyph glyph-name="bahtthai" unicode="&#xe3f;" horiz-adv-x="2619" 
d="M1372 3261v-289h50q272 0 453.5 -62t290.5 -171.5t154.5 -258.5t45.5 -321q0 -95 -24 -184t-70 -165.5t-112.5 -138t-150.5 -102.5q106 -32 189.5 -96.5t141 -155.5t87.5 -204t30 -241q0 -185 -49.5 -343.5t-167.5 -276.5t-311.5 -185t-482.5 -67h-74v-312h-424v312h-706
v2972h706v289h424zM741 465h679q151 0 250.5 30.5t159.5 86t84.5 132.5t24.5 169q0 115 -29.5 195.5t-92.5 131.5t-160 75t-233 24h-683v-844zM1848 2139q0 74 -19 141.5t-69.5 118t-139 79.5t-228.5 29h-651v-740h667q127 0 212 31.5t135.5 83t71.5 119t21 138.5z" />
    <glyph glyph-name="saraethai" unicode="&#xe40;" horiz-adv-x="1030" 
d="M266 0v2381h498v-2381h-498z" />
    <glyph glyph-name="saraaethai" unicode="&#xe41;" horiz-adv-x="1913" 
d="M266 0v2381h498v-2381h-498zM1149 0v2381h499v-2381h-499z" />
    <glyph glyph-name="saraothai" unicode="&#xe42;" horiz-adv-x="1120" 
d="M311 2528q0 64 -37 112l-180 280q-59 76 -83 146.5t-26.5 132.5t10 111t27.5 78q53 101 147 152.5t250 51.5q125 0 246.5 -11.5t235 -30t216 -41t189.5 -44.5v-283h-764q-24 0 -40 -10.5t-22.5 -27t0 -39t27.5 -47.5l238 -355q32 -45 48 -84.5t16 -88.5v-2530h-498v2528z
" />
    <glyph glyph-name="saraaimaimuanthai" unicode="&#xe43;" horiz-adv-x="1120" 
d="M311 2047q0 102 12.5 176t39 133t68 109.5t97.5 106.5q87 85 134.5 148t69 110.5t25 82t2.5 63.5q-1 31 -10.5 71t-39.5 75.5t-89 59.5t-159 24q-95 0 -171.5 -11t-139 -29.5t-113 -39.5t-90.5 -42v373q66 29 140 54t151 43.5t154 29t151 10.5q130 0 230.5 -24.5
t174 -66.5t123 -97.5t80.5 -118.5t43.5 -128.5t12.5 -128.5q0 -80 -10 -144t-40.5 -127.5t-86 -135t-145.5 -167.5q-42 -45 -65 -92.5t-35 -97.5t-14.5 -99.5t-2.5 -97.5l1 -2069h-498v2047z" />
    <glyph glyph-name="saraaimaimalaithai" unicode="&#xe44;" horiz-adv-x="1121" 
d="M311 2530q0 49 16 89t48 84l266 355q21 25 27.5 47.5t0 39t-22.5 27t-40 10.5h-764v283q87 22 189.5 44.5t216 41t235.5 30t246 11.5q155 0 249 -51.5t148 -152.5q15 -29 27.5 -78t10 -111t-26.5 -132.5t-83 -146.5l-208 -280q-36 -48 -37 -112v-2528h-498v2530z" />
    <glyph glyph-name="lakkhangyaothai" unicode="&#xe45;" horiz-adv-x="1677" 
d="M927 1677q0 174 -73 256t-239 82q-119 0 -249.5 -28t-270.5 -96v399q60 29 136.5 54t155 43t154 28.5t135.5 10.5q210 0 353.5 -57.5t232 -156.5t126 -234.5t37.5 -290.5v-2391h-498v2381z" />
    <glyph glyph-name="maiyamokthai" unicode="&#xe46;" horiz-adv-x="2441" 
d="M1189 2201q87 66 175 116q38 21 79.5 42t86 36.5t88.5 25t86 8.5q132 0 220.5 -45t142 -126t75.5 -192.5t22 -242.5v-2529h-481l-2 2568q0 45 -14 75.5t-36 47.5t-50 19t-58 -12l-334 -159l-335 159q-28 14 -56.5 12.5t-51 -18t-36.5 -47.5t-14 -76v-247q0 -56 5.5 -110
t25 -97t59.5 -70t107 -30q48 -3 96 6t116 33v-339q-66 -24 -146.5 -41t-196.5 -17q-104 0 -184 28t-138.5 75.5t-98.5 111t-64 135t-34.5 146.5t-10.5 146v247q0 111 21 216.5t72.5 188.5t136 133.5t211.5 50.5q42 0 87 -9t89 -25t87 -36.5t80 -41.5q89 -50 173 -116z" />
    <glyph glyph-name="maitaikhuthai" unicode="&#xe47;" 
d="M-1128 2971q-53 -36 -110 -65q-48 -24 -105.5 -44t-111.5 -19q-111 0 -190.5 34t-130.5 93.5t-75.5 141t-24.5 178.5v38q0 48 10 101t34.5 104t65.5 98.5t104 83.5t149 57t201 21h1074v-135l-354 -169h-717q-71 -3 -109 -43t-38 -122v-62q0 -39 10 -63.5t26 -36t37 -12
t45 7.5l207 91l221 -88q50 -17 81 3.5t31 76.5v90h430v-97q0 -80 -19 -150.5t-67.5 -124t-132.5 -85t-214 -31.5q-57 -1 -114.5 18.5t-105 44t-62.5 34.5z" />
    <glyph glyph-name="maiekthai" unicode="&#xe48;" 
d="M-736 3875v619h484v-619h-484z" />
    <glyph glyph-name="maithothai" unicode="&#xe49;" 
d="M-1246 4031q25 17 67 44t82.5 61.5t71.5 74t32 81.5q0 15 -2.5 32t-12.5 30.5t-27.5 23.5t-45.5 11q-53 3 -95 -8.5t-71 -22.5v270q50 18 120 34.5t153 16.5q78 0 141 -19t107 -52.5t68 -79t24 -100.5q0 -45 -12.5 -82.5t-32.5 -68.5t-42 -56t-42 -46h666v-109l-299 -189
h-850v154z" />
    <glyph glyph-name="maitrithai" unicode="&#xe4a;" 
d="M-1019 3905q-29 -11 -64.5 -17.5t-71 -9.5t-70.5 -1.5t-66 7.5q-62 10 -103 42t-66 74t-35.5 89.5t-10.5 88.5v235q-1 67 17 116t50.5 80t79 45.5t102.5 14.5q52 0 103.5 -15.5t101.5 -38.5t97.5 -49.5t92.5 -49.5q52 21 106.5 47t110.5 48.5t111 38t108 15.5
q92 0 150.5 -59t58.5 -193q0 -55 -16 -94t-40 -68t-50.5 -47.5t-47.5 -31.5h395v-108l-297 -187h-405v243q13 8 34 19.5t40 32t33 50.5t14 75q0 36 -6.5 54t-19 23t-31.5 -2t-44 -19q-55 -28 -108.5 -57.5t-94.5 -39.5h-1q-20 4 -44 16t-49.5 26t-51 28.5t-47.5 27.5
t-42.5 20t-36.5 2.5t-25.5 -23.5t-9.5 -56l3 -75q1 -41 17.5 -59.5t39 -25t47 -3.5t43.5 6z" />
    <glyph glyph-name="maichattawathai" unicode="&#xe4b;" 
d="M-850 4372h203v270h396v-270h328v-291h-328v-269h-396v269h-442v118z" />
    <glyph glyph-name="thanthakhatthai" unicode="&#xe4c;" 
d="M10 4040l-298 -187h-194q-36 0 -62 -15t-27 -64v-239h-473v195q0 67 15 139.5t61.5 133.5t132 101.5t226.5 45.5h620z" />
    <glyph glyph-name="nikhahitthai" unicode="&#xe4d;" 
d="M-955 3275q0 109 35 192t96 140.5t143 87t174 29.5q94 0 176 -29.5t143 -87t96 -140.5t35 -192t-35 -192.5t-96 -140.5t-143 -86t-176 -29q-92 0 -174 29t-143 86t-96 140.5t-35 192.5zM-671 3275q0 -95 44.5 -143t118.5 -48t118 47.5t44 143.5q0 95 -44 142.5t-118 47.5
t-118.5 -47.5t-44.5 -142.5z" />
    <glyph glyph-name="yamakkanthai" unicode="&#xe4e;" 
d="M157 3759l-298 -188h-121q-29 0 -46.5 -6t-27.5 -18t-13.5 -30t-3.5 -42l-1 -193h-403v-275h-446v209q0 67 15.5 139t62 133t131.5 102.5t225 45.5q17 46 48 86.5t79 72t116 51t162 22.5h522z" />
    <glyph glyph-name="fongmanthai" unicode="&#xe4f;" horiz-adv-x="2791" 
d="M1393 -38q-172 0 -332.5 29t-301 90.5t-257.5 158t-200.5 233.5t-129.5 315t-46 403t46 404.5t129.5 317t200.5 234t257.5 158t301 90t332.5 28.5q174 0 335.5 -28.5t303 -90t258.5 -158t200 -234t129.5 -316.5t46.5 -405q0 -224 -46.5 -402.5t-129.5 -315.5t-200 -233.5
t-258.5 -158t-303 -90.5t-335.5 -29zM1400 339q178 0 337.5 46t279 148.5t189.5 264.5t70 393q0 232 -70 395.5t-189.5 265.5t-279 148.5t-337.5 46.5q-181 0 -342 -46.5t-281 -148.5t-191 -265t-71 -396q0 -231 71 -393t191 -264.5t281 -148.5t342 -46zM1399 584
q-129 0 -244 33t-201 105.5t-136.5 188t-50.5 280.5q0 167 50.5 283t136.5 189t201 106t244 33q127 0 241 -33t199.5 -106t135 -189t49.5 -283q0 -165 -49.5 -280.5t-135 -188t-199.5 -105.5t-241 -33zM1397 906q60 0 114 15.5t94 49.5t64 88t24 132t-24 133.5t-64 90
t-94 50t-114 15.5q-62 0 -115.5 -15.5t-94 -50t-64.5 -89.5t-24 -134q0 -78 24 -132t64.5 -88t94 -49.5t115.5 -15.5z" />
    <glyph glyph-name="zerothai" unicode="&#xe50;" horiz-adv-x="2930" 
d="M1449 -45q-178 0 -344.5 22t-311.5 73t-264.5 133t-205 203t-132.5 283.5t-47 373.5q0 220 49 386.5t137.5 289t211.5 204.5t272 131t318.5 70t350.5 21q188 0 357 -22.5t314 -73t262 -131.5t198.5 -199.5t126 -276.5t44.5 -363q0 -239 -55 -416t-150.5 -301.5
t-224.5 -204t-277.5 -124t-309.5 -61.5t-319 -17zM1459 339q203 0 357 36.5t257.5 121.5t155.5 224.5t52 343.5q0 165 -38.5 295t-132.5 218.5t-249.5 135.5t-390.5 47q-232 0 -389 -43.5t-253 -131t-136.5 -220.5t-40.5 -312q0 -168 49.5 -301t150 -225.5t252.5 -140.5
t356 -48z" />
    <glyph glyph-name="onethai" unicode="&#xe51;" horiz-adv-x="2927" 
d="M1050 645q-185 0 -339 42t-264.5 127t-171.5 213.5t-61 302.5q0 181 86 326.5t248.5 247t398 156.5t534.5 55q316 0 555 -65t398 -189.5t238.5 -306.5t79.5 -416v-152q0 -181 -49.5 -328t-140 -262t-217 -199t-281 -138.5t-333 -81t-372.5 -26.5q-129 0 -248.5 5t-235 18
t-229.5 37t-232 62v411q88 -27 161 -48.5t140.5 -37.5t134.5 -28t142.5 -19.5t165 -11t203.5 -3.5q105 0 212 14t206.5 45t185.5 80.5t150.5 121.5t101.5 168t37 221v172q0 108 -32 192.5t-88 148t-131 108t-161 71.5t-178.5 39.5t-182.5 12.5q-151 0 -290.5 -24.5
t-245.5 -74t-168.5 -126t-59.5 -181.5q0 -81 29.5 -135t80.5 -86.5t120 -46t148 -13.5q46 0 101.5 3.5t116 12.5t126 24.5t128.5 40.5v-395q-97 -39 -222.5 -61.5t-294.5 -22.5z" />
    <glyph glyph-name="twothai" unicode="&#xe52;" horiz-adv-x="2930" 
d="M246 1484q1 134 31 251t96.5 204t175.5 136.5t271 49.5q67 0 124 -7.5t111.5 -27t111.5 -52t124 -82.5l201 -151l209 155q64 48 119.5 80t108.5 51t110 26.5t124 7.5q162 0 272 -47t177.5 -132t96.5 -203t29 -259v-533q0 -181 -52.5 -324.5t-146 -252.5t-224.5 -187.5
t-286.5 -127.5t-332 -72t-362.5 -23q-167 0 -323.5 9t-306.5 32t-296 61.5t-290 97.5v448q137 -78 281 -126.5t296 -76t311.5 -37t327.5 -9.5q90 0 191.5 9t202 32.5t193 65.5t164 107.5t113.5 157t42 216.5v607q0 42 -11 68.5t-31 41.5t-46.5 20.5t-58.5 5.5q-38 0 -66 -7
t-52.5 -19t-47 -28.5t-47.5 -37.5l-267 -189h-245l-242 169q-22 17 -51 36.5t-62 36.5t-69.5 28t-72.5 11q-24 0 -46.5 -5.5t-40 -20.5t-28.5 -41.5t-11 -68.5v-227q0 -66 13 -119t44.5 -90.5t83 -58.5t125.5 -21q36 0 86 2.5t101.5 9t101.5 16t87 22.5v-358
q-45 -15 -100 -27.5t-112.5 -21.5t-111.5 -14t-94 -5q-370 0 -547.5 172.5t-176.5 519.5z" />
    <glyph glyph-name="threethai" unicode="&#xe53;" horiz-adv-x="2930" 
d="M185 1484q0 158 28.5 278t93 201t167.5 121.5t253 40.5q90 0 153.5 -10.5t113 -30t92 -47t91.5 -60.5l289 -210l288 210q49 34 92 61t92.5 46.5t112.5 30t154 10.5q150 0 253.5 -40.5t167 -121.5t92.5 -201t29 -278v-1484h-499v1526q0 59 -14 92.5t-35 50.5t-44.5 21
t-41.5 4q-53 0 -96 -20.5t-103 -63.5l-328 -239h-245h4l-327 239q-31 22 -55.5 37.5t-47.5 26t-46 15.5t-50 5q-18 0 -42 -4t-45 -21t-35 -50.5t-14 -92.5v-864q0 -81 24.5 -140.5t64.5 -98.5t89.5 -58t98.5 -19q140 0 242.5 25t179.5 67v-371q-85 -41 -203 -68.5
t-265 -27.5q-172 0 -308 45.5t-229.5 136.5t-143.5 226.5t-50 314.5z" />
    <glyph glyph-name="fourthai" unicode="&#xe54;" horiz-adv-x="2930" 
d="M1621 711q6 -45 27 -88t51 -81.5t65 -73t67 -61.5h839v-407h-1668q-204 0 -360 66.5t-262 196.5t-160.5 323.5t-54.5 446.5v44q-4 277 91 476.5t278 326t447 185.5t595 56q209 -3 368 -10t294.5 -18t261 -26t266.5 -33v-424q-179 29 -333.5 51t-295.5 36.5t-273 22.5
t-267 8q-122 0 -237 -12t-219 -41t-191.5 -78t-151 -123t-100 -175.5t-37.5 -235.5v-35q0 -57 3.5 -126t16 -137.5t37.5 -133t67 -114t105 -80t153 -30.5h319q-211 171 -211 440q0 85 30 161.5t96.5 134.5t173 93t257.5 37q88 1 157.5 -10t136.5 -28v-363q-76 13 -133 20
t-98 4q-48 -3 -79.5 -18.5t-48 -40t-21.5 -56.5t-1 -70z" />
    <glyph glyph-name="fivethai" unicode="&#xe55;" horiz-adv-x="2930" 
d="M1403 2227q0 -88 44 -132t117 -44t117 44t44 132t-44 132.5t-117 44.5t-117 -44.5t-44 -132.5zM1621 711q6 -45 27 -88t51 -81.5t65 -73t67 -61.5h839v-407h-1668q-204 0 -360 66.5t-262 196.5t-160.5 323.5t-54.5 446.5v44q-3 227 60 401t186.5 299.5t303.5 203
t411 112.5q-17 60 -17 134q0 104 35.5 184t97 134.5t145 83t178.5 28.5t178.5 -28.5t146 -83t98 -134.5t35.5 -184q0 -32 -3.5 -61.5t-10.5 -57.5q109 -6 203.5 -13.5t185 -17t180 -20t188.5 -23.5v-424q-179 29 -333.5 51t-295.5 36.5t-273 22.5t-267 8q-122 0 -237 -12
t-219 -41t-191.5 -78t-151 -123t-100 -175.5t-37.5 -235.5v-35q0 -57 3.5 -126t16 -137.5t37.5 -133t67 -114t105 -80t153 -30.5h319q-211 171 -211 440q0 85 30 161.5t96.5 134.5t173 93t257.5 37q88 1 157.5 -10t136.5 -28v-363q-76 13 -133 20t-98 4q-48 -3 -79.5 -18.5
t-48 -40t-21.5 -56.5t-1 -70z" />
    <glyph glyph-name="sixthai" unicode="&#xe56;" horiz-adv-x="2930" 
d="M1022 1273q101 0 183 -9v-376q-14 1 -32.5 1h-38.5h-37.5h-29.5q-55 0 -106 -12.5t-90 -42t-61.5 -76.5t-22.5 -115q-1 -63 26 -113t75.5 -87.5t114 -64.5t142 -43.5t158.5 -24.5t161 -8q97 0 193 13.5t183.5 42t162.5 75.5t130 113.5t86.5 155t31.5 200.5v226
q0 123 -33.5 216.5t-91 160.5t-133.5 111t-161.5 70t-176.5 36.5t-177 10.5q-130 0 -272.5 -18t-292.5 -51.5t-307 -80.5t-313 -106q-8 77 -21.5 184t-32.5 236.5t-45.5 277.5t-64.5 303h480q24 -123 43.5 -247t36.5 -258q85 35 189.5 61.5t212 44.5t210.5 27t187 9
q281 0 513.5 -54.5t398.5 -172.5t258 -306t92 -454v-203q0 -241 -82 -427t-244 -312.5t-402.5 -191.5t-557.5 -65q-272 0 -490 46.5t-371.5 140t-236 232t-82.5 320.5q0 161 62.5 275t166 187.5t236.5 108t273 34.5z" />
    <glyph glyph-name="seventhai" unicode="&#xe57;" horiz-adv-x="3203" 
d="M3025 655q0 -59 -20 -130t-63 -144.5t-108 -143t-155 -123.5t-205 -87t-256 -33q-14 0 -57.5 3t-102.5 10.5t-125.5 20.5t-126.5 34l1 1496q0 42 -14 68.5t-34 41.5t-43 20.5t-42 5.5q-53 0 -88 -19t-73 -59l-151 -161h-245l-152 154q-36 38 -80 61.5t-97 23.5
q-15 0 -34.5 -5.5t-36.5 -20.5t-29 -41.5t-12 -68.5v-917q0 -66 11.5 -119t40 -91t77.5 -59t123 -21q36 0 61.5 3t48.5 9.5t49 16t64 22.5v-359q-45 -15 -76.5 -27t-59.5 -21t-58 -14t-71 -5q-370 0 -540 172.5t-170 519.5v816q1 134 26.5 251t87 204t166.5 136.5t268 49.5
q113 0 207.5 -50.5t196.5 -148.5l114 -107l106 112q85 91 191 142.5t219 51.5q162 0 264 -47t158.5 -132t77 -203t20.5 -259v-1103q56 0 103.5 15.5t83 46t56 77t20.5 107.5v1851h484v-1823z" />
    <glyph glyph-name="eightthai" unicode="&#xe58;" horiz-adv-x="2928" 
d="M2234 701q0 38 -5.5 78.5t-23 75t-50.5 58.5t-86 26q-15 0 -39 -0.5t-53.5 -2.5t-61 -7t-61.5 -11v359q67 17 136 28t158 10q151 -1 258 -45t174 -114t98 -158t31 -179v-182q0 -158 -26.5 -282t-87.5 -209.5t-162 -130t-250 -44.5q-91 0 -156.5 10.5t-118 30t-97 46.5
t-93.5 61l-261 209l-260 -209q-49 -34 -94 -61t-97.5 -46.5t-118 -30t-155.5 -10.5q-150 0 -253.5 40.5t-168 121.5t-92.5 201t-28 278v465q-4 277 91.5 476.5t278 326t446.5 185.5t596 56q139 -1 255 -4.5t216.5 -9.5t191 -13.5t176.5 -16.5t172 -20.5t180 -22.5l-1 -424
q-179 29 -334 51t-295.5 36.5t-273 22.5t-266.5 8q-122 0 -238.5 -12t-220.5 -41t-191.5 -78t-151.5 -123t-99.5 -175.5t-35.5 -235.5v-496q0 -57 14.5 -90t36.5 -50t45.5 -21t42.5 -4q53 0 102 19.5t110 64.5l300 211h241l299 -211q62 -45 109.5 -64.5t93.5 -19.5
q22 0 49 5t50 23.5t39 56.5t16 105v109z" />
    <glyph glyph-name="ninethai" unicode="&#xe59;" horiz-adv-x="2928" 
d="M2233 1084l574 -1084h-493l-756 1427q-41 76 -87 124.5t-102 76.5t-121 40t-143 13q-153 3 -244.5 -41.5t-140 -130t-64 -206.5t-15.5 -270q0 -189 38.5 -315t104.5 -203t152.5 -110t183.5 -34q88 -3 153 16t115.5 49t91 66.5t81.5 70.5l189 -341q-92 -87 -175.5 -138.5
t-162 -79.5t-154 -38t-151.5 -14q-102 -6 -212 14t-215 69.5t-199.5 133t-165 204t-112 282t-41.5 368.5q0 238 43.5 431.5t153 330.5t294 213.5t467.5 78.5q144 1 261 -17.5t212 -63.5t171.5 -119t138.5 -182q1 122 27 197t68.5 116t98 55t114.5 14h187v391h486v-666
q0 -53 -10.5 -79t-27.5 -37.5t-40 -11.5h-48h-344q-60 0 -95.5 -14.5t-53.5 -42t-23.5 -66.5t-5.5 -87z" />
    <glyph glyph-name="angkhankhuthai" unicode="&#xe5a;" horiz-adv-x="3217" 
d="M1180 1977h-110q-112 0 -190.5 -33t-127 -85t-70 -115.5t-21.5 -126.5q0 -85 30 -151.5t83 -113t126 -73t158 -32.5q55 -6 121.5 -3.5t138.5 13.5t146.5 31.5t144.5 52.5v1040h498v-2381l-498 1v1048l-196 -161q-24 -11 -74 -20.5t-112 -15.5t-130.5 -8.5t-129.5 2.5
q-171 13 -317.5 72t-254 159t-168 239t-60.5 309q0 139 50 274t153 242t260 173.5t368 66.5h182v-404zM2467 2381h498v-2381l-498 1v2380z" />
    <glyph glyph-name="khomutthai" unicode="&#xe5b;" horiz-adv-x="4597" 
d="M2968 770q-38 91 -66.5 163t-52.5 130t-45.5 105t-44.5 88q-28 -291 -129.5 -523.5t-270.5 -395t-402.5 -249.5t-525.5 -87q-287 8 -514.5 97.5t-386.5 245.5t-243 373.5t-84 483.5q0 253 69.5 466t198 367t312 239.5t413.5 85.5q162 0 286.5 -32t216.5 -88t155 -129.5
t100.5 -155.5t54.5 -168t17 -166v-104l-319 -523h-138v644q0 59 -30 120.5t-81 111.5t-117.5 81.5t-137.5 31.5q-92 3 -182.5 -43t-162 -144t-115.5 -249.5t-44 -358.5q0 -196 58 -348t157.5 -256t233.5 -160t287 -60q258 -6 435.5 82t289.5 251.5t164.5 393t59.5 506.5
l405 210q94 -115 164 -232.5t126 -249.5q8 22 26 59.5t40.5 81.5t46.5 90.5t45 86.5l179 3q25 -46 46 -87.5t40 -85t38 -90t43 -104.5q29 46 47 77.5t33 57.5t29 49t36 51q18 24 33.5 36t34 16t40 4h53.5h573v-156l-255 -188h-262q-13 0 -38.5 -5.5t-42.5 -32.5
q-39 -59 -85.5 -139.5t-106.5 -207.5l-171 -48q-45 113 -83 208.5t-89 176.5q-18 -39 -34 -77.5t-32 -82.5t-34.5 -95t-39.5 -116z" />
    <glyph glyph-name="ZWSP" unicode="&#x200b;" 
 />
    <glyph glyph-name="endash" unicode="&#x2013;" horiz-adv-x="1979" 
d="M1806 1436v-399h-1632v399h1632z" />
    <glyph glyph-name="emdash" unicode="&#x2014;" horiz-adv-x="3959" 
d="M3786 1436v-399h-3612v399h3612z" />
    <glyph glyph-name="quoteleft" unicode="&#x2018;" horiz-adv-x="1052" 
d="M829 2972l-115 -991h-524l349 991h290z" />
    <glyph glyph-name="quoteright" unicode="&#x2019;" horiz-adv-x="1052" 
d="M224 1981l115 991h523l-348 -991h-290z" />
    <glyph glyph-name="quotedblleft" unicode="&#x201c;" horiz-adv-x="1814" 
d="M862 2972l-114 -991h-524l349 991h289zM1624 2972l-115 -991h-523l348 991h290z" />
    <glyph glyph-name="quotedblright" unicode="&#x201d;" horiz-adv-x="1814" 
d="M986 1981l114 991h524l-349 -991h-289zM224 1981l115 991h523l-348 -991h-290z" />
    <glyph glyph-name="bullet" unicode="&#x2022;" horiz-adv-x="2301" 
d="M448 1252q0 146 55.5 274.5t151 224.5t224.5 151t275 55t274.5 -55t224.5 -151t151 -225t55 -274q0 -146 -55 -275t-151 -224.5t-225 -151t-274 -55.5q-146 0 -275 55.5t-224.5 151t-151 224.5t-55.5 275z" />
    <glyph glyph-name="ellipsis" unicode="&#x2026;" horiz-adv-x="3961" 
d="M372 242q0 59 23.5 111.5t62.5 91.5t91.5 62.5t112.5 23.5q59 0 111.5 -23.5t91.5 -62.5t62.5 -91.5t23.5 -111.5q0 -60 -23.5 -112.5t-62.5 -91.5t-91.5 -62.5t-111.5 -23.5q-60 0 -112.5 23.5t-91.5 62.5t-62.5 91.5t-23.5 112.5zM1693 242q0 59 23 111.5t62 91.5
t91.5 62.5t111.5 23.5t112 -23.5t92.5 -62.5t62.5 -91.5t23 -111.5q0 -60 -23 -112.5t-62.5 -91.5t-92.5 -62.5t-112 -23.5t-111.5 23.5t-91.5 62.5t-62 91.5t-23 112.5zM3011 242q0 59 23.5 111.5t62.5 91.5t91.5 62.5t112.5 23.5q59 0 111.5 -23.5t91.5 -62.5t62.5 -91.5
t23.5 -111.5q0 -60 -23.5 -112.5t-62.5 -91.5t-91.5 -62.5t-111.5 -23.5q-60 0 -112.5 23.5t-91.5 62.5t-62.5 91.5t-23.5 112.5z" />
    <glyph glyph-name="Euro" unicode="&#x20ac;" horiz-adv-x="2731" 
d="M1186 1018q31 -155 87.5 -271.5t144 -193.5t208 -115.5t277.5 -38.5q95 0 175.5 10t156 28.5t150.5 46t159 61.5v-465q-53 -22 -115 -47t-141 -45t-180.5 -33.5t-232.5 -13.5q-273 0 -481 71.5t-356.5 209.5t-239.5 338t-130 458h-518v166l341 216h146q-1 21 -1 42v43
q0 41 0.5 81t1.5 80h-488v167l341 216h191q46 239 139 424t239.5 311t348.5 191t466 65q132 0 233 -11.5t180 -29.5t141 -41t115 -46v-466q-84 34 -159.5 61t-150.5 46t-155.5 29t-175.5 10q-151 0 -267.5 -33.5t-202 -101t-143 -169.5t-90.5 -239h999v-383h-1048
q-1 -39 -2 -79t-1 -82v-43t1 -42h1050v-382h-1013z" />
    <glyph glyph-name="uni25CC" unicode="&#x25cc;" horiz-adv-x="2780" 
d="M1072 743l-196 -63l70 196q53 -78 126 -133zM1291 1712l96 185l91 -179q-43 4 -85 4q-49 0 -102 -10zM1473 648l-86 -175l-84 175q41 -10 90 -10q42 0 80 10zM1929 1270l171 -90l-171 -80q6 38 6 80q0 48 -6 90zM862 1096l-187 95l187 90q-7 -48 -7 -101q0 -42 7 -84z
M956 1504l-53 191l188 -64q-82 -51 -135 -127zM1823 850l53 -170l-171 52q70 49 118 118zM1701 1631l202 64l-69 -197q-53 76 -133 133z" />
    </font>
</defs>
</svg>
