<?xml version="1.0" standalone="no"?>
<!DOCTYPE svg PUBLIC "-//W3C//DTD SVG 1.1//EN" "http://www.w3.org/Graphics/SVG/1.1/DTD/svg11.dtd" >
<svg>
<metadata>
Created by FontForge 20090914 at Wed Feb  3 05:17:10 2016
 By www-data
URW Software, Copyright 1994 by URW
</metadata>
<defs>
<font id="FuturaT-Bold" horiz-adv-x="1024" >
  <font-face 
    font-family="Futura URW Extra Bold"
    font-weight="400"
    font-stretch="normal"
    units-per-em="2048"
    panose-1="2 11 8 2 2 2 4 2 2 4"
    ascent="1529"
    descent="-519"
    x-height="928"
    cap-height="1365"
    bbox="-307 -512 2643 1892"
    underline-thickness="226"
    underline-position="-99"
    unicode-range="U+0020-U+F002"
  />
<missing-glyph horiz-adv-x="512" 
d="M51 0v1365h410v-1365h-410zM410 51v1263h-308v-1263h308z" />
    <glyph glyph-name=".notdef" horiz-adv-x="512" 
d="M51 0v1365h410v-1365h-410zM410 51v1263h-308v-1263h308z" />
    <glyph glyph-name="space" unicode=" " horiz-adv-x="512" 
 />
    <glyph glyph-name="exclam" unicode="!" horiz-adv-x="696" 
d="M349 386c58.667 0 108.667 -20.668 150 -62.001s62 -91.333 62 -150s-20.667 -108.667 -62 -150s-91.333 -62 -150 -62c-59.333 0 -109.333 20.667 -150 62c-41.333 42 -62 93 -62 153c0 57.333 20.667 106.333 62 147s91.333 61.334 150 62.001zM178 463.999v901h341
v-901h-341z" />
    <glyph glyph-name="quotedbl" unicode="&#x22;" horiz-adv-x="840" 
d="M326 816h-193l-49 549h291zM707 816h-193l-49 549h292z" />
    <glyph glyph-name="numbersign" unicode="#" horiz-adv-x="1229" 
d="M1149 610v-236h-217l-50 -374h-270l50 374h-176l-49 -374h-267l50 374h-188v236h217l23 174h-186v235h215l46 346h267l-46 -346h176l45 346h270l-46 -346h185v-235h-214l-23 -174h188zM714 784h-176l-22 -174h176z" />
    <glyph glyph-name="dollar" unicode="$" horiz-adv-x="1229" 
d="M732 1581l-0.00292969 -219.001c134 -12 243.667 -47 329 -105l-134 -261c-78.667 58.667 -155 88 -229 88c-47.333 0 -85.666 -11 -114.999 -33c-27.333 -20.667 -41 -44 -41 -70c0 -40.667 29.333 -76 88 -106c12 -6 60.333 -23 145 -51
c104 -35.333 184.667 -79.666 242 -132.999c64 -58.667 96 -142.334 96 -251.001c0 -113.333 -31.667 -207.666 -95 -282.999c-53.333 -63.333 -148.666 -114.666 -285.999 -153.999v-227h-168v216c-82 4 -164.5 21.333 -247.5 52s-149.5 68.667 -199.5 114l148 273
c112.667 -100.667 223 -151 331 -151c54 0 97 15.667 129 47c25.333 25.333 38 53 38 83c0 43.333 -28 78.666 -84 105.999c-10.667 5.33301 -56.667 20.666 -138 45.999c-104 32 -183.667 71 -239 117c-71.333 60 -107 146 -107 258c0 71.333 15.667 138.833 47 202.5
s74 115.167 128 154.5c50.667 36.667 115.334 59.334 194.001 68.001v219h168z" />
    <glyph glyph-name="percent" unicode="%" horiz-adv-x="1834" 
d="M450 1380c118 0 210.333 -35.665 277 -106.998c58.667 -62.667 88 -137.334 88 -224.001c0 -106 -40.333 -193 -121 -261c-61.333 -51.333 -147 -77 -257 -77c-120.667 0 -214.667 35.333 -282 106c-58 59.333 -87 137.666 -87 234.999c0 94.667 33 172.667 99 234
c66.667 62 161 93.333 283 94zM441 1200c-41.333 0 -77.167 -14.834 -107.5 -44.501s-45.5 -65.5 -45.5 -107.5c0 -43.333 15 -80 45 -110s66.333 -45 109 -45c42 0 78 15 108 45s45 66.333 45 109c0 42 -14.833 77.833 -44.5 107.5s-66.167 44.834 -109.5 45.501z
M1223 1365h178l-793 -1365h-177zM1400 653.001c118 0 210.333 -35.666 277 -106.999c58.667 -62.667 88 -137.334 88 -224.001c0 -106 -40.333 -193 -121 -261c-61.333 -51.333 -147 -77 -257 -77c-120.667 0 -214.667 35.333 -282 106c-58 60 -87 138.333 -87 235
c0 94.667 33 172.667 99 234c66.667 62 161 93.333 283 94zM1391 473.002c-41.333 0 -77.167 -14.834 -107.5 -44.501s-45.5 -65.5 -45.5 -107.5c0 -42.667 15 -79.167 45 -109.5s66.333 -45.5 109 -45.5c42 0 78 15 108 45s45 66.333 45 109
c0 42 -14.833 77.833 -44.5 107.5s-66.167 44.834 -109.5 45.501z" />
    <glyph glyph-name="ampersand" unicode="&#x26;" horiz-adv-x="1548" 
d="M880 702l170.999 -180.001c72 65.333 131.333 130 178 194l201 -193c-41.333 -53.333 -103.666 -120 -186.999 -200l305 -323h-442l-119 125c-164 -108.667 -320.667 -163 -470 -163c-84 0 -162 18.333 -234 55c-69.333 36 -122 88 -158 156
c-28.667 54 -43 114.333 -43 181c0 120 44.667 217.333 134 292c29.333 24.667 93.333 59.334 192 104.001c-36.667 46 -60.667 78 -72 96c-36.667 55.333 -55 116.666 -55 183.999c0 61.333 16.333 120.333 49 177c76.667 130.667 202 196 376 196
c134 0 240 -39.667 318 -119c72 -72.667 108 -157 108 -253c0 -98.667 -38.667 -180 -116 -244c-30.667 -25.333 -76 -53.666 -136 -84.999zM577.999 570.999c-86 -54 -129 -107.667 -129 -161c0 -37.333 15 -68.333 45 -93s67.667 -37 113 -37c62.667 0 124.667 20 186 60z
M724.999 867.999c84 50.667 126.002 107 126.002 169c0 36 -11.333 65.833 -34 89.5s-51.334 35.5 -86.001 35.5c-32.667 0 -59.834 -10.833 -81.501 -32.5s-32.5 -48.5 -32.5 -80.5s17 -70.333 51 -115c8.66699 -11.333 20.167 -25.333 34.5 -42s21.833 -24.667 22.5 -24z
" />
    <glyph glyph-name="quotesingle" unicode="'" horiz-adv-x="459" 
d="M326 816h-193l-49 549h291z" />
    <glyph glyph-name="parenleft" unicode="(" horiz-adv-x="692" 
d="M399 1558l198 -111.997c-139.333 -238.667 -209 -521.334 -209 -848.001c0 -161.333 19 -320 57 -476s88.667 -282.667 152 -380l-198 -112c-76 110 -131.667 224 -167 342c-63.333 208.667 -95 421.667 -95 639c0 177.333 23.167 349.666 69.5 516.999
s110.5 310.666 192.5 429.999z" />
    <glyph glyph-name="parenright" unicode=")" horiz-adv-x="692" 
d="M294 -370l-198 111.997c139.333 238.667 209 521.334 209 848.001c0 161.333 -19 319.833 -57 475.5s-88.667 282.167 -152 379.5l198 113c76 -110 131.667 -224 167 -342c63.333 -209.333 95 -422.333 95 -639c0 -177.333 -23.167 -349.666 -69.5 -516.999
s-110.5 -310.666 -192.5 -429.999z" />
    <glyph glyph-name="asterisk" unicode="*" horiz-adv-x="1229" 
d="M534 1502h162l-32 -247l226 106l50 -154l-245 -46l171 -182l-131 -95l-119 219l-121 -219l-131 95l171 181l-245 47l50 154l225 -107z" />
    <glyph glyph-name="plus" unicode="+" horiz-adv-x="1229" 
d="M130 799h369v368h232v-368h368v-232h-368v-369h-232v369h-369v232z" />
    <glyph glyph-name="comma" unicode="," horiz-adv-x="621" 
d="M217 347h308l-333 -601h-210z" />
    <glyph glyph-name="hyphen" unicode="-" horiz-adv-x="519" 
d="M0 621h519v-273h-519v273z" />
    <glyph glyph-name="period" unicode="." horiz-adv-x="621" 
d="M311 386c58.667 0 108.667 -20.668 150 -62.001s62 -91.333 62 -150s-20.667 -108.667 -62 -150s-91.333 -62 -150 -62c-59.333 0 -109.333 20.667 -150 62c-41.333 42 -62 93 -62 153c0 57.333 20.667 106.333 62 147s91.333 61.334 150 62.001z" />
    <glyph glyph-name="slash" unicode="/" horiz-adv-x="1014" 
d="M743 1502h260l-746 -1816h-259z" />
    <glyph glyph-name="zero" unicode="0" horiz-adv-x="1229" 
d="M615 1417c171.333 0 312.669 -70.3311 424.002 -210.998c103.333 -130.667 155 -305 155 -523c0 -112.667 -12.5 -211.334 -37.5 -296.001s-64.167 -160.667 -117.5 -228c-111.333 -140.667 -252.333 -211 -423 -211c-172.667 0 -314.334 70.333 -425.001 211
c-54.667 69.333 -94.167 146.166 -118.5 230.499s-36.5 185.5 -36.5 303.5c0 214 51.667 385 155 513c111.333 138 252.666 208.333 423.999 211zM615.003 1100c-30.667 0 -61.335 -10.668 -92.002 -32.001s-54.667 -49 -72 -83c-42 -81.333 -63 -181.666 -63 -300.999
c0 -125.333 21 -228.333 63 -309c17.333 -34.667 41.333 -62.667 72 -84s61.334 -32 92.001 -32s61.334 10.833 92.001 32.5s54.667 49.5 72 83.5c42 81.333 63 183 63 305c0 124 -21 225.667 -63 305c-18 34 -41.833 61.5 -71.5 82.5s-60.5 31.833 -92.5 32.5z" />
    <glyph glyph-name="one" unicode="1" horiz-adv-x="1229" 
d="M479 1065h-194v300h549v-1365h-355v1065z" />
    <glyph glyph-name="two" unicode="2" horiz-adv-x="1229" 
d="M702 300h446.997v-300h-1096l347 363c114.667 119.333 209.334 234.666 284.001 345.999c55.333 82.667 83 161 83 235c0 49.333 -15.5 91.166 -46.5 125.499s-68.5 51.5 -112.5 51.5c-43.333 0 -78.5 -15.5 -105.5 -46.5s-40.5 -71.167 -40.5 -120.5
c0 -13.333 2 -32.333 6 -57h-391c0.666992 94 24.334 185 71.001 273c44.667 84.667 107.667 148.334 189 191.001c78.667 41.333 168.334 62 269.001 62c160 0 289 -48 387 -144c94.667 -92.667 142 -208.667 142 -348c0 -79.333 -16.167 -152.166 -48.5 -218.499
s-83.833 -132.5 -154.5 -198.5z" />
    <glyph glyph-name="three" unicode="3" horiz-adv-x="1229" 
d="M547 599l-0.00195312 241.998c17.333 -1.33301 30.666 -2 39.999 -2c49.333 0 87 15.667 113 47c26 30 39 65 39 105s-13 72.667 -39 98s-59.333 38 -100 38c-44.667 0 -79.667 -13.667 -105 -41s-38.666 -65.666 -39.999 -114.999h-329
c10.667 90 33.334 164.667 68.001 224c42.667 72 100.667 126.333 174 163c79.333 40 166.333 60 261 60c134 0 241.667 -37 323 -111c78 -71.333 117 -165.666 117 -282.999c0 -65.333 -11.667 -121 -35 -167s-59.666 -85.333 -108.999 -118
c53.333 -17.333 95.666 -44.333 126.999 -81c64 -74.667 96 -164 96 -268c0 -98 -28.333 -184.333 -85 -259c-49.333 -64 -115 -112.333 -197 -145c-80 -31.333 -164 -47 -252 -47c-221.333 0 -384.333 89 -489 267c-45.333 76.667 -69 153.667 -71 231h363
c2.66699 -46.667 13.667 -84 33 -112c34.667 -52.667 88.334 -79 161.001 -79c62 0 109.667 20.667 143 62c28 35.333 42 74.333 42 117c0 62 -25.333 111.333 -76 148c-33.333 24 -70.333 36 -111 36c-17.333 0 -38 -3.33301 -62 -10z" />
    <glyph glyph-name="four" unicode="4" horiz-adv-x="1229" 
d="M1012 553h166v-273h-166v-280h-328v280h-661v229l525 856h464v-812zM684 553v526l-321 -526h321z" />
    <glyph glyph-name="five" unicode="5" horiz-adv-x="1229" 
d="M1013 1065l-471.998 0.000976562l-25 -151c43.333 6 80 9 110 9c137.333 0 251 -42.667 341 -128c97.333 -92.667 146 -209.667 146 -351c0 -92.667 -23 -176.667 -69 -252c-96 -157.333 -264 -236 -504 -236c-164.667 0 -313.334 41.333 -446.001 124l53 332
c125.333 -105.333 249.666 -158 372.999 -158c76.667 0 136.667 26 180 78c31.333 36.667 47 79 47 127c0 77.333 -36 137.666 -108 180.999c-52.667 32 -118 48 -196 48c-86.667 0 -173 -19 -259 -57l119 734h710v-300z" />
    <glyph glyph-name="six" unicode="6" horiz-adv-x="1229" 
d="M547 1365h403l-389 -464c71.333 28 135.333 42 192 42c124 0 228.333 -45 313 -135c85.333 -91.333 128 -205.666 128 -342.999c0 -172 -65.333 -307 -196 -405c-103.333 -76.667 -233.333 -115 -390 -115c-186 0 -329.667 52 -431 156c-94 96.667 -141 211.667 -141 345
c0 77.333 18.333 162.166 55 254.499s87 180.5 151 264.5zM607 675c-62.667 0 -116.001 -22.001 -160.001 -66.001s-66 -97 -66 -159s22 -115 66 -159s97.333 -66 160 -66s115.667 22 159 66c44 44.667 66 97 66 157c0 63.333 -21.667 116.833 -65 160.5
s-96.666 65.834 -159.999 66.501z" />
    <glyph glyph-name="seven" unicode="7" horiz-adv-x="1229" 
d="M714 1065h-570v300h1120l-783 -1365h-390z" />
    <glyph glyph-name="eight" unicode="8" horiz-adv-x="1229" 
d="M364 719c-56 23.333 -99 51.334 -129 84.001c-57.333 60.667 -86 133 -86 217c0 56 14 110.333 42 163c78 146 219.667 219 425 219c74 0 142.833 -11.167 206.5 -33.5s115.5 -53.833 155.5 -94.5c68 -68.667 102 -153.667 102 -255c0 -96 -32 -171 -96 -225
c-28 -22.667 -70.333 -47.667 -127 -75c72 -28 125.667 -58 161 -90c78.667 -70 118 -156.667 118 -260c0 -130 -60.333 -234 -181 -312c-95.333 -61.333 -208.333 -92 -339 -92c-97.333 0 -189.333 19 -276 57c-86 38 -151.667 92 -197 162
c-33.333 52.667 -50 114.334 -50 185.001c0 109.333 40.333 198.666 121 267.999c34 29.333 84 56.666 150 81.999zM614 1164c-40.667 0 -75.832 -14.5 -105.499 -43.5s-44.5 -63.833 -44.5 -104.5c0 -42 14.667 -77.833 44 -107.5s65 -44.5 107 -44.5
c41.333 0 76.666 14.667 105.999 44s44 64.666 44 105.999c0 42 -14.5 77.333 -43.5 106s-64.833 43.334 -107.5 44.001zM614.002 575.001c-45.333 0 -83.667 -15.999 -115 -47.999c-32 -32 -48 -70 -48 -114c0 -46 15.833 -85 47.5 -117s70.5 -48 116.5 -48
c44.667 0 83 16 115 48s48 70.667 48 116s-15.833 83.666 -47.5 114.999s-70.5 47.333 -116.5 48z" />
    <glyph glyph-name="nine" unicode="9" horiz-adv-x="1229" 
d="M683 0l-403 -0.000976562l389 464c-70.667 -28.667 -134.667 -43 -192 -43c-124 0 -228.333 45.333 -313 136c-85.333 90.667 -128 204.667 -128 342c0 172 65.333 307 196 405c102.667 77.333 232.667 116 390 116c186 0 329.667 -52 431 -156
c94 -96.667 141 -211.667 141 -345c0 -77.333 -18.333 -162.166 -55 -254.499s-87 -180.5 -151 -264.5zM624 1141c-62 0 -114.999 -22.001 -158.999 -66.001c-44 -44.667 -66 -97 -66 -157c0 -63.333 22 -117.333 66 -162c43.333 -44 96.666 -66 159.999 -66
c62 0 115 22 159 66s66 97.333 66 160c0 62 -21.833 114.833 -65.5 158.5s-97.167 65.834 -160.5 66.501z" />
    <glyph glyph-name="colon" unicode=":" horiz-adv-x="621" 
d="M311 386c58.667 0 108.667 -20.668 150 -62.001s62 -91.333 62 -150s-20.667 -108.667 -62 -150s-91.333 -62 -150 -62c-59.333 0 -109.333 20.667 -150 62c-41.333 42 -62 93 -62 153c0 57.333 20.667 106.333 62 147s91.333 61.334 150 62.001zM310 995.999
c58.667 0 108.667 -20.667 150 -62c41.333 -40.667 62 -90.334 62 -149.001s-20.667 -108.667 -62 -150s-91 -62 -149 -62c-59.333 0 -109.333 20.667 -150 62c-41.333 42 -62 92.667 -62 152c0 57.333 20.5 106.333 61.5 147s90.833 61.334 149.5 62.001z" />
    <glyph glyph-name="semicolon" unicode=";" horiz-adv-x="621" 
d="M216 347h308l-333 -601h-210zM358 996c58.667 0 108.667 -20.667 150 -62c41.333 -40.667 62 -90.334 62 -149.001s-20.667 -108.667 -62 -150s-91 -62 -149 -62c-59.333 0 -109.333 20.667 -150 62c-41.333 42 -62 92.667 -62 152c0 57.333 20.5 106.333 61.5 147
s90.833 61.334 149.5 62.001z" />
    <glyph glyph-name="less" unicode="&#x3c;" 
d="M955 1346v-386l-478 -268l478 -270v-382l-887 492v323z" />
    <glyph glyph-name="equal" unicode="=" horiz-adv-x="1229" 
d="M130 980h969v-232h-969v232zM130 618h969v-232h-969v232z" />
    <glyph glyph-name="greater" unicode="&#x3e;" 
d="M68 40v385l478 269l-476 269l-2 383l887 -492v-323z" />
    <glyph glyph-name="question" unicode="?" horiz-adv-x="1120" 
d="M377 459l0.00195312 353.001c28.667 -6.66699 53 -10 73 -10c67.333 0 123.666 17.333 168.999 52s68 77.667 68 129c0 38 -12.833 69.833 -38.5 95.5s-57.834 38.5 -96.501 38.5c-37.333 0 -66.833 -12 -88.5 -36s-33.167 -58 -34.5 -102h-361
c2 98 32.333 182.667 91 254c44.667 54.667 104 97 178 127c70.667 28.667 144.667 43 222 43c136.667 0 250.334 -42.333 341.001 -127c43.333 -40.667 77.166 -87.5 101.499 -140.5s36.5 -106.833 36.5 -161.5c0 -56.667 -13 -111.334 -39 -164.001s-61.667 -96 -107 -130
s-106 -64.333 -182 -91v-130h-333zM552.002 385.001c58.667 0 108.667 -20.667 150 -62c41.333 -40.667 62 -90.334 62 -149.001s-20.667 -108.667 -62 -150s-91 -62 -149 -62c-59.333 0 -109.333 20.667 -150 62c-41.333 41.333 -62 92 -62 152
c0 57.333 20.5 106.333 61.5 147s90.833 61.334 149.5 62.001z" />
    <glyph glyph-name="at" unicode="@" horiz-adv-x="1409" 
d="M1087 1027l-55.002 -451.002c-3.33301 -28.667 -5 -58 -5 -88c0 -23.333 7.66699 -35 23 -35c12.667 0 27 3.66699 43 11c38.667 18.667 70 47 94 85c42.667 66 64 140.333 64 223c0 136 -50 248.333 -150 337c-98.667 88 -221 132 -367 132
c-158.667 0 -292 -54.667 -400 -164c-106 -108 -159 -240.333 -159 -397c0 -148 46.667 -274.333 140 -379c104.667 -118 249.334 -177 434.001 -177c74 0 138 6.66699 192 20s121.333 39.333 202 78l20 10c5.33301 2.66699 11 5.33398 17 8.00098l65 -165l-36 -18
c-86.667 -40.667 -162.667 -68.667 -228 -84s-142 -23 -230 -23c-158.667 0 -295.667 33 -411 99c-106.667 60.667 -192 144.667 -256 252c-68.667 115.333 -103 241 -103 377c0 135.333 33.333 259.333 100 372c63.333 106 150 190.667 260 254c119.333 68 250 102 392 102
c140.667 0 267.667 -33.333 381 -100c96.667 -56 172.334 -129.667 227.001 -221c57.333 -95.333 86 -198.333 86 -309c0 -110 -28.333 -210.667 -85 -302c-45.333 -74 -103.666 -127.333 -174.999 -160c-46 -21.333 -91 -32 -135 -32c-66.667 0 -118.667 29.333 -156 88
c-62.667 -60.667 -134.667 -91 -216 -91c-95.333 0 -174.333 36 -237 108c-62 70.667 -93 159.667 -93 267c0 118.667 38.667 215.334 116 290.001c68 66 151.667 99 251 99c36 0 67.167 -4.16699 93.5 -12.5s58.166 -23.833 95.499 -46.5l12 43h189zM704.998 849.998
c-48.667 0 -88.832 -18.999 -120.499 -56.999s-47.5 -86.667 -47.5 -146c0 -51.333 12.333 -93.333 37 -126s56.667 -49 96 -49c53.333 0 98.666 21.667 135.999 65c40 46.667 60 98.667 60 156c0 45.333 -15 82.666 -45 111.999s-68.667 44.333 -116 45z" />
    <glyph glyph-name="A" unicode="A" horiz-adv-x="1454" 
d="M973 238h-490l-94 -238h-375l525 1365h387l514 -1365h-379zM877 508l-147 435l-149 -435h296z" />
    <glyph glyph-name="B" unicode="B" horiz-adv-x="1266" 
d="M143 0l-0.000976562 1365h528c127.333 0 223 -31.667 287 -95c64.667 -63.333 97 -150.333 97 -261c0 -68.667 -11.667 -125 -35 -169s-61.666 -81.333 -114.999 -112c88 -17.333 151.333 -45.666 190 -84.999c58.667 -60 88 -145.333 88 -256
c0 -110 -37 -199.667 -111 -269c-83.333 -78.667 -203.333 -118 -360 -118h-569zM497.999 827.999h65c54 0 95.333 11.333 124 34s43 55.667 43 99s-14.167 76.333 -42.5 99s-69.833 34 -124.5 34h-65v-266zM497.999 275.999h79c78.667 0 137 8.33301 175 25
c22 10 39.5 25.833 52.5 47.5s19.5 45.834 19.5 72.501c0 55.333 -22.667 94.666 -68 117.999c-20 10.667 -41.5 17.5 -64.5 20.5s-63.167 4.5 -120.5 4.5h-73v-288z" />
    <glyph glyph-name="C" unicode="C" horiz-adv-x="1208" 
d="M1126 1325l-0.00292969 -425c-81.333 100 -183.666 150 -306.999 150c-108 0 -198 -38 -270 -114c-64 -66.667 -96 -154 -96 -262c0 -116.667 40 -208.667 120 -276c72 -60.667 153.667 -91 245 -91c114.667 0 217.334 47.667 308.001 143v-420
c-84 -28 -145.667 -46.167 -185 -54.5s-83.666 -12.5 -132.999 -12.5c-125.333 0 -245.666 31.667 -360.999 95c-122.667 67.333 -215.334 157 -278.001 269c-58 102 -87 216.667 -87 344c0 142.667 35.333 270.667 106 384c66.667 108 159 192.667 277 254
c108 56.667 221.333 85 340 85c97.333 0 204.333 -23 321 -69z" />
    <glyph glyph-name="D" unicode="D" horiz-adv-x="1423" 
d="M143 0v1365h524c170.667 0 320.334 -60.333 449.001 -181c73.333 -68 129.666 -148 168.999 -240c36.667 -86 55 -173 55 -261c0 -129.333 -36.667 -251.333 -110 -366c-73.333 -114 -169.333 -199 -288 -255c-88 -41.333 -179.667 -62 -275 -62h-524zM498 300h81
c66.667 0 123 9 169 27s86.667 47 122 87c66 74 99 163.667 99 269c0 104.667 -33 194 -99 268c-35.333 40 -76 69 -122 87s-102.333 27 -169 27h-81v-765z" />
    <glyph glyph-name="E" unicode="E" horiz-adv-x="1002" 
d="M920 1065h-422v-228h399v-300h-399v-237h422v-300h-777v1365h777v-300z" />
    <glyph glyph-name="F" unicode="F" horiz-adv-x="994" 
d="M925 1065h-427v-228h389v-300h-389v-537h-355v1365h782v-300z" />
    <glyph glyph-name="G" unicode="G" horiz-adv-x="1593" 
d="M807 758l704 0.00195312c-2.66699 -182 -26.334 -322 -71.001 -420c-56.667 -124.667 -138.667 -220 -246 -286c-108 -66.667 -236 -100 -384 -100c-148.667 0 -282 34 -400 102c-115.333 66.667 -201.333 162.667 -258 288c-47.333 103.333 -71 214.333 -71 333
c0 135.333 30.333 260.333 91 375c62.667 120 152 210 268 270c114.667 59.333 242.334 89 383.001 89c145.333 0 268.166 -31.333 368.499 -94s182.5 -159.334 246.5 -290.001l-337 -139c-62 144 -160.333 216 -295 216c-104.667 0 -189.667 -41.667 -255 -125
c-66 -83.333 -99 -184 -99 -302c0 -134 40.667 -244.333 122 -331c61.333 -65.333 142.333 -98 243 -98c102 0 179 33.333 231 100c24.667 31.333 41.334 76.666 50.001 135.999h-291v276z" />
    <glyph glyph-name="H" unicode="H" horiz-adv-x="1509" 
d="M498 838h512v527h355v-1365h-355v562h-512v-562h-355v1365h355v-527z" />
    <glyph glyph-name="I" unicode="I" horiz-adv-x="642" 
d="M498 1365v-1365h-355v1365h355z" />
    <glyph glyph-name="J" unicode="J" horiz-adv-x="959" 
d="M816 1365v-943.999c0 -93.333 -11.667 -164.333 -35 -213c-40.667 -82.667 -102.667 -146.334 -186 -191.001c-68 -36 -143 -54 -225 -54c-146 0 -264.667 67.333 -356 202l232 237c4.66699 -40.667 17.5 -73 38.5 -97s46.833 -36 77.5 -36c66.667 0 100 52.333 100 157
l-1 76v863h355z" />
    <glyph glyph-name="K" unicode="K" horiz-adv-x="1433" 
d="M498 802l433 563h438l-542 -646l592 -719h-460l-461 592v-592h-355v1365h355v-563z" />
    <glyph glyph-name="L" unicode="L" horiz-adv-x="963" 
d="M498 1365v-1065h426v-300h-781v1365h355z" />
    <glyph glyph-name="M" unicode="M" horiz-adv-x="1875" 
d="M82 0l232 1365h350l277 -728l293 728h353l206 -1365h-355l-101 786l-330 -786h-141l-315 786l-116 -786h-353z" />
    <glyph glyph-name="N" unicode="N" horiz-adv-x="1649" 
d="M143 0v1365h355l653 -835v835h355v-1365h-355l-653 836v-836h-355z" />
    <glyph glyph-name="O" unicode="O" horiz-adv-x="1675" 
d="M837 1406c228 0 414.333 -76.3359 559 -229.003c131.333 -138 197 -304 197 -498c0 -133.333 -33 -256.333 -99 -369c-70.667 -121.333 -168.334 -213.666 -293.001 -276.999c-108 -54.667 -231.333 -82 -370 -82c-224.667 0 -408.667 76 -552 228
c-131.333 138.667 -197 309.334 -197 512.001c0 127.333 33 246 99 356c140.667 234.667 359.334 354.334 656.001 359.001zM837 1062c-106 0 -196 -37.3311 -270 -111.998c-75.333 -76 -113 -165 -113 -267c0 -108 37.667 -200 113 -276c74 -74.667 164.333 -112 271 -112
c106 0 196.667 37.333 272 112c74.667 75.333 112 166 112 272c0 107.333 -37.333 197.666 -112 270.999c-75.333 73.333 -166.333 110.666 -273 111.999z" />
    <glyph glyph-name="P" unicode="P" horiz-adv-x="1227" 
d="M498 454v-454.001h-355v1365h565c79.333 0 144.833 -8.66699 196.5 -26s99.5 -46.666 143.5 -87.999c89.333 -84 134 -197 134 -339c0 -138 -36.667 -248.333 -110 -331c-74.667 -84.667 -192 -127 -352 -127h-222zM498 738.999h118c68.667 0 117 13 145 39
c33.333 30.667 50 74 50 130c0 114.667 -64.667 172 -194 172h-119v-341z" />
    <glyph glyph-name="Q" unicode="Q" horiz-adv-x="1675" 
d="M1646 -39l-326 -50.001l-109 128c-105.333 -58 -223.333 -87 -354 -87c-261.333 0 -462 85.667 -602 257c-115.333 140.667 -173 297.667 -173 471c0 114.667 27 224.667 81 330c68.667 133.333 165.667 234.333 291 303c110 60 237.333 90 382 90
c140.667 0 269.667 -30.333 387 -91c125.333 -65.333 222 -163.333 290 -294c53.333 -103.333 80 -216.666 80 -339.999c0 -90.667 -13.667 -173.167 -41 -247.5s-73 -152.833 -137 -235.5zM1063 571.999l94 -101.002c43.333 64.667 65 133.334 65 206.001
c0 100.667 -37 189.334 -111 266.001c-74.667 77.333 -166 116 -274 116s-200 -39 -276 -117c-72 -74 -108 -164.667 -108 -272c0 -112.667 40.333 -205 121 -277c72 -64.667 159 -97 261 -97c35.333 0 72.333 5.66699 111 17l-218 218z" />
    <glyph glyph-name="R" unicode="R" horiz-adv-x="1284" 
d="M849 560l428.999 -560h-442l-338 524v-524h-355v1365h552c76.667 0 141.834 -9.66699 195.501 -29s100.167 -49.666 139.5 -90.999c78 -82.667 117 -183.334 117 -302.001c0 -60 -11.167 -117 -33.5 -171s-52.5 -97.667 -90.5 -131
c-42.667 -37.333 -100.667 -64.333 -174 -81zM497.999 754h66c67.333 0 118 12 152 36c18.667 14 34.334 33.5 47.001 58.5s19 49.833 19 74.5s-6.33301 49.5 -19 74.5s-28.334 44.5 -47.001 58.5c-34 24 -84.667 36 -152 36h-66v-338z" />
    <glyph glyph-name="S" unicode="S" horiz-adv-x="1170" 
d="M1034 1287l-142.001 -276.003c-76 61.333 -153.333 92 -232 92c-50 0 -89 -14 -117 -42c-23.333 -22.667 -35 -47.667 -35 -75c0 -41.333 28.333 -75.666 85 -102.999c16 -7.33301 69.667 -24.666 161 -51.999c118.667 -35.333 204.167 -82.666 256.5 -141.999
s78.5 -138.333 78.5 -237c0 -176 -58.667 -305 -176 -387c-96 -67.333 -214.667 -101 -356 -101c-168.667 0 -327 51.667 -475 155l152 286c106 -92.667 210.333 -139 313 -139c62.667 0 108.334 16.333 137.001 49c22.667 26 34 54 34 84
c0 37.333 -14.833 66.833 -44.5 88.5s-86.167 44.834 -169.5 69.501c-130 38 -216.333 74.667 -259 110c-72.667 59.333 -109 149.666 -109 270.999c0 142 47 256 141 342c85.333 78.667 193.333 118 324 118c148.667 0 293 -37 433 -111z" />
    <glyph glyph-name="T" unicode="T" horiz-adv-x="965" 
d="M658 1065v-1065h-355v1065h-289v300h938v-300h-294z" />
    <glyph glyph-name="U" unicode="U" horiz-adv-x="1477" 
d="M498 1365l-0.000976562 -738.999c0 -78 2.16699 -131 6.5 -159s15.166 -56.333 32.499 -85c40.667 -69.333 106.667 -104 198 -104c44.667 0 85.834 10 123.501 30s65.834 47 84.501 81c14.667 26.667 24.334 55 29.001 85s7 80.667 7 152v739h355v-787
c0 -130.667 -17.333 -231 -52 -301c-52.667 -106.667 -131.334 -187.334 -236.001 -242.001c-90.667 -46.667 -196 -70 -316 -70c-136.667 0 -255.667 29.667 -357 89c-84.667 50 -144.167 114.167 -178.5 192.5s-51.5 188.833 -51.5 331.5v787h355z" />
    <glyph glyph-name="V" unicode="V" horiz-adv-x="1432" 
d="M386 1365l329 -830l332 830h385l-582 -1365h-276l-574 1365h386z" />
    <glyph glyph-name="W" unicode="W" horiz-adv-x="2076" 
d="M371 1365l237 -882l289 882h282l269 -882l258 882h370l-436 -1365h-362l-249 791l-261 -791h-361l-407 1365h371z" />
    <glyph glyph-name="X" unicode="X" horiz-adv-x="1455" 
d="M534 728l-437 637h437l203 -354l212 354h436l-445 -637l515 -728h-428l-292 444l-306 -444h-429z" />
    <glyph glyph-name="Y" unicode="Y" horiz-adv-x="1311" 
d="M469 656l-494 709h424l258 -372l248 372h430l-511 -709v-656h-355v656z" />
    <glyph glyph-name="Z" unicode="Z" horiz-adv-x="1293" 
d="M622 300h573v-300h-1168l646 1065h-537v300h1129z" />
    <glyph glyph-name="bracketleft" unicode="[" horiz-adv-x="689" 
d="M423 1311v-1432h185v-193h-444v1816h444v-191h-185z" />
    <glyph glyph-name="backslash" unicode="\" horiz-adv-x="1014" 
d="M272 1502l745 -1816h-259l-746 1816h260z" />
    <glyph glyph-name="bracketright" unicode="]" horiz-adv-x="689" 
d="M266 -123v1432h-184v193h443v-1816h-443v191h184z" />
    <glyph glyph-name="asciicircum" unicode="^" 
d="M351 691h-338l285 684h429l285 -684h-338l-161 423z" />
    <glyph glyph-name="underscore" unicode="_" 
d="M0 -99h1024v-226h-1024v226z" />
    <glyph glyph-name="grave" unicode="`" 
d="M197 1344l208 149l259 -316l-152 -112z" />
    <glyph glyph-name="a" unicode="a" horiz-adv-x="1270" 
d="M830 928h328.001v-928h-328v102c-70.667 -88 -166 -132 -286 -132c-78 0 -152.667 19.667 -224 59c-78 44 -138.667 104.333 -182 181c-42 74.667 -63 160 -63 256c0 158 55 284.333 165 379c87.333 75.333 187.666 113 300.999 113c60 0 113 -9.66699 159 -29
s89.333 -50 130 -92v91zM628.001 675c-58.667 0 -108.667 -20.6699 -150 -62.0029s-62 -90 -62 -146c0 -60 20.667 -110.667 62 -152c40.667 -41.333 90.667 -62 150 -62c58.667 0 108.667 20.667 150 62c41.333 40.667 62 90.334 62 149.001s-20.5 108.334 -61.5 149.001
s-91.167 61.334 -150.5 62.001z" />
    <glyph glyph-name="b" unicode="b" horiz-adv-x="1270" 
d="M440 1502l0.000976562 -664.998c35.333 36.667 69.666 63 102.999 79c58 28 120 42 186 42c136 0 250.333 -51.333 343 -154c82 -90.667 123 -203.334 123 -338.001c0 -156.667 -53.667 -282.334 -161 -377.001c-90 -79.333 -192.667 -119 -308 -119
c-120 0 -215.333 44 -286 132v-102h-328v1502h328zM642.001 675.002c-58.667 0 -108.667 -20.667 -150 -62s-62 -91 -62 -149s20.667 -107.667 62 -149s91.666 -62 150.999 -62c58.667 0 108.334 20.667 149.001 62c41.333 42 62 91 62 147
c0 59.333 -20.333 109.5 -61 150.5s-91 61.833 -151 62.5z" />
    <glyph glyph-name="c" unicode="c" horiz-adv-x="887" 
d="M812 905l-0.000976562 -278.998c-57.333 40 -114 60 -170 60c-70 0 -127.333 -24.333 -172 -73c-36 -40 -54 -90.667 -54 -152c0 -66.667 22 -120.334 66 -161.001c44.667 -41.333 98 -62 160 -62c60.667 0 117.334 20.333 170.001 61v-278
c-76 -34.667 -152.667 -52 -230 -52c-96 0 -186 25 -270 75c-158 93.333 -237 230.666 -237 411.999c0 153.333 55.333 278.333 166 375c95.333 84 212 126 350 126c79.333 0 153 -17.333 221 -52z" />
    <glyph glyph-name="d" unicode="d" horiz-adv-x="1270" 
d="M830 1502h328.001v-1502h-328v102c-70.667 -88 -166 -132 -286 -132c-78 0 -152.667 19.667 -224 59c-78 44 -138.667 104.333 -182 181c-42 74.667 -63 160 -63 256c0 158 55 284.333 165 379c87.333 75.333 187.666 113 300.999 113c60 0 113 -9.66699 159 -29
s89.333 -50 130 -92v665zM628.001 675c-58.667 0 -108.667 -20.6699 -150 -62.0029s-62 -90 -62 -146c0 -60 20.667 -110.667 62 -152c40.667 -41.333 90.667 -62 150 -62c58.667 0 108.667 20.667 150 62c41.333 40.667 62 90.334 62 149.001s-20.5 108.334 -61.5 149.001
s-91.167 61.334 -150.5 62.001z" />
    <glyph glyph-name="e" unicode="e" horiz-adv-x="1172" 
d="M1096 404l-690 -0.00195312c2 -139.333 68.667 -209 200 -209c39.333 0 70.833 6.5 94.5 19.5s45.834 35.833 66.501 68.5h316c-20.667 -69.333 -48.334 -124.333 -83.001 -165c-44 -51.333 -99.667 -89.666 -167 -114.999c-72.667 -26.667 -149 -40 -229 -40
c-184.667 0 -325.334 58 -422.001 174c-72 86.667 -108 192.667 -108 318c0 100.667 23.333 192.334 70 275.001c84.667 149.333 233.667 224 447 224c146.667 0 263.334 -39 350.001 -117c55.333 -50 95 -108.833 119 -176.5s36 -153.167 36 -256.5zM791 593.998
c-11.333 46 -33.832 82.167 -67.499 108.5s-74.834 39.5 -123.501 39.5c-50 0 -91.167 -13 -123.5 -39s-52.833 -62.333 -61.5 -109h376z" />
    <glyph glyph-name="f" unicode="f" horiz-adv-x="708" 
d="M467 655l-0.00195312 -655h-328v655h-117v273h117v140c0 77.333 7.66699 139 23 185s42.333 89.667 81 131c86.667 92 190 138 310 138c48 0 96.333 -11.333 145 -34v-286c-46 22 -84.333 33 -115 33c-21.333 0 -42.166 -6 -62.499 -18s-34.166 -26.333 -41.499 -43
c-8 -19.333 -12 -62.333 -12 -129v-117h231v-273h-231z" />
    <glyph glyph-name="g" unicode="g" horiz-adv-x="1263" 
d="M1151 928v-863.999c0 -126.667 -15.667 -219.334 -47 -278.001c-49.333 -93.333 -123.333 -161.333 -222 -204c-76 -33.333 -166.333 -50 -271 -50c-181.333 0 -323 54 -425 162c-54.667 58 -88 122.333 -100 193h369c22 -62 74 -93 156 -93
c66 0 117.833 19.667 155.5 59s56.5 93.333 56.5 162v88c-49.333 -45.333 -95.5 -77 -138.5 -95s-94.167 -27 -153.5 -27c-152 0 -271.667 55.333 -359 166c-64.667 82 -97 183 -97 303c0 152 48.333 275.667 145 371c90 88.667 199 133 327 133
c59.333 0 110.5 -9.5 153.5 -28.5s83.833 -50.5 122.5 -94.5v97h328zM627 678.001c-58.667 0 -108.333 -20.6689 -149 -62.002c-41.333 -41.333 -62 -90.333 -62 -147c0 -60 20.667 -110.667 62 -152c40.667 -41.333 90.667 -62 150 -62c58 0 107.667 20.667 149 62
s62 91.333 62 150s-20.333 108.334 -61 149.001s-91 61.334 -151 62.001z" />
    <glyph glyph-name="h" unicode="h" horiz-adv-x="1203" 
d="M112 1502l328 -0.000976562v-691c38 44 73 75 105 93c52.667 30 116.667 45 192 45c112.667 0 202 -34 268 -102c32 -33.333 54.333 -68.666 67 -105.999s19 -87.333 19 -150v-591h-328v470c0 71.333 -6.66699 120 -20 146c-10.667 22 -28.167 39.5 -52.5 52.5
s-50.5 19.5 -78.5 19.5c-57.333 0 -103 -20.667 -137 -62c-23.333 -28.667 -35 -71.667 -35 -129v-497h-328v1502z" />
    <glyph glyph-name="i" unicode="i" horiz-adv-x="552" 
d="M439 928v-928h-328v928h328zM275 1469c51.333 0 95 -18.001 131 -54.001s54 -79.333 54 -130c0 -51.333 -18 -95 -54 -131s-79.333 -54 -130 -54c-52 0 -95.667 18 -131 54c-36 36.667 -54 81 -54 133c0 49.333 18 91.833 54 127.5s79.333 53.834 130 54.501z" />
    <glyph glyph-name="j" unicode="j" horiz-adv-x="552" 
d="M439 928v-1392h-328v1392h328zM275 1469c51.333 0 95 -18.001 131 -54.001s54 -79.333 54 -130c0 -51.333 -18 -95 -54 -131s-79.333 -54 -130 -54c-52 0 -95.667 18 -131 54c-36 36.667 -54 81 -54 133c0 49.333 18 91.833 54 127.5s79.333 53.834 130 54.501z" />
    <glyph glyph-name="k" unicode="k" horiz-adv-x="1264" 
d="M440 1502v-908l343 334h450l-465 -428l493 -500h-460l-361 378v-378h-328v1502h328z" />
    <glyph glyph-name="l" unicode="l" horiz-adv-x="552" 
d="M440 1502v-1502h-328v1502h328z" />
    <glyph glyph-name="m" unicode="m" horiz-adv-x="1795" 
d="M112 928h327.998v-114c48.667 46.667 95.667 79.834 141 99.501s98.333 29.5 159 29.5c72.667 0 134 -13.833 184 -41.5s94 -71.5 132 -131.5c72 116 176.333 174 313 174c54.667 0 105.667 -11.167 153 -33.5s84 -52.833 110 -91.5c34 -50 51 -122 51 -216v-603h-328
v459c0 47.333 -1 79.166 -3 95.499s-6.66699 33.833 -14 52.5c-22.667 54 -62.667 81 -120 81c-27.333 0 -53.5 -8 -78.5 -24s-43.5 -36.333 -55.5 -61c-15.333 -33.333 -23 -81.333 -23 -144v-459h-328v459c0 73.333 -4.66699 122 -14 146
c-9.33301 26 -26.166 47.333 -50.499 64s-50.166 25 -77.499 25c-25.333 0 -50.333 -7.5 -75 -22.5s-42.667 -33.5 -54 -55.5c-14.667 -30 -22 -82.333 -22 -157v-459h-328v928z" />
    <glyph glyph-name="n" unicode="n" horiz-adv-x="1203" 
d="M112 928l328.001 0.00195312v-117c38 44 73 75 105 93c52 29.333 116 44 192 44c113.333 0 202.666 -34 267.999 -102c32 -32.667 54.333 -67.667 67 -105s19 -87.333 19 -150v-591h-328v470c0 71.333 -6.66699 119.666 -20 144.999c-10.667 22 -28.167 39.5 -52.5 52.5
s-50.5 19.5 -78.5 19.5c-57.333 0 -103 -20.667 -137 -62c-23.333 -28.667 -35 -71.334 -35 -128.001v-497h-328v928z" />
    <glyph glyph-name="o" unicode="o" horiz-adv-x="1267" 
d="M633 962c184 0 327.667 -56 431 -168c85.333 -92 128 -202 128 -330c0 -150.667 -56 -274 -168 -370c-100 -86 -232 -129 -396 -129c-104 0 -201.333 22.333 -292 67c-84.667 42 -151 106 -199 192c-41.333 72.667 -62 155.334 -62 248.001
c0 143.333 56 263.666 168 360.999c96.667 83.333 226.667 126.333 390 129zM633 679c-58.667 0 -108.333 -20.667 -149 -62c-41.333 -42 -62 -91.333 -62 -148c0 -60.667 20.667 -112 62 -154c40.667 -41.333 90.667 -62 150 -62c58 0 107.667 20.667 149 62
c41.333 42 62 92.333 62 151c0 59.333 -20.333 109.5 -61 150.5s-91 61.833 -151 62.5z" />
    <glyph glyph-name="p" unicode="p" horiz-adv-x="1270" 
d="M440 -464h-328.001v1392h328v-102c70.667 88 166 132 286 132c78 0 152.333 -19.667 223 -59c78.667 -44 139.667 -104.333 183 -181c42 -74.667 63 -160 63 -256c0 -158 -55 -284.333 -165 -379c-87.333 -75.333 -187.666 -113 -300.999 -113
c-60 0 -113 9.66699 -159 29s-89.333 50 -130 92v-555zM641.999 675c-58.667 0 -108.667 -20.666 -150 -61.999c-41.333 -40.667 -62 -90.334 -62 -149.001c0 -58 20.667 -108 62 -150c41.333 -41.333 91.666 -62 150.999 -62c58.667 0 108.334 20.667 149.001 62
c41.333 42 62 91 62 147c0 60 -20.333 110.5 -61 151.5s-91 61.833 -151 62.5z" />
    <glyph glyph-name="q" unicode="q" horiz-adv-x="1270" 
d="M830 -464l-0.000976562 554.998c-35.333 -36.667 -69.666 -63 -102.999 -79c-58 -28 -120 -42 -186 -42c-136 0 -250.333 51.333 -343 154c-82 90.667 -123 203.334 -123 338.001c0 156.667 53.667 282.334 161 377.001c90 79.333 192.667 119 308 119
c120 0 215.333 -44 286 -132v102h328v-1392h-328zM627.999 674.998c-59.333 0 -109.333 -20.6689 -150 -62.002c-41.333 -41.333 -62 -90.333 -62 -147c0 -59.333 20.667 -110 62 -152c40.667 -41.333 90.667 -62 150 -62c58.667 0 108.667 20.667 150 62s62 91.333 62 150
s-20.5 108.334 -61.5 149.001s-91.167 61.334 -150.5 62.001z" />
    <glyph glyph-name="r" unicode="r" horiz-adv-x="842" 
d="M112 928h328v-152c38 58.667 80.667 100.834 128 126.501s106.333 38.5 177 38.5c16.667 0 37.667 -1 63 -3v-313c-45.333 22 -92 33 -140 33c-76 0 -133 -21.833 -171 -65.5s-57 -108.834 -57 -195.501v-397h-328v928z" />
    <glyph glyph-name="s" unicode="s" horiz-adv-x="922" 
d="M840 901l-110.998 -212.002c-62 30 -121.667 45 -179 45c-29.333 0 -53.333 -6.16699 -72 -18.5s-28 -28.166 -28 -47.499c0 -24.667 17.333 -43.334 52 -56.001c10 -4 41.667 -11.667 95 -23c76.667 -15.333 135 -39 175 -71c63.333 -49.333 95 -117.333 95 -204
c0 -114 -45.333 -203 -136 -267c-78 -54.667 -179.667 -82 -305 -82c-126 0 -249.667 35.667 -371 107l119 232c94 -62.667 181 -94 261 -94c30 0 54.667 6.66699 74 20s29 30.333 29 51c0 23.333 -8.83301 40.5 -26.5 51.5s-55.5 22.5 -113.5 34.5
c-78.667 16.667 -137.334 38 -176.001 64c-64 42.667 -96 107.334 -96 194.001c0 96.667 34.333 176.334 103 239.001c71.333 64.667 174.666 97 309.999 97c104 0 204.333 -20 301 -60z" />
    <glyph glyph-name="t" unicode="t" horiz-adv-x="675" 
d="M478 655v-655h-328v655h-108v273h108v279h328v-279h187v-273h-187z" />
    <glyph glyph-name="u" unicode="u" horiz-adv-x="1212" 
d="M440 928l0.000976562 -526c0 -114.667 55.667 -172 167 -172c110.667 0 166 57.333 166 172v526h328v-589c0 -111.333 -34.333 -198.333 -103 -261c-86.667 -78.667 -217 -118 -391 -118c-174.667 0 -305.334 39.333 -392.001 118c-68.667 62.667 -103 149.667 -103 261
v589h328z" />
    <glyph glyph-name="v" unicode="v" horiz-adv-x="1181" 
d="M369 928l222 -476l223 476h367l-483 -928h-219l-479 928h369z" />
    <glyph glyph-name="w" unicode="w" horiz-adv-x="1857" 
d="M366 928l222 -489l233 489h206l232 -503l233 503h365l-486 -928h-219l-232 509l-222 -509h-221l-477 928h366z" />
    <glyph glyph-name="x" unicode="x" horiz-adv-x="1344" 
d="M464 504l-377 424h427l160 -191l163 191h426l-384 -424l465 -504h-434l-239 276l-238 -276h-433z" />
    <glyph glyph-name="y" unicode="y" horiz-adv-x="1246" 
d="M448 127l-448 801h381l248 -476l241 476h376l-745 -1392h-368z" />
    <glyph glyph-name="z" unicode="z" horiz-adv-x="1067" 
d="M591 273h391v-273h-941l438 655h-379v273h926z" />
    <glyph glyph-name="braceleft" unicode="{" horiz-adv-x="785" 
d="M417 594c47.333 -30.667 79.666 -64.501 96.999 -101.501s26 -89.5 26 -157.5v-278c0 -46.667 1.83301 -77.5 5.5 -92.5s11.834 -26.5 24.501 -34.5c16 -10.667 47.667 -16 95 -16c8 0 20.667 0.333008 38 1v-232c-36 -0.666992 -80.333 -2 -133 -4h-23
c-96 0 -164.833 22.833 -206.5 68.5s-62.5 121.167 -62.5 226.5v342c0 56.667 -8.5 98.167 -25.5 124.5s-46.167 43.833 -87.5 52.5v222c39.333 7.33301 68 23.333 86 48c12.667 18.667 21.667 54.667 27 108v343c0 106.667 20.833 182.5 62.5 227.5
s112.167 67.5 211.5 67.5c4.66699 0 23.667 -0.666992 57 -2c30.667 -1.33301 62 -2.33301 94 -3v-231h-37c-50.667 0 -83.667 -6 -99 -18c-11.333 -8.66699 -18.666 -20.167 -21.999 -34.5s-5 -44.166 -5 -89.499v-279c0 -68.667 -8.33301 -120.5 -25 -155.5
s-49.334 -69.167 -98.001 -102.5z" />
    <glyph glyph-name="bar" unicode="|" 
d="M317 1365h391v-1706h-391v1706z" />
    <glyph glyph-name="braceright" unicode="}" horiz-adv-x="785" 
d="M368 594c-47.333 30.667 -79.668 64.332 -97.001 100.999s-26 89.334 -26 158.001v278c0 46.667 -1.83301 77.5 -5.5 92.5s-11.834 26.5 -24.501 34.5c-16 10.667 -47.333 16 -94 16c-8 0 -20.667 -0.333008 -38 -1v231l132 5h23c96.667 0 165.667 -22.833 207 -68.5
s62 -121.167 62 -226.5v-342c0 -56.667 8.5 -98.334 25.5 -125.001s46.5 -44 88.5 -52v-222c-39.333 -7.33301 -68.333 -23.333 -87 -48c-8 -12 -14.5 -27.667 -19.5 -47s-7.5 -39.666 -7.5 -60.999v-343c0 -106.667 -20.833 -182.5 -62.5 -227.5
s-111.834 -67.5 -210.501 -67.5c-5.33301 0 -24.666 0.666992 -57.999 2c-29.333 1.33301 -60.333 2.33301 -93 3v231c62.667 -0.666992 104.667 3.33301 126 12c14.667 6.66699 24.334 18 29.001 34s7 48 7 96v279c0 68.667 8.33301 120.5 25 155.5
s49.334 69.167 98.001 102.5z" />
    <glyph glyph-name="asciitilde" unicode="~" horiz-adv-x="1365" 
d="M328 1148l-143.999 94.999l41 91c56.667 128.667 146.334 193 269.001 193c45.333 0 116 -18 212 -54c61.333 -22.667 101 -36.5 119 -41.5s37.333 -7.5 58 -7.5c34 0 61.167 7.33301 81.5 22s42.5 42.667 66.5 84l149 -86c-30 -63.333 -55.333 -109.666 -76 -138.999
s-45.334 -54.333 -74.001 -75c-54 -38.667 -112 -58 -174 -58c-36 0 -105.667 18.667 -209 56c-86 30.667 -142 46 -168 46c-34.667 0 -65.334 -11.667 -92.001 -35c-14 -12.667 -33.667 -43 -59 -91z" />
    <glyph glyph-name="nbspace" unicode="&#xa0;" horiz-adv-x="512" 
 />
    <glyph glyph-name="exclamdown" unicode="&#xa1;" horiz-adv-x="696" 
d="M348 1092c58.667 0 108.667 -20.668 150 -62.001s62 -91 62 -149c0 -58.667 -20.667 -108.667 -62 -150s-91 -62 -149 -62c-59.333 0 -109.333 20.667 -150 62c-41.333 41.333 -62 92 -62 152c0 57.333 20.5 106.333 61.5 147s90.833 61.334 149.5 62.001zM178 586.999
h341v-901h-341v901z" />
    <glyph glyph-name="cent" unicode="&#xa2;" horiz-adv-x="1229" 
d="M873 1345l0.000976562 -180c32.667 -6.66699 68 -17 106 -31v-294c-53.333 46 -108.333 69 -165 69c-64.667 0 -118.334 -22.333 -161.001 -67c-40.667 -42.667 -61 -95.334 -61 -158.001c0 -70.667 25.333 -126.667 76 -168c42.667 -34.667 91 -52 145 -52
c64 0 119.333 23.333 166 70v-295c-42 -15.333 -77.333 -24.666 -106 -27.999v-192h-167v179c-122.667 7.33301 -228 55 -316 143c-94.667 94.667 -142 209.667 -142 345c0 129.333 41.333 239.333 124 330c80 88 191.333 141.667 334 161v168h167z" />
    <glyph glyph-name="sterling" unicode="&#xa3;" horiz-adv-x="1229" 
d="M62 525v173h149c-35.333 63.333 -53 135 -53 215c0 124 40.667 231 122 321c52.667 58.667 112.667 99 180 121c71.333 23.333 151 35 239 35c168 0 291.5 -41.333 370.5 -124s118.5 -212.334 118.5 -389.001h-358c5.33301 28.667 8 50 8 64
c0 48.667 -17 89.334 -51 122.001c-33.333 32.667 -72.333 49 -117 49c-49.333 0 -89.833 -18 -121.5 -54s-47.5 -82.667 -47.5 -140c0 -38.667 3.66699 -71.5 11 -98.5s23 -67.5 47 -121.5h307v-173h-256c6 -43.333 9 -81.333 9 -114c0 -34.667 -6 -71.667 -18 -111
c106 -31.333 173.833 -50.5 203.5 -57.5s58.5 -10.5 86.5 -10.5c57.333 0 87.333 29.667 90 89h220c-4 -60.667 -16.333 -114 -37 -160c-26 -58.667 -59 -102.667 -99 -132c-52 -38.667 -119.667 -58 -203 -58c-30 0 -59.333 3 -88 9s-80.334 20 -155.001 42
c-102.667 30 -179 45 -229 45c-61.333 0 -99.666 -22.333 -114.999 -67h-234c21.333 89.333 52 158.333 92 207c65.333 76 138 114 218 114c12 24.667 18 47.334 18 68.001c0 45.333 -12.333 90.666 -37 135.999h-270z" />
    <glyph glyph-name="currency" unicode="&#xa4;" horiz-adv-x="1365" 
d="M42 281l210 211c-59.333 87.333 -89 181 -89 281c0 98 30.333 192 91 282l-214 213l145 145l213 -213c92 59.333 187.333 89 286 89c98 0 191.667 -29 281 -87l211 209l144 -144l-209 -209c62 -97.333 93 -192.333 93 -285c0 -96 -29.667 -189.333 -89 -280l211 -211
l-143 -144l-210 210c-92 -61.333 -189 -92 -291 -92c-94 0 -189.667 30.333 -287 91l-210 -209zM687 1052c-78.667 0 -145.336 -27.332 -200.003 -81.999c-54 -54 -81 -120 -81 -198c0 -76.667 27 -142.334 81 -197.001c54.667 -54.667 120.334 -82 197.001 -82
s142.334 27.333 197.001 82c54 54.667 81 120.667 81 198c0 78 -27.333 143.667 -82 197c-53.333 52.667 -117.666 80 -192.999 82z" />
    <glyph glyph-name="yen" unicode="&#xa5;" horiz-adv-x="1229" 
d="M109 675v214h187l-289 476h404l206 -392l196 392h409l-300 -476h198v-214h-333l-12 -19v-109h345v-214h-345v-333h-337v333h-329v214h329v109l-11 19h-318z" />
    <glyph glyph-name="brokenbar" unicode="&#xa6;" 
d="M317 1365h391v-740h-391v740zM317 314h391v-655h-391v655z" />
    <glyph glyph-name="section" unicode="&#xa7;" horiz-adv-x="1229" 
d="M1026 1133l-284.997 0.000976562c-2.66699 36 -7 61.333 -13 76c-20 50.667 -56.333 76 -109 76c-32 0 -59.167 -10.5 -81.5 -31.5s-33.5 -46.167 -33.5 -75.5c0 -31.333 13.167 -57.333 39.5 -78s81.5 -48.334 165.5 -83.001c78 -32 134.333 -57.833 169 -77.5
s66 -43.5 94 -71.5c64 -64 96 -143.667 96 -239c0 -71.333 -15.5 -132.166 -46.5 -182.499s-85.167 -101.833 -162.5 -154.5c63.333 -41.333 104.666 -83 123.999 -125c20.667 -43.333 31 -89 31 -137c0 -93.333 -33.333 -173.666 -100 -240.999
c-76 -77.333 -177.333 -116 -304 -116c-120 0 -216.667 34.333 -290 103c-40.667 38 -69.5 78.667 -86.5 122s-27.167 102 -30.5 176h291c0.666992 -38.667 4 -66.334 10 -83.001c20 -54 59 -81 117 -81c35.333 0 65.166 11.833 89.499 35.5s36.5 52.834 36.5 87.501
c0 43.333 -17.667 77.666 -53 102.999c-27.333 19.333 -78.666 41.333 -153.999 66c-74.667 24.667 -130 46.334 -166 65.001s-68.333 42.334 -97 71.001c-67.333 66 -101 152.667 -101 260c0 84 21 156.667 63 218c24 34 69 69.667 135 107
c-62.667 45.333 -103 90 -121 134c-16.667 41.333 -25 83.666 -25 126.999c0 92 31.667 169 95 231c69.333 67.333 165.333 101 288 101c81.333 0 155.166 -15.333 221.499 -46s114.166 -71.334 143.499 -122.001c30 -52.667 46.667 -124.334 50 -215.001zM622.003 754.001
c-42.667 0 -78.501 -14.501 -107.501 -43.501s-43.5 -64.167 -43.5 -105.5s14.667 -76.5 44 -105.5s64.333 -43.5 105 -43.5c41.333 0 76.5 14.5 105.5 43.5s43.5 64.167 43.5 105.5c0 40.667 -14.167 75.334 -42.5 104.001s-63.166 43.667 -104.499 45z" />
    <glyph glyph-name="dieresis" unicode="&#xa8;" 
d="M280 1427c49.333 0 91.333 -17.332 126 -51.999s52 -76.334 52 -125.001c0 -49.333 -17.333 -91.333 -52 -126s-76.334 -52 -125.001 -52c-50 0 -92.167 17.5 -126.5 52.5s-51.5 77.5 -51.5 127.5c0 48 17.333 89 52 123s76.334 51.333 125.001 52zM744 1427
c49.333 0 91.333 -17.168 126 -51.501s52 -76.166 52 -125.499s-17.333 -91.333 -52 -126s-76.334 -52 -125.001 -52c-50 0 -92.167 17.5 -126.5 52.5s-51.5 77.5 -51.5 127.5c0 48 17.333 89 52 123s76.334 51.333 125.001 52z" />
    <glyph glyph-name="copyright" unicode="&#xa9;" horiz-adv-x="1556" 
d="M790 1396c127.333 0 247.333 -34.999 360 -104.999c113.333 -70.667 200 -165.334 260 -284.001c52 -102.667 78 -211 78 -325c0 -134 -34.667 -258 -104 -372s-163 -201.333 -281 -262c-101.333 -52.667 -209 -79 -323 -79c-132.667 0 -255.667 34.333 -369 103
c-114.667 70 -202.667 165 -264 285c-52.667 102.667 -79 211 -79 325c0 135.333 35 260.333 105 375c68.667 113.333 164 201 286 263c100.667 50.667 211 76 331 76zM788 1268c-161.333 0 -297.668 -56.333 -409.001 -169c-112.667 -114 -169 -253 -169 -417
c0 -162 56.333 -300.333 169 -415c111.333 -113.333 244.666 -170 399.999 -170c156.667 0 290.334 57.333 401.001 172c110.667 114 166 251.667 166 413c0 110 -28 212.333 -84 307c-54 92 -128.667 163.667 -224 215c-75.333 40 -158.666 61.333 -249.999 64zM1027 1065
l0.00195312 -292l-43 48c-42.667 40.667 -95.667 61 -159 61c-57.333 0 -105 -18.333 -143 -55c-39.333 -36.667 -59 -86.334 -59 -149.001c0 -57.333 17.667 -103.666 53 -138.999c40.667 -40 90.334 -60 149.001 -60c57.333 0 108.666 18.667 153.999 56
c5.33301 4.66699 21.333 19.667 48 45v-286c-89.333 -28 -159.333 -42 -210 -42c-78 0 -152.667 19 -224 57c-151.333 80 -227 203 -227 369c0 84 22 160 66 228c41.333 64.667 98.666 115.667 171.999 153c67.333 33.333 137.666 50 210.999 50
c61.333 0 132 -14.667 212 -44z" />
    <glyph glyph-name="ordfeminine" unicode="&#xaa;" horiz-adv-x="743" 
d="M486 1348h192v-542h-192v59c-41.333 -51.333 -97 -77 -167 -77c-79.333 0 -147 30.333 -203 91c-48 52 -72 118.333 -72 199c0 92.667 32 166.667 96 222c50.667 43.333 109.667 65 177 65c68 0 124.333 -23.333 169 -70v53zM367 1200
c-34 0 -63.167 -12.001 -87.5 -36.001s-36.5 -52.667 -36.5 -86c0 -34.667 12 -64.167 36 -88.5s53.333 -36.5 88 -36.5c34 0 63.167 12.167 87.5 36.5s36.5 53.5 36.5 87.5s-12 62.833 -36 86.5s-53.333 35.834 -88 36.501zM64 702.999h620v-123h-620v123z" />
    <glyph glyph-name="guillemotleft" unicode="&#xab;" horiz-adv-x="1087" 
d="M772 467l233 -315l-186 -131l-311 446l311 444l181 -124zM321 467l234 -315l-187 -131l-311 446l311 444l181 -124z" />
    <glyph glyph-name="logicalnot" unicode="&#xac;" 
d="M577 0v270h-509v340h887v-610h-378z" />
    <glyph glyph-name="sfthyphen" unicode="&#xad;" horiz-adv-x="519" 
d="M0 621h519v-273h-519v273z" />
    <glyph glyph-name="registered" unicode="&#xae;" horiz-adv-x="1556" 
d="M790 1396c127.333 0 247.333 -34.999 360 -104.999c113.333 -70.667 200 -165.334 260 -284.001c52 -102.667 78 -211 78 -325c0 -134 -34.667 -258 -104 -372s-163 -201.333 -281 -262c-101.333 -52.667 -209 -79 -323 -79c-132.667 0 -255.667 34.333 -369 103
c-114.667 70 -202.667 165 -264 285c-52.667 102.667 -79 211 -79 325c0 135.333 35 260.333 105 375c68.667 113.333 164 201 286 263c100.667 50.667 211 76 331 76zM788 1268c-161.333 0 -297.668 -56.333 -409.001 -169c-112.667 -114 -169 -253 -169 -417
c0 -162 56.333 -300.333 169 -415c111.333 -113.333 244.666 -170 399.999 -170c156.667 0 290.334 57.333 401.001 172c110.667 114 166 251.667 166 413c0 110 -28 212.333 -84 307c-54 92 -128.667 163.667 -224 215c-75.333 40 -158.666 61.333 -249.999 64z
M893.998 603.001l270 -329.999h-310l-189 274v-274h-247v819h356c94.667 0 166.667 -24.667 216 -74c51.333 -50.667 77 -112.334 77 -185.001c0 -58 -14.667 -106.5 -44 -145.5s-72.333 -67.167 -129 -84.5zM664.998 738.002l28 -0.000976562c38 0 66.667 6.33301 86 19
c23.333 15.333 35 37 35 65c0 26.667 -10.667 47.334 -32 62.001s-51 22 -89 22h-28v-168z" />
    <glyph glyph-name="overscore" unicode="&#xaf;" 
d="M0 1821h1024v-225h-1024v225z" />
    <glyph glyph-name="degree" unicode="&#xb0;" horiz-adv-x="1229" 
d="M614 1385c75.333 0 139.666 -26.6699 192.999 -80.0029s80 -117.666 80 -192.999s-26.667 -139.666 -80 -192.999s-117.666 -80 -192.999 -80c-76 0 -140.333 26.667 -193 80c-53.333 54 -80 119.667 -80 197c0 73.333 26.5 136.333 79.5 189s117.5 79.334 193.5 80.001z
M614 1243c-36 0 -66.833 -12.667 -92.5 -38s-38.5 -55.666 -38.5 -90.999c0 -36.667 12.667 -67.834 38 -93.501s56.333 -38.5 93 -38.5c36 0 66.667 12.667 92 38s38 56 38 92c0 36.667 -12.5 67.5 -37.5 92.5s-55.833 37.833 -92.5 38.5z" />
    <glyph glyph-name="plusminus" unicode="&#xb1;" horiz-adv-x="1229" 
d="M130 887h369v369h232v-369h368v-232h-368v-327h-232v327h-369v232zM130 232h969v-232h-969v232z" />
    <glyph glyph-name="twosuperior" unicode="&#xb2;" horiz-adv-x="819" 
d="M480 737l253 0.00195312v-191h-670l216 226c143.333 149.333 215 262 215 338c0 26.667 -8.5 49.5 -25.5 68.5s-37.5 28.5 -61.5 28.5c-23.333 0 -42.333 -8.5 -57 -25.5s-22 -39.167 -22 -66.5c0 -8.66699 1.33301 -22 4 -40h-245c0 37.333 5 71.666 15 102.999
c22.667 75.333 61.667 131.666 117 168.999c52 34.667 114.333 52 187 52c96 0 173.333 -29 232 -87c57.333 -56 86 -126 86 -210c0 -92 -40.333 -175.667 -121 -251z" />
    <glyph glyph-name="threesuperior" unicode="&#xb3;" horiz-adv-x="819" 
d="M363 897l0.00195312 158.999c13.333 -1.33301 23.333 -2 30 -2c24.667 0 44.5 7.5 59.5 22.5s22.5 34.833 22.5 59.5c0 21.333 -7 38.833 -21 52.5s-32 20.5 -54 20.5c-51.333 0 -77.333 -30.333 -78 -91h-208c6.66699 58 20.667 105.333 42 142
c25.333 44 60.333 77 105 99c47.333 24 99.666 36 156.999 36c80.667 0 145.667 -22.333 195 -67c47.333 -43.333 71 -100.666 71 -171.999c0 -74.667 -25.333 -129.667 -76 -165c36 -13.333 65.333 -39.333 88 -78s34 -81.667 34 -129c0 -94 -39 -166.333 -117 -217
c-57.333 -37.333 -125.666 -56 -204.999 -56c-132.667 0 -230.334 53.667 -293.001 161c-28 47.333 -42.333 96 -43 146h227c4 -74.667 40.333 -112 109 -112c29.333 0 53.666 9.33301 72.999 28s29 42 29 70s-10.167 51.833 -30.5 71.5s-44.833 29.5 -73.5 29.5
c-10 0 -24.333 -2.66699 -43 -8z" />
    <glyph glyph-name="acute" unicode="&#xb4;" 
d="M828 1344l-315 -279l-152 112l259 316z" />
    <glyph glyph-name="mu" unicode="&#xb5;" horiz-adv-x="1212" 
d="M440 -464l-328 -0.000976562v1392h328v-530c0 -55.333 14 -97.166 42 -125.499s69.667 -42.5 125 -42.5c110.667 0 166 57.333 166 172v526h328v-589c0 -113.333 -34.333 -200 -103 -260c-89.333 -79.333 -212.333 -119 -369 -119c-78 0 -150 11.667 -216 35z" />
    <glyph glyph-name="paragraph" unicode="&#xb6;" horiz-adv-x="1229" 
d="M379 -188l-0.000976562 845.001h-26c-43.333 0 -87.166 7.16699 -131.499 21.5s-81.833 33.5 -112.5 57.5c-79.333 62 -119 151.667 -119 269c0 78.667 19 146.667 57 204c35.333 53.333 86.833 92.666 154.5 117.999s154.5 38 260.5 38h683v-202h-150v-1351h-223v1351
h-170v-1351h-223z" />
    <glyph glyph-name="middot" unicode="&#xb7;" horiz-adv-x="621" 
d="M310 696c58.667 0 108.667 -20.668 150 -62.001s62 -91 62 -149c0 -58.667 -20.667 -108.667 -62 -150s-91 -62 -149 -62c-59.333 0 -109.333 20.667 -150 62c-41.333 42 -62 92.667 -62 152c0 57.333 20.5 106.333 61.5 147s90.833 61.334 149.5 62.001z" />
    <glyph glyph-name="cedilla" unicode="&#xb8;" 
d="M808 -225l-279 -264l-148 93l240 293z" />
    <glyph glyph-name="onesuperior" unicode="&#xb9;" horiz-adv-x="819" 
d="M324 1174h-115v191h338v-819h-223v628z" />
    <glyph glyph-name="ordmasculine" unicode="&#xba;" horiz-adv-x="740" 
d="M370 1368c107.333 0 191.333 -33 252 -99c50 -53.333 75 -117.666 75 -192.999c0 -87.333 -32.667 -159.333 -98 -216c-58.667 -50 -136 -75 -232 -75c-105.333 0 -188 32.667 -248 98c-50 54 -75 120 -75 198c0 84 32.667 154.333 98 211
c56.667 49.333 132.667 74.666 228 75.999zM370 1200c-34 0 -63.167 -12.002 -87.5 -36.002s-36.5 -52.667 -36.5 -86c0 -34.667 12.167 -64.167 36.5 -88.5s53.833 -36.5 88.5 -36.5c34 0 63.167 12 87.5 36s36.5 53 36.5 87c0 34.667 -12 63.834 -36 87.501
s-53.667 35.834 -89 36.501zM60 702.998h620v-123h-620v123z" />
    <glyph glyph-name="guillemotright" unicode="&#xbb;" horiz-adv-x="1087" 
d="M315 467l-228 320l182 124l311 -444l-311 -446l-187 131zM766 467l-228 320l181 124l311 -444l-311 -446l-186 131z" />
    <glyph glyph-name="onequarter" unicode="&#xbc;" horiz-adv-x="1994" 
d="M323 1174h-115v191h338v-819h-223v628zM1303 1365h177l-792 -1365h-177zM1825 340h98v-175h-98v-165h-208v165h-390v144l313 510h285v-479zM1617 340v279l-170 -279h170z" />
    <glyph glyph-name="onehalf" unicode="&#xbd;" horiz-adv-x="1993" 
d="M323 1174h-115v191h338v-819h-223v628zM1303 1365h177l-792 -1365h-177zM1652 191l253 -0.000976562v-191h-670l216 226c73.333 76.667 127.5 142.334 162.5 197.001s52.5 101.334 52.5 140.001c0 26.667 -8.5 49.5 -25.5 68.5s-37.5 28.5 -61.5 28.5
c-23.333 0 -42.333 -8.5 -57 -25.5s-22 -39.167 -22 -66.5c0 -8 1.33301 -21.333 4 -40h-245c0 37.333 5 72 15 104c22.667 75.333 61.667 131.666 117 168.999c52 34.667 114.333 52 187 52c96 0 173.333 -29 232 -87c57.333 -56.667 86 -127 86 -211
c0 -92 -40.333 -175.333 -121 -250z" />
    <glyph glyph-name="threequarters" unicode="&#xbe;" horiz-adv-x="1994" 
d="M363 897l0.00195312 158.998c13.333 -1.33301 23.333 -2 30 -2c24.667 0 44.5 7.5 59.5 22.5s22.5 34.833 22.5 59.5c0 21.333 -7 38.833 -21 52.5s-32 20.5 -54 20.5c-51.333 0 -77.333 -30.333 -78 -91h-208c6.66699 58 20.667 105.333 42 142
c25.333 43.333 60.333 76.333 105 99c47.333 24 99.666 36 156.999 36c80.667 0 145.667 -22.333 195 -67c47.333 -43.333 71 -100.666 71 -171.999c0 -74.667 -25.333 -129.667 -76 -165c36 -14 65.333 -40.167 88 -78.5s34 -81.166 34 -128.499
c0 -94.667 -39 -167 -117 -217c-57.333 -37.333 -125.666 -56 -204.999 -56c-132.667 0 -230.334 53.667 -293.001 161c-28 47.333 -42.333 96 -43 146h227c4 -74.667 40.333 -112 109 -112c29.333 0 53.666 9.16699 72.999 27.5s29 41.833 29 70.5
c0 28 -10.167 51.833 -30.5 71.5s-44.833 29.5 -73.5 29.5c-10.667 0 -25 -2.66699 -43 -8zM1303 1365h178l-792 -1365h-178zM1825 339.998h99v-175h-99v-165h-208v165h-390v144l313 510h285v-479zM1617 339.998v279l-170 -279h170z" />
    <glyph glyph-name="questiondown" unicode="&#xbf;" horiz-adv-x="1117" 
d="M740 595v-352.999c-28.667 6.66699 -53 10 -73 10c-67.333 0 -123.5 -17.333 -168.5 -52s-67.5 -77.667 -67.5 -129c0 -38 12.833 -69.833 38.5 -95.5s57.834 -38.5 96.501 -38.5c37.333 0 66.666 12.167 87.999 36.5s32.666 58.166 33.999 101.499h361
c-2 -98 -32.333 -182.667 -91 -254c-44.667 -55.333 -104 -98 -178 -128c-70 -28.667 -143.667 -43 -221 -43c-136.667 0 -250 42.333 -340 127c-43.333 40.667 -77.166 87.667 -101.499 141s-36.5 107 -36.5 161c0 57.333 13 112.333 39 165s61.333 96 106 130
c45.333 34 106 64.333 182 91v130h332zM565 1092c58.667 0 108.667 -20.667 150 -62s62 -92 62 -152c0 -57.333 -20.833 -106.5 -62.5 -147.5s-91.167 -61.5 -148.5 -61.5c-58.667 0 -108.667 20.667 -150 62s-62 91 -62 149c0 58.667 20.333 108.5 61 149.5
s90.667 61.833 150 62.5z" />
    <glyph glyph-name="Agrave" unicode="&#xc0;" horiz-adv-x="1454" 
d="M973 238h-490l-94 -238h-375l525 1365h387l514 -1365h-379zM877 508l-147 435l-149 -435h296zM402 1712l190 173l296 -282l-138 -128z" />
    <glyph glyph-name="Aacute" unicode="&#xc1;" horiz-adv-x="1454" 
d="M973 238h-490l-94 -238h-375l525 1365h387l514 -1365h-379zM877 508l-147 435l-149 -435h296zM1066 1712l-348 -237l-138 128l296 282z" />
    <glyph glyph-name="Acircumflex" unicode="&#xc2;" horiz-adv-x="1454" 
d="M973 238h-490l-94 -238h-375l525 1365h387l514 -1365h-379zM877 508l-147 435l-149 -435h296zM310 1630l417 246l417 -246l-98 -155l-319 160l-319 -160z" />
    <glyph glyph-name="Atilde" unicode="&#xc3;" horiz-adv-x="1454" 
d="M973 238h-490l-94 -238h-375l525 1365h387l514 -1365h-379zM877 508l-147 435l-149 -435h296zM498 1509l-170.998 -0.000976562c0.666992 64 10 116.667 28 158c18 40.667 45.167 72.834 81.5 96.501s76.5 35.5 120.5 35.5c37.333 0 99.666 -14 186.999 -42
c59.333 -19.333 102 -29 128 -29c39.333 0 65.666 24.667 78.999 74h178c-8.66699 -78.667 -21.334 -134.334 -38.001 -167.001c-42.667 -84 -114.667 -126 -216 -126c-47.333 0 -103.666 11.667 -168.999 35c-70 24.667 -115.667 37 -137 37s-36.5 -4.66699 -45.5 -14
s-17.5 -28.666 -25.5 -57.999z" />
    <glyph glyph-name="Adieresis" unicode="&#xc4;" horiz-adv-x="1454" 
d="M973 238h-490l-94 -238h-375l525 1365h387l514 -1365h-379zM877 508l-147 435l-149 -435h296zM481 1850c49.333 0 91.333 -17.332 126 -51.999s52 -76.334 52 -125.001c0 -49.333 -17.333 -91.333 -52 -126s-76.334 -52 -125.001 -52c-50 0 -92.167 17.5 -126.5 52.5
s-51.5 77.5 -51.5 127.5c0 48 17.333 89 52 123s76.334 51.333 125.001 52zM973 1850c49.333 0 91.333 -17.332 126 -51.999s52 -76.334 52 -125.001c0 -49.333 -17.333 -91.333 -52 -126s-76.334 -52 -125.001 -52c-50 0 -92.167 17.5 -126.5 52.5s-51.5 77.5 -51.5 127.5
c0 48 17.333 89 52 123s76.334 51.333 125.001 52z" />
    <glyph glyph-name="Aring" unicode="&#xc5;" horiz-adv-x="1454" 
d="M973 238h-490l-94 -238h-375l525 1365h387l514 -1365h-379zM877 508l-147 435l-149 -435h296zM720 1892l14 0.000976562c95.333 0 167.333 -23.333 216 -70c39.333 -36.667 59 -84.334 59 -143.001c0 -57.333 -19.667 -104.666 -59 -141.999
c-48.667 -46.667 -120.667 -70 -216 -70h-14c-94.667 0 -166.334 23.333 -215.001 70c-39.333 37.333 -59 85.666 -59 144.999c0 56 19.667 102.667 59 140c48.667 46.667 120.334 70 215.001 70zM726 1758c-32 0 -57.333 -7.00098 -76 -21.001s-28 -32.667 -28 -56
c0 -24.667 9.33301 -44 28 -58s44 -21 76 -21c33.333 0 59.5 7 78.5 21s28.5 33 28.5 57c0 24.667 -9.5 43.834 -28.5 57.501s-45.167 20.5 -78.5 20.5z" />
    <glyph glyph-name="AE" unicode="&#xc6;" horiz-adv-x="1892" 
d="M966 240h-493l-85 -240h-374l526 1365h836l110 -300h-449l84 -228h448l113 -300h-450l89 -237h448l109 -300h-823zM872 509l-148 405l-153 -405h301z" />
    <glyph glyph-name="Ccedilla" unicode="&#xc7;" horiz-adv-x="1208" 
d="M1126 1325l-0.00292969 -425c-81.333 100 -183.666 150 -306.999 150c-108 0 -198 -38 -270 -114c-64 -66.667 -96 -154 -96 -262c0 -116.667 40 -208.667 120 -276c72 -60.667 153.667 -91 245 -91c114.667 0 217.334 47.667 308.001 143v-420
c-84 -28 -145.667 -46.167 -185 -54.5s-83.666 -12.5 -132.999 -12.5c-125.333 0 -245.666 31.667 -360.999 95c-122.667 67.333 -215.334 157 -278.001 269c-58 102 -87 216.667 -87 344c0 142.667 35.333 270.667 106 384c66.667 108 159 192.667 277 254
c108 56.667 221.333 85 340 85c97.333 0 204.333 -23 321 -69zM920.997 -236l-283 -276l-159 111l240 307z" />
    <glyph glyph-name="Egrave" unicode="&#xc8;" horiz-adv-x="1002" 
d="M920 1065h-422v-228h399v-300h-399v-237h422v-300h-777v1365h777v-300zM244 1712l190 173l296 -282l-138 -128z" />
    <glyph glyph-name="Eacute" unicode="&#xc9;" horiz-adv-x="1002" 
d="M920 1065h-422v-228h399v-300h-399v-237h422v-300h-777v1365h777v-300zM853 1712l-348 -237l-138 128l296 282z" />
    <glyph glyph-name="Ecircumflex" unicode="&#xca;" horiz-adv-x="1002" 
d="M920 1065h-422v-228h399v-300h-399v-237h422v-300h-777v1365h777v-300zM115 1630l417 246l417 -246l-98 -155l-319 160l-319 -160z" />
    <glyph glyph-name="Edieresis" unicode="&#xcb;" horiz-adv-x="1002" 
d="M920 1065h-422v-228h399v-300h-399v-237h422v-300h-777v1365h777v-300zM293 1850c49.333 0 91.333 -17.332 126 -51.999s52 -76.334 52 -125.001c0 -49.333 -17.333 -91.333 -52 -126s-76.334 -52 -125.001 -52c-50 0 -92.167 17.5 -126.5 52.5s-51.5 77.5 -51.5 127.5
c0 48 17.333 89 52 123s76.334 51.333 125.001 52zM785 1850c49.333 0 91.333 -17.332 126 -51.999s52 -76.334 52 -125.001c0 -49.333 -17.333 -91.333 -52 -126s-76.334 -52 -125.001 -52c-50 0 -92.167 17.5 -126.5 52.5s-51.5 77.5 -51.5 127.5c0 48 17.333 89 52 123
s76.334 51.333 125.001 52z" />
    <glyph glyph-name="Igrave" unicode="&#xcc;" horiz-adv-x="642" 
d="M498 1365v-1365h-355v1365h355zM-11 1712l190 173l296 -282l-138 -128z" />
    <glyph glyph-name="Iacute" unicode="&#xcd;" horiz-adv-x="642" 
d="M498 1365v-1365h-355v1365h355zM652 1712l-348 -237l-138 128l296 282z" />
    <glyph glyph-name="Icircumflex" unicode="&#xce;" horiz-adv-x="642" 
d="M498 1365v-1365h-355v1365h355zM-69 1630l390 246l389 -246l-98 -155l-291 160l-292 -160z" />
    <glyph glyph-name="Idieresis" unicode="&#xcf;" horiz-adv-x="642" 
d="M499 1365v-1365h-355v1365h355zM109 1850c49.333 0 91.333 -17.332 126 -51.999s52 -76.334 52 -125.001c0 -49.333 -17.333 -91.333 -52 -126s-76.334 -52 -125.001 -52c-50 0 -92.167 17.5 -126.5 52.5s-51.5 77.5 -51.5 127.5c0 48 17.333 89 52 123
s76.334 51.333 125.001 52zM532 1850c49.333 0 91.333 -17.332 126 -51.999s52 -76.334 52 -125.001c0 -49.333 -17.333 -91.333 -52 -126s-76.334 -52 -125.001 -52c-50 0 -92.167 17.5 -126.5 52.5s-51.5 77.5 -51.5 127.5c0 48 17.333 89 52 123
s76.334 51.333 125.001 52z" />
    <glyph glyph-name="Eth" unicode="&#xd0;" horiz-adv-x="1423" 
d="M143 0v587h-123v232h123v546h524c170.667 0 320.334 -60.333 449.001 -181c73.333 -68 129.666 -148 168.999 -240c36.667 -86 55 -173 55 -261c0 -128.667 -36.667 -250.667 -110 -366c-72.667 -114 -168.667 -199 -288 -255c-88 -41.333 -179.667 -62 -275 -62h-524z
M498 300h82c66 0 122 9 168 27s86.667 47 122 87c66 74 99 163.667 99 269c0 104.667 -33 194 -99 268c-35.333 40 -76 69 -122 87s-102 27 -168 27h-82v-246h232v-232h-232v-287z" />
    <glyph glyph-name="Ntilde" unicode="&#xd1;" horiz-adv-x="1649" 
d="M143 0v1365h355l653 -835v835h355v-1365h-355l-653 836v-836h-355zM609 1509l-170.998 -0.000976562c0.666992 64 10 116.667 28 158c18 40.667 45.167 72.834 81.5 96.501s76.5 35.5 120.5 35.5c37.333 0 99.666 -14 186.999 -42c59.333 -19.333 102 -29 128 -29
c39.333 0 65.666 24.667 78.999 74h178c-8.66699 -78.667 -21.334 -134.334 -38.001 -167.001c-42.667 -84 -114.667 -126 -216 -126c-47.333 0 -103.666 11.667 -168.999 35c-70 24.667 -115.667 37 -137 37s-36.5 -4.66699 -45.5 -14s-17.5 -28.666 -25.5 -57.999z" />
    <glyph glyph-name="Ograve" unicode="&#xd2;" horiz-adv-x="1675" 
d="M837 1406c228 0 414.333 -76.3359 559 -229.003c131.333 -138 197 -304 197 -498c0 -133.333 -33 -256.333 -99 -369c-70.667 -121.333 -168.334 -213.666 -293.001 -276.999c-108 -54.667 -231.333 -82 -370 -82c-224.667 0 -408.667 76 -552 228
c-131.333 138.667 -197 309.334 -197 512.001c0 127.333 33 246 99 356c140.667 234.667 359.334 354.334 656.001 359.001zM837 1062c-106 0 -196 -37.3311 -270 -111.998c-75.333 -76 -113 -165 -113 -267c0 -108 37.667 -200 113 -276c74 -74.667 164.333 -112 271 -112
c106 0 196.667 37.333 272 112c74.667 75.333 112 166 112 272c0 107.333 -37.333 197.666 -112 270.999c-75.333 73.333 -166.333 110.666 -273 111.999zM526 1712l190 173l296 -282l-138 -128z" />
    <glyph glyph-name="Oacute" unicode="&#xd3;" horiz-adv-x="1675" 
d="M837 1406c228 0 414.333 -76.3359 559 -229.003c131.333 -138 197 -304 197 -498c0 -133.333 -33 -256.333 -99 -369c-70.667 -121.333 -168.334 -213.666 -293.001 -276.999c-108 -54.667 -231.333 -82 -370 -82c-224.667 0 -408.667 76 -552 228
c-131.333 138.667 -197 309.334 -197 512.001c0 127.333 33 246 99 356c140.667 234.667 359.334 354.334 656.001 359.001zM837 1062c-106 0 -196 -37.3311 -270 -111.998c-75.333 -76 -113 -165 -113 -267c0 -108 37.667 -200 113 -276c74 -74.667 164.333 -112 271 -112
c106 0 196.667 37.333 272 112c74.667 75.333 112 166 112 272c0 107.333 -37.333 197.666 -112 270.999c-75.333 73.333 -166.333 110.666 -273 111.999zM1162 1712l-348 -237l-138 128l296 282z" />
    <glyph glyph-name="Ocircumflex" unicode="&#xd4;" horiz-adv-x="1675" 
d="M837 1406c228 0 414.333 -76.3359 559 -229.003c131.333 -138 197 -304 197 -498c0 -133.333 -33 -256.333 -99 -369c-70.667 -121.333 -168.334 -213.666 -293.001 -276.999c-108 -54.667 -231.333 -82 -370 -82c-224.667 0 -408.667 76 -552 228
c-131.333 138.667 -197 309.334 -197 512.001c0 127.333 33 246 99 356c140.667 234.667 359.334 354.334 656.001 359.001zM837 1062c-106 0 -196 -37.3311 -270 -111.998c-75.333 -76 -113 -165 -113 -267c0 -108 37.667 -200 113 -276c74 -74.667 164.333 -112 271 -112
c106 0 196.667 37.333 272 112c74.667 75.333 112 166 112 272c0 107.333 -37.333 197.666 -112 270.999c-75.333 73.333 -166.333 110.666 -273 111.999zM421 1630l417 246l417 -246l-98 -155l-319 160l-319 -160z" />
    <glyph glyph-name="Otilde" unicode="&#xd5;" horiz-adv-x="1675" 
d="M837 1406c228 0 414.333 -76.3359 559 -229.003c131.333 -138 197 -304 197 -498c0 -133.333 -33 -256.333 -99 -369c-70.667 -121.333 -168.334 -213.666 -293.001 -276.999c-108 -54.667 -231.333 -82 -370 -82c-224.667 0 -408.667 76 -552 228
c-131.333 138.667 -197 309.334 -197 512.001c0 127.333 33 246 99 356c140.667 234.667 359.334 354.334 656.001 359.001zM837 1062c-106 0 -196 -37.3311 -270 -111.998c-75.333 -76 -113 -165 -113 -267c0 -108 37.667 -200 113 -276c74 -74.667 164.333 -112 271 -112
c106 0 196.667 37.333 272 112c74.667 75.333 112 166 112 272c0 107.333 -37.333 197.666 -112 270.999c-75.333 73.333 -166.333 110.666 -273 111.999zM622 1509l-170.998 -0.000976562c0.666992 64 10 116.667 28 158c18 40.667 45.167 72.834 81.5 96.501
s76.5 35.5 120.5 35.5c37.333 0 99.666 -14 186.999 -42c59.333 -19.333 102 -29 128 -29c39.333 0 65.666 24.667 78.999 74h178c-8.66699 -78.667 -21.334 -134.334 -38.001 -167.001c-42.667 -84 -114.667 -126 -216 -126c-47.333 0 -103.666 11.667 -168.999 35
c-70 24.667 -115.667 37 -137 37s-36.5 -4.66699 -45.5 -14s-17.5 -28.666 -25.5 -57.999z" />
    <glyph glyph-name="Odieresis" unicode="&#xd6;" horiz-adv-x="1675" 
d="M837 1406c228 0 414.333 -76.3359 559 -229.003c131.333 -138 197 -304 197 -498c0 -133.333 -33 -256.333 -99 -369c-70.667 -121.333 -168.334 -213.666 -293.001 -276.999c-108 -54.667 -231.333 -82 -370 -82c-224.667 0 -408.667 76 -552 228
c-131.333 138.667 -197 309.334 -197 512.001c0 127.333 33 246 99 356c140.667 234.667 359.334 354.334 656.001 359.001zM837 1062c-106 0 -196 -37.3311 -270 -111.998c-75.333 -76 -113 -165 -113 -267c0 -108 37.667 -200 113 -276c74 -74.667 164.333 -112 271 -112
c106 0 196.667 37.333 272 112c74.667 75.333 112 166 112 272c0 107.333 -37.333 197.666 -112 270.999c-75.333 73.333 -166.333 110.666 -273 111.999zM592 1850c49.333 0 91.333 -17.332 126 -51.999s52 -76.334 52 -125.001c0 -49.333 -17.333 -91.333 -52 -126
s-76.334 -52 -125.001 -52c-50 0 -92.167 17.5 -126.5 52.5s-51.5 77.5 -51.5 127.5c0 48 17.333 89 52 123s76.334 51.333 125.001 52zM1084 1850c49.333 0 91.333 -17.332 126 -51.999s52 -76.334 52 -125.001c0 -49.333 -17.333 -91.333 -52 -126
s-76.334 -52 -125.001 -52c-50 0 -92.167 17.5 -126.5 52.5s-51.5 77.5 -51.5 127.5c0 48 17.333 89 52 123s76.334 51.333 125.001 52z" />
    <glyph glyph-name="multiply" unicode="&#xd7;" horiz-adv-x="1229" 
d="M354 1107l261 -260l261 260l164 -164l-261 -260l261 -261l-164 -164l-261 261l-261 -261l-164 164l261 261l-261 260z" />
    <glyph glyph-name="Oslash" unicode="&#xd8;" horiz-adv-x="1675" 
d="M1617 1279l-165.999 -162c96 -140.667 144 -285.334 144 -434.001c0 -136 -33.333 -260.667 -100 -374c-70.667 -120.667 -168.667 -212.667 -294 -276c-108.667 -54.667 -228.334 -82 -359.001 -82c-169.333 0 -327.333 49.333 -474 148l-172 -162l-141 148l168 161
c-50.667 75.333 -86.834 145.333 -108.501 210s-32.5 136 -32.5 214c0 122 27.333 236.333 82 343c65.333 128 158.333 226.333 279 295c114 64.667 244.333 97 391 97c124.667 0 239.667 -22 345 -66c36.667 -15.333 78.334 -41.666 125.001 -78.999l173 167zM1027 1007
c-56.667 36 -121 53.999 -193 53.999c-114.667 0 -210 -44.333 -286 -133c-62.667 -73.333 -94 -154.666 -94 -243.999c0 -68 15 -128.333 45 -181zM636.001 344.999c75.333 -33.333 141 -50 197 -50c114 0 209.667 41 287 123c68.667 72 103 156.667 103 254
c0 58 -16 121.333 -48 190z" />
    <glyph glyph-name="Ugrave" unicode="&#xd9;" horiz-adv-x="1477" 
d="M498 1365l-0.000976562 -738.999c0 -78 2.16699 -131 6.5 -159s15.166 -56.333 32.499 -85c40.667 -69.333 106.667 -104 198 -104c44.667 0 85.834 10 123.501 30s65.834 47 84.501 81c14.667 26.667 24.334 55 29.001 85s7 80.667 7 152v739h355v-787
c0 -130.667 -17.333 -231 -52 -301c-52.667 -106.667 -131.334 -187.334 -236.001 -242.001c-90.667 -46.667 -196 -70 -316 -70c-136.667 0 -255.667 29.667 -357 89c-84.667 50 -144.167 114.167 -178.5 192.5s-51.5 188.833 -51.5 331.5v787h355zM399.999 1712l190 173
l296 -282l-138 -128z" />
    <glyph glyph-name="Uacute" unicode="&#xda;" horiz-adv-x="1477" 
d="M498 1365l-0.000976562 -738.999c0 -78 2.16699 -131 6.5 -159s15.166 -56.333 32.499 -85c40.667 -69.333 106.667 -104 198 -104c44.667 0 85.834 10 123.501 30s65.834 47 84.501 81c14.667 26.667 24.334 55 29.001 85s7 80.667 7 152v739h355v-787
c0 -130.667 -17.333 -231 -52 -301c-52.667 -106.667 -131.334 -187.334 -236.001 -242.001c-90.667 -46.667 -196 -70 -316 -70c-136.667 0 -255.667 29.667 -357 89c-84.667 50 -144.167 114.167 -178.5 192.5s-51.5 188.833 -51.5 331.5v787h355zM1077 1712l-348 -237
l-138 128l296 282z" />
    <glyph glyph-name="Ucircumflex" unicode="&#xdb;" horiz-adv-x="1477" 
d="M498 1365l-0.000976562 -738.999c0 -78 2.16699 -131 6.5 -159s15.166 -56.333 32.499 -85c40.667 -69.333 106.667 -104 198 -104c44.667 0 85.834 10 123.501 30s65.834 47 84.501 81c14.667 26.667 24.334 55 29.001 85s7 80.667 7 152v739h355v-787
c0 -130.667 -17.333 -231 -52 -301c-52.667 -106.667 -131.334 -187.334 -236.001 -242.001c-90.667 -46.667 -196 -70 -316 -70c-136.667 0 -255.667 29.667 -357 89c-84.667 50 -144.167 114.167 -178.5 192.5s-51.5 188.833 -51.5 331.5v787h355zM321.999 1630l417 246
l417 -246l-98 -155l-319 160l-319 -160z" />
    <glyph glyph-name="Udieresis" unicode="&#xdc;" horiz-adv-x="1477" 
d="M498 1365l-0.000976562 -738.999c0 -78 2.16699 -131 6.5 -159s15.166 -56.333 32.499 -85c40.667 -69.333 106.667 -104 198 -104c44.667 0 85.834 10 123.501 30s65.834 47 84.501 81c14.667 26.667 24.334 55 29.001 85s7 80.667 7 152v739h355v-787
c0 -130.667 -17.333 -231 -52 -301c-52.667 -106.667 -131.334 -187.334 -236.001 -242.001c-90.667 -46.667 -196 -70 -316 -70c-136.667 0 -255.667 29.667 -357 89c-84.667 50 -144.167 114.167 -178.5 192.5s-51.5 188.833 -51.5 331.5v787h355zM491.999 1850
c49.333 0 91.333 -17.332 126 -51.999s52 -76.334 52 -125.001c0 -49.333 -17.333 -91.333 -52 -126s-76.334 -52 -125.001 -52c-50 0 -92.167 17.5 -126.5 52.5s-51.5 77.5 -51.5 127.5c0 48 17.333 89 52 123s76.334 51.333 125.001 52zM983.999 1850
c49.333 0 91.333 -17.332 126 -51.999s52 -76.334 52 -125.001c0 -49.333 -17.333 -91.333 -52 -126s-76.334 -52 -125.001 -52c-50 0 -92.167 17.5 -126.5 52.5s-51.5 77.5 -51.5 127.5c0 48 17.333 89 52 123s76.334 51.333 125.001 52z" />
    <glyph glyph-name="Yacute" unicode="&#xdd;" horiz-adv-x="1311" 
d="M469 656l-494 709h424l258 -372l248 372h430l-511 -709v-656h-355v656zM1007 1712l-348 -237l-138 128l296 282z" />
    <glyph glyph-name="Thorn" unicode="&#xde;" horiz-adv-x="1227" 
d="M498 262v-262h-355v1365h355v-191h210c80 0 145.667 -8.66699 197 -26s99 -46.666 143 -87.999c89.333 -84 134 -197 134 -339c0 -138.667 -36.667 -249.334 -110 -332.001c-74.667 -84.667 -192 -127 -352 -127h-222zM498 547l118 -0.000976562c68.667 0 117 13 145 39
c33.333 30.667 50 74.334 50 131.001c0 58 -15.833 101.167 -47.5 129.5s-80.5 42.5 -146.5 42.5h-119v-342z" />
    <glyph glyph-name="germandbls" unicode="&#xdf;" horiz-adv-x="1217" 
d="M112 0l-0.00292969 1095c0 145.333 40 253 120 323c84 74 200 111 348 111c146.667 0 260.667 -40 342 -120c74 -73.333 111 -169 111 -287c0 -57.333 -12.333 -107.5 -37 -150.5s-66 -86.5 -124 -130.5c72 -34 124.667 -65.667 158 -95
c74.667 -67.333 112 -165.666 112 -294.999c0 -103.333 -25.333 -196.333 -76 -279c-81.333 -133.333 -234.666 -200 -459.999 -200c-14.667 0 -37.667 0.666992 -69 2v277c68.667 0.666992 122.334 16 161.001 46c55.333 41.333 83 98.666 83 171.999c0 84 -33 147 -99 189
c-36 23.333 -84.333 35 -145 35v265c54 0.666992 94 9 120 25c40.667 24 61 65 61 123c0 43.333 -12.333 77.666 -37 102.999s-58 38 -100 38c-66.667 0 -108.667 -25.667 -126 -77c-7.33301 -20.667 -11.666 -38.5 -12.999 -53.5s-2 -56.833 -2 -125.5v-991h-328z" />
    <glyph glyph-name="agrave" unicode="&#xe0;" horiz-adv-x="1270" 
d="M830 928h328.001v-928h-328v102c-70.667 -88 -166 -132 -286 -132c-78 0 -152.667 19.667 -224 59c-78 44 -138.667 104.333 -182 181c-42 74.667 -63 160 -63 256c0 158 55 284.333 165 379c87.333 75.333 187.666 113 300.999 113c60 0 113 -9.66699 159 -29
s89.333 -50 130 -92v91zM628.001 675c-58.667 0 -108.667 -20.6699 -150 -62.0029s-62 -90 -62 -146c0 -60 20.667 -110.667 62 -152c40.667 -41.333 90.667 -62 150 -62c58.667 0 108.667 20.667 150 62c41.333 40.667 62 90.334 62 149.001s-20.5 108.334 -61.5 149.001
s-91.167 61.334 -150.5 62.001zM347.001 1344l208 149l259 -316l-152 -112z" />
    <glyph glyph-name="aacute" unicode="&#xe1;" horiz-adv-x="1270" 
d="M830 928h328.001v-928h-328v102c-70.667 -88 -166 -132 -286 -132c-78 0 -152.667 19.667 -224 59c-78 44 -138.667 104.333 -182 181c-42 74.667 -63 160 -63 256c0 158 55 284.333 165 379c87.333 75.333 187.666 113 300.999 113c60 0 113 -9.66699 159 -29
s89.333 -50 130 -92v91zM628.001 675c-58.667 0 -108.667 -20.6699 -150 -62.0029s-62 -90 -62 -146c0 -60 20.667 -110.667 62 -152c40.667 -41.333 90.667 -62 150 -62c58.667 0 108.667 20.667 150 62c41.333 40.667 62 90.334 62 149.001s-20.5 108.334 -61.5 149.001
s-91.167 61.334 -150.5 62.001zM950.001 1344l-315 -279l-152 112l259 316z" />
    <glyph glyph-name="acircumflex" unicode="&#xe2;" horiz-adv-x="1270" 
d="M830 928h328.001v-928h-328v102c-70.667 -88 -166 -132 -286 -132c-78 0 -152.667 19.667 -224 59c-78 44 -138.667 104.333 -182 181c-42 74.667 -63 160 -63 256c0 158 55 284.333 165 379c87.333 75.333 187.666 113 300.999 113c60 0 113 -9.66699 159 -29
s89.333 -50 130 -92v91zM628.001 675c-58.667 0 -108.667 -20.6699 -150 -62.0029s-62 -90 -62 -146c0 -60 20.667 -110.667 62 -152c40.667 -41.333 90.667 -62 150 -62c58.667 0 108.667 20.667 150 62c41.333 40.667 62 90.334 62 149.001s-20.5 108.334 -61.5 149.001
s-91.167 61.334 -150.5 62.001zM245.001 1223l400 301l406 -301l-145 -158l-261 202l-261 -202z" />
    <glyph glyph-name="atilde" unicode="&#xe3;" horiz-adv-x="1270" 
d="M830 928h328.001v-928h-328v102c-70.667 -88 -166 -132 -286 -132c-78 0 -152.667 19.667 -224 59c-78 44 -138.667 104.333 -182 181c-42 74.667 -63 160 -63 256c0 158 55 284.333 165 379c87.333 75.333 187.666 113 300.999 113c60 0 113 -9.66699 159 -29
s89.333 -50 130 -92v91zM628.001 675c-58.667 0 -108.667 -20.6699 -150 -62.0029s-62 -90 -62 -146c0 -60 20.667 -110.667 62 -152c40.667 -41.333 90.667 -62 150 -62c58.667 0 108.667 20.667 150 62c41.333 40.667 62 90.334 62 149.001s-20.5 108.334 -61.5 149.001
s-91.167 61.334 -150.5 62.001zM454.001 1075h-155.999c0 40 3.33301 74.667 10 104c13.333 59.333 37.666 104.333 72.999 135s74.333 46 117 46c20.667 0 39.5 -2.33301 56.5 -7s58.167 -18.667 123.5 -42c54.667 -20 94.334 -30 119.001 -30
c20 0 34.167 4.83301 42.5 14.5s16.833 31.167 25.5 64.5h162c-8 -70 -19.667 -123.667 -35 -161c-32.667 -82.667 -90.334 -124 -173.001 -124c-29.333 0 -59 4 -89 12s-84.333 26.667 -163 56c-15.333 6 -31.333 9 -48 9c-20.667 0 -35.167 -5 -43.5 -15
s-15.5 -30.667 -21.5 -62z" />
    <glyph glyph-name="adieresis" unicode="&#xe4;" horiz-adv-x="1270" 
d="M830 928h328.001v-928h-328v102c-70.667 -88 -166 -132 -286 -132c-78 0 -152.667 19.667 -224 59c-78 44 -138.667 104.333 -182 181c-42 74.667 -63 160 -63 256c0 158 55 284.333 165 379c87.333 75.333 187.666 113 300.999 113c60 0 113 -9.66699 159 -29
s89.333 -50 130 -92v91zM628.001 675c-58.667 0 -108.667 -20.6699 -150 -62.0029s-62 -90 -62 -146c0 -60 20.667 -110.667 62 -152c40.667 -41.333 90.667 -62 150 -62c58.667 0 108.667 20.667 150 62c41.333 40.667 62 90.334 62 149.001s-20.5 108.334 -61.5 149.001
s-91.167 61.334 -150.5 62.001zM416.001 1427c49.333 0 91.333 -17.332 126 -51.999s52 -76.334 52 -125.001c0 -49.333 -17.333 -91.333 -52 -126s-76.334 -52 -125.001 -52c-50 0 -92.167 17.5 -126.5 52.5s-51.5 77.5 -51.5 127.5c0 48 17.333 89 52 123
s76.334 51.333 125.001 52zM880.001 1427c49.333 0 91.333 -17.168 126 -51.501s52 -76.166 52 -125.499s-17.333 -91.333 -52 -126s-76.334 -52 -125.001 -52c-50 0 -92.167 17.5 -126.5 52.5s-51.5 77.5 -51.5 127.5c0 48 17.333 89 52 123s76.334 51.333 125.001 52z" />
    <glyph glyph-name="aring" unicode="&#xe5;" horiz-adv-x="1270" 
d="M830 928h328.001v-928h-328v102c-70.667 -88 -166 -132 -286 -132c-78 0 -152.667 19.667 -224 59c-78 44 -138.667 104.333 -182 181c-42 74.667 -63 160 -63 256c0 158 55 284.333 165 379c87.333 75.333 187.666 113 300.999 113c60 0 113 -9.66699 159 -29
s89.333 -50 130 -92v91zM628.001 675c-58.667 0 -108.667 -20.6699 -150 -62.0029s-62 -90 -62 -146c0 -60 20.667 -110.667 62 -152c40.667 -41.333 90.667 -62 150 -62c58.667 0 108.667 20.667 150 62c41.333 40.667 62 90.334 62 149.001s-20.5 108.334 -61.5 149.001
s-91.167 61.334 -150.5 62.001zM641.001 1496l13.999 -0.000976562c95.333 0 167.333 -23.333 216 -70c39.333 -36.667 59 -84 59 -142c0 -58.667 -19.667 -106 -59 -142c-49.333 -46.667 -121.333 -70 -216 -70h-14c-94 0 -165.667 23.333 -215 70
c-39.333 36 -59 84 -59 144c0 56.667 19.667 103.334 59 140.001c48.667 46.667 120.334 70 215.001 70zM646 1366c-32 0 -57.833 -7.33203 -77.5 -21.999s-29.5 -34.334 -29.5 -59.001c0 -25.333 9.66699 -45.5 29 -60.5s45.666 -22.5 78.999 -22.5
c34.667 0 61.834 7.33301 81.501 22s29.5 34.667 29.5 60c0 26 -9.83301 46.167 -29.5 60.5s-47.167 21.5 -82.5 21.5z" />
    <glyph glyph-name="ae" unicode="&#xe6;" horiz-adv-x="1777" 
d="M1702 411l-694.002 -0.00195312c2.66699 -58.667 17.334 -104.667 44.001 -138c38.667 -49.333 94.334 -74 167.001 -74c75.333 0 125.333 29.333 150 88h318c-20 -69.333 -52 -127 -96 -173c-92.667 -97.333 -220.334 -146 -383.001 -146
c-91.333 0 -168.166 15.5 -230.499 46.5s-107.833 76.167 -136.5 135.5c-97.333 -117.333 -224.666 -176 -381.999 -176c-65.333 0 -125.5 9.83301 -180.5 29.5s-98.5 46.834 -130.5 81.501c-48.667 52.667 -73 115.334 -73 188.001c0 103.333 43.667 184.333 131 243
c61.333 42 146.666 63 255.999 63c75.333 0 154.666 -16 237.999 -48c0.666992 10 1 18.333 1 25c0 111.333 -74.667 167 -224 167c-63.333 0 -148.666 -17.667 -255.999 -53v247c100.667 29.333 192 44 274 44c102 0 186.333 -21 253 -63
c30.667 -19.333 61.667 -53.333 93 -102c36.667 53.333 85.5 94.166 146.5 122.499s130.167 42.5 207.5 42.5c121.333 0 226.333 -30 315 -90c67.333 -45.333 116 -103.666 146 -174.999s45.333 -166.333 46 -285zM1396 600.998c-12 41.333 -28.999 73 -50.999 95
c-36.667 37.333 -83.334 56 -140.001 56c-92.667 0 -155.667 -50.333 -189 -151h380zM536.999 394.998c-48 0 -83.999 -10.666 -107.999 -31.999c-22 -19.333 -33 -41.333 -33 -66c0 -30.667 13.667 -55.667 41 -75s63 -29 107 -29c50 0 90.333 11 121 33
c28.667 21.333 43 44.666 43 69.999c0 28.667 -15.833 52.167 -47.5 70.5s-72.834 27.833 -123.501 28.5z" />
    <glyph glyph-name="ccedilla" unicode="&#xe7;" horiz-adv-x="887" 
d="M812 905l-0.000976562 -278.997c-57.333 40 -114 60 -170 60c-70 0 -127.333 -24.333 -172 -73c-36 -40 -54 -90.667 -54 -152c0 -66.667 22 -120.334 66 -161.001c44.667 -41.333 98 -62 160 -62c60.667 0 117.334 20.333 170.001 61v-278
c-76 -34.667 -152.667 -52 -230 -52c-96 0 -186 25 -270 75c-158 93.333 -237 230.666 -237 411.999c0 153.333 55.333 278.666 166 375.999c95.333 83.333 212 125 350 125c79.333 0 153 -17.333 221 -52zM711.999 -224.997l-280 -264l-147 93l239 293z" />
    <glyph glyph-name="egrave" unicode="&#xe8;" horiz-adv-x="1172" 
d="M1096 404l-690 -0.00195312c2 -139.333 68.667 -209 200 -209c39.333 0 70.833 6.5 94.5 19.5s45.834 35.833 66.501 68.5h316c-20.667 -69.333 -48.334 -124.333 -83.001 -165c-44 -51.333 -99.667 -89.666 -167 -114.999c-72.667 -26.667 -149 -40 -229 -40
c-184.667 0 -325.334 58 -422.001 174c-72 86.667 -108 192.667 -108 318c0 100.667 23.333 192.334 70 275.001c84.667 149.333 233.667 224 447 224c146.667 0 263.334 -39 350.001 -117c55.333 -50 95 -108.833 119 -176.5s36 -153.167 36 -256.5zM791 593.998
c-11.333 46 -33.832 82.167 -67.499 108.5s-74.834 39.5 -123.501 39.5c-50 0 -91.167 -13 -123.5 -39s-52.833 -62.333 -61.5 -109h376zM298.001 1344l208 149l259 -316l-152 -112z" />
    <glyph glyph-name="eacute" unicode="&#xe9;" horiz-adv-x="1172" 
d="M1096 404l-690 -0.00195312c2 -139.333 68.667 -209 200 -209c39.333 0 70.833 6.5 94.5 19.5s45.834 35.833 66.501 68.5h316c-20.667 -69.333 -48.334 -124.333 -83.001 -165c-44 -51.333 -99.667 -89.666 -167 -114.999c-72.667 -26.667 -149 -40 -229 -40
c-184.667 0 -325.334 58 -422.001 174c-72 86.667 -108 192.667 -108 318c0 100.667 23.333 192.334 70 275.001c84.667 149.333 233.667 224 447 224c146.667 0 263.334 -39 350.001 -117c55.333 -50 95 -108.833 119 -176.5s36 -153.167 36 -256.5zM791 593.998
c-11.333 46 -33.832 82.167 -67.499 108.5s-74.834 39.5 -123.501 39.5c-50 0 -91.167 -13 -123.5 -39s-52.833 -62.333 -61.5 -109h376zM901.001 1344l-315 -279l-152 112l259 316z" />
    <glyph glyph-name="ecircumflex" unicode="&#xea;" horiz-adv-x="1172" 
d="M1096 404l-690 -0.00195312c2 -139.333 68.667 -209 200 -209c39.333 0 70.833 6.5 94.5 19.5s45.834 35.833 66.501 68.5h316c-20.667 -69.333 -48.334 -124.333 -83.001 -165c-44 -51.333 -99.667 -89.666 -167 -114.999c-72.667 -26.667 -149 -40 -229 -40
c-184.667 0 -325.334 58 -422.001 174c-72 86.667 -108 192.667 -108 318c0 100.667 23.333 192.334 70 275.001c84.667 149.333 233.667 224 447 224c146.667 0 263.334 -39 350.001 -117c55.333 -50 95 -108.833 119 -176.5s36 -153.167 36 -256.5zM791 593.998
c-11.333 46 -33.832 82.167 -67.499 108.5s-74.834 39.5 -123.501 39.5c-50 0 -91.167 -13 -123.5 -39s-52.833 -62.333 -61.5 -109h376zM189.001 1223l400 301l406 -301l-145 -158l-261 202l-261 -202z" />
    <glyph glyph-name="edieresis" unicode="&#xeb;" horiz-adv-x="1172" 
d="M1096 404l-690 -0.00195312c2 -139.333 68.667 -209 200 -209c39.333 0 70.833 6.5 94.5 19.5s45.834 35.833 66.501 68.5h316c-20.667 -69.333 -48.334 -124.333 -83.001 -165c-44 -51.333 -99.667 -89.666 -167 -114.999c-72.667 -26.667 -149 -40 -229 -40
c-184.667 0 -325.334 58 -422.001 174c-72 86.667 -108 192.667 -108 318c0 100.667 23.333 192.334 70 275.001c84.667 149.333 233.667 224 447 224c146.667 0 263.334 -39 350.001 -117c55.333 -50 95 -108.833 119 -176.5s36 -153.167 36 -256.5zM791 593.998
c-11.333 46 -33.832 82.167 -67.499 108.5s-74.834 39.5 -123.501 39.5c-50 0 -91.167 -13 -123.5 -39s-52.833 -62.333 -61.5 -109h376zM353.001 1427c49.333 0 91.333 -17.332 126 -51.999s52 -76.334 52 -125.001c0 -49.333 -17.333 -91.333 -52 -126
s-76.334 -52 -125.001 -52c-50 0 -92.167 17.5 -126.5 52.5s-51.5 77.5 -51.5 127.5c0 48 17.333 89 52 123s76.334 51.333 125.001 52zM817.001 1427c49.333 0 91.333 -17.168 126 -51.501s52 -76.166 52 -125.499s-17.333 -91.333 -52 -126s-76.334 -52 -125.001 -52
c-50 0 -92.167 17.5 -126.5 52.5s-51.5 77.5 -51.5 127.5c0 48 17.333 89 52 123s76.334 51.333 125.001 52z" />
    <glyph glyph-name="igrave" unicode="&#xec;" horiz-adv-x="552" 
d="M440 928v-928h-328v928h328zM-40 1344l208 149l259 -316l-152 -112z" />
    <glyph glyph-name="iacute" unicode="&#xed;" horiz-adv-x="552" 
d="M440 928v-928h-328v928h328zM591 1344l-315 -279l-152 112l259 316z" />
    <glyph glyph-name="icircumflex" unicode="&#xee;" horiz-adv-x="551" 
d="M440 928v-928h-328v928h328zM-86 1223l362 301l362 -301l-145 -158l-217 202l-223 -202z" />
    <glyph glyph-name="idieresis" unicode="&#xef;" horiz-adv-x="552" 
d="M440 928v-928h-328v928h328zM64 1427c49.333 0 91.333 -17.332 126 -51.999s52 -76.334 52 -125.001c0 -49.333 -17.333 -91.333 -52 -126s-76.334 -52 -125.001 -52c-50 0 -92.167 17.5 -126.5 52.5s-51.5 77.5 -51.5 127.5c0 48 17.333 89 52 123
s76.334 51.333 125.001 52zM487 1427c49.333 0 91.333 -17.332 126 -51.999s52 -76.334 52 -125.001c0 -49.333 -17.333 -91.333 -52 -126s-76.334 -52 -125.001 -52c-50 0 -92.167 17.5 -126.5 52.5s-51.5 77.5 -51.5 127.5c0 48 17.333 89 52 123
s76.334 51.333 125.001 52z" />
    <glyph glyph-name="eth" unicode="&#xf0;" horiz-adv-x="1267" 
d="M810 1502l104 -169l-142 -89c88.667 -76.667 161.667 -153 219 -229c134 -176.667 201 -353.334 201 -530.001c0 -153.333 -50 -276.666 -150 -369.999c-104 -98 -239.667 -147 -407 -147c-153.333 0 -281.666 41.333 -384.999 124c-116.667 93.333 -175 218 -175 374
c0 125.333 38.333 231 115 317c102 115.333 250 174.666 444 177.999c-36.667 46.667 -74.667 88 -114 124l-179 -115l-101 164l123 80c-30.667 20.667 -71.334 44.334 -122.001 71.001l129 223c94.667 -42 172.667 -87.333 234 -136zM633 680
c-58.667 0 -108.333 -20.6641 -149 -61.9971c-41.333 -42.667 -62 -92.334 -62 -149.001c0 -60.667 20.667 -112 62 -154c40.667 -42 90.667 -63 150 -63c58 0 107.667 21 149 63c41.333 41.333 62 91.666 62 150.999s-20.333 109.666 -61 150.999s-91 62.333 -151 63z" />
    <glyph glyph-name="ntilde" unicode="&#xf1;" horiz-adv-x="1203" 
d="M112 928l328.001 0.00195312v-117c38 44 73 75 105 93c52 29.333 116 44 192 44c113.333 0 202.666 -34 267.999 -102c32 -32.667 54.333 -67.667 67 -105s19 -87.333 19 -150v-591h-328v470c0 71.333 -6.66699 119.666 -20 144.999c-10.667 22 -28.167 39.5 -52.5 52.5
s-50.5 19.5 -78.5 19.5c-57.333 0 -103 -20.667 -137 -62c-23.333 -28.667 -35 -71.334 -35 -128.001v-497h-328v928zM393.001 1075h-155.999c0 40 3.33301 74.667 10 104c13.333 59.333 37.666 104.333 72.999 135s74.333 46 117 46c20.667 0 39.5 -2.33301 56.5 -7
s58.167 -18.667 123.5 -42c54.667 -20 94.334 -30 119.001 -30c20 0 34.167 4.83301 42.5 14.5s16.833 31.167 25.5 64.5h162c-8 -70 -19.667 -123.667 -35 -161c-32.667 -82.667 -90.334 -124 -173.001 -124c-29.333 0 -59 4 -89 12s-84.333 26.667 -163 56
c-15.333 6 -31.333 9 -48 9c-20.667 0 -35.167 -5 -43.5 -15s-15.5 -30.667 -21.5 -62z" />
    <glyph glyph-name="ograve" unicode="&#xf2;" horiz-adv-x="1267" 
d="M633 962c184 0 327.667 -56 431 -168c85.333 -92 128 -202 128 -330c0 -150.667 -56 -274 -168 -370c-100 -86 -232 -129 -396 -129c-104 0 -201.333 22.333 -292 67c-84.667 42 -151 106 -199 192c-41.333 72.667 -62 155.334 -62 248.001
c0 143.333 56 263.666 168 360.999c96.667 83.333 226.667 126.333 390 129zM633 679c-58.667 0 -108.333 -20.667 -149 -62c-41.333 -42 -62 -91.333 -62 -148c0 -60.667 20.667 -112 62 -154c40.667 -41.333 90.667 -62 150 -62c58 0 107.667 20.667 149 62
c41.333 42 62 92.333 62 151c0 59.333 -20.333 109.5 -61 150.5s-91 61.833 -151 62.5zM332.001 1344l208 149l259 -316l-152 -112z" />
    <glyph glyph-name="oacute" unicode="&#xf3;" horiz-adv-x="1267" 
d="M633 962c184 0 327.667 -56 431 -168c85.333 -92 128 -202 128 -330c0 -150.667 -56 -274 -168 -370c-100 -86 -232 -129 -396 -129c-104 0 -201.333 22.333 -292 67c-84.667 42 -151 106 -199 192c-41.333 72.667 -62 155.334 -62 248.001
c0 143.333 56 263.666 168 360.999c96.667 83.333 226.667 126.333 390 129zM633 679c-58.667 0 -108.333 -20.667 -149 -62c-41.333 -42 -62 -91.333 -62 -148c0 -60.667 20.667 -112 62 -154c40.667 -41.333 90.667 -62 150 -62c58 0 107.667 20.667 149 62
c41.333 42 62 92.333 62 151c0 59.333 -20.333 109.5 -61 150.5s-91 61.833 -151 62.5zM935.001 1344l-315 -279l-152 112l259 316z" />
    <glyph glyph-name="ocircumflex" unicode="&#xf4;" horiz-adv-x="1267" 
d="M633 962c184 0 327.667 -56 431 -168c85.333 -92 128 -202 128 -330c0 -150.667 -56 -274 -168 -370c-100 -86 -232 -129 -396 -129c-104 0 -201.333 22.333 -292 67c-84.667 42 -151 106 -199 192c-41.333 72.667 -62 155.334 -62 248.001
c0 143.333 56 263.666 168 360.999c96.667 83.333 226.667 126.333 390 129zM633 679c-58.667 0 -108.333 -20.667 -149 -62c-41.333 -42 -62 -91.333 -62 -148c0 -60.667 20.667 -112 62 -154c40.667 -41.333 90.667 -62 150 -62c58 0 107.667 20.667 149 62
c41.333 42 62 92.333 62 151c0 59.333 -20.333 109.5 -61 150.5s-91 61.833 -151 62.5zM230.001 1223l400 301l406 -301l-145 -158l-261 202l-261 -202z" />
    <glyph glyph-name="otilde" unicode="&#xf5;" horiz-adv-x="1267" 
d="M633 962c184 0 327.667 -56 431 -168c85.333 -92 128 -202 128 -330c0 -150.667 -56 -274 -168 -370c-100 -86 -232 -129 -396 -129c-104 0 -201.333 22.333 -292 67c-84.667 42 -151 106 -199 192c-41.333 72.667 -62 155.334 -62 248.001
c0 143.333 56 263.666 168 360.999c96.667 83.333 226.667 126.333 390 129zM633 679c-58.667 0 -108.333 -20.667 -149 -62c-41.333 -42 -62 -91.333 -62 -148c0 -60.667 20.667 -112 62 -154c40.667 -41.333 90.667 -62 150 -62c58 0 107.667 20.667 149 62
c41.333 42 62 92.333 62 151c0 59.333 -20.333 109.5 -61 150.5s-91 61.833 -151 62.5zM439.001 1075h-155.999c0 40 3.33301 74.667 10 104c13.333 59.333 37.666 104.333 72.999 135s74.333 46 117 46c20.667 0 39.5 -2.33301 56.5 -7s58.167 -18.667 123.5 -42
c54.667 -20 94.334 -30 119.001 -30c20 0 34.167 4.83301 42.5 14.5s16.833 31.167 25.5 64.5h162c-8 -70 -19.667 -123.667 -35 -161c-32.667 -82.667 -90.334 -124 -173.001 -124c-29.333 0 -59 4 -89 12s-84.333 26.667 -163 56c-15.333 6 -31.333 9 -48 9
c-20.667 0 -35.167 -5 -43.5 -15s-15.5 -30.667 -21.5 -62z" />
    <glyph glyph-name="odieresis" unicode="&#xf6;" horiz-adv-x="1267" 
d="M633 962c184 0 327.667 -56 431 -168c85.333 -92 128 -202 128 -330c0 -150.667 -56 -274 -168 -370c-100 -86 -232 -129 -396 -129c-104 0 -201.333 22.333 -292 67c-84.667 42 -151 106 -199 192c-41.333 72.667 -62 155.334 -62 248.001
c0 143.333 56 263.666 168 360.999c96.667 83.333 226.667 126.333 390 129zM633 679c-58.667 0 -108.333 -20.667 -149 -62c-41.333 -42 -62 -91.333 -62 -148c0 -60.667 20.667 -112 62 -154c40.667 -41.333 90.667 -62 150 -62c58 0 107.667 20.667 149 62
c41.333 42 62 92.333 62 151c0 59.333 -20.333 109.5 -61 150.5s-91 61.833 -151 62.5zM401.001 1427c49.333 0 91.333 -17.332 126 -51.999s52 -76.334 52 -125.001c0 -49.333 -17.333 -91.333 -52 -126s-76.334 -52 -125.001 -52c-50 0 -92.167 17.5 -126.5 52.5
s-51.5 77.5 -51.5 127.5c0 48 17.333 89 52 123s76.334 51.333 125.001 52zM865.001 1427c49.333 0 91.333 -17.168 126 -51.501s52 -76.166 52 -125.499s-17.333 -91.333 -52 -126s-76.334 -52 -125.001 -52c-50 0 -92.167 17.5 -126.5 52.5s-51.5 77.5 -51.5 127.5
c0 48 17.333 89 52 123s76.334 51.333 125.001 52z" />
    <glyph glyph-name="divide" unicode="&#xf7;" horiz-adv-x="1229" 
d="M130 799h969v-232h-969v232zM612 471c40 0 74 -14.002 102 -42.002s42 -61.667 42 -101c0 -40 -14 -74 -42 -102s-61.667 -42 -101 -42c-40 0 -74 14.167 -102 42.5s-42 62.5 -42 102.5c0 38.667 14 71.834 42 99.501s61.667 41.834 101 42.501zM612 1181
c40 0 74 -14.002 102 -42.002s42 -61.667 42 -101c0 -40 -14 -74 -42 -102s-61.667 -42 -101 -42c-40 0 -74 14.167 -102 42.5s-42 62.5 -42 102.5c0 38.667 14 71.834 42 99.501s61.667 41.834 101 42.501z" />
    <glyph glyph-name="oslash" unicode="&#xf8;" horiz-adv-x="1267" 
d="M27 73l136.999 107c-58.667 88 -88 184 -88 288c0 90.667 24 174.667 72 252c99.333 161.333 264.333 242 495 242c126.667 0 245.334 -34.667 356.001 -104l154 120l96 -121l-138 -117c30 -44.667 50.833 -85.667 62.5 -123s17.5 -82 17.5 -134
c0 -171.333 -56 -302.333 -168 -393c-102.667 -83.333 -235 -125 -397 -125c-146.667 0 -263.667 35.667 -351 107l-151 -117zM437.999 381l315.999 261c-36 25.333 -73 38 -111 38c-67.333 0 -122.666 -22.667 -165.999 -68c-40 -41.333 -60 -89.333 -60 -144
c0 -25.333 7 -54.333 21 -87zM522.998 287c33.333 -22 69.668 -33 109.001 -33c65.333 0 118.666 22.667 159.999 68c38 42 57 89 57 141c0 22 -5.33301 47.667 -16 77z" />
    <glyph glyph-name="ugrave" unicode="&#xf9;" horiz-adv-x="1212" 
d="M440 928l0.000976562 -526c0 -114.667 55.667 -172 167 -172c110.667 0 166 57.333 166 172v526h328v-589c0 -111.333 -34.333 -198.333 -103 -261c-86.667 -78.667 -217 -118 -391 -118c-174.667 0 -305.334 39.333 -392.001 118c-68.667 62.667 -103 149.667 -103 261
v589h328zM291.001 1344l208 149l259 -316l-152 -112z" />
    <glyph glyph-name="uacute" unicode="&#xfa;" horiz-adv-x="1212" 
d="M440 928l0.000976562 -526c0 -114.667 55.667 -172 167 -172c110.667 0 166 57.333 166 172v526h328v-589c0 -111.333 -34.333 -198.333 -103 -261c-86.667 -78.667 -217 -118 -391 -118c-174.667 0 -305.334 39.333 -392.001 118c-68.667 62.667 -103 149.667 -103 261
v589h328zM922.001 1344l-315 -279l-152 112l259 316z" />
    <glyph glyph-name="ucircumflex" unicode="&#xfb;" horiz-adv-x="1212" 
d="M440 928l0.000976562 -526c0 -114.667 55.667 -172 167 -172c110.667 0 166 57.333 166 172v526h328v-589c0 -111.333 -34.333 -198.333 -103 -261c-86.667 -78.667 -217 -118 -391 -118c-174.667 0 -305.334 39.333 -392.001 118c-68.667 62.667 -103 149.667 -103 261
v589h328zM203.001 1223l400 301l406 -301l-145 -158l-261 202l-261 -202z" />
    <glyph glyph-name="udieresis" unicode="&#xfc;" horiz-adv-x="1212" 
d="M440 928l0.000976562 -526c0 -114.667 55.667 -172 167 -172c110.667 0 166 57.333 166 172v526h328v-589c0 -111.333 -34.333 -198.333 -103 -261c-86.667 -78.667 -217 -118 -391 -118c-174.667 0 -305.334 39.333 -392.001 118c-68.667 62.667 -103 149.667 -103 261
v589h328zM374.001 1427c49.333 0 91.333 -17.332 126 -51.999s52 -76.334 52 -125.001c0 -49.333 -17.333 -91.333 -52 -126s-76.334 -52 -125.001 -52c-50 0 -92.167 17.5 -126.5 52.5s-51.5 77.5 -51.5 127.5c0 48 17.333 89 52 123s76.334 51.333 125.001 52z
M838.001 1427c49.333 0 91.333 -17.168 126 -51.501s52 -76.166 52 -125.499s-17.333 -91.333 -52 -126s-76.334 -52 -125.001 -52c-50 0 -92.167 17.5 -126.5 52.5s-51.5 77.5 -51.5 127.5c0 48 17.333 89 52 123s76.334 51.333 125.001 52z" />
    <glyph glyph-name="yacute" unicode="&#xfd;" horiz-adv-x="1246" 
d="M448 127l-448 801h381l248 -476l241 476h376l-745 -1392h-368zM952 1344l-315 -279l-152 112l259 316z" />
    <glyph glyph-name="thorn" unicode="&#xfe;" horiz-adv-x="1270" 
d="M440 -464l-328.001 0.000976562v1966h328v-676c71.333 89.333 167 134 287 134c77.333 0 151.666 -20 222.999 -60c78.667 -44.667 139.334 -105 182.001 -181c42 -74.667 63 -160.334 63 -257.001c0 -157.333 -55 -283 -165 -377
c-89.333 -77.333 -188.666 -116 -297.999 -116c-116 0 -213.333 40.667 -292 122v-555zM641.999 677.001c-57.333 0 -107.333 -21 -150 -63c-41.333 -40.667 -62 -90.334 -62 -149.001s20.667 -108.667 62 -150c43.333 -42.667 93.666 -64 150.999 -64
c56.667 0 106.334 21.333 149.001 64c41.333 41.333 62 90.333 62 147c0 60.667 -20.667 111.334 -62 152.001c-42 41.333 -92 62.333 -150 63z" />
    <glyph glyph-name="ydieresis" unicode="&#xff;" horiz-adv-x="1246" 
d="M448 127l-448 801h381l248 -476l241 476h376l-745 -1392h-368zM390 1427c49.333 0 91.333 -17.332 126 -51.999s52 -76.334 52 -125.001c0 -49.333 -17.333 -91.333 -52 -126s-76.334 -52 -125.001 -52c-50 0 -92.167 17.5 -126.5 52.5s-51.5 77.5 -51.5 127.5
c0 48 17.333 89 52 123s76.334 51.333 125.001 52zM854 1427c49.333 0 91.333 -17.168 126 -51.501s52 -76.166 52 -125.499s-17.333 -91.333 -52 -126s-76.334 -52 -125.001 -52c-50 0 -92.167 17.5 -126.5 52.5s-51.5 77.5 -51.5 127.5c0 48 17.333 89 52 123
s76.334 51.333 125.001 52z" />
    <glyph glyph-name="Cacute" unicode="&#x106;" horiz-adv-x="1208" 
d="M1079 1712l-348 -237l-138 128l296 282zM1126 1325l-0.00292969 -425c-81.333 100 -183.666 150 -306.999 150c-108 0 -198 -38 -270 -114c-64 -66.667 -96 -154 -96 -262c0 -116.667 40 -208.667 120 -276c72 -60.667 153.667 -91 245 -91
c114.667 0 217.334 47.667 308.001 143v-420c-84 -28 -145.667 -46.167 -185 -54.5s-83.666 -12.5 -132.999 -12.5c-125.333 0 -245.666 31.667 -360.999 95c-122.667 67.333 -215.334 157 -278.001 269c-58 102 -87 216.667 -87 344c0 142.667 35.333 270.667 106 384
c66.667 108 159 192.667 277 254c108 56.667 221.333 85 340 85c97.333 0 204.333 -23 321 -69z" />
    <glyph glyph-name="cacute" unicode="&#x107;" horiz-adv-x="887" 
d="M855 1344l-315 -279l-152 112l259 316zM812 905l-0.000976562 -278.998c-57.333 40 -114 60 -170 60c-70 0 -127.333 -24.333 -172 -73c-36 -40 -54 -90.667 -54 -152c0 -66.667 22 -120.334 66 -161.001c44.667 -41.333 98 -62 160 -62
c60.667 0 117.334 20.333 170.001 61v-278c-76 -34.667 -152.667 -52 -230 -52c-96 0 -186 25 -270 75c-158 93.333 -237 230.666 -237 411.999c0 153.333 55.333 278.333 166 375c95.333 84 212 126 350 126c79.333 0 153 -17.333 221 -52z" />
    <glyph glyph-name="Ccaron" unicode="&#x10c;" horiz-adv-x="1208" 
d="M1158 1721l-417 -246l-417 246l98 155l319 -160l319 160zM1126 1325l-0.00292969 -425c-81.333 100 -183.666 150 -306.999 150c-108 0 -198 -38 -270 -114c-64 -66.667 -96 -154 -96 -262c0 -116.667 40 -208.667 120 -276c72 -60.667 153.667 -91 245 -91
c114.667 0 217.334 47.667 308.001 143v-420c-84 -28 -145.667 -46.167 -185 -54.5s-83.666 -12.5 -132.999 -12.5c-125.333 0 -245.666 31.667 -360.999 95c-122.667 67.333 -215.334 157 -278.001 269c-58 102 -87 216.667 -87 344c0 142.667 35.333 270.667 106 384
c66.667 108 159 192.667 277 254c108 56.667 221.333 85 340 85c97.333 0 204.333 -23 321 -69z" />
    <glyph glyph-name="ccaron" unicode="&#x10d;" horiz-adv-x="887" 
d="M150 1366l139 158l261 -202l261 202l145 -158l-406 -301zM812 905l-0.000976562 -278.998c-57.333 40 -114 60 -170 60c-70 0 -127.333 -24.333 -172 -73c-36 -40 -54 -90.667 -54 -152c0 -66.667 22 -120.334 66 -161.001c44.667 -41.333 98 -62 160 -62
c60.667 0 117.334 20.333 170.001 61v-278c-76 -34.667 -152.667 -52 -230 -52c-96 0 -186 25 -270 75c-158 93.333 -237 230.666 -237 411.999c0 153.333 55.333 278.333 166 375c95.333 84 212 126 350 126c79.333 0 153 -17.333 221 -52z" />
    <glyph glyph-name="dmacron" unicode="&#x111;" horiz-adv-x="1270" 
d="M830 1502l328 0.000976562v-164h109v-218h-109v-1120h-328v103c-70 -90 -165.333 -135 -286 -135c-78 0 -152.333 19.667 -223 59c-78.667 44 -139.667 104.333 -183 181c-42 75.333 -63 161.333 -63 258c0 158 55 284.667 165 380c88 76 188.333 114 301 114
c60 0 113.167 -9.83301 159.5 -29.5s89.5 -50.834 129.5 -93.501v283h-259v218h259v164zM628 677.001c-58.667 0 -108.667 -20.666 -150 -61.999c-41.333 -42 -62 -91.333 -62 -148c0 -60.667 20.667 -112 62 -154c41.333 -41.333 91.333 -62 150 -62s108.667 20.667 150 62
s62 91.666 62 150.999s-20.5 109.5 -61.5 150.5s-91.167 61.833 -150.5 62.5z" />
    <glyph glyph-name="Gbreve" unicode="&#x11e;" horiz-adv-x="1593" 
d="M406 1810h229.999c18.667 -80.667 72.334 -121 161.001 -121s142 40.333 160 121h231c-4 -65.333 -22.333 -120.666 -55 -165.999c-70 -99.333 -182 -149 -336 -149s-266.333 49.667 -337 149c-32.667 45.333 -50.667 100.666 -54 165.999zM806.999 758l704 0.00195312
c-2.66699 -182 -26.334 -322 -71.001 -420c-56.667 -124.667 -138.667 -220 -246 -286c-108 -66.667 -236 -100 -384 -100c-148.667 0 -282 34 -400 102c-115.333 66.667 -201.333 162.667 -258 288c-47.333 103.333 -71 214.333 -71 333c0 135.333 30.333 260.333 91 375
c62.667 120 152 210 268 270c114.667 59.333 242.334 89 383.001 89c145.333 0 268.166 -31.333 368.499 -94s182.5 -159.334 246.5 -290.001l-337 -139c-62 144 -160.333 216 -295 216c-104.667 0 -189.667 -41.667 -255 -125c-66 -83.333 -99 -184 -99 -302
c0 -134 40.667 -244.333 122 -331c61.333 -65.333 142.333 -98 243 -98c102 0 179 33.333 231 100c24.667 31.333 41.334 76.666 50.001 135.999h-291v276z" />
    <glyph glyph-name="gbreve" unicode="&#x11f;" horiz-adv-x="1263" 
d="M274 1421l209 0.00195312c8.66699 -56.667 22.667 -95.834 42 -117.501s50.333 -32.5 93 -32.5c53.333 0 91 10.167 113 30.5s38.667 60.166 50 119.499h209c-2 -47.333 -6.66699 -84.5 -14 -111.5s-20 -54.5 -38 -82.5c-63.333 -99.333 -165.333 -149 -306 -149
s-242.667 49.667 -306 149c-18 28 -30.667 55.5 -38 82.5s-12 64.167 -14 111.5zM1151 928.002v-863.999c0 -126.667 -15.667 -219.334 -47 -278.001c-49.333 -93.333 -123.333 -161.333 -222 -204c-76 -33.333 -166.333 -50 -271 -50c-181.333 0 -323 54 -425 162
c-54.667 58 -88 122.333 -100 193h369c22 -62 74 -93 156 -93c66 0 117.833 19.667 155.5 59s56.5 93.333 56.5 162v88c-49.333 -45.333 -95.5 -77 -138.5 -95s-94.167 -27 -153.5 -27c-152 0 -271.667 55.333 -359 166c-64.667 82 -97 183 -97 303
c0 152 48.333 275.667 145 371c90 88.667 199 133 327 133c59.333 0 110.5 -9.5 153.5 -28.5s83.833 -50.5 122.5 -94.5v97h328zM627 678.003c-58.667 0 -108.333 -20.6689 -149 -62.002c-41.333 -41.333 -62 -90.333 -62 -147c0 -60 20.667 -110.667 62 -152
c40.667 -41.333 90.667 -62 150 -62c58 0 107.667 20.667 149 62s62 91.333 62 150s-20.333 108.334 -61 149.001s-91 61.334 -151 62.001z" />
    <glyph glyph-name="Idot" unicode="&#x130;" horiz-adv-x="642" 
d="M320 1850c49.333 0 91.333 -17.332 126 -51.999s52 -76.334 52 -125.001c0 -49.333 -17.333 -91.333 -52 -126s-76.334 -52 -125.001 -52c-50 0 -92.167 17.5 -126.5 52.5s-51.5 77.5 -51.5 127.5c0 48 17.333 89 52 123s76.334 51.333 125.001 52zM498 1365v-1365h-355
v1365h355z" />
    <glyph glyph-name="dotlessi" unicode="&#x131;" horiz-adv-x="552" 
d="M440 928v-928h-328v928h328z" />
    <glyph glyph-name="Lslash" unicode="&#x141;" horiz-adv-x="983" 
d="M514 1365v-463l236 162v-262l-236 -162v-340h430v-300h-785v470l-139 -105v263l139 103v634h355z" />
    <glyph glyph-name="lslash" unicode="&#x142;" horiz-adv-x="683" 
d="M505 1502v-584l157 109v-264l-157 -103v-660h-328v503l-157 -109v262l157 103v743h328z" />
    <glyph glyph-name="OE" unicode="&#x152;" horiz-adv-x="2077" 
d="M1995 1063l-411.999 0.000976562v-226h385v-300h-385v-237h412v-300h-767v144c-126 -124 -269 -186 -429 -186c-108.667 0 -213.334 25.667 -314.001 77c-137.333 69.333 -242.666 171.666 -315.999 306.999c-58 106.667 -87 221 -87 343
c0 135.333 35.333 260.333 106 375c68 111.333 161.333 199 280 263c108.667 58.667 221.667 88 339 88c85.333 0 161.166 -14.167 227.499 -42.5s130.833 -74.5 193.5 -138.5v135h767v-302zM834.001 1066c-105.333 0 -195 -37.3311 -269 -111.998
c-34.667 -34.667 -62 -75.667 -82 -123s-30 -94.333 -30 -141c0 -107.333 37.333 -199 112 -275c74 -74.667 164 -112 270 -112c105.333 0 195 37.333 269 112c74.667 75.333 112 165.666 112 270.999c0 106 -37.333 195.333 -112 268
c-74.667 73.333 -164.667 110.666 -270 111.999z" />
    <glyph glyph-name="oe" unicode="&#x153;" horiz-adv-x="1918" 
d="M1843 408h-698c6.66699 -64 21.334 -110.667 44.001 -140c34.667 -46 88.334 -69 161.001 -69c40 0 71.833 6.66699 95.5 20s44.5 36 62.5 68h317c-14 -68 -42.667 -125.333 -86 -172c-93.333 -99.333 -225.333 -149 -396 -149c-82.667 0 -152 12.667 -208 38
s-105.667 66.666 -149 123.999c-41.333 -42 -74 -71.333 -98 -88c-69.333 -49.333 -163 -74 -281 -74c-172.667 0 -305.334 49 -398.001 147c-89.333 94 -134 209.667 -134 347c0 104.667 26.333 198 79 280c94.667 148 247 222 457 222c78.667 0 146.167 -11 202.5 -33
s113.833 -60 172.5 -114c40.667 48.667 89.667 84.167 147 106.5s127.333 33.5 210 33.5c125.333 0 228.666 -29.333 309.999 -88c66 -47.333 113.5 -106.166 142.5 -176.499s44.833 -164.5 47.5 -282.5zM1537 596c-15.333 48 -39.501 85 -72.501 111s-72.5 39 -118.5 39
c-48 0 -88.667 -13 -122 -39s-56.666 -63 -69.999 -111h383zM617.999 671c-58.667 0 -107.334 -21.333 -146.001 -64c-36.667 -40.667 -55 -88 -55 -142c0 -68 23.667 -123 71 -165c38 -34 81 -51 129 -51c56.667 0 105.334 22 146.001 66c37.333 40 56 89 56 147
c0 64.667 -23.333 118 -70 160c-35.333 32 -79 48.333 -131 49z" />
    <glyph glyph-name="Scedilla" unicode="&#x15e;" horiz-adv-x="1170" 
d="M711 -236l-283 -276l-159 111l239 307zM1034 1287l-142.001 -276.003c-76 61.333 -153.333 92 -232 92c-50 0 -89 -14 -117 -42c-23.333 -22.667 -35 -47.667 -35 -75c0 -41.333 28.333 -75.666 85 -102.999c16 -7.33301 69.667 -24.666 161 -51.999
c118.667 -35.333 204.167 -82.666 256.5 -141.999s78.5 -138.333 78.5 -237c0 -176 -58.667 -305 -176 -387c-96 -67.333 -214.667 -101 -356 -101c-168.667 0 -327 51.667 -475 155l152 286c106 -92.667 210.333 -139 313 -139c62.667 0 108.334 16.333 137.001 49
c22.667 26 34 54 34 84c0 37.333 -14.833 66.833 -44.5 88.5s-86.167 44.834 -169.5 69.501c-130 38 -216.333 74.667 -259 110c-72.667 59.333 -109 149.666 -109 270.999c0 142 47 256 141 342c85.333 78.667 193.333 118 324 118c148.667 0 293 -37 433 -111z" />
    <glyph glyph-name="scedilla" unicode="&#x15f;" horiz-adv-x="922" 
d="M607 -225l-279 -264l-148 93l240 293zM840 901l-110.998 -212.002c-62 30 -121.667 45 -179 45c-29.333 0 -53.333 -6.16699 -72 -18.5s-28 -28.166 -28 -47.499c0 -24.667 17.333 -43.334 52 -56.001c10 -4 41.667 -11.667 95 -23c76.667 -15.333 135 -39 175 -71
c63.333 -49.333 95 -117.333 95 -204c0 -114 -45.333 -203 -136 -267c-78 -54.667 -179.667 -82 -305 -82c-126 0 -249.667 35.667 -371 107l119 232c94 -62.667 181 -94 261 -94c30 0 54.667 6.66699 74 20s29 30.333 29 51c0 23.333 -8.83301 40.5 -26.5 51.5
s-55.5 22.5 -113.5 34.5c-78.667 16.667 -137.334 38 -176.001 64c-64 42.667 -96 107.334 -96 194.001c0 96.667 34.333 176.334 103 239.001c71.333 64.667 174.666 97 309.999 97c104 0 204.333 -20 301 -60z" />
    <glyph glyph-name="Scaron" unicode="&#x160;" horiz-adv-x="1170" 
d="M1034 1287l-142.001 -276.003c-76 61.333 -153.333 92 -232 92c-50 0 -89 -14 -117 -42c-23.333 -22.667 -35 -47.667 -35 -75c0 -41.333 28.333 -75.666 85 -102.999c16 -7.33301 69.667 -24.666 161 -51.999c118.667 -35.333 204.167 -82.666 256.5 -141.999
s78.5 -138.333 78.5 -237c0 -176 -58.667 -305 -176 -387c-96 -67.333 -214.667 -101 -356 -101c-168.667 0 -327 51.667 -475 155l152 286c106 -92.667 210.333 -139 313 -139c62.667 0 108.334 16.333 137.001 49c22.667 26 34 54 34 84
c0 37.333 -14.833 66.833 -44.5 88.5s-86.167 44.834 -169.5 69.501c-130 38 -216.333 74.667 -259 110c-72.667 59.333 -109 149.666 -109 270.999c0 142 47 256 141 342c85.333 78.667 193.333 118 324 118c148.667 0 293 -37 433 -111zM1016 1721l-417 -246l-417 246
l98 155l319 -160l319 160z" />
    <glyph glyph-name="scaron" unicode="&#x161;" horiz-adv-x="922" 
d="M840 901l-110.998 -212.002c-62 30 -121.667 45 -179 45c-29.333 0 -53.333 -6.16699 -72 -18.5s-28 -28.166 -28 -47.499c0 -24.667 17.333 -43.334 52 -56.001c10 -4 41.667 -11.667 95 -23c76.667 -15.333 135 -39 175 -71c63.333 -49.333 95 -117.333 95 -204
c0 -114 -45.333 -203 -136 -267c-78 -54.667 -179.667 -82 -305 -82c-126 0 -249.667 35.667 -371 107l119 232c94 -62.667 181 -94 261 -94c30 0 54.667 6.66699 74 20s29 30.333 29 51c0 23.333 -8.83301 40.5 -26.5 51.5s-55.5 22.5 -113.5 34.5
c-78.667 16.667 -137.334 38 -176.001 64c-64 42.667 -96 107.334 -96 194.001c0 96.667 34.333 176.334 103 239.001c71.333 64.667 174.666 97 309.999 97c104 0 204.333 -20 301 -60zM99.002 1366l139 158l261 -202l261 202l145 -158l-406 -301z" />
    <glyph glyph-name="Ydieresis" unicode="&#x178;" horiz-adv-x="1311" 
d="M469 656l-494 709h424l258 -372l248 372h430l-511 -709v-656h-355v656zM409 1850c49.333 0 91.333 -17.332 126 -51.999s52 -76.334 52 -125.001c0 -49.333 -17.333 -91.333 -52 -126s-76.334 -52 -125.001 -52c-50 0 -92.167 17.5 -126.5 52.5s-51.5 77.5 -51.5 127.5
c0 48 17.333 89 52 123s76.334 51.333 125.001 52zM901 1850c49.333 0 91.333 -17.332 126 -51.999s52 -76.334 52 -125.001c0 -49.333 -17.333 -91.333 -52 -126s-76.334 -52 -125.001 -52c-50 0 -92.167 17.5 -126.5 52.5s-51.5 77.5 -51.5 127.5c0 48 17.333 89 52 123
s76.334 51.333 125.001 52z" />
    <glyph glyph-name="Zcaron" unicode="&#x17d;" horiz-adv-x="1293" 
d="M622 300h573v-300h-1168l646 1065h-537v300h1129zM1131 1721l-444 -246l-444 246l98 155l346 -160l346 160z" />
    <glyph glyph-name="zcaron" unicode="&#x17e;" horiz-adv-x="1067" 
d="M591 273h391v-273h-941l438 655h-379v273h926zM144 1366l139 158l261 -202l261 202l145 -158l-406 -301z" />
    <glyph glyph-name="florin" unicode="&#x192;" horiz-adv-x="1229" 
d="M845 908l200 0.000976562l-25 -137h-198l-96 -528c-16.667 -91.333 -34.667 -164.666 -54 -219.999s-45 -107 -77 -155c-46.667 -70 -99.334 -119.667 -158.001 -149c-69.333 -35.333 -158.333 -53 -267 -53c-54 0 -116.333 6 -187 18l53 299c54 -12 98.667 -18 134 -18
c72 0 123 22.833 153 68.5s58.667 143.5 86 293.5l80 444h-156l21 137h160l41 217c12.667 65.333 28.834 118.666 48.501 159.999s47.167 78.666 82.5 111.999c72 67.333 163.333 101 274 101c50 0 91.167 -4.5 123.5 -13.5s68.166 -25.5 107.499 -49.5l-52 -284
c-52.667 36.667 -100.667 55 -144 55c-35.333 0 -62.166 -12.833 -80.499 -38.5s-33.833 -71.167 -46.5 -136.5z" />
    <glyph glyph-name="circumflex" unicode="&#x2c6;" 
d="M109 1223l400 301l406 -301l-145 -158l-261 202l-261 -202z" />
    <glyph glyph-name="caron" unicode="&#x2c7;" 
d="M109 1366l139 158l261 -202l261 202l145 -158l-406 -301z" />
    <glyph glyph-name="macron" unicode="&#x2c9;" 
d="M154 1307h717v-201h-717v201z" />
    <glyph glyph-name="breve" unicode="&#x2d8;" 
d="M154 1421l209 0.00195312c8.66699 -56.667 22.667 -95.834 42 -117.501s50.333 -32.5 93 -32.5c53.333 0 91 10.167 113 30.5s38.667 60.166 50 119.499h209c-2 -47.333 -6.66699 -84.5 -14 -111.5s-20 -54.5 -38 -82.5c-63.333 -99.333 -165.333 -149 -306 -149
s-242.667 49.667 -306 149c-18 28 -30.667 55.5 -38 82.5s-12 64.167 -14 111.5z" />
    <glyph glyph-name="dotaccent" unicode="&#x2d9;" 
d="M513 1445c51.333 0 95.332 -18.0029 131.999 -54.0029c36 -36.667 54 -80.667 54 -132c0 -52 -18.167 -96.167 -54.5 -132.5s-80.166 -54.5 -131.499 -54.5c-52 0 -96 18.333 -132 55c-36.667 36.667 -55 81.334 -55 134.001c0 50.667 18.167 93.834 54.5 129.501
s80.5 53.834 132.5 54.501z" />
    <glyph glyph-name="ring" unicode="&#x2da;" 
d="M505 1496l13.999 -0.000976562c95.333 0 167.333 -23.333 216 -70c39.333 -36.667 59 -84 59 -142c0 -58.667 -19.667 -106 -59 -142c-49.333 -46.667 -121.333 -70 -216 -70h-14c-94 0 -165.667 23.333 -215 70c-39.333 36 -59 84 -59 144
c0 56.667 19.667 103.334 59 140.001c48.667 46.667 120.334 70 215.001 70zM509.999 1366c-32 0 -57.833 -7.33203 -77.5 -21.999s-29.5 -34.334 -29.5 -59.001c0 -25.333 9.66699 -45.5 29 -60.5s45.666 -22.5 78.999 -22.5c34.667 0 61.834 7.33301 81.501 22
s29.5 34.667 29.5 60c0 26 -9.83301 46.167 -29.5 60.5s-47.167 21.5 -82.5 21.5z" />
    <glyph glyph-name="ogonek" unicode="&#x2db;" 
d="M523 0l149.999 -0.000976562c-78 -50.667 -117 -98 -117 -142c0 -21.333 7.83301 -39.666 23.5 -54.999s34.167 -23 55.5 -23c26 0 60.333 12.667 103 38l-44 -177c-41.333 -24.667 -89.666 -37 -144.999 -37c-50.667 0 -93.667 16 -129 48s-53 70.667 -53 116
c0 88.667 52 166 156 232z" />
    <glyph glyph-name="tilde" unicode="&#x2dc;" 
d="M304 1075h-155.999c0 40 3.33301 74.667 10 104c13.333 59.333 37.666 104.333 72.999 135s74.333 46 117 46c20.667 0 39.5 -2.33301 56.5 -7s58.167 -18.667 123.5 -42c54.667 -20 94.334 -30 119.001 -30c20 0 34.167 4.83301 42.5 14.5s16.833 31.167 25.5 64.5h162
c-8 -70 -19.667 -123.667 -35 -161c-32.667 -82.667 -90.334 -124 -173.001 -124c-29.333 0 -59 4 -89 12s-84.333 26.667 -163 56c-15.333 6 -31.333 9 -48 9c-20.667 0 -35.167 -5 -43.5 -15s-15.5 -30.667 -21.5 -62z" />
    <glyph glyph-name="hungarumlaut" unicode="&#x2dd;" 
d="M619 1344l-280 -279l-125 112l234 316zM988 1344l-280 -279l-125 112l233 316z" />
    <glyph glyph-name="pi" unicode="&#x3c0;" horiz-adv-x="1342" 
d="M191 0v713h-149v270h1259v-270h-150v-713h-343v713h-274v-713h-343z" />
    <glyph glyph-name="endash" unicode="&#x2013;" horiz-adv-x="1229" 
d="M130 621h969v-273h-969v273z" />
    <glyph glyph-name="emdash" unicode="&#x2014;" horiz-adv-x="1570" 
d="M0 621h1570v-273h-1570v273z" />
    <glyph glyph-name="quoteleft" unicode="&#x2018;" horiz-adv-x="707" 
d="M405 765h-309l333 600h210z" />
    <glyph glyph-name="quoteright" unicode="&#x2019;" horiz-adv-x="707" 
d="M303 1365h308l-333 -600h-210z" />
    <glyph glyph-name="quotesinglbase" unicode="&#x201a;" horiz-adv-x="707" 
d="M303 347h308l-333 -601h-210z" />
    <glyph glyph-name="quotedblleft" unicode="&#x201c;" horiz-adv-x="1171" 
d="M869 765h-309l333 600h211zM405 765h-309l333 600h210z" />
    <glyph glyph-name="quotedblright" unicode="&#x201d;" horiz-adv-x="1171" 
d="M303 1365h308l-333 -600h-210zM767 1365h309l-334 -600h-210z" />
    <glyph glyph-name="quotedblbase" unicode="&#x201e;" horiz-adv-x="1171" 
d="M303 347h308l-333 -601h-210zM767 347h309l-334 -601h-210z" />
    <glyph glyph-name="dagger" unicode="&#x2020;" horiz-adv-x="1229" 
d="M463 1502h300v-305h322v-259h-322v-1252h-300v1252h-319v259h319v305z" />
    <glyph glyph-name="daggerdbl" unicode="&#x2021;" horiz-adv-x="1229" 
d="M466 1502h300v-268h318v-259h-318v-484h318v-259h-318v-546h-300v546h-321v259h321v484h-321v259h321v268z" />
    <glyph glyph-name="bullet" unicode="&#x2022;" horiz-adv-x="1365" 
d="M689 978c75.333 0 140.666 -27.667 195.999 -83c56 -55.333 84 -122.333 84 -201s-27.667 -145.667 -83 -201s-122.333 -83 -201 -83c-77.333 0 -143.666 27.333 -198.999 82c-56.667 56 -85 123.333 -85 202c0 80.667 28 148 84 202c57.333 54.667 125.333 82 204 82z
" />
    <glyph glyph-name="ellipsis" unicode="&#x2026;" horiz-adv-x="1864" 
d="M311 386c58.667 0 108.667 -20.668 150 -62.001s62 -91.333 62 -150s-20.667 -108.667 -62 -150s-91.333 -62 -150 -62c-59.333 0 -109.333 20.667 -150 62c-41.333 42 -62 93 -62 153c0 57.333 20.667 106.333 62 147s91.333 61.334 150 62.001zM932 385.999
c58.667 0 108.667 -20.668 150 -62.001s62 -91.333 62 -150s-20.667 -108.667 -62 -150s-91.333 -62 -150 -62c-59.333 0 -109.333 20.667 -150 62c-41.333 42 -62 93 -62 153c0 57.333 20.667 106.333 62 147s91.333 61.334 150 62.001zM1553 385.998
c58.667 0 108.667 -20.668 150 -62.001s62 -91.333 62 -150s-20.667 -108.667 -62 -150s-91.333 -62 -150 -62c-59.333 0 -109.333 20.667 -150 62c-41.333 42 -62 93 -62 153c0 57.333 20.5 106.333 61.5 147s91.167 61.334 150.5 62.001z" />
    <glyph glyph-name="perthousand" unicode="&#x2030;" horiz-adv-x="2712" 
d="M450 1380c118 0 210.333 -35.665 277 -106.998c58.667 -62.667 88 -137.334 88 -224.001c0 -106 -40.333 -193 -121 -261c-61.333 -51.333 -147 -77 -257 -77c-120.667 0 -214.667 35.333 -282 106c-58 59.333 -87 137.666 -87 234.999c0 94.667 33 172.667 99 234
c66.667 62 161 93.333 283 94zM441 1200c-41.333 0 -77.167 -14.834 -107.5 -44.501s-45.5 -65.5 -45.5 -107.5c0 -43.333 15 -80 45 -110s66.333 -45 109 -45c42 0 78 15 108 45s45 66.333 45 109c0 42 -14.833 77.833 -44.5 107.5s-66.167 44.834 -109.5 45.501z
M1223 1365h178l-793 -1365h-177zM1400 653.001c118 0 210.333 -35.666 277 -106.999c58.667 -62.667 88 -137.334 88 -224.001c0 -106 -40.333 -193 -121 -261c-61.333 -51.333 -147 -77 -257 -77c-120.667 0 -214.667 35.333 -282 106c-58 60 -87 138.333 -87 235
c0 94.667 33 172.667 99 234c66.667 62 161 93.333 283 94zM1391 473.002c-41.333 0 -77.167 -14.834 -107.5 -44.501s-45.5 -65.5 -45.5 -107.5c0 -42.667 15 -79.167 45 -109.5s66.333 -45.5 109 -45.5c42 0 78 15 108 45s45 66.333 45 109
c0 42 -14.833 77.833 -44.5 107.5s-66.167 44.834 -109.5 45.501zM2278 653.001c118.667 0 211 -35.666 277 -106.999c58.667 -62.667 88 -137.334 88 -224.001c0 -106 -40.333 -193 -121 -261c-61.333 -51.333 -147 -77 -257 -77c-120.667 0 -214.667 35.333 -282 106
c-58 60 -87 138.333 -87 235c0 94.667 33 172.667 99 234c66.667 62 161 93.333 283 94zM2269 473.002c-41.333 0 -77.166 -14.833 -107.5 -44.5c-30.333 -29.667 -45.5 -65.5 -45.5 -107.5c0 -42.667 15 -79.167 45 -109.5s66.333 -45.5 109 -45.5c42 0 78 15 108 45
s45 66.333 45 109s-14.833 78.667 -44.5 108s-66.167 44.333 -109.5 45z" />
    <glyph glyph-name="guilsinglleft" unicode="&#x2039;" horiz-adv-x="637" 
d="M321 467l234 -315l-187 -131l-311 446l311 444l181 -124z" />
    <glyph glyph-name="guilsinglright" unicode="&#x203a;" horiz-adv-x="637" 
d="M315 467l-228 320l182 124l311 -444l-311 -446l-187 131z" />
    <glyph glyph-name="franc" unicode="&#x20a3;" horiz-adv-x="1529" 
d="M925 1065h-427v-228h389v-300h-389v-537h-355v1365h782v-300zM990 650h257v-106c26.667 43.333 56.667 74.5 90 93.5s75.333 28.5 126 28.5c12.667 0 29 -0.666992 49 -2v-233c-33.333 15.333 -68 23 -104 23c-107.333 0 -161 -61 -161 -183v-271h-257v650z" />
    <glyph glyph-name="trademark" unicode="&#x2122;" horiz-adv-x="1590" 
d="M375 1183v-596h-212v596h-162v182h539v-182h-165zM580 587l130 778h209l149 -399l157 399h211l115 -778h-212l-53 422l-175 -422h-92l-167 422l-61 -422h-211z" />
    <glyph glyph-name="Omega" unicode="&#x2126;" horiz-adv-x="1364" 
d="M58 0v235.997h281c-78.667 49.333 -137.334 100.333 -176.001 153c-70 94.667 -105 214.667 -105 360c0 180 55.333 330.667 166 452c120 131.333 272.667 197 458 197s338 -65.667 458 -197c110.667 -121.333 166 -271.666 166 -450.999
c0 -120 -21.667 -219.833 -65 -299.5s-115.333 -151.167 -216 -214.5h281v-236h-552v210c78 44.667 136.333 93.334 175 146.001c68.667 94.667 103 216.334 103 365.001c0 114.667 -25.667 210 -77 286c-32 47.333 -72 85 -120 113s-99 42 -153 42
c-95.333 0 -177.333 -40 -246 -120c-69.333 -80 -104 -187.333 -104 -322c0 -122 22.333 -224 67 -306s115.334 -150 212.001 -204v-210h-553z" />
    <glyph glyph-name="partialdiff" unicode="&#x2202;" 
d="M96 1073l41.9971 280.999c264.667 -25.333 468.334 -98.333 611.001 -219c166.667 -140.667 250 -333 250 -577c0 -212.667 -61.667 -369.667 -185 -471c-85.333 -69.333 -191.666 -104 -318.999 -104c-139.333 0 -251.666 43.667 -336.999 131
c-91.333 92.667 -137 208.334 -137 347.001c0 120 39.167 220.167 117.5 300.5s176.5 120.5 294.5 120.5c92.667 0 166 -20.667 220 -62c-66 148.667 -251.667 233 -557 253zM509.997 612.999c-43.333 0 -80.667 -14.999 -112 -44.999c-34.667 -32.667 -52 -74.667 -52 -126
c0 -48 16 -88.333 48 -121s69.667 -49 113 -49c44.667 0 82.667 16.667 114 50s47 73.666 47 120.999c0 50.667 -16.667 92 -50 124c-30 30 -66 45.333 -108 46z" />
    <glyph glyph-name="Delta" unicode="&#x2206;" horiz-adv-x="1356" 
d="M19 0l466 1365h381l472 -1365h-1319zM485 318h378l-184 661z" />
    <glyph glyph-name="product" unicode="&#x220f;" horiz-adv-x="1365" 
d="M30 1536h1305v-293h-145v-1462h145v-293h-594v293h121v1462h-359v-1462h119v-293h-592v293h148v1462h-148v293z" />
    <glyph glyph-name="summation" unicode="&#x2211;" horiz-adv-x="1365" 
d="M1298 1536v-550h-330l-41 213h-446l488 -659l-485 -715h461l24 226h348v-563h-1248v387l465 664l-465 608v389h1229z" />
    <glyph glyph-name="minus" unicode="&#x2212;" horiz-adv-x="1229" 
d="M130 799h969v-232h-969v232z" />
    <glyph glyph-name="fraction" unicode="&#x2215;" horiz-adv-x="355" 
d="M485 1365h178l-793 -1365h-177z" />
    <glyph glyph-name="periodcentered" unicode="&#x2219;" horiz-adv-x="621" 
d="M310 696c58.667 0 108.667 -20.668 150 -62.001s62 -91 62 -149c0 -58.667 -20.667 -108.667 -62 -150s-91 -62 -149 -62c-59.333 0 -109.333 20.667 -150 62c-41.333 42 -62 92.667 -62 152c0 57.333 20.5 106.333 61.5 147s90.833 61.334 149.5 62.001z" />
    <glyph glyph-name="radical" unicode="&#x221a;" horiz-adv-x="1365" 
d="M1365 1693l-0.000976562 -303h-319l-326 -1390h-432l-98 484h-190v303h397l42 -184c17.333 -90.667 27.666 -189.667 30.999 -297h21c6.66699 84.667 19.334 183.5 38.001 296.5s39.334 216.833 62.001 311.5l186 779h588z" />
    <glyph glyph-name="infinity" unicode="&#x221e;" horiz-adv-x="1365" 
d="M689 532c-98 -112 -205.667 -167.998 -323 -167.998c-104 0 -188.333 36 -253 108c-52 58.667 -78 133 -78 223c0 107.333 37 191.666 111 252.999c62 52 135 78 219 78c112.667 0 217 -55.667 313 -167c91.333 111.333 198.333 167 321 167c112 0 200 -40.333 264 -121
c45.333 -56.667 68 -126.334 68 -209.001c0 -104.667 -35 -188 -105 -250c-62.667 -54.667 -137 -82 -223 -82c-118 0 -222.667 56 -314 168zM807 695.002c50.667 -70.667 102.334 -106 155.001 -106c31.333 0 57.666 10.333 78.999 31s32 45.667 32 75
s-10.833 54.333 -32.5 75s-48.167 31 -79.5 31c-40.667 0 -79.667 -19.667 -117 -59c-5.33301 -6 -13 -15.167 -23 -27.5s-14.667 -18.833 -14 -19.5zM559 695.002c-50.667 70 -102.334 104.999 -155.001 104.999c-31.333 0 -57.666 -10.167 -78.999 -30.5
s-32 -45.5 -32 -75.5c0 -29.333 10.833 -54.166 32.5 -74.499s48.167 -30.5 79.5 -30.5c40.667 0 79.667 19.667 117 59c5.33301 6 13 15.167 23 27.5s14.667 18.833 14 19.5z" />
    <glyph glyph-name="integral" unicode="&#x222b;" 
d="M41 -492l59.002 347.999c35.333 -13.333 65.666 -20 90.999 -20c58 0 96 23.667 114 71c6.66699 17.333 10 97 10 239v664c0 170 1 273 3 309s9 76.333 21 121c24.667 95.333 81 171.333 169 228c72 45.333 164.333 68 277 68c53.333 0 119.666 -6.66699 198.999 -20
l-59 -348c-35.333 13.333 -66.333 20 -93 20c-55.333 0 -92.333 -23.667 -111 -71c-7.33301 -17.333 -11 -55.666 -11 -114.999v-778c0 -160 -0.5 -256 -1.5 -288s-4.5 -64 -10.5 -96c-20 -114.667 -73 -203.667 -159 -267c-76 -56 -177 -84 -303 -84
c-56.667 0 -121.667 6.33301 -195 19z" />
    <glyph glyph-name="approxequal" unicode="&#x2248;" 
d="M199 713l-184.999 131c26 67.333 54 123 84 167c63.333 92.667 142 139 236 139c28 0 57.667 -4.83301 89 -14.5s101.666 -35.167 210.999 -76.5c25.333 -10 47.666 -15 66.999 -15c24.667 0 45.667 6 63 18s37.333 34.667 60 68l185 -130
c-24 -60 -44.667 -105.167 -62 -135.5s-39 -58.833 -65 -85.5c-53.333 -56 -118.333 -84 -195 -84c-45.333 0 -121.666 21.667 -228.999 65c-67.333 26.667 -114.333 40 -141 40c-38.667 0 -78 -29 -118 -87zM199.001 218l-184.999 131c26 68 54 124 84 168
c63.333 92 142 138 236 138c27.333 0 56.833 -4.83301 88.5 -14.5s102.167 -35.167 211.5 -76.5c25.333 -10 47.666 -15 66.999 -15c24.667 0 45.5 6 62.5 18s37.167 35 60.5 69l185 -131c-24 -60 -44.667 -105 -62 -135s-39 -58.667 -65 -86
c-53.333 -56 -118.333 -84 -195 -84c-46.667 0 -123 21.667 -229 65c-66.667 26.667 -113.667 40 -141 40c-38.667 0 -78 -29 -118 -87z" />
    <glyph glyph-name="notequal" unicode="&#x2260;" 
d="M514 1021l148 273l237 -134l-81 -139h138v-323h-269l-76 -135h343v-323h-461l-123 -220l-237 133l55 87h-120v323h238l78 135h-315v323h445z" />
    <glyph glyph-name="lessequal" unicode="&#x2264;" 
d="M955 1375v-362l-465 -123l465 -121v-361l-887 322v323zM955 356v-340h-887v340h887z" />
    <glyph glyph-name="greaterequal" unicode="&#x2265;" 
d="M69 408v361l464 121l-465 123v362l887 -322v-323zM68 16v340h887v-340h-887z" />
    <glyph glyph-name="lozenge" unicode="&#x25ca;" horiz-adv-x="1365" 
d="M683 1419l531 -736l-531 -736l-532 736zM683 1238l-404 -555l404 -554l403 554z" />
    <glyph glyph-name="apple" unicode="&#xf000;" horiz-adv-x="1365" 
d="M984 1416l-0.000976562 -21.001c0 -107.333 -42.333 -195.666 -127 -264.999c-32 -26 -60.667 -44 -86 -54s-55.666 -15 -90.999 -15c2 97.333 30.167 177.833 84.5 241.5s127.5 101.5 219.5 113.5zM1277 934.999c-43.333 -33.333 -76 -64 -98 -92
c-44.667 -56 -67 -120 -67 -192c0 -68.667 18 -130 54 -184s85.667 -94.667 149 -122c-44 -107.333 -90.333 -192.666 -139 -255.999c-73.333 -95.333 -142.666 -143 -207.999 -143c-20 0 -36.833 2.16699 -50.5 6.5s-51.834 19.5 -114.501 45.5
c-10.667 4.66699 -36.667 7 -78 7c-34.667 0 -59.667 -1.83301 -75 -5.5s-51 -16.834 -107 -39.501c-28 -11.333 -54.333 -17 -79 -17c-36.667 0 -74.667 14.5 -114 43.5s-76.666 70.167 -111.999 123.5c-48.667 72 -88 149 -118 231c-36 99.333 -54 195.333 -54 288
c0 122 33.333 226.667 100 314c68.667 89.333 163 134 283 134c44 0 96.667 -12 158 -36c45.333 -17.333 77.666 -26 96.999 -26c23.333 0 53 7 89 21c53.333 20 90.5 32.5 111.5 37.5s46.5 7.5 76.5 7.5c126 0 224.667 -48.667 296 -146z" />
    <glyph glyph-name="fi" unicode="&#xf001;" horiz-adv-x="1218" 
d="M467 655l-0.00195312 -655h-328v655h-117v273h117v140c0 77.333 7.66699 139 23 185s42.333 89.667 81 131c86.667 92 190 138 310 138c48 0 96.333 -11.333 145 -34v-286c-46 22 -84.333 33 -115 33c-21.333 0 -42.166 -6 -62.499 -18s-34.166 -26.333 -41.499 -43
c-8 -19.333 -12 -62.333 -12 -129v-117h231v-273h-231zM1106 928v-928h-328v928h328zM941.998 1469c51.333 0 95 -18.001 131 -54.001s54 -79.333 54 -130c0 -51.333 -18 -95 -54 -131s-79.333 -54 -130 -54c-52 0 -95.667 18 -131 54c-36 36.667 -54 81 -54 133
c0 49.333 18 91.833 54 127.5s79.333 53.834 130 54.501z" />
    <glyph glyph-name="fl" unicode="&#xf002;" horiz-adv-x="1218" 
d="M467 655l-0.00195312 -655h-328v655h-117v273h117v140c0 77.333 7.66699 139 23 185s42.333 89.667 81 131c86.667 92 190 138 310 138c48 0 96.333 -11.333 145 -34v-286c-46 22 -84.333 33 -115 33c-21.333 0 -42.166 -6 -62.499 -18s-34.166 -26.333 -41.499 -43
c-8 -19.333 -12 -62.333 -12 -129v-117h231v-273h-231zM1106 1502v-1502h-328v1502h328z" />
    <glyph glyph-name="glyph1" horiz-adv-x="0" 
 />
    <glyph glyph-name="glyph2" horiz-adv-x="512" 
 />
    <glyph glyph-name="glyph172" horiz-adv-x="1229" 
 />
    <glyph glyph-name="glyph226" horiz-adv-x="512" 
 />
    <glyph glyph-name="glyph227" horiz-adv-x="512" 
 />
    <glyph glyph-name="glyph228" horiz-adv-x="512" 
 />
    <glyph glyph-name="glyph229" horiz-adv-x="512" 
 />
    <glyph glyph-name="glyph230" horiz-adv-x="512" 
 />
    <glyph glyph-name="glyph231" horiz-adv-x="512" 
 />
    <glyph glyph-name="glyph232" horiz-adv-x="512" 
 />
    <glyph glyph-name="glyph233" horiz-adv-x="512" 
 />
    <glyph glyph-name="glyph234" horiz-adv-x="512" 
 />
    <glyph glyph-name="glyph235" horiz-adv-x="512" 
 />
    <glyph glyph-name="glyph236" horiz-adv-x="512" 
 />
    <glyph glyph-name="glyph237" horiz-adv-x="512" 
 />
    <glyph glyph-name="glyph238" horiz-adv-x="512" 
 />
    <glyph glyph-name="glyph239" horiz-adv-x="512" 
 />
    <glyph glyph-name="glyph240" horiz-adv-x="512" 
 />
    <glyph glyph-name="glyph241" horiz-adv-x="512" 
 />
    <glyph glyph-name="glyph242" horiz-adv-x="512" 
 />
    <glyph glyph-name="glyph243" horiz-adv-x="512" 
 />
    <glyph glyph-name="glyph244" horiz-adv-x="512" 
 />
    <glyph glyph-name="glyph245" horiz-adv-x="512" 
 />
    <glyph glyph-name="glyph246" horiz-adv-x="512" 
 />
    <glyph glyph-name="glyph247" horiz-adv-x="512" 
 />
    <glyph glyph-name="glyph248" horiz-adv-x="512" 
 />
    <glyph glyph-name="glyph249" horiz-adv-x="512" 
 />
    <glyph glyph-name="glyph250" horiz-adv-x="512" 
 />
    <glyph glyph-name="glyph251" horiz-adv-x="512" 
 />
    <glyph glyph-name="glyph252" horiz-adv-x="512" 
 />
    <glyph glyph-name="glyph253" horiz-adv-x="512" 
 />
    <glyph glyph-name="glyph254" horiz-adv-x="512" 
 />
    <glyph glyph-name="glyph255" horiz-adv-x="512" 
 />
    <glyph glyph-name="glyph256" horiz-adv-x="512" 
 />
    <glyph glyph-name="glyph257" horiz-adv-x="512" 
 />
    <glyph glyph-name="glyph294" 
d="M300 1850c49.333 0 91.333 -17.332 126 -51.999s52 -76.334 52 -125.001c0 -49.333 -17.333 -91.333 -52 -126s-76.334 -52 -125.001 -52c-50 0 -92.167 17.5 -126.5 52.5s-51.5 77.5 -51.5 127.5c0 48 17.333 89 52 123s76.334 51.333 125.001 52zM723 1850
c49.333 0 91.333 -17.332 126 -51.999s52 -76.334 52 -125.001c0 -49.333 -17.333 -91.333 -52 -126s-76.334 -52 -125.001 -52c-50 0 -92.167 17.5 -126.5 52.5s-51.5 77.5 -51.5 127.5c0 48 17.333 89 52 123s76.334 51.333 125.001 52z" />
    <glyph glyph-name="glyph295" 
d="M829 -236l-283 -276l-159 111l239 307z" />
    <glyph glyph-name="glyph296" 
d="M512 1850c49.333 0 91.333 -17.332 126 -51.999s52 -76.334 52 -125.001c0 -49.333 -17.333 -91.333 -52 -126s-76.334 -52 -125.001 -52c-50 0 -92.167 17.5 -126.5 52.5s-51.5 77.5 -51.5 127.5c0 48 17.333 89 52 123s76.334 51.333 125.001 52z" />
    <glyph glyph-name="glyph297" 
d="M121 1810h229.999c18.667 -80.667 72.334 -121 161.001 -121s142 40.333 160 121h231c-4 -65.333 -22.333 -120.666 -55 -165.999c-70 -99.333 -182 -149 -336 -149s-266.333 49.667 -337 149c-32.667 45.333 -50.667 100.666 -54 165.999z" />
    <glyph glyph-name="glyph298" 
d="M505 1892l14 0.000976562c95.333 0 167.333 -23.333 216 -70c39.333 -36.667 59 -84.334 59 -143.001c0 -57.333 -19.667 -104.666 -59 -141.999c-48.667 -46.667 -120.667 -70 -216 -70h-14c-94.667 0 -166.334 23.333 -215.001 70
c-39.333 37.333 -59 85.666 -59 144.999c0 56 19.667 102.667 59 140c48.667 46.667 120.334 70 215.001 70zM511 1758c-32 0 -57.333 -7.00098 -76 -21.001s-28 -32.667 -28 -56c0 -24.667 9.33301 -44 28 -58s44 -21 76 -21c33.333 0 59.5 7 78.5 21s28.5 33 28.5 57
c0 24.667 -9.5 43.834 -28.5 57.501s-45.167 20.5 -78.5 20.5z" />
    <glyph glyph-name="glyph299" 
d="M283 1509l-170.998 -0.000976562c0.666992 64 10 116.667 28 158c18 40.667 45.167 72.834 81.5 96.501s76.5 35.5 120.5 35.5c37.333 0 99.666 -14 186.999 -42c59.333 -19.333 102 -29 128 -29c39.333 0 65.666 24.667 78.999 74h178
c-8.66699 -78.667 -21.334 -134.334 -38.001 -167.001c-42.667 -84 -114.667 -126 -216 -126c-47.333 0 -103.666 11.667 -168.999 35c-70 24.667 -115.667 37 -137 37s-36.5 -4.66699 -45.5 -14s-17.5 -28.666 -25.5 -57.999z" />
    <glyph glyph-name="glyph300" 
d="M95 1630l417 246l417 -246l-98 -155l-319 160l-319 -160z" />
    <glyph glyph-name="glyph301" 
d="M160 1712l190 173l296 -282l-138 -128z" />
    <glyph glyph-name="glyph302" 
d="M864 1712l-348 -237l-138 128l296 282z" />
    <glyph glyph-name="glyph303" 
d="M929 1721l-417 -246l-417 246l98 155l319 -160l319 160z" />
    <glyph glyph-name="glyph304" 
d="M266 1850c49.333 0 91.333 -17.332 126 -51.999s52 -76.334 52 -125.001c0 -49.333 -17.333 -91.333 -52 -126s-76.334 -52 -125.001 -52c-50 0 -92.167 17.5 -126.5 52.5s-51.5 77.5 -51.5 127.5c0 48 17.333 89 52 123s76.334 51.333 125.001 52zM758 1850
c49.333 0 91.333 -17.332 126 -51.999s52 -76.334 52 -125.001c0 -49.333 -17.333 -91.333 -52 -126s-76.334 -52 -125.001 -52c-50 0 -92.167 17.5 -126.5 52.5s-51.5 77.5 -51.5 127.5c0 48 17.333 89 52 123s76.334 51.333 125.001 52z" />
    <glyph glyph-name="glyph305" 
d="M300 1427c49.333 0 91.333 -17.332 126 -51.999s52 -76.334 52 -125.001c0 -49.333 -17.333 -91.333 -52 -126s-76.334 -52 -125.001 -52c-50 0 -92.167 17.5 -126.5 52.5s-51.5 77.5 -51.5 127.5c0 48 17.333 89 52 123s76.334 51.333 125.001 52zM723 1427
c49.333 0 91.333 -17.332 126 -51.999s52 -76.334 52 -125.001c0 -49.333 -17.333 -91.333 -52 -126s-76.334 -52 -125.001 -52c-50 0 -92.167 17.5 -126.5 52.5s-51.5 77.5 -51.5 127.5c0 48 17.333 89 52 123s76.334 51.333 125.001 52z" />
    <glyph glyph-name="glyph306" horiz-adv-x="512" 
 />
    </font>
</defs>
</svg>
