<svg xmlns="http://www.w3.org/2000/svg">
<defs>
<font id="DBYordX-Boldf" horiz-adv-x="0" >
  <font-face 
    font-family="DB Yord X Bold"
    font-weight="700"
    font-stretch="normal"
    units-per-em="4096"
    panose-1="2 0 8 6 0 0 0 2 0 4"
    ascent="3276"
    descent="-820"
    x-height="1856"
    cap-height="2729"
    bbox="-2461 -1038 4172 4382"
    underline-thickness="143"
    underline-position="-1242"
    unicode-range="U+0020-25CC"
  />
<missing-glyph horiz-adv-x="2207" 
d="M2252 2132v-74h30q38 0 38 48q0 4 -8 15t-30 11h-30zM2266 2053h-14v-74h-28v181h58q64 0 64 -54q0 -36 -16 -44.5t-38 -8.5l54 -74h-26zM2282 1952q34 0 57 10.5t36.5 26.5t18.5 35t5 34q0 60 -27.5 94t-89.5 34q-59 0 -90.5 -33.5t-31.5 -94.5q0 -45 29 -75.5t93 -30.5
zM2282 2203q69 0 101 -42t32 -103q0 -22 -8 -43.5t-24 -38.5t-41 -28.5t-60 -11.5q-31 0 -57 11.5t-43.5 28.5t-27 39t-9.5 43q0 60 36.5 102.5t100.5 42.5zM1071 1685q56 -4 127.5 -11.5t149 -20t154.5 -27t145.5 -33t122.5 -39t85 -45.5q-53 105 -139 188t-191 139.5
t-222.5 86t-235.5 29.5q-91 0 -178 -17t-167 -52t-150 -88.5t-124 -125.5q97 12 192.5 16.5t191.5 4.5q60 0 120 -0.5t119 -4.5zM2000 2106v-758q-128 40 -276 75.5t-310.5 61.5t-337 41.5t-356.5 15.5q-129 0 -252.5 -8t-248.5 -25q31 120 101.5 228.5t176.5 191t246.5 130
t312.5 47.5q165 0 298.5 -37t233 -91.5t167 -116t100.5 -113.5q0 -3 -0.5 15t-0.5 49t-1 71.5t-1 81.5t-1 78t-1 63h150zM817 677q0 45 -29.5 65.5t-62.5 20.5q-36 0 -63.5 -20.5t-27.5 -65.5t27.5 -62t63.5 -17q16 0 32.5 3.5t29.5 13.5t21.5 25t8.5 37zM170 741
q0 124 49 219t128.5 158.5t181.5 96t207 32.5t205 -28.5t175.5 -88t122 -150.5t46.5 -217v-619h565v1077h150v-1215h-1008v138h155v634q0 79 -31.5 140t-85.5 100.5t-128.5 60t-160.5 20.5q-79 0 -154 -22.5t-133 -66t-93 -105.5t-35 -142v-571l308 309q-14 6 -33 19.5
t-36.5 35t-30 51.5t-12.5 70q0 97 58.5 152.5t155.5 55.5q45 0 83 -16.5t64.5 -45.5t40.5 -66.5t14 -79.5q0 -38 -8 -66.5t-21 -49.5t-26.5 -35t-24.5 -25q-6 -6 -30 -29t-61 -58t-81.5 -78.5t-93.5 -90.5q-57 -52 -119.5 -111.5t-131.5 -127.5h-171v735z" />
    <glyph glyph-name=".notdef" horiz-adv-x="2207" 
d="M2252 2132v-74h30q38 0 38 48q0 4 -8 15t-30 11h-30zM2266 2053h-14v-74h-28v181h58q64 0 64 -54q0 -36 -16 -44.5t-38 -8.5l54 -74h-26zM2282 1952q34 0 57 10.5t36.5 26.5t18.5 35t5 34q0 60 -27.5 94t-89.5 34q-59 0 -90.5 -33.5t-31.5 -94.5q0 -45 29 -75.5t93 -30.5
zM2282 2203q69 0 101 -42t32 -103q0 -22 -8 -43.5t-24 -38.5t-41 -28.5t-60 -11.5q-31 0 -57 11.5t-43.5 28.5t-27 39t-9.5 43q0 60 36.5 102.5t100.5 42.5zM1071 1685q56 -4 127.5 -11.5t149 -20t154.5 -27t145.5 -33t122.5 -39t85 -45.5q-53 105 -139 188t-191 139.5
t-222.5 86t-235.5 29.5q-91 0 -178 -17t-167 -52t-150 -88.5t-124 -125.5q97 12 192.5 16.5t191.5 4.5q60 0 120 -0.5t119 -4.5zM2000 2106v-758q-128 40 -276 75.5t-310.5 61.5t-337 41.5t-356.5 15.5q-129 0 -252.5 -8t-248.5 -25q31 120 101.5 228.5t176.5 191t246.5 130
t312.5 47.5q165 0 298.5 -37t233 -91.5t167 -116t100.5 -113.5q0 -3 -0.5 15t-0.5 49t-1 71.5t-1 81.5t-1 78t-1 63h150zM817 677q0 45 -29.5 65.5t-62.5 20.5q-36 0 -63.5 -20.5t-27.5 -65.5t27.5 -62t63.5 -17q16 0 32.5 3.5t29.5 13.5t21.5 25t8.5 37zM170 741
q0 124 49 219t128.5 158.5t181.5 96t207 32.5t205 -28.5t175.5 -88t122 -150.5t46.5 -217v-619h565v1077h150v-1215h-1008v138h155v634q0 79 -31.5 140t-85.5 100.5t-128.5 60t-160.5 20.5q-79 0 -154 -22.5t-133 -66t-93 -105.5t-35 -142v-571l308 309q-14 6 -33 19.5
t-36.5 35t-30 51.5t-12.5 70q0 97 58.5 152.5t155.5 55.5q45 0 83 -16.5t64.5 -45.5t40.5 -66.5t14 -79.5q0 -38 -8 -66.5t-21 -49.5t-26.5 -35t-24.5 -25q-6 -6 -30 -29t-61 -58t-81.5 -78.5t-93.5 -90.5q-57 -52 -119.5 -111.5t-131.5 -127.5h-171v735z" />
    <glyph glyph-name=".null" 
 />
    <glyph glyph-name="nonmarkingreturn" horiz-adv-x="1508" 
 />
    <glyph glyph-name="space" unicode=" " horiz-adv-x="1465" 
 />
    <glyph glyph-name="exclam" unicode="!" horiz-adv-x="1388" 
d="M695 775q177 -4 300.5 -127t123.5 -301q0 -174 -123.5 -297t-300.5 -123q-178 0 -300.5 123.5t-122.5 296.5q0 178 123 300.5t300 122.5v5zM354 927v1802h685v-1802h-685v0z" />
    <glyph glyph-name="quotedbl" unicode="&#x22;" horiz-adv-x="1808" 
d="M170 2729h616l-99 -1198h-419l-98 1198v0zM1024 2729h615l-97 -1198h-420l-98 1198v0z" />
    <glyph glyph-name="numbersign" unicode="#" horiz-adv-x="2481" 
d="M959 2627h384l-141 -734h365l140 734h381l-141 -734h289v-410h-354l-87 -449h340v-407h-428l-119 -627h-383l119 627h-365l-120 -627h-383l119 627h-329v407h409l87 449h-348v410h424l141 734v0zM1125 1483l-86 -449h368l95 449h-377v0z" />
    <glyph glyph-name="dollar" unicode="$" horiz-adv-x="2481" 
d="M246 314l296 547q98 -94 230.5 -173.5t270.5 -115.5q40 -7 79.5 -12.5t75.5 -5.5q18 0 38 1.5t38 5.5q98 17 181 81t83 176q0 109 -94 162.5t-232 102.5q-59 17 -120 37t-122 42q-4 0 -5.5 1.5t-5.5 1.5q-210 80 -383.5 230.5t-173.5 475.5q0 323 204.5 576t533.5 274
v442h336v-438q26 -8 53 -9q26 -2 52 -9q145 -22 288 -69t266 -126l-268 -522q-97 76 -216.5 125t-246.5 49q-119 0 -213.5 -47t-94.5 -156q0 -86 69 -140.5t149 -90.5q36 -14 72.5 -27t64.5 -23q310 -102 547.5 -259.5t237.5 -533.5q0 -379 -202.5 -588t-557.5 -295v-449
h-336v431q-119 0 -235 21.5t-232 65.5q-10 3 -21 6.5t-19 6.5q-105 44 -204.5 96.5t-182.5 128.5v3z" />
    <glyph glyph-name="percent" unicode="%" horiz-adv-x="3527" 
d="M2714 1298q304 -3 525 -171t221 -494q0 -329 -217.5 -499t-528.5 -170t-528 170t-217 499q0 327 221 494.5t524 167.5v3zM2714 937q-127 -3 -217 -94t-90 -216q0 -127 90.5 -215.5t216.5 -88.5t217 88t91 216q0 126 -91 216.5t-217 90.5v3zM2377 2729h354l-1584 -2729
h-355l1585 2729v0zM815 2765q304 -4 524.5 -172t220.5 -494q0 -329 -217.5 -501t-527.5 -172q-311 0 -528.5 172t-217.5 501q0 326 221 494t525 168v4zM815 2403q-127 -4 -218 -94.5t-91 -216.5q0 -127 90.5 -216t218.5 -89q126 0 216.5 89t90.5 216q0 126 -90.5 216.5
t-216.5 90.5v4z" />
    <glyph glyph-name="ampersand" unicode="&#x26;" horiz-adv-x="3068" 
d="M2182 0l-235 254q-191 -134 -417.5 -224.5t-461.5 -102.5h-27h-27q-351 0 -613.5 203t-262.5 576q0 308 164.5 477.5t421.5 282.5l65 32l-58 80q-10 10 -21.5 26.5t-22.5 30.5q-58 80 -104.5 176t-46.5 237q0 354 258.5 551.5t588.5 197.5q326 0 589.5 -195t263.5 -546
q0 -254 -146 -402t-360 -253l344 -358q101 86 191.5 180t166.5 203l402 -380l-344 -369l-33 -33l611 -644h-886v0zM1560 677l-431 463q-14 -10 -27 -20t-27 -20q-76 -50 -139.5 -120.5t-63.5 -168.5q0 -109 83.5 -172.5t180.5 -73.5q11 -4 22 -4h21q102 0 199.5 33t181.5 79
v4zM1423 1734q4 0 9 1q4 2 8 6q90 54 162.5 135.5t72.5 186.5t-64.5 179t-173.5 74q-94 0 -161 -61.5t-67 -162.5q0 -77 44.5 -151t103.5 -135q14 -22 32 -41q19 -18 34 -35v4z" />
    <glyph glyph-name="quotesingle" unicode="'" horiz-adv-x="903" 
d="M145 2729h615l-98 -1198h-420l-97 1198v0z" />
    <glyph glyph-name="parenleft" unicode="(" horiz-adv-x="1272" 
d="M702 2859l394 -224q-159 -261 -252.5 -561t-133.5 -608q-14 -123 -21.5 -242.5t-7.5 -235.5q0 -156 16 -328t49 -349q46 -261 133 -510.5t217 -444.5l-394 -225q-177 232 -287.5 534t-168.5 613q-36 195 -52 387t-16 366q0 163 16 335t52 350q59 310 172.5 607.5
t283.5 531.5v4z" />
    <glyph glyph-name="parenright" unicode=")" horiz-adv-x="1272" 
d="M178 2635l394 224q170 -238 284 -535.5t172 -607.5q36 -178 52 -350t16 -335q0 -174 -16 -365.5t-52 -387.5q-59 -311 -168.5 -613t-287.5 -534l-394 225q130 195 217 444.5t133 510.5q33 177 49 349t16 328q0 115 -7.5 235t-20.5 243q-40 308 -134 608t-253 557v4z" />
    <glyph glyph-name="asterisk" unicode="*" horiz-adv-x="1747" 
d="M710 2729h324l-18 -387l323 202l163 -275l-344 -181l340 -189l-163 -271l-319 207l15 -366h-325l21 362l-308 -196l-162 276l325 181l-336 184l167 276l314 -200l-17 377v0z" />
    <glyph glyph-name="plus" unicode="+" horiz-adv-x="2481" 
d="M970 1202v654h542v-654h656v-544h-656v-658h-542v658h-656v544h656v0z" />
    <glyph glyph-name="comma" unicode="," horiz-adv-x="1239" 
d="M551 691h618l-666 -1202h-423l471 1202v0z" />
    <glyph glyph-name="hyphen" unicode="-" horiz-adv-x="1417" 
d="M192 1433h1036v-542h-1036v542v0z" />
    <glyph glyph-name="period" unicode="." horiz-adv-x="1239" 
d="M623 775q178 -4 300.5 -127t122.5 -301q0 -174 -123 -297t-300 -123q-178 0 -301 123.5t-123 296.5q0 178 123 300.5t301 122.5v5z" />
    <glyph glyph-name="slash" unicode="/" horiz-adv-x="2094" 
d="M1480 3004h518l-1383 -3341h-517l1382 3341v0z" />
    <glyph glyph-name="zero" unicode="0" horiz-adv-x="2481" 
d="M1242 2836q568 -3 844.5 -419t309.5 -915q0 -36 1.5 -70.5t1.5 -70.5q0 -37 -1.5 -71t-1.5 -71q-33 -499 -308 -913.5t-846 -414.5q-572 0 -847.5 414.5t-308.5 913.5q0 37 -1.5 71t-1.5 71q0 36 1.5 70.5t1.5 70.5q33 499 310 915.5t846 416.5v2zM1242 2212
q-178 -4 -274 -156.5t-139 -333.5q-23 -101 -31.5 -195t-8.5 -163t8.5 -164.5t31.5 -196.5q43 -186 139 -337.5t274 -151.5q177 0 273 152t139 337q22 101 31 196.5t9 164.5t-10 163q-9 93 -30 195q-44 182 -139.5 334t-272.5 152v4z" />
    <glyph glyph-name="one" unicode="1" horiz-adv-x="2481" 
d="M974 2128h-392v601h1101v-2729h-709v2128v0z" />
    <glyph glyph-name="two" unicode="2" horiz-adv-x="2481" 
d="M1419 601h893v-601h-2193l1115 1212q119 126 215.5 302t96.5 365v9v11q-8 123 -91.5 228.5t-220.5 105.5q-145 0 -220 -98q-77 -98 -77 -236q0 -26 4 -56t7 -59l-782 3q18 467 301 757t763 290q431 0 742.5 -263t311.5 -707q0 -254 -87 -431t-250 -340q-26 -26 -51 -51.5
t-54 -50.5l-423 -390v0z" />
    <glyph glyph-name="three" unicode="3" horiz-adv-x="2481" 
d="M923 1944h-659q22 210 105 374.5t213 279.5q130 116 308 176t388 60q365 0 618 -205t253 -589v-35t-3 -36q-10 -145 -79 -279t-203 -210q181 -47 289.5 -202.5t140.5 -336.5q8 -36 11 -74t3 -75q0 -449 -325.5 -675t-734.5 -226q-232 0 -439.5 69t-374.5 235
q-86 91 -164 219t-118 263q-14 50 -21.5 97.5t-7.5 94.5v1v5v6v2l723 4q0 -166 107 -278.5t275 -112.5q162 0 270.5 99.5t108.5 265.5q0 155 -114 261t-263 106q-32 0 -63 -8t-60 -15v478h72q138 -3 225.5 76.5t87.5 220.5q0 126 -80 200t-200 74q-134 0 -211.5 -88.5
t-77.5 -218.5v-1v-2v-2v-3v5z" />
    <glyph glyph-name="four" unicode="4" horiz-adv-x="2481" 
d="M2040 1107h331v-542h-331v-565h-657v565h-1324v451l1051 1713h930v-1622v0zM1383 1107v1050h-8l-637 -1050h645v0z" />
    <glyph glyph-name="five" unicode="5" horiz-adv-x="2492" 
d="M2044 2128h-944l-47 -312l225 19h37h35q391 0 642.5 -288t251.5 -692q0 -214 -90.5 -407.5t-260.5 -332.5q-116 -94 -261 -142.5t-297 -66.5q-62 -7 -121 -11t-118 -4h-29.5h-32.5q-217 8 -430 65.5t-398 177.5l105 672q159 -145 354.5 -231.5t404.5 -86.5
q171 0 303.5 112.5t132.5 290.5q0 224 -161.5 334t-356.5 128q-18 0 -39.5 2t-39.5 2q-134 0 -266 -27t-256 -85l240 1484h1417v-601v0z" />
    <glyph glyph-name="six" unicode="6" horiz-adv-x="2481" 
d="M1107 2729h804l-775 -923l7 -7q22 7 42 14t38 14q72 26 144.5 39t155.5 13q402 0 639 -292t237 -668q0 -503 -352.5 -765.5t-818.5 -262.5q-59 0 -120.5 5.5t-123.5 13.5q-145 26 -284 76t-251 137q-155 130 -257 324t-109 396v14.5v14.5q0 297 130.5 575.5t307.5 510.5
l586 771v0zM1223 449q188 -4 313 128.5t125 319.5q0 186 -125 316t-313 130q-185 0 -316.5 -130t-131.5 -316q0 -187 132 -319.5t316 -132.5v4z" />
    <glyph glyph-name="seven" unicode="7" horiz-adv-x="2481" 
d="M1397 2128h-1140v601h2240l-1567 -2729h-778l1245 2128v0z" />
    <glyph glyph-name="eight" unicode="8" horiz-adv-x="2481" 
d="M1242 2836q350 -3 640 -196t290 -584q0 -217 -121.5 -387.5t-309.5 -231.5v-4q246 -83 394.5 -268t148.5 -452q0 -359 -259 -556t-567 -247q-54 -10 -108.5 -14.5t-107.5 -4.5q-54 0 -108.5 4t-109.5 15q-308 50 -566.5 247t-258.5 556q0 268 150 452.5t393 263.5v11
q-188 58 -309.5 228.5t-121.5 387.5q0 391 290 584.5t641 193.5v2zM1242 1147q-134 -4 -230.5 -103t-96.5 -240q0 -138 96 -236t231 -98q137 0 231 98t94 236q0 141 -94 240t-231 99v4zM1242 2345q-123 -4 -212 -94.5t-89 -216.5q0 -127 89 -217.5t212 -90.5q126 0 213 90.5
t87 217.5q0 126 -87 217t-213 91v3z" />
    <glyph glyph-name="nine" unicode="9" horiz-adv-x="2481" 
d="M1379 0h-807l778 919l-7 8q-18 -10 -36.5 -18t-36.5 -15q-72 -26 -148 -40.5t-163 -14.5q-402 0 -639 293.5t-237 669.5q0 503 353 767.5t820 264.5q58 0 119.5 -4t122.5 -14q145 -22 284 -74.5t252 -143.5q159 -130 258.5 -324t106.5 -403v-11v-14q0 -297 -130 -574
t-308 -512l-582 -760v0zM1259 2276q-188 -4 -312.5 -134t-124.5 -318t124 -318.5t313 -130.5q188 0 320 130t132 319q0 188 -132 318t-320 130v4z" />
    <glyph glyph-name="colon" unicode=":" horiz-adv-x="1239" 
d="M623 775q178 -4 300.5 -127t122.5 -301q0 -174 -123 -297t-300 -123q-178 0 -301 123.5t-123 296.5q0 178 123 300.5t301 122.5v5zM623 1994q178 -4 300.5 -127t122.5 -300q0 -174 -123 -299t-300 -125q-178 0 -301 125t-123 299q0 178 123 300.5t301 122.5v4z" />
    <glyph glyph-name="semicolon" unicode=";" horiz-adv-x="1239" 
d="M499 691h620l-667 -1202h-423l470 1202v0zM789 1994q177 -4 300 -127t123 -300q0 -174 -123 -299t-300 -125q-178 0 -301 125t-123 299q0 178 123 300.5t301 122.5v4z" />
    <glyph glyph-name="less" unicode="&#x3c;" horiz-adv-x="2481" 
d="M359 713v434l1769 659v-543l-992 -329v-7l992 -330v-543l-1769 659v0z" />
    <glyph glyph-name="equal" unicode="=" horiz-adv-x="2481" 
d="M314 767h1854v-543h-1854v543v0zM314 1635h1854v-542h-1854v542v0z" />
    <glyph glyph-name="greater" unicode="&#x3e;" horiz-adv-x="2481" 
d="M2128 1147v-434l-1769 -659v543l991 330v7l-991 329v543l1769 -659v0z" />
    <glyph glyph-name="question" unicode="?" horiz-adv-x="2152" 
d="M1016 775q178 -4 301 -127t123 -301q0 -174 -123 -297t-301 -123q-177 0 -300 123.5t-123 296.5q0 178 123 300.5t300 122.5v5zM673 911v703q40 -10 78 -16t74 -6q26 0 55 2t54 9q134 26 246 112.5t112 235.5q0 113 -74.5 192t-189.5 79q-123 0 -188 -79.5t-65 -195.5
l-721 4q4 409 306 627.5t686 218.5q170 0 335 -54t299 -171q137 -112 223.5 -278t86.5 -347q0 -307 -188 -501t-467 -281v-254h-662v0z" />
    <glyph glyph-name="at" unicode="@" horiz-adv-x="2677" 
d="M2143 2063l-182 -941q0 -11 -1.5 -18.5t-5.5 -14.5q-4 -14 -5.5 -30t-4.5 -31q-4 -18 -6.5 -34.5t-2.5 -34.5q0 -36 13 -58t46 -22h5.5h5.5q29 4 59.5 24t67.5 52q80 83 148 235.5t79 318.5v34.5v30.5q0 427 -283.5 655t-686.5 228q-455 0 -742.5 -311t-287.5 -785
q0 -504 314.5 -800.5t777.5 -296.5q224 0 392.5 45t255.5 100l297 -235q-188 -101 -436.5 -174t-536.5 -73q-582 0 -993.5 405.5t-411.5 1028.5q0 614 402 1025t981 411q238 0 455.5 -76t395.5 -238q185 -163 294.5 -376.5t109.5 -471.5q0 -224 -58 -424.5t-166 -345.5
q-65 -87 -137.5 -150.5t-145.5 -99.5q-65 -37 -130 -53t-126 -16h-6h-2h-5h-5q-76 4 -140 64t-84 146q-69 -80 -185 -145t-279 -65q-238 0 -423.5 197.5t-185.5 475.5q0 333 201 603t538 270q138 0 252 -54t193 -171l37 196h344v0zM1014 1282q0 -138 70.5 -237.5
t203.5 -99.5q145 0 220 98q77 99 106 220q4 22 7.5 41.5t6.5 38.5q4 18 4 31v27q0 130 -72.5 211.5t-191.5 81.5q-141 0 -239 -116t-113 -254q-3 -10 -2.5 -23t0.5 -23v4z" />
    <glyph glyph-name="A" unicode="A" horiz-adv-x="2825" 
d="M1903 474h-976l-189 -474h-752l1048 2729h776l1026 -2729h-756l-177 474v0zM1711 1016l-288 869h-8l-293 -869h589v0z" />
    <glyph glyph-name="B" unicode="B" horiz-adv-x="2448" 
d="M1324 0h-1092v2729h1013q366 -4 588.5 -163t222.5 -551q0 -185 -67.5 -329t-232.5 -228v-3q293 -40 424.5 -226t131.5 -473q0 -427 -305.5 -591.5t-682.5 -164.5v0zM941 1129v-587h90q4 -4 9.5 -3.5t12.5 0.5h90.5t94.5 3q134 10 246 69t112 218q0 185 -123 239t-268 57
h-66.5h-68.5h-28h-28l-73 4v0zM941 2186v-529h79q4 -3 9 -3h14q133 3 247 50t114 214q0 166 -109 214q-108 46 -235 50h-33.5h-35.5l-50 4v0z" />
    <glyph glyph-name="C" unicode="C" horiz-adv-x="2387" 
d="M2182 2664v-851q-109 145 -275 221t-347 76q-327 0 -527.5 -219.5t-200.5 -537.5q0 -323 205 -532.5t534 -209.5q174 0 336.5 78t274.5 212v-847q-98 -33 -184.5 -56.5t-170.5 -41.5q-65 -14 -132 -21.5t-139 -7.5q-287 0 -548.5 103.5t-475.5 295.5q-224 203 -331 465
t-107 566q0 278 103 539t299 460q195 199 459 316.5t547 124.5h16.5h15.5q171 0 332 -36q160 -36 316 -101v4z" />
    <glyph glyph-name="D" unicode="D" horiz-adv-x="2721" 
d="M232 0v2729h1006q572 -4 979 -399t407 -969q0 -575 -409 -968t-977 -393h-1006v0zM941 2128v-1527h159q318 -4 551.5 179t233.5 581q0 365 -217 564t-561 199l-166 4v0z" />
    <glyph glyph-name="E" unicode="E" horiz-adv-x="1989" 
d="M1784 2128h-843v-457h800v-601h-800v-469h843v-601h-1552v2729h1552v-601v0z" />
    <glyph glyph-name="F" unicode="F" horiz-adv-x="1961" 
d="M1799 2128h-858v-457h779v-601h-779v-1070h-709v2729h1567v-601v0z" />
    <glyph glyph-name="G" unicode="G" horiz-adv-x="3045" 
d="M1546 1523h1407q-4 -300 -51 -562.5t-227 -518.5q-199 -278 -490.5 -405t-636.5 -127q-644 0 -1049 396t-405 1041q0 666 410.5 1067.5t1069.5 401.5q420 0 736.5 -190t493.5 -574l-672 -278q-73 191 -224.5 310t-365.5 119q-329 0 -508 -246t-198 -538q-4 -17 -4 -37.5
v-38.5v-9.5v-12.5q8 -311 192.5 -572t527.5 -261q232 0 391.5 119.5t180.5 355.5l-578 3v557v0z" />
    <glyph glyph-name="H" unicode="H" horiz-adv-x="2905" 
d="M941 1675h1024v1054h710v-2729h-710v1119h-1024v-1119h-709v2729h709v-1054v0z" />
    <glyph glyph-name="I" unicode="I" horiz-adv-x="1171" 
d="M941 2729v-2729h-709v2729h709v0z" />
    <glyph glyph-name="J" unicode="J" horiz-adv-x="1767" 
d="M843 2729h709v-1842q0 -434 -226 -697t-679 -263q-228 0 -403 105.5t-294 293.5l404 434q8 -10 13 -20q5 -9 12 -20q37 -44 77 -85.5t80 -69.5q26 -18 52.5 -29t52.5 -11q112 0 151 81t47 176q4 36 4 68.5v60.5v8v8v1802v0z" />
    <glyph glyph-name="K" unicode="K" horiz-adv-x="2741" 
d="M948 1603l858 1126h879l-1085 -1292l1183 -1437h-919l-916 1183h-7v-1183h-709v2729h709v-1126h7v0z" />
    <glyph glyph-name="L" unicode="L" horiz-adv-x="1790" 
d="M941 2729v-2128h851v-601h-1560v2729h709v0z" />
    <glyph glyph-name="M" unicode="M" horiz-adv-x="3556" 
d="M69 0l463 2729h698l554 -1459l587 1459h705l413 -2729h-709l-200 1571h-8l-654 -1571h-283l-625 1571h-7l-228 -1571h-706v0z" />
    <glyph glyph-name="N" unicode="N" horiz-adv-x="3187" 
d="M232 0v2729h709l1298 -1669h9v1669h708v-2729h-708l-1300 1671h-7v-1671h-709v0z" />
    <glyph glyph-name="O" unicode="O" horiz-adv-x="3209" 
d="M1603 2819q591 -4 1050.5 -396.5t459.5 -1011.5q0 -662 -425.5 -1081.5t-1084.5 -419.5q-654 0 -1081.5 420t-427.5 1081q0 618 460 1011.5t1049 393.5v3zM1603 2132q-318 -4 -544.5 -223t-226.5 -502q0 -351 226 -582.5t545 -231.5q318 0 544.5 231.5t226.5 582.5
q0 282 -226.5 501.5t-544.5 219.5v4z" />
    <glyph glyph-name="P" unicode="P" horiz-adv-x="2391" 
d="M232 0v2729h1085q442 -4 716.5 -217.5t274.5 -684.5q0 -481 -251 -703.5t-714 -222.5l-402 4v-905h-709v0zM941 2157v-681h119q192 -4 351.5 38t159.5 292q0 257 -152 302t-359 45l-119 4v0z" />
    <glyph glyph-name="Q" unicode="Q" horiz-adv-x="3209" 
d="M3221 -69l-651 -101l-218 256q-155 -93 -341.5 -134.5t-407.5 -41.5q-654 0 -1081.5 420t-427.5 1081q0 618 460 1011.5t1049 393.5q637 0 1073.5 -398t436.5 -1065q0 -271 -91 -508t-261 -451l460 -463v0zM2056 1151l192 -200q46 62 75 138t44 156q4 26 5.5 52.5
t1.5 52.5q0 308 -222.5 543t-544.5 235q-318 0 -546.5 -219t-228.5 -502q0 -351 228 -582.5t547 -231.5q54 0 108.5 9t108.5 28l-437 438l669 83v0z" />
    <glyph glyph-name="R" unicode="R" horiz-adv-x="2459" 
d="M1643 1119l857 -1119h-883l-669 1050h-7v-1050h-709v2729h1060q405 -4 676 -205t271 -639q0 -282 -153 -501t-443 -269v4zM941 2186v-680h69q18 -4 36 -4h33q159 7 291 74t132 266t-132 266q-132 66 -291 74h-32.5h-36.5l-69 4v0z" />
    <glyph glyph-name="S" unicode="S" horiz-adv-x="2228" 
d="M2012 2576l-282 -550q-98 80 -219.5 128.5t-251.5 48.5q-17 0 -39 -1.5t-44 -8.5q-83 -18 -152 -72.5t-69 -145.5q0 -86 65.5 -138.5t141.5 -85.5q28 -10 55.5 -19.5t52.5 -15.5l181 -51q286 -87 479.5 -252t193.5 -498v-28.5v-29.5q-7 -187 -68.5 -366.5t-213.5 -309.5
q-137 -119 -311 -177t-355 -73q-29 0 -56 -2t-52 -2q-257 0 -503.5 81.5t-455.5 226.5l304 576q134 -119 291 -202.5t339 -83.5h14h13q119 7 218 74t99 201q0 101 -82 163q-83 61 -183 97q-44 14 -87.5 27t-79.5 23q-7 4 -16 6t-16 6q-323 90 -514 231q-191 142 -191 529
q0 416 266 665.5t674 249.5q83 0 170 -8.5t174 -31.5q138 -28 269.5 -75t240.5 -110v4z" />
    <glyph glyph-name="T" unicode="T" horiz-adv-x="1927" 
d="M1317 2128v-2128h-709v2128h-586v601h1881v-601h-586v0z" />
    <glyph glyph-name="U" unicode="U" horiz-adv-x="2814" 
d="M1889 2729h709v-1535q0 -268 -41 -517.5t-245 -448.5q-130 -130 -309 -197t-368 -90q-59 -7 -116 -10.5t-112 -3.5q-54 0 -111.5 4t-116.5 10q-188 23 -367 90t-309 197q-203 199 -244 449t-41 514v1538h709v-1437v-45v-42q4 -246 85 -452.5t395 -206.5t396 206.5
t86 452.5v42.5v40.5v1441v0z" />
    <glyph glyph-name="V" unicode="V" horiz-adv-x="2753" 
d="M716 2729l659 -1659l663 1659h770l-1165 -2729h-550l-1147 2729h770v0z" />
    <glyph glyph-name="W" unicode="W" horiz-adv-x="4041" 
d="M684 2729l474 -1763h7l572 1763h565l534 -1763h8l514 1763h739l-872 -2729h-725l-476 1581h-9l-535 -1581h-720l-814 2729h738v0z" />
    <glyph glyph-name="X" unicode="X" horiz-adv-x="2854" 
d="M1039 1458l-873 1271h873l416 -705l416 705h873l-873 -1271l1009 -1458h-854l-571 891l-626 -891h-858l1068 1458v0z" />
    <glyph glyph-name="Y" unicode="Y" horiz-adv-x="2582" 
d="M937 1310l-1006 1419h851l510 -742l510 742h850l-1005 -1419v-1310h-710v1310v0z" />
    <glyph glyph-name="Z" unicode="Z" horiz-adv-x="2557" 
d="M1234 601h1143v-601h-2337l1292 2128h-1072v601h2258l-1284 -2128v0z" />
    <glyph glyph-name="bracketleft" unicode="[" horiz-adv-x="1265" 
d="M691 2476v-2961h388v-384h-891v3728h891v-383h-388v0z" />
    <glyph glyph-name="backslash" unicode="\" horiz-adv-x="2094" 
d="M98 3004h520l1380 -3004h-515l-1385 3004v0z" />
    <glyph glyph-name="bracketright" unicode="]" horiz-adv-x="1265" 
d="M575 -485v2961h-387v383h891v-3728h-891v384h387v0z" />
    <glyph glyph-name="asciicircum" unicode="^" horiz-adv-x="2481" 
d="M786 1230l-413 243l651 1363h434l652 -1363l-413 -243l-455 973l-456 -973v0z" />
    <glyph glyph-name="underscore" unicode="_" horiz-adv-x="1808" 
d="M1810 -681h-1810v272h1810v-272v0z" />
    <glyph glyph-name="grave" unicode="`" horiz-adv-x="1453" 
d="M272 2677l401 291l510 -623l-292 -213l-619 545v0z" />
    <glyph glyph-name="a" unicode="a" horiz-adv-x="2467" 
d="M2248 1856v-1856h-660v206h-7q-80 -131 -216.5 -193.5t-285.5 -71.5q-14 -3 -29.5 -2.5t-29.5 0.5q-413 0 -675 294.5t-262 693.5q0 398 259 693t672 295h35.5t36.5 -4q142 -10 277 -70.5t225 -169.5v185h660v0zM1187 1347q-199 -4 -311 -129t-112 -295
q0 -178 112 -297.5t311 -119.5q202 0 313 120t111 297q0 170 -111 295t-313 125v4z" />
    <glyph glyph-name="b" unicode="b" horiz-adv-x="2467" 
d="M195 0v3004h660v-1329q97 109 236 168.5t284 71.5h26.5h27.5q413 0 671.5 -295.5t258.5 -692.5q0 -402 -260 -695q-259 -293 -676 -293h-22h-22q-151 7 -292.5 70.5t-225.5 193.5l-6 3v-206h-660v0zM1256 1347q-200 -4 -312 -129t-112 -295q0 -178 112 -297.5t312 -119.5
q202 0 313 120t111 297q0 170 -111 295t-313 125v4z" />
    <glyph glyph-name="c" unicode="c" horiz-adv-x="1747" 
d="M1556 1810v-558q-73 50 -159.5 88.5t-180.5 38.5q-188 0 -320 -130t-132 -322q0 -199 130 -328t334 -129q17 0 36.5 2t38.5 6q69 10 136 41.5t117 77.5v-553q-109 -54 -226.5 -79.5t-236.5 -25.5q-413 0 -711.5 273t-298.5 693q0 449 300 730q300 280 739 280
q115 0 225.5 -27.5t208.5 -81.5v4z" />
    <glyph glyph-name="d" unicode="d" horiz-adv-x="2467" 
d="M1614 0v206h-7q-80 -131 -217.5 -193.5t-285.5 -71.5q-14 -3 -29 -2.5t-29 0.5q-413 0 -675 294.5t-262 693.5q0 398 259 693t671 295h35.5t35.5 -4q142 -10 277.5 -70.5t226.5 -169.5v1333h658v-3004h-658v0zM1212 1347q-199 -4 -311 -129t-112 -295
q0 -178 112.5 -297.5t310.5 -119.5q203 0 313 120t110 297q0 170 -110 295t-313 125v4z" />
    <glyph glyph-name="e" unicode="e" horiz-adv-x="2206" 
d="M2124 887v-69h-1386q0 -202 105 -309t308 -107q105 0 182.5 40t132.5 130l633 3q-80 -333 -353 -484.5t-591 -151.5q-459 0 -767 251.5t-308 732.5q0 463 287.5 727.5t739.5 264.5q485 0 751 -279t266 -753v4zM750 1198h762q-26 130 -132 209.5t-240 79.5
q-145 0 -253.5 -74t-136.5 -219v4z" />
    <glyph glyph-name="f" unicode="f" horiz-adv-x="1403" 
d="M941 1314v-1314h-659v1314h-232v542h232v236q0 148 14.5 274.5t82.5 245.5q18 33 40.5 64t50.5 64q122 145 291 220.5t358 75.5q76 0 144.5 -14t137.5 -51v-564q-14 4 -31 11t-35 10q-40 18 -79.5 27t-86.5 9q-126 0 -177 -76t-51 -235v-297h460v-542h-460v0z" />
    <glyph glyph-name="g" unicode="g" horiz-adv-x="2448" 
d="M2254 1856v-1675q0 -593 -280 -850.5t-795 -257.5q-69 0 -144.5 8t-151.5 25q-268 59 -498 225t-262 451h738q14 -50 47 -84.5t76 -56.5q26 -14 55 -23t57 -12q18 -4 38.5 -6t38.5 -2q268 0 345.5 154t77.5 374v92q-127 -131 -266 -192.5t-324 -61.5q-405 0 -660.5 271
t-255.5 674q0 409 262.5 707.5t690.5 298.5q162 0 305.5 -60t239.5 -198l8 4v195h658v0zM1194 1361q-199 -4 -311.5 -129t-112.5 -295q0 -177 112.5 -296.5t311.5 -119.5q203 0 313 119.5t110 296.5q0 171 -110 295.5t-313 124.5v4z" />
    <glyph glyph-name="h" unicode="h" horiz-adv-x="2391" 
d="M218 3004h657v-1383h8q115 149 258 221.5t335 72.5q354 0 526.5 -214t172.5 -568v-1133h-659v951v6v13q0 155 -52.5 287t-244.5 132q-188 0 -264 -132t-80 -287v-13v-9v-948h-657v3004v0z" />
    <glyph glyph-name="i" unicode="i" horiz-adv-x="1091" 
d="M875 1856v-1856h-657v1856h657v0zM546 2939q152 -4 260.5 -113t108.5 -260q0 -152 -108.5 -260.5t-260.5 -108.5t-260 108t-108 261q0 151 108 260t260 109v4z" />
    <glyph glyph-name="j" unicode="j" horiz-adv-x="1091" 
d="M875 1856v-2783h-657v2783h657v0zM546 2939q152 -4 260.5 -113t108.5 -260q0 -152 -108.5 -260.5t-260.5 -108.5t-260 108t-108 261q0 151 108 260t260 109v4z" />
    <glyph glyph-name="k" unicode="k" horiz-adv-x="2489" 
d="M875 3004v-1817l685 669h901l-930 -857l987 -999h-922l-721 756v-756h-657v3004h657v0z" />
    <glyph glyph-name="l" unicode="l" horiz-adv-x="1091" 
d="M875 3004v-3004h-657v3004h657v0z" />
    <glyph glyph-name="m" unicode="m" horiz-adv-x="3577" 
d="M875 1856v-231h8q115 151 262 220.5t324 69.5q203 0 367.5 -85.5t266.5 -269.5q94 174 267.5 264.5t360.5 90.5q355 0 495 -206.5t140 -529.5v-1179h-659v887v4v6v80t-3 87q-11 123 -63.5 224t-204.5 101q-185 0 -244.5 -119t-67.5 -260q-4 -33 -4 -66v-61v-883h-658v887
v79.5t-4 89.5q-10 131 -68 239.5t-221 108.5t-220.5 -108.5t-69.5 -239.5q-4 -46 -4 -89.5v-83.5v-883h-657v1856h657v0z" />
    <glyph glyph-name="n" unicode="n" horiz-adv-x="2391" 
d="M875 1856v-239h8q115 167 258 232.5t335 65.5q377 0 538 -214t161 -558v-1143h-659v905v18v22v68.5t-4 72.5q-7 113 -65 208t-228 95q-199 0 -271.5 -128t-72.5 -302v-959h-657v1856h657v0z" />
    <glyph glyph-name="o" unicode="o" horiz-adv-x="2394" 
d="M1198 1918q449 -4 783.5 -262.5t334.5 -732.5q0 -470 -334.5 -727t-783.5 -257q-446 0 -782 255t-336 729t335 733t783 259v3zM1198 1347q-199 -4 -311 -129t-112 -295q0 -178 112 -297.5t311 -119.5q203 0 313 120t110 297q0 170 -110 295t-313 125v4z" />
    <glyph glyph-name="p" unicode="p" horiz-adv-x="2467" 
d="M855 1856v-209h6q83 127 225 193.5t293 74.5h22h22q416 0 676 -299t260 -697q0 -402 -258.5 -691t-671.5 -289h-27h-27q-146 10 -285 66t-235 169v-1101h-660v2783h660v0zM1256 1347q-200 -4 -312 -129t-112 -295q0 -178 112 -297.5t312 -119.5q202 0 313 120t111 297
q0 170 -111 295t-313 125v4z" />
    <glyph glyph-name="q" unicode="q" horiz-adv-x="2467" 
d="M2272 1856v-2783h-658v1105q-90 -113 -226 -168.5t-278 -68.5q-17 -3 -35.5 -2.5t-35.5 0.5q-416 0 -673 289.5t-257 690.5q0 398 262 697t675 299h28.5t29.5 -4q149 -7 286.5 -74t216.5 -194l7 4v209h658v0zM1212 1347q-199 -4 -311 -129t-112 -295q0 -178 112.5 -297.5
t310.5 -119.5q203 0 313 120t110 297q0 170 -110 295t-313 125v4z" />
    <glyph glyph-name="r" unicode="r" horiz-adv-x="1638" 
d="M875 1856v-304h8q93 167 251 247t349 80l128 3v-634q-14 4 -27 11.5t-28 10.5q-54 23 -108.5 30t-115.5 7q-275 0 -366 -161.5t-91 -399.5v-746h-657v1856h657v0z" />
    <glyph glyph-name="s" unicode="s" horiz-adv-x="1855" 
d="M1665 1799l-222 -420q-43 23 -95.5 40.5t-105.5 27.5q-40 8 -78.5 13.5t-74.5 5.5q-18 0 -38 -2t-37 -9q-51 -10 -91 -38t-40 -78q0 -61 52.5 -92t117.5 -45q36 -11 69 -17t57 -9q232 -47 386.5 -170t154.5 -379q0 -355 -261 -516t-576 -172h-19.5h-20.5
q-199 0 -389 53.5t-360 156.5l239 462q61 -46 141 -84.5t163 -67.5q59 -17 113 -28.5t105 -11.5q14 0 30 2t34 6q54 10 97.5 43t43.5 91q0 80 -75.5 114.5t-180.5 55.5q-40 7 -78.5 16t-78.5 20q-155 40 -283.5 139.5t-128.5 349.5q0 336 249.5 495.5t546.5 163.5h13.5h8.5
q159 0 313 -27.5t299 -92.5v4z" />
    <glyph glyph-name="t" unicode="t" horiz-adv-x="1302" 
d="M937 1314v-1314h-659v1314h-213v542h213v557h659v-557h373v-542h-373v0z" />
    <glyph glyph-name="u" unicode="u" horiz-adv-x="2384" 
d="M206 1856h659v-991q0 -181 63 -293.5t266 -112.5t266 112.5t63 289.5v995h659v-1118q0 -463 -284 -631t-704 -168q-416 0 -702 167.5t-286 627.5v1122v0z" />
    <glyph glyph-name="v" unicode="v" horiz-adv-x="2253" 
d="M684 1856l445 -951l442 951h737l-969 -1856h-420l-973 1856h738v0z" />
    <glyph glyph-name="w" unicode="w" horiz-adv-x="3603" 
d="M677 1856l463 -1005l467 1005h391l466 -1005l467 1005h728l-970 -1856h-427l-460 1016l-459 -1016h-428l-969 1856h731v0z" />
    <glyph glyph-name="x" unicode="x" horiz-adv-x="2576" 
d="M872 1006l-753 850h836l333 -383l333 383h851l-767 -850l926 -1006h-865l-478 551l-477 -551h-865l926 1006v0z" />
    <glyph glyph-name="y" unicode="y" horiz-adv-x="2365" 
d="M843 254l-897 1602h760l496 -951l485 951h749l-1488 -2783h-738l633 1181v0z" />
    <glyph glyph-name="z" unicode="z" horiz-adv-x="2021" 
d="M1129 546h782v-546h-1882l872 1310h-756v546h1853l-869 -1310v0z" />
    <glyph glyph-name="braceleft" unicode="{" horiz-adv-x="1272" 
d="M130 822v376q4 -4 7.5 -4h7.5h47.5t49.5 8q54 10 97.5 48t43.5 137v918q0 186 74.5 306t165.5 183q47 32 92 46.5t77 14.5l351 4v-434h-90q-113 -4 -139.5 -62t-26.5 -130v-11v-14v-811q0 -155 -63.5 -233t-139.5 -114q-40 -18 -78 -27q-37 -9 -67 -13v-4q29 -7 67 -14.5
t78 -21.5q76 -33 139.5 -118t63.5 -274v-799v-5.5v-5.5q0 -76 23.5 -139t142.5 -63h90v-435h-351q-32 0 -77 15t-92 48q-90 61 -165 180.5t-75 302.5v916q0 116 -43 161.5t-98 56.5q-18 4 -36 5.5t-32 1.5h-25h-19v4z" />
    <glyph glyph-name="bar" unicode="|" horiz-adv-x="2094" 
d="M1321 3004v-3004h-543v3004h543v0z" />
    <glyph glyph-name="braceright" unicode="}" horiz-adv-x="1272" 
d="M1143 1198v-376q-7 -4 -20 -4h-27q-13 0 -29.5 -1.5t-35.5 -5.5q-54 -10 -97 -55.5t-43 -164.5v-914q0 -185 -74.5 -304t-165.5 -179q-47 -33 -92 -48t-77 -15h-352v435h91q119 0 142.5 63t23.5 139v6v5v803q0 185 63.5 270t140.5 118q40 14 77.5 21.5t65.5 11.5v11
q-29 0 -66.5 8.5t-76.5 27.5q-77 36 -140.5 114t-63.5 229v819v10v11q0 72 -27 130t-139 58l-91 4v434h352q32 -4 77 -18.5t92 -46.5q90 -62 165 -183t75 -309v-913q0 -101 43 -139t97 -48q26 -8 51 -8h47h7.5h6.5v4z" />
    <glyph glyph-name="asciitilde" unicode="~" horiz-adv-x="2481" 
d="M1893 1350l412 -351q-26 -47 -58 -100t-68 -107q-94 -134 -219 -247.5t-289 -113.5q-105 0 -191.5 37.5t-165.5 85.5q-22 14 -44 26.5t-42 23.5q-18 11 -38.5 22t-38.5 25q-97 61 -178.5 112.5t-150.5 51.5q-50 0 -99.5 -62t-85.5 -135q-14 -28 -27 -55t-23 -52l-409 350
q40 44 81 105.5t85 122.5q94 127 208 232t263 105q46 0 97 -12.5t102 -30.5q69 -29 137 -71t127 -89q40 -33 86.5 -63.5t97.5 -52.5q54 -29 108.5 -46.5t97.5 -17.5q47 0 92.5 56t78.5 120q17 37 30 69.5t24 58.5v3z" />
    <glyph glyph-name="saraileftthai" 
d="M-2460 2810l360 182h1048v-342h-1408v160z" />
    <glyph glyph-name="saraiileftthai" 
d="M-2460 2810l360 182h592v364h456v-706h-2h-1406v160z" />
    <glyph glyph-name="saraueleftthai" 
d="M-2460 2810l360 182h307q-7 29 -7 56q0 91 27 165t78 125t124.5 78.5t165.5 27.5q91 0 164 -27.5t124.5 -78.5t79 -125t27.5 -165q0 -92 -30.5 -165t-84.5 -124.5t-125.5 -80t-154.5 -28.5h-1055v160zM-1546 3049q0 -75 32.5 -113t108.5 -38q74 0 106.5 38t32.5 113
q0 76 -32.5 114.5t-106.5 38.5q-76 0 -108.5 -38.5t-32.5 -114.5z" />
    <glyph glyph-name="saraueeleftthai" 
d="M-2461 2810l361 182l276 -1v365h300v-365h174v365h298v-706h-1409v160z" />
    <glyph glyph-name="maieklowleftthai" 
d="M-1726 2649v736h551v-736h-551z" />
    <glyph glyph-name="maitholowleftthai" 
d="M-2197 2792q24 16 61 50.5t73.5 80t63 92t27.5 85.5q1 29 -18 52.5t-75 25.5q-7 0 -24 -0.5t-37 -2.5t-39.5 -5t-32.5 -9v251q33 10 77.5 19t93.5 15.5t95.5 10t79.5 3.5q88 0 148 -18t97 -49t54 -73.5t17 -91.5q0 -58 -13.5 -106t-33 -85t-40.5 -62.5t-34 -35.5h587
v-115l-265 -175h-862v143z" />
    <glyph glyph-name="maitrilowleftthai" 
d="M-1941 2676q-27 -11 -63.5 -17t-75.5 -8t-75 -1.5t-65 6.5q-58 9 -96 39t-61.5 69t-33.5 83t-10 83v218q-1 62 16 108t47.5 74.5t74 42t95.5 13.5q48 0 94 -12t90 -31t86 -42t83 -43q48 19 97 41t99 41t99 30.5t98 11.5q86 0 140.5 -54t54.5 -180q0 -48 -10 -84.5
t-25.5 -63t-35 -45.5t-39.5 -31h308v-100l-240 -174h-413v226q12 8 31.5 17.5t37.5 23t31 34t13 50.5q0 34 -11 49.5t-27.5 19t-39 -3.5t-46.5 -18q-51 -23 -83 -37.5t-37 -14.5q-1 0 -35 15.5t-78 36.5q-22 10 -45 17.5t-42.5 4.5t-32.5 -18.5t-13 -50.5l2 -30
q1 -38 16.5 -55.5t36 -23t43 -3.5t41.5 5z" />
    <glyph glyph-name="maichattawalowleftthai" 
d="M-2043 3190h189v251h429v-251h305v-297h-305v-250h-429v250h-411v122z" />
    <glyph glyph-name="thanthakhatlowleftthai" 
d="M-1113 3155l-301 -189h-126q-47 0 -74 -15t-29 -63v-239h-489v193q0 45 5.5 96t23 101t47.5 96.5t79 83t118 59t163 24.5h582z" />
    <glyph glyph-name="maieklowrightthai" 
d="M-800 2649v736h579v-736h-579z" />
    <glyph glyph-name="maitholowrightthai" 
d="M-1407 2805q25 17 65.5 44t79.5 62t68.5 75.5t31.5 82.5q0 16 -5 34.5t-16.5 35t-31 28t-49.5 13.5q-9 0 -27 -1t-39 -3t-42.5 -5.5t-36.5 -9.5v273q35 12 89 20.5t111.5 15.5t112 11.5t91.5 4.5q94 0 161.5 -19t110.5 -53t63 -80t20 -99q0 -47 -10.5 -91t-26 -80
t-33 -62t-31.5 -37h656v-126l-286 -189h-1026v155z" />
    <glyph glyph-name="maitrilowrightthai" 
d="M-1207 2677q-32 -11 -73 -18t-83.5 -9.5t-84.5 -1t-73 6.5q-65 12 -108.5 45t-69.5 77.5t-37 93.5t-11 92v247q0 71 19 121.5t53 83.5t82.5 48.5t107.5 15.5q55 0 109 -14t106 -35.5t101.5 -47.5t97.5 -49q55 23 112 48t115.5 46t117 34.5t113.5 13.5q48 0 88 -15t69 -47
t45.5 -82t16.5 -121q0 -55 -11.5 -95.5t-29 -70.5t-39.5 -51.5t-44 -34.5h420v-113l-311 -196h-497v254q13 8 34.5 18.5t42.5 27t35 39t14 56.5q0 39 -12 57t-31.5 22.5t-44.5 -4t-53 -21.5q-57 -30 -89 -44.5t-60 -14.5q-23 0 -59 16.5t-82 42.5q-23 13 -50 21.5t-49 5
t-37 -22.5t-15 -58l2 -34q1 -41 18.5 -60.5t41 -26.5t49.5 -5t47 6z" />
    <glyph glyph-name="maichattawalowrightthai" 
d="M-979 3275h207v302h485v-302h333v-326h-333v-299h-485v299h-452v134z" />
    <glyph glyph-name="thanthakhatlowrightthai" 
d="M53 3151l-297 -186h-205q-38 0 -63.5 -15t-26.5 -63v-238h-484v235q0 66 15 138.5t61 133t131.5 101.5t225.5 45h645z" />
    <glyph glyph-name="maihanakatleftthai" 
d="M143 2851l-416 -201h-1064q-117 0 -190.5 39t-114.5 94.5t-57 117.5t-16 107v290h488v-216q0 -55 21.5 -74.5t73.5 -19.5h1275v-137z" />
    <glyph glyph-name="nikhahitleftthai" 
d="M-1895 2983q0 101 34 179.5t94 132.5t140 81.5t172 27.5t172.5 -27.5t140.5 -81.5t94.5 -132t34.5 -180q0 -101 -34.5 -178.5t-94.5 -130.5t-140.5 -80.5t-172.5 -27.5t-172 27.5t-140 80.5t-94 130.5t-34 178.5zM-1615 2983q0 -89 42.5 -133t115.5 -44q72 0 116.5 44
t44.5 133q0 90 -44 134t-117 44t-115.5 -44t-42.5 -134z" />
    <glyph glyph-name="maitaikhuleftthai" 
d="M-1700 2760q-43 -33 -90 -58q-40 -23 -90 -41t-98 -17q-98 0 -168.5 30.5t-117 85.5t-68 130.5t-21.5 163.5v35q0 65 21 139.5t77 138.5t153.5 106t251.5 42h890v-122l-315 -183h-573q-32 -1 -57 -6t-41 -19.5t-24.5 -38.5t-8.5 -61v-33q0 -36 8.5 -58.5t23 -33t33.5 -11
t39 6.5l172 84l185 -81q45 -16 72 3.5t27 70.5v71h383v-102q0 -72 -17 -137.5t-60 -114t-118 -77.5t-191 -29q-51 -1 -100.5 16.5t-89 39.5t-51.5 32z" />
    <glyph glyph-name="maiekupperleftthai" 
d="M-1503 3607v575h451v-575h-451z" />
    <glyph glyph-name="maithoupperleftthai" 
d="M-1744 3749q24 16 61 41t73.5 57t63 68.5t28.5 76.5q1 29 -18.5 52.5t-75.5 25.5q-7 0 -24.5 -0.5t-37 -2.5t-39 -5t-32.5 -9v251q33 10 78 19t94 15.5t95 9.5t79 3q88 0 148 -17.5t97 -48.5t54 -73.5t17 -91.5q0 -43 -13.5 -79.5t-33 -65.5t-40.5 -49t-34 -30h586v-115
l-264 -175h-862v143z" />
    <glyph glyph-name="maitriupperleftthai" 
d="M-1509 3632q-27 -11 -63.5 -17t-75 -8.5t-75 -1t-64.5 6.5q-58 9 -96 39t-62 69t-33.5 83t-9.5 83v218q-1 62 15.5 108t47.5 74.5t73.5 42t94.5 13.5q49 0 97 -12.5t94 -31t90.5 -41.5t86.5 -44q48 19 98.5 41.5t102.5 41.5t104 30.5t101 11.5q86 0 140 -54.5t54 -179.5
q0 -48 -9.5 -84.5t-25.5 -63.5t-35.5 -45.5t-38.5 -30.5h372v-100l-276 -174h-441v226q12 7 31.5 16.5t36.5 23.5t30 34t13 51q0 34 -10 50t-27 19.5t-39.5 -3.5t-47.5 -19q-51 -26 -79 -39t-53 -13q-20 0 -51.5 14.5t-73.5 37.5q-21 12 -44.5 19.5t-43.5 4t-33 -19.5
t-13 -51l3 -31q1 -38 15.5 -55t35.5 -23t44 -3.5t41 5.5z" />
    <glyph glyph-name="maichattawaupperleftthai" 
d="M-1669 4131h188v251h430v-251h305v-297h-305v-250h-430v250h-411v123z" />
    <glyph glyph-name="thanthakhatupperleftthai" 
d="M-521 3757l-277 -174h-192q-34 0 -58.5 -14t-25.5 -59v-222h-453v220q0 62 14.5 129.5t57 124.5t122 94.5t210.5 42.5h603z" />
    <glyph glyph-name="uni00A0" unicode="&#xa0;" horiz-adv-x="1332" 
 />
    <glyph glyph-name="cent" unicode="&#xa2;" horiz-adv-x="2097" 
d="M1350 2839v-459q127 -14 249 -48t234 -80v-410q-92 33 -170 54.5t-148 34.5t-133.5 18t-125.5 5q-85 0 -148 -25t-108.5 -69.5t-74.5 -104t-47 -127.5t-24.5 -143t-6.5 -148q0 -81 5.5 -159.5t21 -149t44.5 -129.5t77 -103t118.5 -68t168.5 -24q51 0 115 8t136 25
t148.5 43.5t151.5 64.5v-434q-112 -49 -234 -83t-249 -48v-361h-446v380q-192 40 -320.5 131t-206.5 224.5t-112 306.5t-34 376q0 202 34 373t112 303.5t206.5 221.5t320.5 127v477h446z" />
    <glyph glyph-name="sterling" unicode="&#xa3;" horiz-adv-x="2206" 
d="M176 0v357q126 64 205.5 131.5t124.5 131.5t62 122.5t17 101.5q0 78 -1.5 152t-7.5 137l-400 3v322l365 108l-8 95q-4 46 -8.5 96t-8 100t-6 96.5t-3.5 85.5q-7 188 49.5 334t165 244.5t262.5 149.5t343 51q209 0 383.5 -54.5t330.5 -153.5l-193 -397q-49 26 -109 50.5
t-123.5 42t-126.5 27.5t-118 8q-77 0 -123.5 -28t-72.5 -75t-34.5 -109t-8.5 -130q0 -39 2 -91t7 -107t10 -111.5t11 -104.5h608v-452h-567q1 -30 2.5 -67.5l3 -75t2 -67.5t0.5 -43q0 -129 -51 -229t-161 -192l1057 -1v-458h-1880z" />
    <glyph glyph-name="yen" unicode="&#xa5;" horiz-adv-x="2651" 
d="M856 1309l-113 209h-512v273l315 93l-474 880h715l535 -1176l537 1176h713l-455 -846h281v-400h-496l-113 -209h609v-400h-752v-909h-646v909h-769v273l427 127h198z" />
    <glyph glyph-name="copyright" unicode="&#xa9;" horiz-adv-x="3415" 
d="M1705 -22q-195 0 -375.5 32.5t-340 101.5t-291 178.5t-225.5 264t-146.5 355t-52.5 454.5q0 255 52.5 457.5t146.5 357t225.5 264t291 179t340 102.5t375.5 33t377.5 -33t342 -102.5t292 -179t226.5 -264t146.5 -356.5t52.5 -458q0 -254 -52.5 -454.5t-146.5 -355
t-226.5 -264t-292 -178.5t-342 -101.5t-377.5 -32.5zM1713 331q143 0 278 24.5t253 77t216 134t168 196.5t109 264.5t39 336.5q0 189 -39 339.5t-109 265.5t-168 198t-216 135t-253 76.5t-278 24.5q-146 0 -282 -24.5t-255 -76.5t-218 -135t-169 -198t-109 -265.5
t-39 -339.5q0 -188 39 -337t109 -264t169 -196.5t218 -134t255 -77t282 -24.5zM963 1364q0 208 55 356t156.5 243t244.5 140t319 45q142 0 259.5 -15.5t218.5 -56.5v-360q-38 13 -81 23.5t-96 18t-115 12t-139 4.5q-94 0 -163 -27.5t-114.5 -80t-67.5 -129t-22 -173.5
q0 -92 22 -167.5t67.5 -129.5t115 -83.5t162.5 -29.5q77 0 139 4.5t115 12.5t96 19.5t81 24.5v-361q-101 -42 -218.5 -58t-259.5 -16q-176 0 -319 45.5t-244.5 140t-156.5 243t-55 355.5z" />
    <glyph glyph-name="guillemotleft" unicode="&#xab;" horiz-adv-x="2152" 
d="M1052 654v-490l-857 708v312l857 709v-477l-501 -381zM1959 654v-490l-858 708v312l858 709v-477l-502 -381z" />
    <glyph glyph-name="registered" unicode="&#xae;" horiz-adv-x="3415" 
d="M1734 1110h-207v-469h-410v1462h687q146 0 246.5 -38.5t161.5 -105.5t88.5 -157.5t27.5 -196.5q0 -61 -10.5 -121.5t-35 -116.5t-65 -103.5t-100.5 -81.5l311 -541h-463zM1918 1594q0 71 -35 114.5t-106 43.5h-250v-317h250q45 0 73 15t42.5 38t20 51.5t5.5 54.5z
M1705 -22q-195 0 -375.5 32.5t-340 101.5t-291 178.5t-225.5 264t-146.5 355t-52.5 454.5q0 255 52.5 457.5t146.5 357t225.5 264t291 179t340 102.5t375.5 33t377.5 -33t342 -102.5t292 -179t226.5 -264t146.5 -356.5t52.5 -458q0 -254 -52.5 -454.5t-146.5 -355
t-226.5 -264t-292 -178.5t-342 -101.5t-377.5 -32.5zM1713 331q143 0 278 24.5t253 77t216 134t168 196.5t109 264.5t39 336.5q0 189 -39 339.5t-109 265.5t-168 198t-216 135t-253 76.5t-278 24.5q-146 0 -282 -24.5t-255 -76.5t-218 -135t-169 -198t-109 -265.5
t-39 -339.5q0 -188 39 -337t109 -264t169 -196.5t218 -134t255 -77t282 -24.5z" />
    <glyph glyph-name="plusminus" unicode="&#xb1;" horiz-adv-x="2309" 
d="M1383 1706h597v-397h-597v-628h-456v628h-598v397h598v626h456v-626zM1980 509v-397h-1651v397h1651z" />
    <glyph glyph-name="guillemotright" unicode="&#xbb;" horiz-adv-x="2152" 
d="M1602 1035l-501 381v477l858 -709v-312l-858 -708v490zM697 1035l-502 381v477l857 -709v-312l-857 -708v490z" />
    <glyph glyph-name="onequarter" unicode="&#xbc;" horiz-adv-x="3402" 
d="M631 -45l1619 2809h371l-1618 -2809h-372zM513 1099v1150l-332 -22v218l518 251h228v-1597h-414zM2898 0h-410v326h-699v273l692 1002h417v-949h239v-326h-239v-326zM2119 651l369 1l-1 519z" />
    <glyph glyph-name="onehalf" unicode="&#xbd;" horiz-adv-x="3402" 
d="M1901 0v266q177 120 303 213t211 166.5t134 132t75 108t34 94.5t8 91q0 39 -11 73.5t-34.5 59.5t-59.5 39t-87 14q-75 0 -155 -18.5t-151 -44.5t-125.5 -52t-79.5 -41v358q39 17 102 41t141 46.5t166.5 38.5t178.5 16q117 0 202 -23t145 -61.5t97.5 -88t58 -102.5
t28 -105t7.5 -96q0 -130 -53.5 -244t-142 -212.5t-202.5 -180.5t-236 -149l675 3v-342h-1229zM470 -45l1619 2809h371l-1619 -2809h-371zM513 1099v1150l-332 -22v218l518 251h228v-1597h-414z" />
    <glyph glyph-name="threequarters" unicode="&#xbe;" horiz-adv-x="3402" 
d="M159 2542q38 26 99 56.5t138.5 56.5t166 43.5t180.5 17.5q129 0 230.5 -28t172 -80t107.5 -125t37 -165q0 -124 -53 -213.5t-183 -144.5q153 -31 229.5 -136.5t76.5 -270.5q0 -104 -48 -195t-136 -159.5t-210.5 -107.5t-272.5 -39q-90 -3 -176 13.5t-161.5 41.5t-136 54
t-98.5 55l124 292q26 -17 66.5 -40t93 -43t113 -34t126.5 -14q73 0 129.5 18.5t94 46.5t56.5 63t17 69q0 71 -32.5 113t-88 64.5t-129 29t-153.5 6.5h-151v322h156q55 0 111.5 3.5t103 18.5t76 44t29.5 81q0 26 -11 53t-34.5 47.5t-59.5 33.5t-87 13q-67 0 -126.5 -14
t-109.5 -34.5t-87.5 -43t-61.5 -38.5zM813 -45l1618 2809h371l-1618 -2809h-371zM2968 0h-410v326h-700v273l693 1002h417v-949h238v-326h-238v-326zM2188 651l370 1l-2 519z" />
    <glyph glyph-name="multiply" unicode="&#xd7;" horiz-adv-x="2295" 
d="M1149 1555l536 536l301 -301l-537 -536l537 -538l-301 -300l-536 534l-537 -534l-302 300l536 538l-536 536l302 301z" />
    <glyph glyph-name="divide" unicode="&#xf7;" horiz-adv-x="2309" 
d="M878 1901q0 56 22 106t59.5 88.5t87.5 60.5t108 22t108.5 -22t88 -60.5t59.5 -88.5t22 -106q0 -58 -22 -108.5t-59.5 -88t-88.5 -60t-108 -22.5q-58 0 -108 22.5t-87.5 60t-59.5 88t-22 108.5zM878 606q0 58 22 108.5t59.5 88.5t87.5 60t108 22t108.5 -22t88 -60
t59.5 -88.5t22 -108.5q0 -57 -22 -107t-59.5 -88.5t-88.5 -60.5t-108 -22q-58 0 -108 22t-87.5 60.5t-59.5 88.5t-22 107zM1979 1452v-397h-1648v397h1648z" />
    <glyph glyph-name="kokaithai" unicode="&#xe01;" horiz-adv-x="2445" 
d="M1598 1420q0 103 -12.5 175t-45.5 115.5t-93 63t-155 19.5q-36 0 -81 -6t-92.5 -14.5t-93.5 -19.5t-85 -20v-1733h-628v1328l239 326h-392v351q147 55 303 99.5t312 77t307.5 51.5t288.5 19q233 0 395.5 -53.5t264.5 -153t148.5 -239t46.5 -310.5v-1496h-627v1420z" />
    <glyph glyph-name="khokhaithai" unicode="&#xe02;" horiz-adv-x="2180" 
d="M1047 -36q-433 0 -642.5 191t-209.5 574q0 84 3.5 148t15 116t34.5 95.5t61.5 83t95 80.5t136.5 89q79 48 110.5 115t31.5 136q0 58 -11 97.5t-33.5 65t-60 39t-91.5 20.5q-35 3 -77.5 1t-86.5 -10t-88.5 -21t-83.5 -30v404q68 23 133 39t120 26t99.5 14.5t73.5 4.5
q150 0 255.5 -36.5t176.5 -93t110.5 -125.5t59 -135.5t23 -122t3.5 -83.5q-1 -39 -2.5 -79.5t-10 -83.5t-27 -89t-52 -96.5t-88 -105t-132.5 -115.5q-39 -30 -54.5 -82t-18.5 -116v-45.5v-56v-59v-53.5q0 -53 12 -100t38.5 -82t70 -55.5t106.5 -20.5q14 0 40.5 -1t58.5 3.5
t64.5 16t60 37t44.5 68.5t17 108v1575h628v-1473q0 -182 -42 -326t-145.5 -244t-279.5 -153.5t-446 -53.5z" />
    <glyph glyph-name="khokhuatthai" unicode="&#xe03;" horiz-adv-x="2217" 
d="M644 1588q-16 33 -40 67t-59.5 63t-85.5 50.5t-117 31.5q-42 7 -100.5 1.5t-108.5 -14.5v425q23 4 52 6.5t60 4.5t62.5 2t62.5 -1q69 -4 132.5 -32t118.5 -70.5t98 -94t71 -101.5l161 288h239v-577v-143.5t-22.5 -144.5t-79.5 -148t-171 -154q-48 -33 -66 -80.5
t-18 -114.5v-194q0 -50 12 -97t39.5 -83t74.5 -58.5t119 -22.5q13 0 39 2t58.5 10t66.5 24.5t62 47t46 76t18 110.5v1547h628v-1471q0 -182 -44 -328.5t-149 -249.5t-283.5 -157t-448.5 -54q-435 0 -650 193.5t-215 591.5q0 97 9.5 172.5t42 138t94 118t162.5 112.5
q43 25 69 51t39 52.5t17.5 54t4.5 53.5v97z" />
    <glyph glyph-name="khokhwaithai" unicode="&#xe04;" horiz-adv-x="2430" 
d="M1233 1810q-58 3 -125 -9t-125 -43.5t-96 -84.5t-38 -136v-358l291 149h254v-484h-545v-844h-628v1522q0 197 73.5 335t208 225t321 127t413.5 40q228 0 408.5 -40t306 -127t192 -225t66.5 -335v-1522h-628v1537q0 81 -31 134t-81.5 83.5t-112 43t-120.5 12.5h-4z" />
    <glyph glyph-name="khokhonthai" unicode="&#xe05;" horiz-adv-x="2519" 
d="M1259 1594l-301 125q-20 7 -39.5 10t-34.5 -2t-25 -19t-10 -39v-490l291 149h254v-484h-545v-844h-628v1592q0 154 29.5 275.5t96 206t172.5 128.5t259 44q62 0 130 -21t132 -50.5t119 -63.5t91 -60q39 26 97.5 60t124 63.5t135 50.5t130.5 21q154 0 261.5 -44
t174 -128.5t96 -206t29.5 -275.5v-1592h-628v1669q0 25 -9.5 39t-25 19t-35 2t-39.5 -10z" />
    <glyph glyph-name="khorakhangthai" unicode="&#xe06;" horiz-adv-x="2344" 
d="M849 654q91 -128 190 -182.5t201 -54.5q122 0 189 50t67 158v1588h627v-1582q0 -153 -41.5 -278t-123.5 -214.5t-204.5 -137t-283.5 -47.5q-110 0 -202 16.5t-177 55.5t-169.5 103.5t-179.5 160.5l-87 -291h-434v763q0 96 10.5 168.5t43 131t94 110.5t162.5 110
q43 25 71.5 50.5t43.5 52.5t21 54t6 53v96q-15 34 -41 68t-64 63t-90 50.5t-119 32.5q-42 7 -100 1t-109 -16v426q23 4 52 7t60 4.5t63 1.5t62 -1q69 -3 134.5 -31.5t122 -71t102 -93.5t74.5 -102l162 287h264v-597q0 -74 -6 -143t-35.5 -137t-93 -139t-177.5 -150
q-49 -33 -66.5 -80t-17.5 -115z" />
    <glyph glyph-name="ngonguthai" unicode="&#xe07;" horiz-adv-x="1746" 
d="M898 1719q0 16 -1.5 34.5t-11.5 34t-31.5 26t-59.5 10.5q-20 0 -65.5 -4.5t-103.5 -23.5v377q53 20 121 34t135 23.5t128 15.5t100 6q138 0 220.5 -37t125.5 -97.5t57 -137t14 -157.5v-1132q0 -97 -10.5 -187t-37.5 -170.5t-75 -148t-123 -116.5t-180 -75.5t-248 -26.5
q-103 0 -204.5 23.5t-200.5 65.5t-195.5 97t-190.5 120v515q132 -97 234.5 -161t186 -103t153 -55.5t136.5 -16.5q26 0 49.5 11t41 36.5t27 68.5t9.5 105v1046z" />
    <glyph glyph-name="chochanthai" unicode="&#xe08;" horiz-adv-x="1879" 
d="M1031 1178v407q0 48 -15.5 89.5t-48.5 72t-85 48.5t-127 18q-66 0 -140 -5t-155.5 -19.5t-171 -42.5t-187.5 -76v438q82 30 164.5 56t170.5 44.5t185.5 30t208.5 11.5q222 0 379 -60.5t257 -160t146.5 -228.5t46.5 -266v-1535h-628v844h-604v484h311z" />
    <glyph glyph-name="chochingthai" unicode="&#xe09;" horiz-adv-x="2348" 
d="M1498 1523q0 65 -24.5 117t-77 87.5t-135.5 54t-197 18.5q-98 0 -212.5 -14t-231 -39.5t-226.5 -60.5t-199 -77v456q86 38 199 72.5t235 60.5t244 41.5t223 15.5q299 0 497 -60t316.5 -169t167.5 -263.5t49 -343.5v-1420h-433l-88 291q-95 -97 -179.5 -161t-170.5 -103
t-177.5 -55.5t-202.5 -16.5q-162 0 -284 47.5t-204 137t-124 214.5t-42 278v697h628v-703q0 -108 67 -158t190 -50q101 0 201 54.5t191 182.5v869z" />
    <glyph glyph-name="chochangthai" unicode="&#xe0a;" horiz-adv-x="2253" 
d="M1282 2425h749v-225l-406 -400q82 -29 156 -74.5t129.5 -114.5t88 -166t32.5 -229v-445q0 -121 -19.5 -228.5t-63.5 -197.5t-116 -161t-176 -119.5t-243.5 -74.5t-317.5 -26q-216 0 -383.5 48t-283 144.5t-175 240t-59.5 335.5v61q0 102 13 175.5t51 133.5t105.5 115.5
t177.5 122.5q79 48 110.5 115t31.5 136q0 58 -11 97.5t-33.5 64.5t-60 39t-91.5 21q-35 3 -77.5 0.5t-86.5 -10t-88.5 -20.5t-83.5 -31v404q68 23 133 39.5t120 26.5t99.5 14t73.5 4q150 0 255.5 -36t176.5 -93t110.5 -125.5t59 -135t23 -122t3.5 -84.5q-1 -39 -2.5 -79.5
t-10 -83t-27 -88.5t-52 -96.5t-88 -105.5t-132.5 -116q-39 -30 -56.5 -82t-17.5 -115l-2 -217q0 -53 18.5 -100t53.5 -82t87 -55t118 -20q14 0 42.5 0.5t63 7.5t71.5 22t66 44t47 73t18 109l1 690q0 13 -5 31.5t-18 34.5t-36 27.5t-62 11.5v970z" />
    <glyph glyph-name="sosothai" unicode="&#xe0b;" horiz-adv-x="2305" 
d="M2080 743q0 -182 -47.5 -328.5t-160.5 -249.5t-296 -157t-453 -54q-217 0 -387.5 47.5t-288.5 145.5t-179.5 245.5t-61.5 346.5q0 97 9.5 172.5t42 138t94 118t162.5 112.5q43 25 69 51t39 52.5t17.5 54t4.5 53.5v97q-16 33 -40 67t-59.5 63t-85.5 50.5t-117 31.5
q-42 7 -100.5 1.5t-108.5 -14.5v425q23 4 52 6.5t60 4.5t62.5 2t62.5 -1q69 -4 132.5 -32t118.5 -70.5t98 -94t71 -101.5l161 287h239v-576v-143.5t-22.5 -144.5t-79.5 -148t-171 -154q-48 -33 -66 -80.5t-18 -114.5v-194q0 -50 19.5 -97t57.5 -83t93 -58.5t127 -22.5
q13 0 42 2t64.5 10t73.5 24.5t70.5 47t52.5 76t20 110.5v35v648q0 13 -5.5 31.5t-18.5 34.5t-36 27.5t-62 11.5v970h749v-225l-406 -400q82 -29 156.5 -74.5t129.5 -114.5t87.5 -166t32.5 -229v-473z" />
    <glyph glyph-name="chochoethai" unicode="&#xe0c;" horiz-adv-x="3696" 
d="M312 1328l239 326h-392v351q147 55 303 99.5t312 77t307.5 51.5t288.5 19q233 0 395.5 -53.5t264.5 -153t148.5 -239t46.5 -310.5v-852q92 -128 198 -183t216 -55q107 0 158.5 50.5t51.5 158.5v1598h627v-1582q0 -153 -43.5 -278t-125.5 -214.5t-197.5 -137t-260.5 -47.5
q-108 0 -199.5 16.5t-178 55.5t-172 103.5t-180.5 160.5l-87 -291h-434v1421q0 103 -12.5 175t-45.5 115.5t-93 63t-155 19.5q-36 0 -81 -6t-92.5 -14.5t-93.5 -19.5t-85 -20v-1232q0 -16 2.5 -34t11.5 -33t25 -24.5t44 -9.5q33 0 75 3t99 10v-413q-52 -9 -103 -14
q-43 -6 -90.5 -9.5t-82.5 -3.5q-316 0 -462.5 145t-146.5 432v778z" />
    <glyph glyph-name="yoyingthai" unicode="&#xe0d;" horiz-adv-x="3522" 
d="M2881 -420h-1287v419h1654v-194zM2193 844q0 -55 10 -96.5t37.5 -69.5t73.5 -42.5t120 -14.5q71 0 117.5 13.5t74 41t38.5 68.5t11 96v1373h627v-1233q0 -168 -39.5 -308.5t-137 -240.5t-264.5 -156t-425 -56q-172 0 -303 25.5t-227.5 72.5t-161.5 114t-104 152
t-57 185.5t-18 211.5v440q0 103 -17 175t-52 115.5t-91.5 63t-135.5 19.5q-35 0 -82 -6.5t-93 -16.5t-88 -20.5l-66 -16.5v-1232q0 -16 2.5 -34t11.5 -33t25 -24.5t44 -9.5q33 0 75 3t99 10v-413q-52 -9 -103 -14q-43 -6 -90.5 -9.5t-82.5 -3.5q-316 0 -462.5 145
t-146.5 432v778l239 326h-392v351q147 55 299.5 99.5t304.5 77t300 51.5t285 19q233 0 393.5 -53.5t261 -153t145.5 -239t45 -310.5v-652z" />
    <glyph glyph-name="dochadathai" unicode="&#xe0e;" horiz-adv-x="2448" 
d="M409 1328l238 326h-392v351q147 55 290.5 99.5t283.5 77t278.5 51.5t275.5 19q233 0 393.5 -53.5t261 -153t145 -239t44.5 -310.5v-2150h-1735v383h354l755 -97v1788q0 103 -21 175t-60 115.5t-93 63t-122 19.5q-36 0 -76.5 -6.5t-78 -16.5t-68 -19.5t-46.5 -17.5v-1183
q0 -287 -147 -432t-460 -145q-36 0 -83 3.5t-91 9.5q-51 6 -102 14v413q55 -7 97.5 -10t75.5 -3q28 0 44.5 9.5t25 24.5t11 33t2.5 34v827z" />
    <glyph glyph-name="topatakthai" unicode="&#xe0f;" horiz-adv-x="2448" 
d="M1601 1420q0 103 -21 175t-60 115.5t-93 63t-122 19.5q-36 0 -76.5 -6.5t-78 -16.5t-68 -19.5t-46.5 -17.5v-1183q0 -287 -147 -432t-460 -145q-36 0 -83 3.5t-91 9.5q-51 6 -102 14v413q55 -7 97.5 -10t75.5 -3q28 0 44.5 9.5t25 24.5t11 33t2.5 34v827l238 326h-392
v351q147 55 290.5 99.5t283.5 77t278.5 51.5t275.5 19q233 0 393.5 -53.5t261 -153t145 -239t44.5 -310.5v-2151h-628q-29 45 -58.5 74t-60.5 46t-65 24t-71 7q-30 0 -64 -9t-66 -27.5t-60 -47t-45 -67.5h-754v433h201l452 -139q39 56 83.5 91t88 53.5t79.5 25t59 6.5
q70 3 147 -25t136 -89v1719z" />
    <glyph glyph-name="thothanthai" unicode="&#xe10;" horiz-adv-x="1879" 
d="M1057 -201h602v-501h-612q-49 77 -110.5 107.5t-117.5 29.5q-32 0 -65.5 -6t-63 -20.5t-52.5 -40.5t-36 -65h-425v420h175l178 -140q23 43 55.5 71t67 45.5t70.5 25t67 8.5q46 1 85.5 -9.5t73.5 -29.5t61.5 -40.5t46.5 -43.5v189zM1742 2324l-248 -325q85 -98 125 -218
t40 -246v-1535h-628v844h-604v484h311l293 -150v407q0 48 -15.5 89.5t-48.5 72t-85 48.5t-127 18q-66 0 -140 -5t-155.5 -19.5t-171 -42.5t-187.5 -76v438q82 30 164.5 56t170.5 44.5t185.5 30t208.5 11.5q107 0 201 -16v295h711v-205z" />
    <glyph glyph-name="thonangmonthothai" unicode="&#xe11;" horiz-adv-x="2471" 
d="M1622 0v1579q0 12 -7.5 17.5t-18.5 7t-22.5 -1.5t-18.5 -11l-592 -589q-25 -26 -38 -48.5t-18.5 -49t-7 -58t-1.5 -72.5v-773l-625 -2v714q0 52 2 95.5t14.5 83t38.5 80t73 86.5l203 199v295q-15 34 -34.5 73t-52 74.5t-81 63t-120.5 37.5q-42 7 -94 1.5t-102 -14.5v425
q46 8 99 11t112 1q69 -4 129.5 -28t111 -62t91 -85.5t69.5 -98.5l128 263h252v-459l167 179q48 53 107.5 109.5t132 104t156 78.5t177.5 31q129 0 206.5 -42t121 -116t57 -176.5t13.5 -223.5v-1698h-628z" />
    <glyph glyph-name="thophuthaothai" unicode="&#xe12;" horiz-adv-x="3694" 
d="M221 1592q0 154 29.5 275.5t96 206t172.5 128.5t259 44q62 0 127 -21t125 -50.5t112 -63.5t88 -60q39 26 94.5 60t118 63.5t128.5 50.5t127 21q154 0 261 -44t173.5 -128.5t96.5 -206t30 -275.5l1 -948q91 -128 188 -183t208 -55q107 0 148.5 50.5t41.5 158.5v1598h628
v-1582q0 -153 -41 -278t-119 -214.5t-191 -137t-258 -47.5q-108 0 -197 16.5t-171 55.5t-163.5 103.5t-177.5 160.5l-87 -290h-436l-2 1669q0 25 -9.5 39t-25 19t-35 2t-39.5 -10l-282 -125l-282 125q-20 7 -39.5 10t-34.5 -2t-25 -19t-10 -39v-852q0 -103 10.5 -180.5
t35 -130.5t66.5 -80.5t107 -27.5q59 0 112 14t105 36v-402q-79 -35 -171.5 -55.5t-181.5 -20.5q-186 0 -320 49.5t-220.5 158t-128.5 279.5t-42 413v722z" />
    <glyph glyph-name="nonenthai" unicode="&#xe13;" horiz-adv-x="3695" 
d="M3476 -1h-435l-86 291q-95 -97 -180.5 -161t-171.5 -103t-178 -55.5t-200 -16.5q-144 0 -260 47.5t-198 137t-125.5 214.5t-43.5 278v789q0 103 -12.5 175t-45.5 115.5t-93 63t-155 19.5q-36 0 -81 -6t-92.5 -14.5t-93.5 -19.5t-85 -20v-1232q0 -16 2.5 -34t11.5 -33
t25 -24.5t44 -9.5q33 0 75 3t99 10v-413q-52 -9 -103 -14q-43 -6 -90.5 -9.5t-82.5 -3.5q-316 0 -462.5 145t-146.5 432v778l239 326h-392v351q147 55 303 99.5t312 77t307.5 51.5t288.5 19q233 0 395.5 -53.5t264.5 -153t148.5 -239t46.5 -310.5v-881q0 -108 51.5 -158.5
t158.5 -50.5q110 0 216 54.5t198 183.5v1570h627v-2215z" />
    <glyph glyph-name="dodekthai" unicode="&#xe14;" horiz-adv-x="2417" 
d="M221 1522q0 197 70.5 335t199 225t312.5 127t411 40q228 0 410 -40t309 -127t195.5 -225t68.5 -335v-1522h-628v1537q0 81 -33 134t-84.5 83.5t-115.5 43t-125 12.5q-59 3 -122.5 -9t-117 -43.5t-88 -84.5t-34.5 -136l3 -720q0 -103 9.5 -180.5t34.5 -130.5t66 -80.5
t106 -27.5q59 0 112 14t105 36v-402q-79 -35 -171.5 -55.5t-181.5 -20.5q-186 0 -320 49.5t-220.5 158t-128.5 279.5t-42 413v652z" />
    <glyph glyph-name="totaothai" unicode="&#xe15;" horiz-adv-x="2480" 
d="M221 1592q0 154 29.5 275.5t96 206t172.5 128.5t259 44q62 0 127 -21t125 -50.5t112 -63.5t88 -60q39 26 95 60t122.5 63.5t141 50.5t150.5 21q138 0 237.5 -44t161.5 -128.5t91.5 -206t29.5 -275.5v-1592h-628v1669q0 25 -9.5 39t-25 19t-35 2t-39.5 -10l-282 -125
l-282 125q-20 7 -39.5 10t-34.5 -2t-25 -19t-10 -39l1 -852q0 -103 10 -180.5t34.5 -130.5t66.5 -80.5t107 -27.5q59 0 112 14t105 36v-402q-79 -35 -171.5 -55.5t-181.5 -20.5q-186 0 -320 49.5t-220.5 158t-128.5 279.5t-42 413v722z" />
    <glyph glyph-name="thothungthai" unicode="&#xe16;" horiz-adv-x="2445" 
d="M312 1328l239 326h-392v351q147 55 303 99.5t312 77t307.5 51.5t288.5 19q233 0 395.5 -53.5t264.5 -153t148.5 -239t46.5 -310.5v-1496h-627v1420q0 103 -12.5 175t-45.5 115.5t-93 63t-155 19.5q-36 0 -81 -6t-92.5 -14.5t-93.5 -19.5t-85 -20l1 -1232q0 -16 3 -34
t11 -33t24.5 -24.5t45.5 -9.5q32 0 74.5 3t98.5 10v-413q-52 -9 -103 -14q-43 -6 -90.5 -9.5t-82.5 -3.5q-158 0 -272.5 36.5t-188.5 108.5t-111 180t-37 252z" />
    <glyph glyph-name="thothahanthai" unicode="&#xe17;" horiz-adv-x="2393" 
d="M1546 0v1579q0 12 -8 17.5t-19 7t-22.5 -1.5t-18.5 -11l-566 -589q-25 -26 -37.5 -48.5t-18.5 -49t-7.5 -58t-1.5 -72.5v-774h-625v2214l625 -1v-637l383 397q66 62 124.5 114t120 89.5t134 58.5t165.5 21q130 0 208 -42t121 -116t56.5 -176.5t13.5 -223.5v-1698h-627z
" />
    <glyph glyph-name="thothongthai" unicode="&#xe18;" horiz-adv-x="2141" 
d="M790 539q0 -38 27.5 -66t69 -47.5t91.5 -29t93 -9.5t90 13t86 36t64.5 56t25.5 72v169q0 123 -79 197.5t-249 101.5q-71 12 -149 26.5t-157 36t-155 51t-143 69.5q-53 32 -99 73t-78.5 91t-50.5 110.5t-18 134.5q0 117 59 230t177.5 202t296 142.5t411.5 53.5
q101 0 208 -10t208 -28.5t192 -43.5t163 -55v-461q-81 31 -178.5 60.5t-200.5 52.5t-205 36.5t-193 13.5q-92 0 -152.5 -15t-97 -39t-51.5 -51t-15 -52q0 -43 26.5 -75t74.5 -54t113.5 -38t143.5 -28q169 -32 295.5 -67t218 -75.5t152 -91t95 -113t49 -138.5t14.5 -172v-154
q0 -138 -57.5 -262.5t-171 -219t-280 -150t-383.5 -55.5q-215 0 -383 46t-283.5 127.5t-175.5 197t-60 254.5v203l364 223h257v-479z" />
    <glyph glyph-name="nonuthai" unicode="&#xe19;" horiz-adv-x="2347" 
d="M849 2213v-1588q0 -108 67 -158t190 -50q101 0 201 54.5t191 182.5v1559h628v-2214h-433l-88 291q-95 -97 -179.5 -161t-170.5 -103t-177.5 -55.5t-202.5 -16.5q-162 0 -284 47.5t-204 137t-124 214.5t-42 278v1582h628z" />
    <glyph glyph-name="bobaimaithai" unicode="&#xe1a;" horiz-adv-x="2351" 
d="M1171 400q59 0 119 12t107.5 42.5t77 83.5t29.5 133v1543h628v-1521q0 -196 -64 -334.5t-186 -225.5t-300.5 -126.5t-406.5 -39.5t-405.5 39.5t-299 126.5t-185.5 225t-64 335v1521h628v-1543q0 -80 28.5 -133t75 -84.5t103.5 -44t115 -9.5z" />
    <glyph glyph-name="poplathai" unicode="&#xe1b;" horiz-adv-x="2404" 
d="M1197 400q59 0 123 12t116 42.5t86 83.5t34 133v2496h628v-2474q0 -196 -68 -334.5t-195 -225.5t-309.5 -126.5t-410.5 -39.5t-409 39.5t-308 126.5t-195 225t-68 335v1521h628v-1543q0 -80 33 -133t83.5 -84.5t112 -44t119.5 -9.5z" />
    <glyph glyph-name="phophungthai" unicode="&#xe1c;" horiz-adv-x="2480" 
d="M221 1344q0 242 42 412.5t128.5 279.5t220.5 158t320 49q88 0 180.5 -21t172.5 -55v-402q-52 22 -105 36t-112 14q-65 0 -107 -27.5t-66.5 -80.5t-34.5 -131t-10 -180l-1 -852q0 -25 10 -39t25 -18.5t34.5 -2t39.5 10.5l282 124l282 -124q20 -8 39.5 -10.5t35 2t25 19
t9.5 38.5v1669h628v-1592q0 -155 -29.5 -276t-91.5 -205t-161 -128.5t-238 -44.5q-77 0 -151 21t-140.5 51t-122.5 64t-95 60q-36 -26 -88 -60t-112 -64t-125 -51t-127 -21q-153 0 -259 44.5t-172.5 128.5t-96 205t-29.5 276v723z" />
    <glyph glyph-name="fofathai" unicode="&#xe1d;" horiz-adv-x="2480" 
d="M221 1344q0 242 42 412.5t128.5 279.5t220.5 158t320 49q88 0 180.5 -21t172.5 -55v-402q-52 22 -105 36t-112 14q-65 0 -107 -27.5t-66.5 -80.5t-34.5 -131t-10 -180l-1 -852q0 -25 10 -39t25 -18.5t34.5 -2t39.5 10.5l282 124l282 -124q20 -8 39.5 -10.5t35 2t25 19
t9.5 38.5v2623h628v-2546q0 -155 -29.5 -276t-91.5 -205t-161 -128.5t-238 -44.5q-77 0 -151 21t-140.5 51t-122.5 64t-95 60q-36 -26 -88 -60t-112 -64t-125 -51t-127 -21q-153 0 -259 44.5t-172.5 128.5t-96 205t-29.5 276v723z" />
    <glyph glyph-name="phophanthai" unicode="&#xe1e;" horiz-adv-x="2937" 
d="M2028 418q34 -11 48 4t14 50v1741l627 1v-1634q0 -156 -34 -271t-106 -190.5t-182 -113t-263 -37.5q-57 0 -120 13t-126.5 35t-125.5 48.5t-117 54t-100.5 53.5t-74.5 46q-30 -20 -75.5 -46t-101 -54t-118.5 -55.5t-126 -48.5t-126 -34t-119 -12q-153 0 -262 37.5
t-180 113t-105 190.5t-34 271v1634l628 -1v-1741q0 -34 13.5 -49.5t47.5 -4.5l245 69v1727l628 -1v-1725z" />
    <glyph glyph-name="fofanthai" unicode="&#xe1f;" horiz-adv-x="2937" 
d="M2028 418q34 -11 48 4t14 50v2696h627v-2588q0 -312 -139.5 -462t-445.5 -150q-57 0 -120 13t-126.5 35t-125.5 48.5t-117 54t-100.5 53.5t-74.5 46q-30 -20 -75.5 -46t-101 -54t-118.5 -55.5t-126 -48.5t-126 -34t-119 -12q-153 0 -262 37.5t-180 113t-105 190.5
t-34 271v1634h628v-1742q0 -34 13.5 -49.5t47.5 -4.5l245 69v1727h628v-1726z" />
    <glyph glyph-name="phosamphaothai" unicode="&#xe20;" horiz-adv-x="2474" 
d="M409 1328l238 326h-392v351q147 55 292.5 99.5t287.5 77t283 51.5t278 19q233 0 395.5 -53.5t265.5 -153t149.5 -239t46.5 -310.5v-1496h-626v1420q0 103 -23 175t-64.5 115.5t-97.5 63t-124 19.5q-36 0 -78.5 -6.5t-82.5 -16.5t-72.5 -19.5t-48.5 -17.5v-1183
q0 -287 -147 -432t-460 -145q-36 0 -83 3.5t-91 9.5q-51 6 -102 14v413q55 -7 97.5 -10t75.5 -3q28 0 44.5 9.5t25 24.5t11 33t2.5 34v827z" />
    <glyph glyph-name="momathai" unicode="&#xe21;" horiz-adv-x="2347" 
d="M2126 2213v-1582q0 -153 -41.5 -278t-123.5 -214.5t-204.5 -137t-284.5 -47.5q-110 0 -202 16.5t-178 55.5t-170.5 103.5t-179.5 160.5l-87 -291h-434v2214h628v-1559q91 -128 191 -182.5t202 -54.5q123 0 189.5 50t66.5 158v1588h628z" />
    <glyph glyph-name="yoyakthai" unicode="&#xe22;" horiz-adv-x="2386" 
d="M192 637q0 103 34.5 181.5t93.5 131.5l250 227q-68 21 -135.5 63t-121.5 104.5t-87.5 144t-33.5 181.5q0 45 8.5 105.5t34.5 125t73 127t121.5 111.5t180.5 80t250 31q13 0 46.5 -1.5t79.5 -7t103.5 -18t118.5 -33.5v-412q-32 12 -73.5 20.5t-85 12t-83 0t-68.5 -12.5
q-65 -23 -86.5 -70t-21.5 -114q0 -26 8.5 -57t29.5 -58t56 -45t89 -18h254v-324l-329 -265q-13 -10 -26 -23.5t-24 -35t-18 -52t-7 -73.5q0 -72 31.5 -122t83.5 -80.5t116.5 -44t129.5 -13.5q183 0 268 82t85 240v1489h628v-1525q0 -352 -242.5 -538t-746.5 -186
q-124 0 -245 15.5t-230.5 49.5t-202.5 86.5t-161.5 127.5t-106.5 172t-38 221z" />
    <glyph glyph-name="roruathai" unicode="&#xe23;" horiz-adv-x="1953" 
d="M778 1609q0 -88 66 -139.5t188 -69.5q184 -27 313.5 -71t216 -100t136.5 -123t76 -142t33 -155.5t7 -163.5q0 -144 -47.5 -271t-156.5 -221t-284 -148t-429 -54q-209 0 -392 42.5t-329 104.5v456q160 -65 324.5 -105t336.5 -40q169 0 259 59.5t90 156.5q0 22 -1 47
t-9 50.5t-26 50.5t-53 47.5t-88 41t-133 30.5q-216 32 -354 89t-217.5 137.5t-109 185.5t-29.5 233q0 91 21 182t66.5 172t116 150t168 120t223 79.5t283.5 28.5q104 0 198.5 -11t181 -28.5t163 -39.5t139.5 -45l2 -476q-98 45 -190.5 73t-175.5 44t-156 22t-132 6
q-69 0 -124 -17t-93 -46t-58.5 -66t-20.5 -76z" />
    <glyph glyph-name="ruthai" unicode="&#xe24;" horiz-adv-x="2445" 
d="M312 1328l239 326h-392v351q147 55 303 99.5t312 77t307.5 51.5t288.5 19q233 0 395.5 -53.5t264.5 -153t148.5 -239t46.5 -310.5v-2154h-627v2078q0 103 -12.5 175t-45.5 115.5t-93 63t-155 19.5q-36 0 -81 -6t-92.5 -14.5t-93.5 -19.5t-85 -20v-1232q0 -16 2.5 -34
t11.5 -33t25.5 -24.5t45.5 -9.5q32 0 74.5 3t98.5 10v-413q-52 -9 -103 -14q-43 -6 -90.5 -9.5t-82.5 -3.5q-158 0 -272.5 36.5t-188.5 108.5t-111 180t-37 252z" />
    <glyph glyph-name="lolingthai" unicode="&#xe25;" horiz-adv-x="2301" 
d="M1143 0h-224q-137 0 -248 29.5t-199 81t-153 120t-108 148t-64 165t-21 168.5q0 124 34.5 225.5t94.5 181t143 137.5t178 95.5t201.5 56t214.5 18.5h285l176 -160v309q0 63 -26.5 106t-77 69.5t-123.5 38t-166 11.5q-105 0 -213.5 -14.5t-210 -39t-193 -56t-162.5 -66.5
v473q71 30 172 59t213 51t224 35t201 13q271 0 459.5 -51.5t306.5 -151.5t170.5 -247.5t52.5 -336.5v-1468h-627v983h-421q-53 0 -103.5 -16.5t-90.5 -50.5t-64 -86t-24 -120q0 -58 15 -106t44.5 -83.5t72 -55.5t98.5 -20h163v-445z" />
    <glyph glyph-name="luthai" unicode="&#xe26;" horiz-adv-x="2474" 
d="M409 1328l238 326h-392v351q147 55 292.5 99.5t287.5 77t283 51.5t278 19q233 0 395.5 -53.5t265.5 -153t149.5 -239t46.5 -310.5v-2151h-626v2075q0 103 -23 175t-64.5 115.5t-97.5 63t-124 19.5q-36 0 -78.5 -6.5t-82.5 -16.5t-72.5 -19.5t-48.5 -17.5v-1183
q0 -287 -147 -432t-460 -145q-36 0 -83 3.5t-91 9.5q-51 6 -102 14v413q55 -7 97.5 -10t75.5 -3q28 0 44.5 9.5t25 24.5t11 33t2.5 34v827z" />
    <glyph glyph-name="wowaenthai" unicode="&#xe27;" horiz-adv-x="1827" 
d="M1091 1110q0 159 -13.5 286.5t-53.5 219t-113.5 142.5t-191.5 56q-127 6 -276 -16t-319 -86v427q149 62 305.5 94t315.5 32q289 0 478.5 -74.5t300 -221t154.5 -362t44 -497.5q0 -289 -44.5 -505.5t-156 -361t-300.5 -217t-476 -72.5q-160 0 -316.5 31.5t-304.5 96.5v427
q77 -30 155.5 -53t155 -36.5t148.5 -17.5t136 3q120 12 193.5 59.5t113 133.5t52.5 213t13 299z" />
    <glyph glyph-name="sosalathai" unicode="&#xe28;" horiz-adv-x="2430" 
d="M2292 2324l-248 -323q82 -85 124 -203.5t42 -275.5v-1522h-628v1537q0 81 -31 134t-81.5 83.5t-112 43t-120.5 12.5h-4q-58 3 -125 -9t-125 -43.5t-96 -84.5t-38 -136v-358l291 149h254v-484h-545v-844h-628v1522q0 197 73.5 335t208 225t321 127t413.5 40q188 0 344 -28
v310l711 -2v-205z" />
    <glyph glyph-name="sorusithai" unicode="&#xe29;" horiz-adv-x="2399" 
d="M1550 1510v704h628v-704h228v-441h-228v-376q0 -196 -66.5 -334.5t-191 -225.5t-305 -126.5t-408.5 -39.5q-227 0 -409 39.5t-310.5 126.5t-197.5 225t-69 335v1521h628v-1543q0 -81 32.5 -133.5t84.5 -83.5t115.5 -43.5t125.5 -12.5t124 12.5t111 43.5t78.5 83.5
t29.5 133.5v398h-502v246z" />
    <glyph glyph-name="sosuathai" unicode="&#xe2a;" horiz-adv-x="2301" 
d="M1143 0h-224q-137 0 -248 29.5t-199 81t-153 120t-108 148t-64 165t-21 168.5q0 124 34.5 225.5t94.5 181t143 137.5t178 95.5t201.5 56t214.5 18.5h285l176 -160v309q0 63 -26.5 106t-77 69.5t-123.5 38t-166 11.5q-105 0 -213.5 -14.5t-210 -39t-193 -56t-162.5 -66.5
v473q71 30 172 59t213 51t224 35t201 13q101 0 190.5 -8t169.5 -22v306l710 -2v-205l-250 -326q89 -98 129 -231t40 -299v-1468h-627v983h-421q-53 0 -103.5 -16.5t-90.5 -50.5t-64 -86t-24 -120q0 -58 15 -106t44.5 -83.5t72 -55.5t98.5 -20h163v-445z" />
    <glyph glyph-name="hohipthai" unicode="&#xe2b;" horiz-adv-x="2389" 
d="M1540 1035q0 130 -67.5 195.5t-208.5 65.5q-97 0 -203.5 -21t-211.5 -55v-1220h-628v2214h628v-548q108 28 223.5 47.5t225.5 19.5q62 0 117 -4t106 -10v495h719v-326l-273 -365q107 -101 154 -243t47 -314v-966h-628v1035z" />
    <glyph glyph-name="lochulathai" unicode="&#xe2c;" horiz-adv-x="2753" 
d="M2584 2225l-228 -247q84 -97 130 -225t46 -285v-912q0 -131 -29.5 -238t-96 -183.5t-173.5 -118.5t-260 -42q-85 -1 -173 24t-168 62t-147 76.5t-109 69.5q-41 -30 -109 -70.5t-149.5 -77t-169.5 -61t-171 -23.5h3q-153 0 -260 42t-173.5 118.5t-96 183t-29.5 238.5v1658
h628v-1765q0 -33 13.5 -42t45.5 2l167 50v637l304 405h298v-1040l169 -52q32 -10 45.5 -1.5t13.5 41.5v1129q0 114 -65.5 166t-172.5 56q-32 1 -77.5 -1t-98 -9t-108 -19.5t-106.5 -31.5v402q108 40 226.5 64t243.5 24q37 0 72 -2.5t69 -7.5v313h696v-307z" />
    <glyph glyph-name="oangthai" unicode="&#xe2d;" horiz-adv-x="2311" 
d="M203 976q0 97 29 179.5t88.5 143.5t148 95.5t205.5 36.5q39 0 91 -2.5t109.5 -9.5t116 -18t113.5 -26v-392q-36 12 -73.5 18.5t-70 6.5t-59 -6t-42.5 -19q-16 -14 -22.5 -36t-6.5 -55v-234q1 -81 29.5 -132.5t72.5 -80t99 -39t112 -8.5q59 0 116 10t102 38.5t73 79.5
t28 132v825q0 101 -26 162.5t-73 96t-111 46.5t-142 12q-107 0 -222.5 -13t-234 -41t-236 -70t-225.5 -98v474q83 40 194.5 76.5t239.5 64t268 43.5t283 16q247 0 420 -51.5t282 -154t160 -257.5t51 -362v-734q0 -196 -62 -334.5t-182 -225.5t-296 -126.5t-405 -39.5
q-225 0 -399 41t-293.5 130t-182.5 226t-67 329v283z" />
    <glyph glyph-name="honokhukthai" unicode="&#xe2e;" horiz-adv-x="2311" 
d="M2173 2324l-249 -325q86 -102 126 -244.5t40 -327.5v-734q0 -196 -62 -334.5t-182 -225.5t-296 -126.5t-405 -39.5q-225 0 -399 41t-293.5 130t-182.5 226t-67 329v283q0 97 29 179.5t88.5 143.5t148 95.5t205.5 36.5q39 0 91 -2.5t109.5 -9.5t116 -18t113.5 -26v-392
q-36 12 -73.5 18.5t-70 6.5t-59 -6t-42.5 -19q-16 -14 -22.5 -36t-6.5 -55v-234q1 -81 29.5 -132.5t72.5 -80t99 -39t112 -8.5q59 0 116 10t102 38.5t73 79.5t28 132v825q0 101 -26 162.5t-73 96t-111 46.5t-142 12q-107 0 -222.5 -13t-234 -41t-236 -70t-225.5 -98v474
q83 40 194.5 76.5t239.5 64t268 43.5t283 16q79 0 149.5 -6t135.5 -16v301l711 -2v-205z" />
    <glyph glyph-name="paiyannoithai" unicode="&#xe2f;" horiz-adv-x="2258" 
d="M1103 1781h-77q-71 0 -120 -25t-80.5 -65.5t-46 -89t-14.5 -94.5q0 -52 15 -104t47 -94.5t81 -71.5t117 -34q87 -10 178.5 2.5t193.5 47.5v960h628v-2213h-628v953l-196 -145q-71 -17 -153 -24t-164 -2q-168 12 -304 62.5t-231.5 140t-147 220t-51.5 302.5q0 131 49 258
t149.5 226.5t254 160.5t361.5 61h139v-432z" />
    <glyph glyph-name="saraathai" unicode="&#xe30;" horiz-adv-x="1499" 
d="M1379 403l-351 -207h-497q-92 0 -163 31t-120 81t-74 115t-25 134v345h610v-234q0 -33 15.5 -44.5t52.5 -11.5h552v-209zM1379 1535l-351 -206h-497q-92 0 -163 30.5t-120 81t-74 115.5t-25 134v345h610v-235q0 -32 15.5 -43.5t52.5 -11.5h552v-210z" />
    <glyph glyph-name="maihanakatthai" unicode="&#xe31;" 
d="M38 2851l-403 -201h-881q-116 0 -189.5 39t-115 94.5t-57.5 117.5t-16 107v290h488v-216q0 -55 21.5 -74.5t73.5 -19.5h1079v-137z" />
    <glyph glyph-name="saraaathai" unicode="&#xe32;" horiz-adv-x="1606" 
d="M758 1595q0 59 -21 102.5t-57 71t-86.5 39.5t-108.5 12q-91 0 -198.5 -28.5t-238.5 -86.5v397q68 32 146.5 59t157.5 48t153 32.5t132 11.5q211 0 354 -55t230.5 -151.5t126 -227t38.5 -280.5v-1539h-628v1595z" />
    <glyph glyph-name="saraamthai" unicode="&#xe33;" horiz-adv-x="1606" 
d="M758 1595q0 59 -21 102.5t-57 71t-86.5 39.5t-108.5 12q-91 0 -198.5 -28.5t-238.5 -86.5v397q68 32 146.5 59t157.5 48t153 32.5t132 11.5q211 0 354 -55t230.5 -151.5t126 -227t38.5 -280.5v-1539h-628v1595zM-966 2983q0 101 34.5 179.5t94.5 132.5t139.5 81.5
t171.5 27.5t173 -27.5t140.5 -81.5t94 -132t34.5 -180q0 -101 -34.5 -178.5t-94 -130.5t-140 -80.5t-173.5 -27.5q-92 0 -171.5 27.5t-139.5 80.5t-94.5 130.5t-34.5 178.5zM-686 2983q0 -89 43 -133t116 -44q72 0 116 44t44 133q0 90 -44 134t-116 44q-73 0 -116 -44
t-43 -134z" />
    <glyph glyph-name="saraithai" unicode="&#xe34;" 
d="M-2057 2811l381 189h1455v-350h-1836v161z" />
    <glyph glyph-name="saraiithai" unicode="&#xe35;" 
d="M-2057 2811l381 189h902v373h553v-723h-1h-1835v161z" />
    <glyph glyph-name="sarauethai" unicode="&#xe36;" 
d="M-741 3049q0 -74 31.5 -110t105.5 -36q72 0 103.5 36t31.5 110q0 75 -31 111.5t-104 36.5q-75 0 -106 -36.5t-31 -111.5zM-2057 2811l381 189h681q-3 13 -4 25t-1 23q0 91 27.5 165t78 125t124 78.5t166.5 27.5q91 0 164 -27.5t124.5 -78.5t79 -125t27.5 -165
q0 -92 -31 -165t-84.5 -124.5t-125 -80t-153.5 -28.5h-1454v161z" />
    <glyph glyph-name="saraueethai" unicode="&#xe37;" 
d="M-2057 2811l381 189h422v373h396v-373h240v373h397v-723h-1836v161z" />
    <glyph glyph-name="sarauthai" unicode="&#xe38;" 
d="M-813 -1025v270q0 31 -2 52.5t-13.5 35t-31.5 20t-55 6.5q-16 0 -37.5 -2t-45 -6.5t-45.5 -9t-39 -9.5v317q95 32 182 49.5t161.5 26t133 10.5t94.5 2q89 -1 145.5 -27t88.5 -71.5t44 -108.5t12 -136v-419h-592z" />
    <glyph glyph-name="sarauuthai" unicode="&#xe39;" 
d="M-1809 -286q43 5 109 10t133 9t124 5.5t83 -1.5q89 0 144.5 -23.5t84 -63.5t35 -93t-0.5 -116q-8 -59 3.5 -94.5t35 -53.5t53 -24t58.5 -6q84 0 122 38t38 117v310h566v-333q0 -114 -59 -195.5t-159.5 -134t-231.5 -78t-276 -25.5q-83 0 -168.5 7.5t-164 24t-147 43
t-116.5 68.5t-73 99t-17 132q1 19 0 34t-11 27t-29 19t-51 7h-16.5t-23.5 -0.5t-24.5 -1t-18.5 -0.5z" />
    <glyph glyph-name="phinthuthai" unicode="&#xe3a;" 
d="M-889 -574q0 69 26.5 130t72 106.5t107 72.5t130.5 27q68 0 128.5 -27t106.5 -72.5t72.5 -106.5t26.5 -130t-26.5 -129.5t-72.5 -106.5t-106.5 -72.5t-128.5 -26.5q-69 0 -130.5 26.5t-107 72.5t-72 106.5t-26.5 129.5z" />
    <glyph glyph-name="uni0E3D" unicode="&#xe3d;" 
 />
    <glyph glyph-name="PUCR2005" unicode="&#xe3e;" 
 />
    <glyph glyph-name="bahtthai" unicode="&#xe3f;" horiz-adv-x="2565" 
d="M1364 3033v-269h17q271 0 452.5 -58.5t291 -160t155 -238t45.5 -293.5q0 -185 -73.5 -318.5t-226.5 -227.5q75 -32 144.5 -85.5t122.5 -133.5t84.5 -189.5t31.5 -251.5q0 -107 -22 -208.5t-70 -191t-124.5 -165t-188.5 -129.5t-260.5 -84t-339.5 -30h-39v-290h-459v290
h-684v2764h684v269h459zM867 508h526q105 0 176 25.5t112 69.5t59 102t18 125q0 81 -21 147t-65 112.5t-112.5 71.5t-163.5 25h-529v-678zM1676 1959q0 52 -13 104.5t-47 95t-94 70t-155 27.5h-500v-612h516q85 0 141.5 31t90 77t47.5 101.5t14 105.5z" />
    <glyph glyph-name="saraethai" unicode="&#xe40;" horiz-adv-x="1069" 
d="M221 0v2214h628v-2214h-628z" />
    <glyph glyph-name="saraaethai" unicode="&#xe41;" horiz-adv-x="2006" 
d="M221 0v2214h628v-2214h-628zM1158 0v2214h627v-2214h-627z" />
    <glyph glyph-name="saraothai" unicode="&#xe42;" horiz-adv-x="1088" 
d="M221 2410v19.5t-3 29t-11 37.5t-25 44l-139 230q-45 63 -70.5 116t-36.5 98.5t-9 86.5t18 83q22 58 69 95.5t110.5 57.5t137.5 27t152 7q116 0 240 -11t244 -28t226.5 -38t187.5 -42v-309l-778 -2q-32 0 -45.5 -11.5t-15 -26.5t5 -31.5t12.5 -25.5l299 -450
q29 -42 44.5 -79t15.5 -83l-1 -2204h-628v2410z" />
    <glyph glyph-name="saraaimaimuanthai" unicode="&#xe43;" horiz-adv-x="1088" 
d="M867 0h-627v1897q0 52 19.5 113t54 125.5t82 129.5t102.5 124q62 68 100.5 130t58 113t25 91.5t4.5 63.5q-5 85 -61 136.5t-175 51.5q-74 0 -151.5 -16t-145.5 -40.5t-122 -51t-83 -47.5v382q61 27 135 52.5t157 45t173.5 31t184.5 11.5q117 0 207 -22.5t157 -61t112 -89
t73 -106.5t39.5 -114.5t11.5 -111.5q0 -71 -14.5 -131t-45 -122t-78.5 -132t-117 -161q-23 -32 -38.5 -61t-24 -58.5t-11 -62.5t-2.5 -77v-2032z" />
    <glyph glyph-name="saraaimaimalaithai" unicode="&#xe44;" horiz-adv-x="1089" 
d="M867 0h-627v2204q0 46 15.5 83t43.5 79l314 460q6 10 12 24.5t4.5 28.5t-15.5 24t-45 10h-778v309q81 21 187.5 42t226.5 38t244 28t240 11q78 0 151.5 -4.5t136 -23.5t109.5 -56.5t72 -102.5q17 -46 20 -88.5t-8.5 -86.5t-38.5 -95t-71 -114l-152 -230q-17 -23 -26 -44
t-12 -37.5t-3 -28.5v-20v-2410z" />
    <glyph glyph-name="lakkhangyaothai" unicode="&#xe45;" horiz-adv-x="1606" 
d="M758 1595q0 59 -21 102.5t-57 71t-86.5 39.5t-108.5 12q-91 0 -198.5 -28.5t-238.5 -86.5v397q68 32 146.5 59t157.5 48t153 32.5t132 11.5q211 0 354 -55t230.5 -151.5t126 -227t38.5 -280.5v-2194h-628v2250z" />
    <glyph glyph-name="maiyamokthai" unicode="&#xe46;" horiz-adv-x="2317" 
d="M1478 1759q0 26 -21 32.5t-48 -7.5l-276 -128l-277 128q-27 14 -47 7.5t-20 -32.5v-334q0 -36 4.5 -69.5t17 -59.5t32.5 -44.5t52 -24.5q18 -4 47 -5t64.5 3.5t74.5 15t77 28.5v-365q-88 -32 -184 -55t-212 -23q-110 0 -192.5 27t-143.5 75t-100.5 110t-63.5 132
t-33.5 144t-9.5 143v213q0 111 20.5 216.5t73 187.5t143.5 132t230 50q63 0 128 -17.5t124 -44t109 -56t86 -52.5q35 23 86 53t110.5 56t124 43.5t127.5 17.5q142 0 237.5 -44.5t153.5 -124t82 -190t24 -241.5v-2313h-600v2416z" />
    <glyph glyph-name="maitaikhuthai" unicode="&#xe47;" 
d="M-1073 2763q-53 -33 -108 -60q-47 -23 -103 -41.5t-105 -17.5q-104 0 -179.5 31.5t-126 87t-75 131t-24.5 166.5v44q0 45 9 94.5t31.5 98t61 92t97.5 77.5t139 54.5t187 20.5h1037v-126l-270 -190h-713q-66 -3 -101 -30t-35 -95v-40q0 -37 8.5 -59.5t24 -33.5t35 -11
t41.5 7l167 85l179 -82q47 -16 76 3t29 71v58h452v-90q0 -75 -20 -140.5t-67.5 -115t-127.5 -79t-201 -29.5q-53 -1 -109.5 17t-102.5 41t-61 32z" />
    <glyph glyph-name="maiekthai" unicode="&#xe48;" 
d="M-774 3604v628h553v-628h-553z" />
    <glyph glyph-name="maithothai" unicode="&#xe49;" 
d="M-1247 3749q23 16 60.5 41t73.5 57t63 68.5t28 76.5q1 29 -18.5 52.5t-75.5 25.5q-7 0 -24.5 -0.5t-37 -2.5t-39 -5t-32.5 -9v251q33 10 82.5 19t102 15.5t103.5 9.5t85 3q87 0 149 -17.5t101.5 -48.5t58.5 -73.5t19 -91.5q0 -43 -9.5 -79.5t-24 -65.5t-31 -49t-29.5 -30
h581v-115l-265 -175h-921v143z" />
    <glyph glyph-name="maitrithai" unicode="&#xe4a;" 
d="M-906 3632q-27 -11 -63.5 -17t-75 -8.5t-75 -1t-65.5 6.5q-57 9 -95.5 39t-62 69t-33.5 83t-10 83v218q-1 62 16 108t47.5 74.5t74 42t95.5 13.5q48 0 96 -12.5t94 -31t90.5 -41.5t85.5 -44q49 19 99.5 41.5t102.5 41.5t103.5 30.5t101.5 11.5q85 0 139.5 -54.5
t54.5 -179.5q0 -48 -10 -84.5t-25.5 -63.5t-35 -45.5t-39.5 -30.5h373v-100l-276 -174h-442v226q12 7 31.5 16.5t37.5 23.5t31 34t13 51q0 34 -11 50t-27.5 19.5t-39.5 -3.5t-46 -19q-51 -26 -80 -39t-53 -13q-20 0 -52 14.5t-73 37.5q-21 12 -44 19.5t-43.5 4t-33.5 -19.5
t-13 -51l2 -31q1 -38 16.5 -55t36 -23t43.5 -3.5t41 5.5z" />
    <glyph glyph-name="maichattawathai" unicode="&#xe4b;" 
d="M-853 4131h189v251h443v-251h305v-297h-305v-250h-443v250h-411v123z" />
    <glyph glyph-name="thanthakhatthai" unicode="&#xe4c;" 
d="M12 3757l-278 -174h-192q-34 0 -58 -14t-25 -59v-222h-454v220q0 62 14.5 129.5t57.5 124.5t122 94.5t211 42.5h603z" />
    <glyph glyph-name="nikhahitthai" unicode="&#xe4d;" 
d="M-966 2983q0 101 34.5 179.5t94.5 132.5t139.5 81.5t171.5 27.5t173 -27.5t140.5 -81.5t94 -132t34.5 -180q0 -101 -34.5 -178.5t-94 -130.5t-140 -80.5t-173.5 -27.5q-92 0 -171.5 27.5t-139.5 80.5t-94.5 130.5t-34.5 178.5zM-686 2983q0 -89 43 -133t116 -44
q72 0 116 44t44 133q0 90 -44 134t-116 44q-73 0 -116 -44t-43 -134z" />
    <glyph glyph-name="yamakkanthai" unicode="&#xe4e;" 
d="M19 3470l-266 -167h-81q-26 0 -41.5 -1.5t-25 -8t-12.5 -19t-3 -33.5v-218h-394v-243h-434v185q0 59 14 123t56 118.5t118.5 90.5t200.5 40q5 35 23.5 80t60 86t113.5 70.5t183 32.5h488v-136z" />
    <glyph glyph-name="fongmanthai" unicode="&#xe4f;" horiz-adv-x="2643" 
d="M1319 -35q-160 0 -309.5 27t-280 84t-239.5 146.5t-186 217t-120.5 293t-43.5 375.5q0 209 43.5 376t120.5 294.5t186 217.5t239.5 147t280 83.5t309.5 26.5q162 0 312 -26.5t281.5 -83.5t240.5 -147t186 -217.5t120.5 -294t43.5 -376.5q0 -209 -43.5 -375t-120.5 -293.5
t-186 -217t-240.5 -146.5t-281.5 -84t-312 -27zM1325 344q160 0 303 41.5t250.5 133.5t169.5 237t62 352q0 208 -62 354t-169.5 237.5t-250.5 133.5t-303 42q-163 0 -306.5 -42t-252 -133.5t-171 -237.5t-62.5 -354t62.5 -352.5t171 -236.5t252 -133.5t306.5 -41.5z
M1324 543q-120 0 -227 30.5t-187 98t-126.5 175t-46.5 261.5q0 155 46.5 263t126.5 175.5t187 98.5t227 31q118 0 224 -31t186 -98.5t126 -175.5t46 -263q0 -154 -46 -261.5t-126 -175t-186 -98t-224 -30.5zM1322 859q53 0 99.5 13.5t82 43t56.5 77.5t21 115q0 68 -21 116
t-56.5 78t-82 44t-99.5 14t-100 -14t-82.5 -44t-56.5 -77.5t-21 -116.5q0 -68 21 -115.5t56.5 -77t82.5 -43t100 -13.5z" />
    <glyph glyph-name="zerothai" unicode="&#xe50;" horiz-adv-x="2771" 
d="M1381 1995q166 0 321.5 -21.5t291.5 -70.5t249 -127t193.5 -191t125.5 -261.5t45 -340.5q-1 -193 -45.5 -342.5t-124.5 -263t-192.5 -191.5t-248 -127t-292 -70.5t-324.5 -21.5q-165 0 -319.5 21.5t-290 70.5t-246.5 127t-190.5 191.5t-123.5 263t-44 342.5
q0 192 44 340.5t123.5 261.5t191.5 191t246.5 127t289.5 70.5t320 21.5zM1381 375q172 0 290.5 43t192 122t107 191.5t33.5 251.5q1 140 -31 252.5t-104.5 190.5t-192 120t-292.5 42q-172 0 -290 -42t-191 -120t-104.5 -190.5t-30.5 -252.5q0 -139 31 -251.5t104 -191.5
t189.5 -122t288.5 -43z" />
    <glyph glyph-name="onethai" unicode="&#xe51;" horiz-adv-x="2768" 
d="M984 604q-182 0 -331 41.5t-255 121.5t-164 197t-57 265q1 173 81 310.5t231.5 233.5t371.5 148t502 52q303 0 526.5 -59t371 -174t219.5 -286t72 -393v-121q0 -172 -45 -310.5t-127.5 -247t-199.5 -186.5t-261.5 -128.5t-311.5 -75t-351 -24.5q-117 0 -229 6
t-224.5 19.5t-229.5 40t-247 67.5v417q98 -30 178.5 -52t152 -37.5t138.5 -26.5t137.5 -17t150 -8t174.5 -2q81 0 164.5 13t161.5 40.5t147.5 70t120.5 102t81 138t30 175.5v135q0 143 -45 243t-124.5 162t-189 90t-240.5 28q-113 0 -220 -18t-189 -57t-130.5 -102.5
t-46.5 -156.5q0 -51 20 -92.5t56 -71.5t88 -46t117 -16q40 0 89.5 2t109 9.5t129 22.5t150.5 41v-384q-42 -19 -103.5 -36t-134.5 -31.5t-153 -23t-161 -8.5z" />
    <glyph glyph-name="twothai" unicode="&#xe52;" horiz-adv-x="2771" 
d="M2574 875q0 -170 -49.5 -304.5t-138.5 -235t-212.5 -170.5t-272.5 -114t-316 -64t-343 -20q-152 0 -288.5 6.5t-273.5 30t-283 68.5t-319 122v450q155 -89 306 -143.5t297 -83.5t286 -39t275 -10q73 0 156 6t166 22.5t159.5 46t135 77t93 116t34.5 162.5v699
q0 46 -13.5 59t-44.5 13q-19 0 -39 -8.5t-41 -21.5t-42.5 -27.5t-40.5 -27.5l-243 -168h-266l-244 168q-19 13 -40.5 27.5t-42.5 27.5t-42 21.5t-38 8.5q-30 0 -44.5 -13t-14.5 -59v-259q0 -47 8 -86.5t28 -68t54.5 -45t89.5 -16.5q75 0 169 11.5t227 49.5v-380
q-53 -19 -115 -32.5t-123 -25t-117.5 -17.5t-95.5 -6q-358 0 -534 165.5t-175 504.5l-1 61q-3 130 21 243t86.5 196.5t170 132t273.5 48.5q69 0 128.5 -7t113 -22.5t102.5 -40t98 -60.5l192 -137l191 139q48 35 96.5 60t102 40t113.5 21.5t129 6.5q166 0 273.5 -47.5
t170.5 -131t86 -197t22 -243.5v-479z" />
    <glyph glyph-name="threethai" unicode="&#xe53;" horiz-adv-x="2771" 
d="M2610 1350v-1350h-588l-1 1459q0 36 -6.5 55t-16.5 27t-21.5 10t-22.5 2q-21 0 -50.5 -17.5t-76.5 -51.5l-303 -221h-275l-302 221q-47 34 -77 51.5t-51 17.5q-10 0 -21 -2t-21 -10t-16.5 -27t-6.5 -55v-859q0 -60 18 -102.5t46 -70t63.5 -42t69.5 -15.5q86 -5 197.5 13
t238.5 73v-371q-99 -46 -225 -78.5t-269 -32.5q-170 0 -305.5 44t-230 132t-144 218t-49.5 303l2 679q0 154 29.5 270.5t96 195t172.5 118t261 39.5q92 0 162 -15t122 -38t90.5 -50t69.5 -48l218 -158l217 158q32 22 70 48.5t90 49.5t122 38t162 15q153 0 260 -39.5
t173.5 -118t96.5 -195t30 -270.5h2z" />
    <glyph glyph-name="fourthai" unicode="&#xe54;" horiz-adv-x="2771" 
d="M1548 719q0 -46 17.5 -91t46 -86t62.5 -77t68 -65h793v-400h-1568q-201 0 -355 62.5t-258 182.5t-158 293t-54 396v66q0 259 91.5 444.5t264 304t420.5 172.5t563 52q125 -1 233 -5.5t203 -9.5t181.5 -13t171 -16.5t170.5 -19.5t181 -22v-408q-180 29 -333 48t-288 28.5
t-257.5 13t-242.5 3.5q-98 0 -193 -8t-180 -31t-158 -62.5t-126 -104.5t-83 -158.5t-30 -220.5q0 -52 3 -115.5t12.5 -128.5t27.5 -127t49 -110t75 -77t106 -29l205 -2q-49 53 -83.5 105.5t-57 106t-32.5 110.5t-10 123q0 71 32.5 141t102 125.5t177.5 91t261 39.5
q83 -1 171.5 -15t167.5 -35v-345q-14 4 -37.5 9.5t-52 10.5t-59.5 7.5t-62 2.5q-32 0 -65 -9t-58 -29t-40 -49t-15 -69z" />
    <glyph glyph-name="fivethai" unicode="&#xe55;" horiz-adv-x="2771" 
d="M1350 2071q0 -71 34.5 -104.5t93.5 -33.5q58 0 92.5 34t34.5 104q0 71 -34.5 105.5t-92.5 34.5q-59 0 -93.5 -34.5t-34.5 -105.5zM1548 719q0 -46 17.5 -91t46 -86t62.5 -77t68 -65h793v-400h-1568q-201 0 -355 62.5t-258 182.5t-158 293t-54 396v66q-2 211 58.5 373.5
t180.5 280t294 190.5t395 103q-15 56 -15 124q0 97 33 171.5t90.5 125t134.5 77t166 26.5q88 0 165.5 -26.5t136 -77t91.5 -125t33 -171.5q0 -30 -3.5 -57.5t-9.5 -53.5q98 -6 188.5 -13.5t177.5 -17t176 -20.5t187 -22v-408q-331 49 -606.5 71t-514.5 22q-159 0 -297 -24.5
t-241.5 -85t-164.5 -166t-67 -266.5v-73q0 -47 3 -106.5t12.5 -121t27.5 -120.5t49 -105.5t75 -75t106 -28.5l205 -2q-49 53 -83.5 105.5t-57 106t-32.5 110.5t-10 123q0 71 32.5 141t102 125.5t177.5 91t261 39.5q83 -1 171.5 -15t167.5 -35v-345q-14 4 -37.5 9.5t-52 10.5
t-59.5 7.5t-62 2.5q-32 0 -65 -9t-58 -29t-40 -49t-15 -69z" />
    <glyph glyph-name="sixthai" unicode="&#xe56;" horiz-adv-x="2771" 
d="M986 1211q92 0 239 -16v-393q-38 3 -63.5 6t-47 5t-42 1.5t-46.5 -1.5q-36 -3 -72 -14.5t-66 -34.5t-48.5 -58t-15.5 -85q3 -70 48.5 -120.5t121.5 -82t175.5 -46.5t211.5 -15q136 0 252.5 26.5t201.5 87t134 158t49 240.5v188q0 101 -27.5 178t-74.5 134.5t-108.5 97.5
t-131 64t-142.5 34t-141 10q-253 1 -528.5 -57.5t-590.5 -195.5q-18 114 -34 229t-35.5 234.5t-45.5 247.5t-61 271h562q23 -110 41.5 -224t34.5 -234q66 26 155 49t183.5 40.5t186.5 27.5t165 10q256 0 473 -49t373.5 -157t245.5 -283t89 -427v-181q0 -218 -78 -387
t-232.5 -284t-384 -174.5t-531.5 -59.5q-258 0 -464.5 41t-353 125t-228 210.5t-85.5 297.5q3 153 66.5 260.5t166.5 175.5t234 99t269 31z" />
    <glyph glyph-name="seventhai" unicode="&#xe57;" horiz-adv-x="3025" 
d="M2876 591q0 -110 -50 -217t-152.5 -191t-257 -136.5t-364.5 -52.5q-30 0 -80.5 3t-111 11t-126 21t-126.5 33l1 1419q0 44 -15.5 57.5t-27.5 13.5q-23 0 -43 -13t-46 -43l-149 -159h-298l-154 153q-26 27 -52.5 44.5t-51.5 17.5q-7 0 -20.5 -14t-13.5 -57v-860
q0 -49 12.5 -93.5t36.5 -78t58.5 -56t79.5 -26.5q14 -1 43 -1.5t64 2.5t71.5 8t68.5 15l1 -369q-58 -16 -132 -29t-181 -13q-186 0 -320 50.5t-220.5 141.5t-128 217t-41.5 278v681q1 131 27 245t89 198t172 133t277 49q62 0 115.5 -13t103 -36.5t98 -59.5t97.5 -83l46 -46
l43 48q40 42 90 76.5t104 60.5t112 39.5t117 13.5q169 0 270.5 -46.5t155.5 -129t71 -197.5t17 -252v-978q23 -5 53.5 -2t58 22.5t46.5 58.5t19 105v1748h544v-1711z" />
    <glyph glyph-name="eightthai" unicode="&#xe58;" horiz-adv-x="2770" 
d="M1761 470q45 -32 74.5 -46.5t53.5 -14.5q14 0 29.5 5.5t28.5 17.5t21 27.5t8 35.5v234q0 42 -15 78.5t-38 54.5q-22 17 -57.5 23.5t-76.5 6t-83 -8t-78 -17.5v376q73 13 163.5 23t173.5 10q110 0 195 -22.5t147.5 -61t105 -90.5t68.5 -110.5t37.5 -121t11.5 -121.5v-116
q0 -156 -31 -278t-96.5 -207t-170 -129t-253.5 -44q-86 0 -150 11.5t-115 32t-95.5 50t-89.5 63.5l-187 143l-182 -143q-46 -36 -90.5 -65.5t-97.5 -49.5t-117.5 -31t-148.5 -11q-150 0 -255.5 41t-172 121t-97 199.5t-30.5 275.5v408q0 245 91 425.5t261 299t414.5 175
t550.5 54.5q184 -3 329.5 -9.5t273 -18t248.5 -26t258 -31.5v-394q-134 16 -273 30.5t-276 25t-268.5 16.5t-250.5 6q-98 0 -193.5 -8.5t-181 -32t-157.5 -63.5t-124.5 -102.5t-83 -151t-30.5 -206.5v-513q0 -39 22.5 -62.5t52.5 -23.5q25 0 54 15t73 46l286 200h250z" />
    <glyph glyph-name="ninethai" unicode="&#xe59;" horiz-adv-x="2770" 
d="M2079 997l525 -997h-551l-685 1293q-35 65 -73.5 108.5t-80.5 70t-88 38t-97 12.5q-91 0 -153.5 -41.5t-102.5 -114.5t-57.5 -172t-17.5 -212q0 -144 26 -255t71.5 -185t108 -112.5t135.5 -39.5q58 -1 108 9.5t99.5 36.5t106 66.5t128.5 97.5l192 -339
q-101 -96 -187.5 -152.5t-165 -87t-150 -41t-141.5 -13.5h3h-45q-95 0 -197.5 22.5t-200 72t-184.5 128t-153 192t-104 261.5t-38 339q0 222 44.5 398.5t152 300t286 190t443.5 69.5q123 1 224 -14t183.5 -52t149 -101t120.5 -159q-6 82 17.5 143.5t64.5 102t94.5 60.5
t106.5 20h103v359h550v-581q0 -71 -12.5 -108.5t-34 -55.5t-51 -20.5t-61.5 -2.5h-316q-31 0 -49.5 -7.5t-28.5 -22t-13.5 -35.5t-3.5 -46v-423z" />
    <glyph glyph-name="angkhankhuthai" unicode="&#xe5a;" horiz-adv-x="3201" 
d="M2333 2213h628v-2213h-628v2213zM1103 1781h-77q-71 0 -120 -25t-80.5 -65.5t-46 -89t-14.5 -94.5q0 -52 15 -104t47 -94.5t81 -71.5t117 -34q87 -10 178.5 2.5t193.5 47.5v960h628v-2213h-628v953l-196 -145q-71 -17 -153 -24t-164 -2q-168 12 -304 62.5t-231.5 140
t-147 220t-51.5 302.5q0 131 49 258t149.5 226.5t254 160.5t361.5 61h139v-432z" />
    <glyph glyph-name="khomutthai" unicode="&#xe5b;" horiz-adv-x="4322" 
d="M2642 663q-35 110 -65.5 187.5t-51.5 129.5t-35.5 79.5t-18.5 37.5q-35 -140 -92.5 -276.5t-136 -257.5t-177.5 -224.5t-218 -178t-257 -117t-294 -42.5q-264 7 -466 92.5t-339 233t-207 348.5t-70 442q0 258 64 459t184 338.5t290.5 210t383.5 72.5q153 0 270 -31.5
t204.5 -85.5t146.5 -125t95 -150.5t52 -162.5t16 -161v-114l-309 -504h-210v684q0 39 -15.5 82t-47.5 79t-81 58.5t-115 22.5q-86 1 -155 -39.5t-118.5 -125t-76.5 -213.5t-27 -305q0 -134 21.5 -237.5t59.5 -180t89.5 -129t111.5 -86t125.5 -49t132.5 -18.5
q139 0 250.5 38.5t200.5 109.5t154 170.5t108 222t65.5 263.5t26.5 297l380 209q41 -59 82 -126t77 -135.5t65.5 -135t49.5 -124.5l165 379l223 1q19 -32 44.5 -77t51.5 -94t51 -98t46 -88q26 65 51 118t48 80q17 21 37.5 32t45 15.5t51 5.5t54.5 1h540v-155l-308 -224h-250
q-23 0 -44.5 -30t-41 -78.5t-37.5 -112.5t-35 -132l-217 -61q-55 155 -107.5 274t-87.5 185q-14 -41 -33 -94t-40.5 -112t-44.5 -117.5t-46 -110.5z" />
    <glyph glyph-name="ZWSP" unicode="&#x200b;" 
 />
    <glyph glyph-name="endash" unicode="&#x2013;" horiz-adv-x="1939" 
d="M1729 1362v-398h-1518v398h1518z" />
    <glyph glyph-name="emdash" unicode="&#x2014;" horiz-adv-x="3780" 
d="M3570 1362v-398h-3359v398h3359z" />
    <glyph glyph-name="quoteleft" unicode="&#x2018;" horiz-adv-x="1077" 
d="M846 2764l-114 -948h-539l332 948h321z" />
    <glyph glyph-name="quoteright" unicode="&#x2019;" horiz-adv-x="1077" 
d="M232 1816l114 948h539l-332 -948h-321z" />
    <glyph glyph-name="quotedblleft" unicode="&#x201c;" horiz-adv-x="1785" 
d="M846 2764l-114 -948h-539l332 948h321zM1555 2764l-115 -948h-539l332 948h322z" />
    <glyph glyph-name="quotedblright" unicode="&#x201d;" horiz-adv-x="1785" 
d="M940 1816l115 948h539l-332 -948h-322zM232 1816l114 948h539l-332 -948h-321z" />
    <glyph glyph-name="bullet" unicode="&#x2022;" horiz-adv-x="2239" 
d="M405 1164q0 149 56.5 279.5t153.5 227.5t228 153.5t280 56.5q148 0 279 -56.5t227.5 -153.5t153.5 -228t57 -279t-57 -279t-153.5 -228t-228 -154t-278.5 -57q-149 0 -280 57t-228 154t-153.5 228t-56.5 279z" />
    <glyph glyph-name="ellipsis" unicode="&#x2026;" horiz-adv-x="3781" 
d="M352 272q0 65 24.5 121.5t66.5 98.5t98.5 66.5t121.5 24.5q64 0 121 -24.5t98.5 -66.5t66.5 -99t25 -121q0 -65 -25 -121.5t-66.5 -98.5t-99 -66.5t-120.5 -24.5q-65 0 -121.5 24.5t-98.5 66.5t-66.5 98.5t-24.5 121.5zM2809 272q0 65 24.5 121.5t66.5 98.5t98 66.5
t121 24.5q64 0 121.5 -24.5t99 -66.5t66.5 -99t25 -121q0 -65 -25 -121.5t-66.5 -98.5t-99 -66.5t-121.5 -24.5q-65 0 -121 24.5t-98 66.5t-66.5 98.5t-24.5 121.5zM1579 273q0 65 24.5 122t66.5 98.5t99 66.5t122 25q64 0 121 -25t98.5 -66.5t66 -98.5t24.5 -122
t-24.5 -121.5t-66 -98t-99 -66.5t-120.5 -25q-65 0 -122 25t-99 66.5t-66.5 98t-24.5 121.5z" />
    <glyph glyph-name="Euro" unicode="&#x20ac;" horiz-adv-x="2638" 
d="M622 1918q45 224 136.5 391.5t234.5 278t338.5 165t449.5 54.5q126 0 227.5 -13t185.5 -34.5t154 -47.5t131 -52v-482q-101 39 -190 64.5t-170.5 40t-159 20t-153.5 5.5q-110 0 -196 -21.5t-150 -68t-109.5 -120.5t-73.5 -180h844v-400h-893l-2 -68t-1 -69v-72h896v-400
h-855q27 -121 72 -207.5t111.5 -141.5t155 -81t201.5 -26q65 0 134 5t149 19.5t175 40t215 67.5v-481q-61 -26 -130.5 -53.5t-153 -50t-186 -37.5t-228.5 -15q-263 0 -463.5 60t-344 180.5t-233 300t-129.5 420.5h-451v273l416 123v76v69t2 68h-418v273l429 127h33z" />
    <glyph glyph-name="uni25CC" unicode="&#x25cc;" horiz-adv-x="2585" 
d="M997 691l-182 -59l65 183q49 -73 117 -124zM1201 1592l89 172l85 -166q-40 3 -80 3q-45 0 -94 -9zM1370 603l-80 -163l-78 163q38 -10 83 -10q40 0 75 10zM1794 1181l159 -84l-159 -74q6 35 6 74q0 45 -6 84zM802 1019l-174 89l174 83q-7 -44 -7 -94q0 -39 7 -78z
M889 1399l-49 177l175 -59q-77 -48 -126 -118zM1695 790l50 -158l-159 49q65 45 109 109zM1582 1517l188 59l-64 -183q-50 71 -124 124z" />
    </font>
</defs>
</svg>
